/* XPM */
static char *door_16_xpm[] = {
/* width height num_colors chars_per_pixel */
"    64    64      256            2",
/* colors */
"`` c #0c0a0c",
"`. c #5c5a5c",
"`# c #fc02d4",
"`a c #4c2a1c",
"`b c #2c2a2c",
"`c c #b45a24",
"`d c #4c4a4c",
"`e c #2c1a14",
"`f c #848684",
"`g c #6c361c",
"`h c #1c1a1c",
"`i c #dc6a34",
"`j c #747274",
"`k c #3c3a3c",
"`l c #744224",
"`m c #3c2214",
"`n c #4c3a34",
"`o c #944a24",
"`p c #1c120c",
"`q c #9c9e9c",
"`r c #a44e24",
"`s c #3c2a1c",
"`t c #cc6634",
"`u c #2c221c",
"`v c #7c3e1c",
"`w c #945a34",
"`x c #5c321c",
"`y c #7c4a2c",
"`z c #6c3e24",
"`A c #242224",
"`B c #646664",
"`C c #4c3224",
"`D c #b46234",
"`E c #a45624",
"`F c #141214",
"`G c #4c4e4c",
"`H c #949294",
"`I c #241a14",
"`J c #f47a34",
"`K c #7c7e7c",
"`L c #7c421c",
"`M c #24160c",
"`N c #acaaac",
"`O c #442a1c",
"`P c #342214",
"`Q c #343234",
"`R c #341e14",
"`S c #444244",
"`T c #442614",
"`U c #5c361c",
"`V c #9c522c",
"`W c #ac5224",
"`X c #743e1c",
"`Y c #c4622c",
"`Z c #140e0c",
"`0 c #646264",
"`1 c #4c2e1c",
"`2 c #2c1e14",
"`3 c #8c8e8c",
"`4 c #743a1c",
"`5 c #e47234",
"`6 c #7c7a7c",
"`7 c #74462c",
"`8 c #9c4a24",
".` c #1c160c",
".. c #a4a6a4",
".# c #a45224",
".a c #3c2e24",
".b c #d46a2c",
".c c #2c2624",
".d c #844a24",
".e c #6c6e6c",
".f c #54321c",
".g c #bc6234",
".h c #545654",
".i c #241e14",
".j c #0c0e0c",
".k c #5c5e5c",
".l c #2c2e2c",
".m c #b45a2c",
".n c #5c4234",
".o c #8c8a8c",
".p c #6c3a1c",
".q c #1c1e1c",
".r c #e46e2c",
".s c #747674",
".t c #3c3e3c",
".u c #74422c",
".v c #3c261c",
".w c #543624",
".x c #a4a2a4",
".y c #3c2a24",
".z c #2c2224",
".A c #7c3e24",
".B c #945a3c",
".C c #64321c",
".D c #6c3e2c",
".E c #242624",
".F c #6c6a6c",
".G c #a45634",
".H c #141614",
".I c #545254",
".J c #9c9a9c",
".K c #fc8244",
".L c #848284",
".M c #7c4224",
".N c #241614",
".O c #acaeac",
".P c #442e24",
".Q c #34261c",
".R c #343634",
".S c #444644",
".T c #44261c",
".U c #5c3624",
".V c #743e24",
".W c #4c2e24",
".X c #2c1e1c",
".Y c #9c4e24",
".Z c #1c1614",
".0 c #a4522c",
".1 c #d46a34",
".2 c #844e34",
".3 c #543224",
".4 c #bc6634",
".5 c #241e1c",
".6 c #000000",
".7 c #000000",
".8 c #000000",
"#` c #000000",
"#. c #000000",
"## c #000000",
"#a c #000000",
"#b c #000000",
"#c c #000000",
"#d c #000000",
"#e c #000000",
"#f c #000000",
"#g c #000000",
"#h c #000000",
"#i c #000000",
"#j c #000000",
"#k c #000000",
"#l c #000000",
"#m c #000000",
"#n c #000000",
"#o c #000000",
"#p c #000000",
"#q c #000000",
"#r c #000000",
"#s c #000000",
"#t c #000000",
"#u c #000000",
"#v c #000000",
"#w c #000000",
"#x c #000000",
"#y c #000000",
"#z c #000000",
"#A c #000000",
"#B c #000000",
"#C c #000000",
"#D c #000000",
"#E c #000000",
"#F c #000000",
"#G c #000000",
"#H c #000000",
"#I c #000000",
"#J c #000000",
"#K c #000000",
"#L c #000000",
"#M c #000000",
"#N c #000000",
"#O c #000000",
"#P c #000000",
"#Q c #000000",
"#R c #000000",
"#S c #000000",
"#T c #000000",
"#U c #000000",
"#V c #000000",
"#W c #000000",
"#X c #000000",
"#Y c #000000",
"#Z c #000000",
"#0 c #000000",
"#1 c #000000",
"#2 c #000000",
"#3 c #000000",
"#4 c #000000",
"#5 c #000000",
"#6 c #000000",
"#7 c #000000",
"#8 c #000000",
"a` c #000000",
"a. c #000000",
"a# c #000000",
"aa c #000000",
"ab c #000000",
"ac c #000000",
"ad c #000000",
"ae c #000000",
"af c #000000",
"ag c #000000",
"ah c #000000",
"ai c #000000",
"aj c #000000",
"ak c #000000",
"al c #000000",
"am c #000000",
"an c #000000",
"ao c #000000",
"ap c #000000",
"aq c #000000",
"ar c #000000",
"as c #000000",
"at c #000000",
"au c #000000",
"av c #000000",
"aw c #000000",
"ax c #000000",
"ay c #000000",
"az c #000000",
"aA c #000000",
"aB c #000000",
"aC c #000000",
"aD c #000000",
"aE c #000000",
"aF c #000000",
"aG c #000000",
"aH c #000000",
"aI c #000000",
"aJ c #000000",
"aK c #000000",
"aL c #000000",
"aM c #000000",
"aN c #000000",
"aO c #000000",
"aP c #000000",
"aQ c #000000",
"aR c #000000",
"aS c #000000",
"aT c #000000",
"aU c #000000",
"aV c #000000",
"aW c #000000",
"aX c #000000",
"aY c #000000",
"aZ c #000000",
"a0 c #000000",
"a1 c #000000",
"a2 c #000000",
"a3 c #000000",
"a4 c #000000",
"a5 c #000000",
"a6 c #000000",
"a7 c #000000",
"a8 c #000000",
/* pixels */
"`j.e.e.F`0.k`..I`G.S`b`k`k`k.l.R`#`#`#`#`#`#`#`#`#`#`#`#`#`#`#`#`#`#`#`#`#`#`#`#`#`#`#`#`#`#`#`#.l`k`k`k.R.l`S`d`G`.`0`B.e.e.e.e",
"`q...x`H`K.s.F`0`.`..S`d.S.h`G`0`#`#`#`#`#`#`#`#`#`#`#`#`#`#`#`#`#`#`#`#`#`#`#`#`#`#`#`#`#`#`#`#.I.I`G.S`d`S.I`..k`B`j.s`6`6`6.s",
"`h.q`A.q.5.q.q.q`h`h.H`A.q.5.q.c`#`#`#`#`#`#`#`#`#`#`#`#`#`#`#`#`#`#`#`#`#`#`#`#`#`#`#`#`#`#`#`#`A`A.q.5.q.H.H.q.q.5.q.q.5.q`h.H",
".I`G`G.S.t`k`b.E`b.l.H.t.t.E.q`Q`#`#`#`#`#`#`#`#`#`#`#`#`#`#`#`#`#`#`#`#`#`#`#`#`#`#`#`#`#`#`#`#`A`b.E.t`Q.H.l`b`b.R.S`G`d`d`G`d",
".k`.`.`G`S.t.R`Q`Q.R.q`.`0.R`A.R`#`#`#`#`#`#`#`#`#`#`#`#`#`#`#`#`#`#`#`#`#`#`#`#`#`#`#`#`#`#`#`#`A.l`k.k`S.E.R.R.R`d.e`6`j`j`K.L",
"`h.H`h.H`h.Z.H.H.H.j`h.h`B`k`A.R`#`#`#`#`#`#`#`#`#`#`#`#`#`#`#`#`#`#`#`#`#`#`#`#`#`#`#`#`#`#`#`#.E`Q`S.k.t`h``.H.Z`h.q`h.H.q`h`h",
"`b.E`b.E`b.E`b`A`h.H.Z.h.F`k.E.R`#`#`#`#`#`#`#`#`#`#`#`#`#`#`#`#`#`#`#`#`#`#`#`#`#`#`#`#`#`#`#`#.E`Q`S`B.t`h`F.q`A.E`b.E`b.E.E`b",
"`G`d.S`k.R`b.E.q`h`F`h`B.e`k`A.R`#`#`#`#`#`#`#`#`#`#`#`#`#`#`#`#`#`#`#`#`#`#`#`#`#`#`#`#`#`#`#`#.i`Q`S`B`S`h.j`h`A`b.l`k.t`d`G`G",
"`3.o.o`B.k.I.S`k.E.H`h.e`j.R.E.R`#`#`#`#`#`#`#`#`#`#`#`#`#`#`#`#`#`#`#`#`#`#`#`#`#`#`#`#`#`#`#`#.E`Q.t.F`S.q.H`Q.t.S.I.k`B`f`q.x",
".t.t`k.E.l`Q.l`b`A`F.q.F`j.R`A`k`#`#`#`#`#`#`#`#`#`#`#`#`#`#`#`#`#`#`#`#`#`#`#`#`#`#`#`#`#`#`#`#.E.a.t`B.S`h.j`A.l.l`Q`b`b.t.h`.",
"`..I.t.c.R`Q`Q`b.q.H`h`B.e.R`A.R`#`#`#`#`#`#`#`#`#`#`#`#`#`#`#`#`#`#`#`#`#`#`#`#`#`#`#`#`#`#`#`#.E.l.t`B`S`h`F.E.l`Q`Q.l.l`S`0.k",
".o`K.h.R`G`d.S.t.l`h`h.k.F`Q.E.R`#`#`#`#`#`#`#`#`#`#`#`#`#`#`#`#`#`#`#`#`#`#`#`#`#`#`#`#`#`#`#`#.E`Q.R`0.t.q.H.R.S`d`d`S.t.k.o.L",
"`k.R`Q`A.l`Q.l`b.q.H`h.k`B`Q`A.R`#`#`#`#`#`#`#`#`#`#`#`#`#`#`#`#`#`#`#`#`#`#`#`#`#`#`#`#`#`#`#`#.i`Q.R`0`S`h`F`A.l.l.l`b.E.R`G.S",
".h`G`k`A`b`b.l.E.q`F.q.t.t`A`h.l`#`#`#`#`#`#`#`#`#`#`#`#`#`#`#`#`#`#`#`#`#`#`#`#`#`#`#`#`#`#`#`#.q`A.E`S`Q.q`F.q`b`b`b.E.c`S.k.h",
"`H.s`..R.t`S.t`k.c.H`h`b`A.H.j.5`#`#`#`#`#`#`#`#`#`#`#`#`#`#`#`#`#`#`#`#`#`#`#`#`#`#`#`#`#`#`#`#`Z.H`h.E.E.q.H.l`k.t`S`k.t`B.o`6",
"`k`Q.l.E`b.E`b`A`h.H.E`..k`k.E`Q`#`#`#`#`#`#`#`#`#`#`#`#`#`#`#`#`#`#`#`#`#`#`#`#`#`#`#`#`#`#`#`#.i.l.R.I.t`A`F.q`b`b`b.E.l.R`S`S",
".s`B`0.k.h.I.S.R.E.H`h.t`Q.q`h.R`#`#`#`#`#`#`#`#`#`#`#`#`#`#`#`#`#`#`#`#`#`#`#`#`#`#`#`#`#`#`#`#.E.q.q`k.l`h.H`b.t`G.k.k.k`0.s`6",
"`3`6`j.k.h`d`S`Q.q.H.q.R`b`h`h`Q`#`#`#`#`#`#`#`#`#`#`#`#`#`#`#`#`#`#`#`#`#`#`#`#`#`#`#`#`#`#`#`#.i.q`h.R.l.q`F.E`k`d.h.k`.`.`0.e",
".c.E.E.E.E.E.E.q`h.q.5`G.S.l`A.l`#`#`#`#`#`#`#`#`#`#`#`#`#`#`#`#`#`#`#`#`#`#`#`#`#`#`#`#`#`#`#`#`A`Q`Q`G`S.q.Z`h`A.E.E.c.E.E.E`b",
".l`b`b`b`b.c.E.q`h`h.q.h.h`Q.E`Q`#`#`#`#`#`#`#`#`#`#`#`#`#`#`#`#`#`#`#`#`#`#`#`#`#`#`#`#`#`#`#`#.i.l.R`.`S`h.H.q`A`b`b.E`b.E`b.l",
".k.S.S`k.R.R`Q.q`Q.E.q`.`0`Q`A.l`#`#`#`#`#`#`#`#`#`#`#`#`#`#`#`#`#`#`#`#`#`#`#`#`#`#`#`#`#`#`#`#.E`Q.R`..t.q.l`A`b.t`G.I`..k`B`6",
".5.H`h.H.Z`A.q`h.S`Q`A.k.F`Q`A`Q`#`#`#`#`#`#`#`#`#`#`#`#`#`#`#`#`#`#`#`#`#`#`#`#`#`#`#`#`#`#`#`#.i`Q.R`0`S`b.t.l`A`A.q.q.q`A.E`Q",
".q.q.q`A`h.E`b`A.e.S.q`0`B`Q`A.l`#`#`#`#`#`#`#`#`#`#`#`#`#`#`#`#`#`#`#`#`#`#`#`#`#`#`#`#`#`#`#`#`A.l`k.k`S.E`0`d.E.l`A`h.q.q.q.q",
"`h`h`h.q.H.R.S`Q.o.I`h.k`B.R`A.l`#`#`#`#`#`#`#`#`#`#`#`#`#`#`#`#`#`#`#`#`#`#`#`#`#`#`#`#`#`#`#`#.i`Q`k.k.t`b`6.k.t`d.q.H.q.Z`h`h",
".H.H.H`h`h.I.s.t.O.k`h`0`B`Q`A`Q`#`#`#`#`#`#`#`#`#`#`#`#`#`#`#`#`#`#`#`#`#`#`#`#`#`#`#`#`#`#`#`#.E.l.t`0.t.E`3.F.I.L`b`h.q`F.H.H",
".t`..R.I.l.e`K.t`N`.`h`B.k`Q`A.l`#`#`#`#`#`#`#`#`#`#`#`#`#`#`#`#`#`#`#`#`#`#`#`#`#`#`#`#`#`#`#`#.i`Q`k.k.t`b.o`B.h.x.t`S.t.l.h`Q",
".k.L.I.s`k.e`B`Q.J`G`h.e`B`Q.E.l`#`#`#`#`#`#`#`#`#`#`#`#`#`#`#`#`#`#`#`#`#`#`#`#`#`#`#`#`#`#`#`#`A.l`k`0.t`b`K`B.t`K.I`.`B`S`K.S",
".l.t.q.t.E`j`.`Q`6.S.q.F.F`Q`A`Q`#`#`#`#`#`#`#`#`#`#`#`#`#`#`#`#`#`#`#`#`#`#`#`#`#`#`#`#`#`#`#`#.i`Q.R`0.t`b.k.I.t.k.t.l`k.q.S.5",
"`F.Z```A.H`d`k`Q`0.R`h.e`0`Q`A.l`#`#`#`#`#`#`#`#`#`#`#`#`#`#`#`#`#`#`#`#`#`#`#`#`#`#`#`#`#`#`#`#.E`Q`k.k.t`A`G`G`k`S`b.H.q``.Z.j",
".H.E.H`b`h.R.E.l.I`Q.H.F.k.R`A.l`#`#`#`#`#`#`#`#`#`#`#`#`#`#`#`#`#`#`#`#`#`#`#`#`#`#`#`#`#`#`#`#.i.l.t`0.t`A.S`d`b.l`b.q`b.H`A`F",
".H`h.j`h.q.l.c.E.t.E.Z.e`0`Q.E.l`#`#`#`#`#`#`#`#`#`#`#`#`#`#`#`#`#`#`#`#`#`#`#`#`#`#`#`#`#`#`#`#.E`Q.R.k.t.Z`Q.R.l`b.E.q`h.j`h.j",
"`F`h`h.H`h`A.q.q`k`h.H`B.k`Q`A.l`#`#`#`#`#`#`#`#`#`#`#`#`#`#`#`#`#`#`#`#`#`#`#`#`#`#`#`#`#`#`#`#.i.l.t`0`k.j.l.E.E.5.q`h.H`h.H.H",
"`h`h.H.q`h.H.5.q.l.H`F.k.k`Q.E.l`#`#`#`#`#`#`#`#`#`#`#`#`#`#`#`#`#`#`#`#`#`#`#`#`#`#`#`#`#`#`#`#`A`Q`k.k`k.j.c`A.E.q`h`h`h`h`h.q",
"`Q.l`b.E`b.l`Q`h`b.H.H`0.k`Q`A`Q`#`#`#`#`#`#`#`#`#`#`#`#`#`#`#`#`#`#`#`#`#`#`#`#`#`#`#`#`#`#`#`#.i.l`k`0.t.H.q.q`b`Q.E.l.l.l`Q.R",
"`K`0.I`G`S.S`d.l.l`A`h`0.k`Q`A.l`#`#`#`#`#`#`#`#`#`#`#`#`#`#`#`#`#`#`#`#`#`#`#`#`#`#`#`#`#`#`#`#.E`Q`k.k.t.Z`b.q`S.t.t`S`S.I.k`j",
"`k.l.E.E`A`b.l.E`h`b.H`.`..R`A.l`#`#`#`#`#`#`#`#`#`#`#`#`#`#`#`#`#`#`#`#`#`#`#`#`#`#`#`#`#`#`#`#.i.l`k.k`S.q`A.H.l.l.c.E`A.E.R.t",
".R`Q`b.E`b.l.l.l`A.q.H`.`.`Q`A.l`#`#`#`#`#`#`#`#`#`#`#`#`#`#`#`#`#`#`#`#`#`#`#`#`#`#`#`#`#`#`#`#.E`Q`k.k.t.j`A.l`Q`Q.l.l.l.l`Q.t",
"`j`B.h`G.S.S`d.t`Q.E`F`..h.R`A.l`#`#`#`#`#`#`#`#`#`#`#`#`#`#`#`#`#`#`#`#`#`#`#`#`#`#`#`#`#`#`#`#.i.l.t`0.t.H.c.l.R.R`k.R`k.t`G.k",
".R`Q.c.q.5.q.q`h`F.H.j.h.h`Q.E.l`#`#`#`#`#`#`#`#`#`#`#`#`#`#`#`#`#`#`#`#`#`#`#`#`#`#`#`#`#`#`#`#.E`Q`k.k`k``.H.H.q`h`h.q`A.c`Q.t",
"`H`0.S.R.R.R`Q`Q`A.q`F.I.I`Q`A.l`#`#`#`#`#`#`#`#`#`#`#`#`#`#`#`#`#`#`#`#`#`#`#`#`#`#`#`#`#`#`#`#.i.l`k`.`k`F.q`b`Q`Q.R`Q`k.h`B`6",
"`B`d.t.E`b`A`A.q`h`h.j.l.l`A.q`Q`#`#`#`#`#`#`#`#`#`#`#`#`#`#`#`#`#`#`#`#`#`#`#`#`#`#`#`#`#`#`#`#`A`A.E`Q.q``.q`h.q.E.E`A.l`S`G`.",
"`f`0.I.R`d`S.t.R`b`A.j`S.S.l`A.l`#`#`#`#`#`#`#`#`#`#`#`#`#`#`#`#`#`#`#`#`#`#`#`#`#`#`#`#`#`#`#`#.i.l`Q`G.R`F`A.l`k.t.S.t`S`..e`K",
".h.t`k.E`Q.l.l.l.q.q`F.I.h`Q`A`Q`#`#`#`#`#`#`#`#`#`#`#`#`#`#`#`#`#`#`#`#`#`#`#`#`#`#`#`#`#`#`#`#.E`Q.R.k.t.j.q.E.l`Q`Q`b.l.t`G.I",
".I.t`Q`h.E`A.q.q.Z.H``.l.l`h.q.l`#`#`#`#`#`#`#`#`#`#`#`#`#`#`#`#`#`#`#`#`#`#`#`#`#`#`#`#`#`#`#`#.i.q`A`Q`A``.H.Z.q.q`A.q`A.t.I.h",
"`j`.`G.R.t.t.t`k`b.E`F.R.R`A.q`Q`#`#`#`#`#`#`#`#`#`#`#`#`#`#`#`#`#`#`#`#`#`#`#`#`#`#`#`#`#`#`#`#.E.c.E`k.l`F.E.l`k.t`S.R.t`0`6`K",
".l.E`b`h`A.E`A.q.Z.H`F.k.h`Q`A`b`#`#`#`#`#`#`#`#`#`#`#`#`#`#`#`#`#`#`#`#`#`#`#`#`#`#`#`#`#`#`#`#.i.l`k.k.t``.H`h`A.E.E`h.5`b.R`k",
".L`0`G`S.R`Q`b`Q.q`A`F.k`.`Q`A`b`#`#`#`#`#`#`#`#`#`#`#`#`#`#`#`#`#`#`#`#`#`#`#`#`#`#`#`#`#`#`#`#`A.l.t`0`k`F.q.E`Q`Q`Q.R.t`d.k.k",
".s.F.k.h`G.S.t.t.E`b`F`..h.R.q`b`#`#`#`#`#`#`#`#`#`#`#`#`#`#`#`#`#`#`#`#`#`#`#`#`#`#`#`#`#`#`#`#.i.l`k.k.t.H.c.l`S`G`..k`0.k`B`0",
".l`Q.l`Q.l`Q.l`b.q.q`F.k`.`Q`A`b`#`#`#`#`#`#`#`#`#`#`#`#`#`#`#`#`#`#`#`#`#`#`#`#`#`#`#`#`#`#`#`#`A.l`k`B.t`F.q`A.l.l`Q`Q.l`Q.l`Q",
"`b`b.E.c.E.c.E.E`h`h`F.h`..R.q.l`#`#`#`#`#`#`#`#`#`#`#`#`#`#`#`#`#`#`#`#`#`#`#`#`#`#`#`#`#`#`#`#.i.l.t`B`S`F.H.q`b.E.E.E`b.E.c`b",
"`b.E.E`A`A`A.E`A.q.q.H`G.k`Q`A`b`#`#`#`#`#`#`#`#`#`#`#`#`#`#`#`#`#`#`#`#`#`#`#`#`#`#`#`#`#`#`#`#.q`Q`S`B`Q.H`h.q`A`A.E`A`A`A.E.E",
".k.k.h`.`G`S.t.R`b`A.H`.`.`Q`A.l`#`#`#`#`#`#`#`#`#`#`#`#`#`#`#`#`#`#`#`#`#`#`#`#`#`#`#`#`#`#`#`#.i.l`S`B.t.Z.E.l.R`k`k.S.h.h`0`0",
".h`..h.h`G`d.S.t`b.E`h.h.h`Q.q`b`#`#`#`#`#`#`#`#`#`#`#`#`#`#`#`#`#`#`#`#`#`#`#`#`#`#`#`#`#`#`#`#.i.l.R`B.t`h.E`k.S`d`G`.`j`j.s`K",
"`b.l.l`b.l`b`b.E.q.q.Z.h`G`Q.E.E`#`#`#`#`#`#`#`#`#`#`#`#`#`#`#`#`#`#`#`#`#`#`#`#`#`#`#`#`#`#`#`#.q`Q.R`.`k`h`h`A.l.l`Q`Q.l.R`Q.l",
".l.l.l`Q`Q`Q.l`Q.E`b.H`G`G`Q.q.E`#`#`#`#`#`#`#`#`#`#`#`#`#`#`#`#`#`#`#`#`#`#`#`#`#`#`#`#`#`#`#`#`h`Q.R.h`Q.q`A`b.R`Q.l.R.l.l.l`b",
"`A.5.q`A`A.E.E.E`A.q`h`b.l`A`h`F`#`#`#`#`#`#`#`#`#`#`#`#`#`#`#`#`#`#`#`#`#`#`#`#`#`#`#`#`#`#`#`#`Z.E.E.l`A`h.q.E`A.E`A`A.E.q`A`A",
".R.E.E.t.k.k.I`k.l`A.R`d.I.S`k`h`#`#`#`#`#`#`#`#`#`#`#`#`#`#`#`#`#`#`#`#`#`#`#`#`#`#`#`#`#`#`#`#.i`k`d`G.t`b.E`Q`S`G.I`d.l`A.l`k",
"`k`b.E`S`.`.`G.t`Q`A.R`d.I`G.t`A`#`#`#`#`#`#`#`#`#`#`#`#`#`#`#`#`#`#`#`#`#`#`#`#`#`#`#`#`#`#`#`#.c.S`0`0`d.l`A.R`d.k.h`G.R`A`Q.t",
".E`A.q`A.E`b`b.c`A.H.q.E.E.E`A`F`#`#`#`#`#`#`#`#`#`#`#`#`#`#`#`#`#`#`#`#`#`#`#`#`#`#`#`#`#`#`#`#.H`A`b.l`A`h.H.E.c`b.E`A.q`h`A`A",
"`s.3.P.Z.Z`O.D`s`p.P.W.P`h.Z.5`I`#`#`#`#`#`#`#`#`#`#`#`#`#`#`#`#`#`#`#`#`#`#`#`#`#`#`#`#`#`#`#`#`2.i.H.c`1.P`2.`.W.f`I`Z`I.P.P`I",
"`t.g`x.y.G`J.4.3.V.r`i`y.z.n.B.V`#`#`#`#`#`#`#`#`#`#`#`#`#`#`#`#`#`#`#`#`#`#`#`#`#`#`#`#`#`#`#`#.d.B`n.Q`D.r`c`1.p`t.1`7.T`V.K`5",
".Y`x`2.U`o`o`T`m`v`r.V`R.a`o`V`U`#`#`#`#`#`#`#`#`#`#`#`#`#`#`#`#`#`#`#`#`#`#`#`#`#`#`#`#`#`#`#`#`L`E`l.c`1.#`W`g`P`z.m`V.W`T.Y`Y",
".C`e.5.p`X.T.`.T`v.C`R.5.W.V`z.v`#`#`#`#`#`#`#`#`#`#`#`#`#`#`#`#`#`#`#`#`#`#`#`#`#`#`#`#`#`#`#`#`1.M`z`P`I`T`X`4`e.N`x`L.f`h`m`v",
".N.j.Z`R.N`Z`Z`I`P`M`Z.H`I`P`2.Z`#`#`#`#`#`#`#`#`#`#`#`#`#`#`#`#`#`#`#`#`#`#`#`#`#`#`#`#`#`#`#`#`I`2`R`I`F`Z`2`R.Z.j`p`e`2`F`Z`2"
};
