/* XPM */
static char *door_10_xpm[] = {
/* width height num_colors chars_per_pixel */
"    64    64      256            2",
/* colors */
"`` c #0c0a0c",
"`. c #5c5a5c",
"`# c #fc02d4",
"`a c #4c2a1c",
"`b c #2c2a2c",
"`c c #b45a24",
"`d c #4c4a4c",
"`e c #2c1a14",
"`f c #6c361c",
"`g c #848684",
"`h c #f47a34",
"`i c #1c1a1c",
"`j c #d46a2c",
"`k c #4c3a34",
"`l c #744224",
"`m c #3c2214",
"`n c #747274",
"`o c #8c4624",
"`p c #3c3a3c",
"`q c #a44e24",
"`r c #1c120c",
"`s c #bc6634",
"`t c #2c221c",
"`u c #7c3e1c",
"`v c #9c9e9c",
"`w c #5c321c",
"`x c #3c2a1c",
"`y c #7c4a2c",
"`z c #945a34",
"`A c #6c3e24",
"`B c #242224",
"`C c #646664",
"`D c #4c3224",
"`E c #c4622c",
"`F c #e46e2c",
"`G c #844224",
"`H c #944e24",
"`I c #a45624",
"`J c #342214",
"`K c #141214",
"`L c #4c4e4c",
"`M c #949294",
"`N c #241a14",
"`O c #5c361c",
"`P c #7c421c",
"`Q c #7c7e7c",
"`R c #24160c",
"`S c #acaaac",
"`T c #442a1c",
"`U c #343234",
"`V c #b46234",
"`W c #341e14",
"`X c #743a1c",
"`Y c #fc8e3c",
"`Z c #dc6a2c",
"`0 c #442614",
"`1 c #444244",
"`2 c #ac5224",
"`3 c #cc662c",
"`4 c #743e1c",
"`5 c #140e0c",
"`6 c #646264",
"`7 c #4c2e1c",
"`8 c #2c1e14",
".` c #6c3a1c",
".. c #8c8e8c",
".# c #fc8244",
".a c #74462c",
".b c #7c7a7c",
".c c #9c4a24",
".d c #a45224",
".e c #1c160c",
".f c #2c2624",
".g c #a4a6a4",
".h c #64321c",
".i c #3c2e24",
".j c #844a24",
".k c #6c6e6c",
".l c #54321c",
".m c #9c4e24",
".n c #34261c",
".o c #545654",
".p c #241e14",
".q c #5c3a1c",
".r c #cc6a34",
".s c #0c0e0c",
".t c #5c5e5c",
".u c #2c2e2c",
".v c #b45a2c",
".w c #5c4234",
".x c #8c8a8c",
".y c #f47a3c",
".z c #1c1e1c",
".A c #d46a34",
".B c #543624",
".C c #74422c",
".D c #3c261c",
".E c #747674",
".F c #944a24",
".G c #3c3e3c",
".H c #2c2224",
".I c #7c3e24",
".J c #a4a2a4",
".K c #5c3224",
".L c #3c2a24",
".M c #945a3c",
".N c #6c3e2c",
".O c #242624",
".P c #6c6a6c",
".Q c #cc622c",
".R c #e47234",
".S c #a45634",
".T c #34221c",
".U c #141614",
".V c #545254",
".W c #9c9a9c",
".X c #5c3624",
".Y c #7c4224",
".Z c #848284",
".0 c #241614",
".1 c #acaeac",
".2 c #442e24",
".3 c #343634",
".4 c #bc6234",
".5 c #dc6a34",
".6 c #44261c",
".7 c #444644",
".8 c #cc6634",
"#` c #743e24",
"#. c #844e34",
"## c #9c522c",
"#a c #4c2e24",
"#b c #2c1e1c",
"#c c #6c3a24",
"#d c #a4522c",
"#e c #1c1614",
"#f c #543224",
"#g c #241e1c",
"#h c #000000",
"#i c #000000",
"#j c #000000",
"#k c #000000",
"#l c #000000",
"#m c #000000",
"#n c #000000",
"#o c #000000",
"#p c #000000",
"#q c #000000",
"#r c #000000",
"#s c #000000",
"#t c #000000",
"#u c #000000",
"#v c #000000",
"#w c #000000",
"#x c #000000",
"#y c #000000",
"#z c #000000",
"#A c #000000",
"#B c #000000",
"#C c #000000",
"#D c #000000",
"#E c #000000",
"#F c #000000",
"#G c #000000",
"#H c #000000",
"#I c #000000",
"#J c #000000",
"#K c #000000",
"#L c #000000",
"#M c #000000",
"#N c #000000",
"#O c #000000",
"#P c #000000",
"#Q c #000000",
"#R c #000000",
"#S c #000000",
"#T c #000000",
"#U c #000000",
"#V c #000000",
"#W c #000000",
"#X c #000000",
"#Y c #000000",
"#Z c #000000",
"#0 c #000000",
"#1 c #000000",
"#2 c #000000",
"#3 c #000000",
"#4 c #000000",
"#5 c #000000",
"#6 c #000000",
"#7 c #000000",
"#8 c #000000",
"a` c #000000",
"a. c #000000",
"a# c #000000",
"aa c #000000",
"ab c #000000",
"ac c #000000",
"ad c #000000",
"ae c #000000",
"af c #000000",
"ag c #000000",
"ah c #000000",
"ai c #000000",
"aj c #000000",
"ak c #000000",
"al c #000000",
"am c #000000",
"an c #000000",
"ao c #000000",
"ap c #000000",
"aq c #000000",
"ar c #000000",
"as c #000000",
"at c #000000",
"au c #000000",
"av c #000000",
"aw c #000000",
"ax c #000000",
"ay c #000000",
"az c #000000",
"aA c #000000",
"aB c #000000",
"aC c #000000",
"aD c #000000",
"aE c #000000",
"aF c #000000",
"aG c #000000",
"aH c #000000",
"aI c #000000",
"aJ c #000000",
"aK c #000000",
"aL c #000000",
"aM c #000000",
"aN c #000000",
"aO c #000000",
"aP c #000000",
"aQ c #000000",
"aR c #000000",
"aS c #000000",
"aT c #000000",
"aU c #000000",
"aV c #000000",
"aW c #000000",
"aX c #000000",
"aY c #000000",
"aZ c #000000",
"a0 c #000000",
"a1 c #000000",
"a2 c #000000",
"a3 c #000000",
"a4 c #000000",
"a5 c #000000",
"a6 c #000000",
"a7 c #000000",
"a8 c #000000",
/* pixels */
".t`n`n.k.P.k`n.k.k.P`6.t`..V`L.7`b`p`p`p.u.3`#`#`#`#`#`#`#`#`#`#`#`#`#`#`#`#`#`#`#`#.u`p`p`p.3.u`1`d`L`.`6`C.k.k.k.k.P.P`C.t.o`L",
"`n.x...x...W`v.g.J`M`Q.E.P`6`.`..7`d.7.o`L`6`#`#`#`#`#`#`#`#`#`#`#`#`#`#`#`#`#`#`#`#.V.V`L.7`d`1.V`..t`C`n.E.b.b.b.E.E.E.E.P.P.t",
".U`i`i`i.U`i`i.z`B.z#g.z.z.z`i`i.U`B.z#g.z.f`#`#`#`#`#`#`#`#`#`#`#`#`#`#`#`#`#`#`#`#`B`B.z#g.z.U.U.z.z#g.z.z#g.z`i.U`i`i#e.U`i.U",
"`..P.t.o.V`L.V`L`L.7.G`p`b.O`b.u.U.G.G.O.z`U`#`#`#`#`#`#`#`#`#`#`#`#`#`#`#`#`#`#`#`#`B`b.O.G`U.U.u`b`b.3.7`L`d`d`L`d.G.G`p.G.3`p",
".E.Z.E`C.t`..t.t`.`d.7.G.3`U`U.3.z`.`6.3`B.3`#`#`#`#`#`#`#`#`#`#`#`#`#`#`#`#`#`#`#`#`B.u`p.t`1.O.3.3.3`d.k.b`n`n`Q.Z.E.E.E`6.V.o",
"`i.U.z`i`i`i.U#e.U`i.U`i#e.U.U.s`i.o`C`p`B.3`#`#`#`#`#`#`#`#`#`#`#`#`#`#`#`#`#`#`#`#.O`U`1.t.G`i``.U#e`i.z`i.U.z`i`i`i`i.z.z.U`i",
"`i`i.O`b.O`b.O`b.O`b.O`b.O`B`i.U#e.o.P`p.O.3`#`#`#`#`#`#`#`#`#`#`#`#`#`#`#`#`#`#`#`#.O`U`1`C.G`i`K.z`B.O`b.O`b.O.O.O.O`b.O`B`i`i",
"`i.z.3`1`d`L`L`d.7.G.3`b.O.z`i`K`i`C.k`p`B.3`#`#`#`#`#`#`#`#`#`#`#`#`#`#`#`#`#`#`#`#.p`U`1`C`1`i.s`i`B`b.u`p.G`d`L.V`L`d`1.u.z`i",
".u`L`6.k.P.Z...x.x`C.t.V.7`p.O.U`i.k`n.3.O.3`#`#`#`#`#`#`#`#`#`#`#`#`#`#`#`#`#`#`#`#.O`U.G.P`1.z.U`U.G.7.V.t`C`g`v.J.x.P.k`..3`U",
".z.f`U.u.u.G.G.G`p.O.u`U.u.f`B`K.z.P`n.3`B`p`#`#`#`#`#`#`#`#`#`#`#`#`#`#`#`#`#`#`#`#.O.i.G`C.7`i.s`B.u.u`U`b`b.G.o.o.G`b.3`U`B.z",
".z.O`p`p.3`L`.`L.G.f.3`U`U.u.z.U`i`C.k.3`B.3`#`#`#`#`#`#`#`#`#`#`#`#`#`#`#`#`#`#`#`#.O.u.G`C`1`i`K.O.u`U`U.u.u`1`6`6`1.u.G.3`B.z",
"`U.G.o.o`d`n.x`Q`..3`L`d.7.G.u`i`i.t.P`U.O.3`#`#`#`#`#`#`#`#`#`#`#`#`#`#`#`#`#`#`#`#.O`U.3`6.G.z.U.3.7`d`d`1.G.t.x.Z.t.7`..V`U.u",
".z`b.3`U.O.3`p.3`U.z`U.u`U.f.z.U`i.t`C`U`B.3`#`#`#`#`#`#`#`#`#`#`#`#`#`#`#`#`#`#`#`#.p`U.3`6`1`i`K`B.u.u.u`b.O.3`L.7.3.f`U.u.O`B",
"`i`B`U.G`U`L`.`L`p`B`b`b`b.O.z`K.z.G.G`B`i.u`#`#`#`#`#`#`#`#`#`#`#`#`#`#`#`#`#`#`#`#.z`B.O`1`U.z`K.z`b`b`b.O.f`1.t.o.G`U.3.u`i.U",
"`b.3`d`L.7`n...E`..3.G`1.G.3`b.U`i`b`B.U.s#g`#`#`#`#`#`#`#`#`#`#`#`#`#`#`#`#`#`#`#`#`5.U`i.O.O.z.U.u`p.G`1`p.G`C.x.b`.`1.o.7`U.u",
"`i`B`b.u`b.3`p`U.u.O`b.O.u`B`i.U.O`..t`p.O`U`#`#`#`#`#`#`#`#`#`#`#`#`#`#`#`#`#`#`#`#.p.u.3.V.G`B`K.z`b`b`b.O.u.3`1`1.u`b.u.O`i.z",
".O.3.G`L`6.k.E`C`C`..o.V.7.3`b.U.U.G`U.z`i.3`#`#`#`#`#`#`#`#`#`#`#`#`#`#`#`#`#`#`#`#.O.z.z`p.u`i.U`b.G`L.t.t.t`6.E.b`C.t`1.G`b.O",
".z`U.G`d.k.Z...b`n.t.o`d`1`U.z.U.z`p.O`i`i`U`#`#`#`#`#`#`#`#`#`#`#`#`#`#`#`#`#`#`#`#.p.z`i.3.u.z`K.O`p`d.o.t`.`.`6.k`C.V.3`U.O#g",
".z`B`B`B.O.f.O`b.O.O.O.O.O.z`i.z.z`L.7.u`B.u`#`#`#`#`#`#`#`#`#`#`#`#`#`#`#`#`#`#`#`#`B`U`U`L`1.z#e`i`B.O.O.f.O.O.O.f.O.O`B`B#g`i",
"`b.u.3`U`U.u`U.O`b`b`b.f.O.z`i`i`i`..V.3`B`U`#`#`#`#`#`#`#`#`#`#`#`#`#`#`#`#`#`#`#`#.p.u.3`.`1`i.U.z`B`b`b.O`b.O`b.u.u`U.u.u`U.O",
".k`n.E.E.E.E.t.7.7`p.3.3`U.z`U.O.z`.`6`U`B`U`#`#`#`#`#`#`#`#`#`#`#`#`#`#`#`#`#`#`#`#.O`U.3`..G.z.u`B`b.G`L.V`..t`C`Q.Z.P.o`d`p.3",
"`b.U`i`i`i.O#g.U`i`i.U`B.z`i.7`U`B.t.P`U`B.u`#`#`#`#`#`#`#`#`#`#`#`#`#`#`#`#`#`#`#`#.p`U.3`6`1`b.G.u`B`B.z.z.z`B.O`U`b.O#g.z.U.u",
"`b`i.z.z.z`B.z.z.z`B`i.O`b`B.k.7.z`6`C`U.O.u`#`#`#`#`#`#`#`#`#`#`#`#`#`#`#`#`#`#`#`#`B.u`p.t`1.O`6`d.O.u`B`i.z.z.z.z`B.z.z`B`K.3",
".u.z`i`i`i`i`i`i`i.z`K.3`d.u.x.V`i.t`C`U`B.u`#`#`#`#`#`#`#`#`#`#`#`#`#`#`#`#`#`#`#`#.p`U`p.t.G`b.b.t.G`d.z.U.z#e`i`i`i`i`i`i`i.3",
".u.U`K.s`i.U.U.U.U`i`i`L.E`1.1.t`i`C`6.3`B`U`#`#`#`#`#`#`#`#`#`#`#`#`#`#`#`#`#`#`#`#.O.u.G`6.G.O...P.V.Z`b`i.z`K.U.U.U`K.s.U.U`p",
"`U.3`1.O`d.V.G`..3.V`U.k`Q`p`S.o`i`C`6`U`B.u`#`#`#`#`#`#`#`#`#`#`#`#`#`#`#`#`#`#`#`#.p`U`p.t.G`b.x`C.o.J.G`1.G.u.o`U.o.u.u`1`B.3",
".3.7`d`b`C.E.t.Z`L.E`p.k`C.u.W.V`i.k`6`U`B.u`#`#`#`#`#`#`#`#`#`#`#`#`#`#`#`#`#`#`#`#`B.u`p`6.G`b`Q`C.G`Q.V`.`C`1`Q.7.b.3`U`d.O.3",
"`U`U`U.s`U`U.u.G#g.G.O`n`..3.b.7.z.k`C.3`B.u`#`#`#`#`#`#`#`#`#`#`#`#`#`#`#`#`#`#`#`#.p`U.3`6.G`b.t.V.G.t.G.u`p.z.7.z`p.z`i.3`B.3",
"`U.U.U``.U.U`K.U.s#g.U`d`p`U`6.3`i.P`C`U`B.u`#`#`#`#`#`#`#`#`#`#`#`#`#`#`#`#`#`#`#`#.O`U`p.t.G`B`L`L`p`1`b.U.z``#e.s`i`5.s`i.U.3",
".3`B`B.s.O.z`i`B.U.u`i.3.O.u.o`U.U.P.t.3`B.u`#`#`#`#`#`#`#`#`#`#`#`#`#`#`#`#`#`#`#`#.p.u.G`6.G`B.7`d`b.u`b.z`b.U`B`K.O`i.U`b`i.3",
".3`i.U`K.U.U`K`i.s`i.z.u`b.O.G.O.U.k`6`U.O`U`#`#`#`#`#`#`#`#`#`#`#`#`#`#`#`#`#`#`#`#.O`U.3.t.G#e`U.3.u`b.O.z`i.s`i.s`K.U`K.U.z`U",
"`p.U.s`K`K`K.U`i`i.U`i`B.z.z.3`i.U`6.t`U`B.u`#`#`#`#`#`#`#`#`#`#`#`#`#`#`#`#`#`#`#`#.p.u.G`6`p.s.u.O.O#g.z`i.U`i.U.U`K`K.s`K`i.3",
".G`i.U.z.z.z`i.U`i.z.U`i.z`i`U.U`K.t.t`U`B.u`#`#`#`#`#`#`#`#`#`#`#`#`#`#`#`#`#`#`#`#`B`U`p.t`p.s.f`B.O.z`i`i`i`i`i`i.z.z`i.U`B`p",
"`1.G.G`p.3.3`U.u`b.O`b`b`U.z.O`i`K`C`6`U`B`U`#`#`#`#`#`#`#`#`#`#`#`#`#`#`#`#`#`#`#`#.p.u`p`6.G.U.z.z`b`U.O.u.u.u.3.3`p.3.7.7.G.G",
"`U`L`6.Z.x.x`Q`6.V`L`1.7`L.u`b`B`i.t.t`U`B.u`#`#`#`#`#`#`#`#`#`#`#`#`#`#`#`#`#`#`#`#.O`U`p.t.G#e`b.z`1.G.G`1`1.V.t`n.E.b.k.t`d`U",
".O`b`U.G.7`1`p.u.O.O.O`b`b.O.z`b`i`.`.`U.O.u`#`#`#`#`#`#`#`#`#`#`#`#`#`#`#`#`#`#`#`#.p.u`p.t`1.z`B.U.u.u.f.O`B.O`U.G.G`1.3`U`b`B",
".O.u`U.3`p.3.3`U`b.O.f.u.u`U`B`i.U.o`.`U`B.u`#`#`#`#`#`#`#`#`#`#`#`#`#`#`#`#`#`#`#`#.O`U`p.t.G.s`B.u`U`U.u.u.u.u`U.G`p.3`U`b.u.O",
".u`d.o.P.b.E`n`C`.`L.7.7`d.G.u.O.U`..o.3`B.u`#`#`#`#`#`#`#`#`#`#`#`#`#`#`#`#`#`#`#`#.p.u.G`6.G.U.f.u.3.3`p.3`p.G`L.t`.`L.7`p.3.O",
".U.O.O.u`U`U.3.u.f.z#g`B.z`i.U#e.s.o.o.3`B`U`#`#`#`#`#`#`#`#`#`#`#`#`#`#`#`#`#`#`#`#.O`U`p.t`p``.U.U.z`i`i.z`B.O`U.G`U.u.f`B`B`K",
"`B.G`1`U.V`C`M`C.7`U.3.3`U.u.O.z`K.V.V`U`B.u`#`#`#`#`#`#`#`#`#`#`#`#`#`#`#`#`#`#`#`#.p.u`p`.`p`K.z`b`U`U.3`U`p.o`C.b.t`1.3`1.3.z",
".U.O.u.f.3`d`C`d.G.O`b`B`B`B.U`i.s.u.u`B.z.u`#`#`#`#`#`#`#`#`#`#`#`#`#`#`#`#`#`#`#`#`B`B.O`U.z``.z`i.z.O.O`B.u`1.V.o.7`U.O`b.z.U",
".f.3`d.3.V`6`g`6.V.3`d.G.G.3`b`B.s`1.7.u`B`U`#`#`#`#`#`#`#`#`#`#`#`#`#`#`#`#`#`#`#`#.p.u`U`L.3`K`B.u`p.G.7.G`1`..k`Q`6`1.G`1`U`B",
"`B.u`U.O.3`1.o.G`p.O.3`U.u.u`B.z`K.V.o`U`B.u`#`#`#`#`#`#`#`#`#`#`#`#`#`#`#`#`#`#`#`#.O`U.3.t.G.s.z.O.u`U`U`b.u.G`L.V`1.u`b`U.O.z",
"`K.O.O.z`U.7.V.G`U`i`B.z.z`i.U`K.s`b.u`i.z`U`#`#`#`#`#`#`#`#`#`#`#`#`#`#`#`#`#`#`#`#.p.z`B`U`B``.U#e.z.z`B.z`B.G.V.V`1.O.z`b.z`K",
"`b.G.7`U.V`C`n`.`L.3.G`1.G`p`b.O`K`p.3`B.z.u`#`#`#`#`#`#`#`#`#`#`#`#`#`#`#`#`#`#`#`#.O.f.O`p.u`K.O.u`p.G`1.3.G`6.b`Q`C`1.3.7`p.O",
".U#g.O`B`B`b.u.O`b`i`B.O`B.z`i.U`K.t.o`U`B`b`#`#`#`#`#`#`#`#`#`#`#`#`#`#`#`#`#`#`#`#.p.u`p.t.G``.U`i`B.O.O`i#g`b.3`p`b.O`B.O`i.U",
".O.3.V.k.k`n`Q`C`L`1.3.u.u`U.z.z`K.t.o.3`B`b`#`#`#`#`#`#`#`#`#`#`#`#`#`#`#`#`#`#`#`#`B.u.G`6`p`K.z.O`U`U`U.3.G`d.t.t`L`d.G`p`b`B",
"`U`d`C.b.b`n.E.P.t.o`L`d.G`p`b.O`K.t`.`U.z`b`#`#`#`#`#`#`#`#`#`#`#`#`#`#`#`#`#`#`#`#.p.u`p.t.G.U.f.u`1`L`..t`6.t`C`6.t`.`L`d`p.u",
".z.f.u`U.u.u`U.u`U.u`U.u.u`b.z`B`K`.`.`U.O`b`#`#`#`#`#`#`#`#`#`#`#`#`#`#`#`#`#`#`#`#`B.u`p`C.G`K.z`B.u.u`U`U.u`U.u`U.u`U.u.u.O`B",
"`B.O.u`b`b`b.O`b.O.f.O.O`b`B.z`i.s`..o.3.z`b`#`#`#`#`#`#`#`#`#`#`#`#`#`#`#`#`#`#`#`#.p.u.G`C`1`K.U.z`b.O.O.O`b.O.f`b`b`b.u`b`B.z",
".O.u.u`U.u`b`b.O.O`B`B`B`B`B`i.z.U`L.t`U.O`b`#`#`#`#`#`#`#`#`#`#`#`#`#`#`#`#`#`#`#`#.z`U`1`C`U.U`i.z`B`B.O`B`B`B.O.O.O.u.u`b`B`B",
"`C`6.P.E.P.t.t.t.o`.`L`1.G.3`b.O.U`.`.`U.z`U`#`#`#`#`#`#`#`#`#`#`#`#`#`#`#`#`#`#`#`#.p.u`1`C.G#e.O.u.3`p`p.7.o.o`6`6.o.V.V.7`p.3",
".V.V.o.t.t`..o`..o.o`L`d.7.G`b.O`i.o.o`U`B.O`#`#`#`#`#`#`#`#`#`#`#`#`#`#`#`#`#`#`#`#.p.u.3`C.G`i.O`p.7`d`L`.`n`n.E`Q.k`6.t`L`1`1",
"`B`B`B.O`B.O`b.u.u`b.u`b`b.O.z`i.U.o`L`U`B.O`#`#`#`#`#`#`#`#`#`#`#`#`#`#`#`#`#`#`#`#.z`U.3`.`p`i`i`B.u.u`U`U.u.3`U.u.f.O.O`B`B.z",
".O.O.O.O`B.O`b.u.u`U`U`U.u.3.O.O`i`d`L`U.z.O`#`#`#`#`#`#`#`#`#`#`#`#`#`#`#`#`#`#`#`#`i`U.3.o`U.z`B`b.3`U.u.3.u.u.u`b.O`B.O.O.O.O",
"`B.z`B`B`B`B`B#g.z`B`B.O`B.O`B`B.U`b.u.O`i`K`#`#`#`#`#`#`#`#`#`#`#`#`#`#`#`#`#`#`#`#`5.O.O.u`B`i.z.O`B.O`B`B.O.z`B`B`B`B`B`B`B`B",
".G`d.V.o`L.G.3.O.O.G.t.t.V.G.u`B.3`d.V.7`p`i`#`#`#`#`#`#`#`#`#`#`#`#`#`#`#`#`#`#`#`#.p`p`d`L.G`b.O`U`1`L.V`d.u`B.u.3.G.7.o`L`1.3",
".7`.`n.E.P`d`p`b.O`1`.`..V.G.u`B.3`d.o`L.G`B`#`#`#`#`#`#`#`#`#`#`#`#`#`#`#`#`#`#`#`#.f.7`6`6`d.u`B.3`d.t.o`L.3`B`U.G`d.V`6.o`L`1",
"`b.u`U`U.u.O.O`B.z`B.O`b`b.f`B.U.z.O.O.O`B`K`#`#`#`#`#`#`#`#`#`#`#`#`#`#`#`#`#`#`#`#.U`B`b.u`B`i.U.O.f`b.O`B.z`i`B`B.O`b.u`b.f.O",
"#e`7.`.X.T#e.L.B.2#e#e`T.N`x`r.2#a#a.z#e#g`N`#`#`#`#`#`#`#`#`#`#`#`#`#`#`#`#`#`#`#`#`8.p.U.f`7.2`8.e#a.l`N`5`N.2.2`N`r.D.K.l`W#e",
".X`E`Z`H#b.``E`s.K.L.S.y`s#f#``F.5`y.H.w.M.N`#`#`#`#`#`#`#`#`#`#`#`#`#`#`#`#`#`#`#`#.j.M`k.n`V`F`c`7#c.r.A.a.6##.#.R`D.B.y`Y.r`D",
".``2`o`m.T`o.m.h`e.X.F.F`0`m`u`q#``8.i`o#d`O`#`#`#`#`#`#`#`#`#`#`#`#`#`#`#`#`#`#`#`#`P`I`l.f`7.d`2`f`J#c.v###a`0.m`E.F.T.`.Q`j`a",
"#``G`m#e`7`P.h`N#b.``4.6.e`0`u.h`J`N#a.Y`A.D`#`#`#`#`#`#`#`#`#`#`#`#`#`#`#`#`#`#`#`#`7.Y`A`J`N`0`4`X`e`N`w`u.B#e`m.I#`.T#e`w`o`w",
"`J`J`5.e`N`J.0.s#e`8`e`5.s`e`J.0`5.U#g`W`8#e`#`#`#`#`#`#`#`#`#`#`#`#`#`#`#`#`#`#`#`#`N`8`W`N`K`5`8`W.e```r`8`8`K`5`8`J`N`5`r`J`J"
};
