/* XPM */
static char *door_22_xpm[] = {
/* width height num_colors chars_per_pixel */
"    64    64      256            2",
/* colors */
"`` c #5a5a5a",
"`. c #505050",
"`# c #4d4d4d",
"`a c #474747",
"`b c #2a2a2a",
"`c c #393939",
"`d c #3a3a3a",
"`e c #303030",
"`f c #363636",
"`g c #ff00d2",
"`h c #2d2d2d",
"`i c #353535",
"`j c #2c2c2c",
"`k c #414141",
"`l c #4a4a4a",
"`m c #585858",
"`n c #6c6c6c",
"`o c #616161",
"`p c #5d5d5d",
"`q c #595959",
"`r c #454545",
"`s c #4c4c4c",
"`t c #525252",
"`u c #4e4e4e",
"`v c #555555",
"`w c #535353",
"`x c #484848",
"`y c #666666",
"`z c #1e1e1e",
"`A c #1c1c1c",
"`B c #1a1a1a",
"`C c #141414",
"`D c #222222",
"`E c #202020",
"`F c #282828",
"`G c #161616",
"`H c #3f3f3f",
"`I c #3c3c3c",
"`J c #232323",
"`K c #333333",
"`L c #252525",
"`M c #323232",
"`N c #181818",
"`O c #5b5b5b",
"`P c #606060",
"`Q c #272727",
"`R c #373737",
"`S c #4b4b4b",
"`T c #0f0f0f",
"`U c #656565",
"`V c #3e3e3e",
"`W c #0c0c0c",
"`X c #676767",
"`Y c #424242",
"`Z c #636363",
"`0 c #3d3d3d",
"`1 c #121212",
"`2 c #646464",
"`3 c #707070",
"`4 c #747474",
"`5 c #434343",
"`6 c #2f2f2f",
"`7 c #727272",
"`8 c #464646",
".` c #6d6d6d",
".. c #696969",
".# c #5e5e5e",
".a c #5f5f5f",
".b c #5c5c5c",
".c c #565656",
".d c #6f6f6f",
".e c #686868",
".f c #8a8a8a",
".g c #515151",
".h c #7a7a7a",
".i c #767676",
".j c #afafaf",
".k c #8c8c8c",
".l c #6b6b6b",
".m c #818181",
".n c #7f7f7f",
".o c #ababab",
".p c #898989",
".q c #a2a2a2",
".r c #9a9a9a",
".s c #7d7d7d",
".t c #797979",
".u c #545454",
".v c #6a6a6a",
".w c #090909",
".x c #2d2a28",
".y c #282727",
".z c #252323",
".A c #2a2727",
".B c #2a2a28",
".C c #6c3e27",
".D c #3e281c",
".E c #1c140f",
".F c #422c20",
".G c #4d2f1c",
".H c #462d20",
".I c #181616",
".J c #251e1c",
".K c #271a14",
".L c #28201a",
".M c #221e1c",
".N c #161414",
".O c #2a2722",
".P c #4e2f1e",
".Q c #482c1c",
".R c #281c16",
".S c #1a140f",
".T c #4b2f1e",
".U c #52301e",
".V c #be6537",
".W c #55301e",
".X c #723d1e",
".Y c #e56e2f",
".Z c #da6932",
".0 c #7a4a2f",
".1 c #2c2320",
".2 c #5d4133",
".3 c #965b37",
".4 c #6d3e2a",
".5 c #854e30",
".6 c #90593a",
".7 c #4a3a30",
".8 c #392a23",
"#` c #b66336",
"#. c #e26e2f",
"## c #b25827",
"#a c #4e2d18",
"#b c #683c27",
"#c c #d06b36",
"#d c #472716",
"#e c #392012",
"#f c #7d3e1c",
"#g c #a34e20",
"#h c #753e22",
"#i c #322016",
"#j c #3e2c22",
"#k c #874825",
"#l c #a15228",
"#m c #5a351e",
"#n c #774225",
"#o c #a75427",
"#p c #724128",
"#q c #2f231a",
"#r c #4c2c1a",
"#s c #a05227",
"#t c #af5322",
"#u c #6a371c",
"#v c #372014",
"#w c #703c22",
"#x c #482818",
"#y c #783d1e",
"#z c #6a371e",
"#A c #321e14",
"#B c #221c1a",
"#C c #4e2f20",
"#D c #793f22",
"#E c #703e23",
"#F c #3d2518",
"#G c #4c2d1e",
"#H c #7b4223",
"#I c #713d20",
"#J c #35251e",
"#K c #221a16",
"#L c #452518",
"#M c #783e1e",
"#N c #70391c",
"#O c #2c1a14",
"#P c #231812",
"#Q c #281a12",
"#R c #20160f",
"#S c #140f0f",
"#T c #271c16",
"#U c #332016",
"#V c #281e18",
"#W c #1c1614",
"#X c #231a14",
"#Y c #2a1e1a",
"#Z c #201814",
"#0 c #160f0c",
"#1 c #2c1c14",
"#2 c #1e160f",
"#3 c #000000",
"#4 c #000000",
"#5 c #000000",
"#6 c #000000",
"#7 c #000000",
"#8 c #000000",
"a` c #000000",
"a. c #000000",
"a# c #000000",
"aa c #000000",
"ab c #000000",
"ac c #000000",
"ad c #000000",
"ae c #000000",
"af c #000000",
"ag c #000000",
"ah c #000000",
"ai c #000000",
"aj c #000000",
"ak c #000000",
"al c #000000",
"am c #000000",
"an c #000000",
"ao c #000000",
"ap c #000000",
"aq c #000000",
"ar c #000000",
"as c #000000",
"at c #000000",
"au c #000000",
"av c #000000",
"aw c #000000",
"ax c #000000",
"ay c #000000",
"az c #000000",
"aA c #000000",
"aB c #000000",
"aC c #000000",
"aD c #000000",
"aE c #000000",
"aF c #000000",
"aG c #000000",
"aH c #000000",
"aI c #000000",
"aJ c #000000",
"aK c #000000",
"aL c #000000",
"aM c #000000",
"aN c #000000",
"aO c #000000",
"aP c #000000",
"aQ c #000000",
"aR c #000000",
"aS c #000000",
"aT c #000000",
"aU c #000000",
"aV c #000000",
"aW c #000000",
"aX c #000000",
"aY c #000000",
"aZ c #000000",
"a0 c #000000",
"a1 c #000000",
"a2 c #000000",
"a3 c #000000",
"a4 c #000000",
"a5 c #000000",
"a6 c #000000",
"a7 c #000000",
"a8 c #000000",
/* pixels */
"```.`#`a`b`c`d`d`e`f`g`g`g`g`g`g`g`g`g`g`g`g`g`g`g`g`g`g`g`g`g`g`g`g`g`g`g`g`g`g`g`g`g`g`g`g`g`g`g`g`g`g`g`g`h`c`d`d`i`j`k`l`.`m",
"`n`o`p`q`r`s`l`t`u`o`g`g`g`g`g`g`g`g`g`g`g`g`g`g`g`g`g`g`g`g`g`g`g`g`g`g`g`g`g`g`g`g`g`g`g`g`g`g`g`g`g`g`g`g`v`w`#`x`l`k`w```o`y",
"`z`A`A`B`C`D`E`z`z`F`g`g`g`g`g`g`g`g`g`g`g`g`g`g`g`g`g`g`g`g`g`g`g`g`g`g`g`g`g`g`g`g`g`g`g`g`g`g`g`g`g`g`g`g`E`D`A`E`A`G`B`A`z`z",
"`j`F`b`j`G`H`I`J`E`K`g`g`g`g`g`g`g`g`g`g`g`g`g`g`g`g`g`g`g`g`g`g`g`g`g`g`g`g`g`g`g`g`g`g`g`g`g`g`g`g`g`g`g`g`D`b`L`H`M`N`h`b`b`i",
"`i`M`M`i`z`O`P`i`J`f`g`g`g`g`g`g`g`g`g`g`g`g`g`g`g`g`g`g`g`g`g`g`g`g`g`g`g`g`g`g`g`g`g`g`g`g`g`g`g`g`g`g`g`g`L`e`d`P`k`Q`K`i`R`S",
"`N`G`C`T`B`m`U`d`J`f`g`g`g`g`g`g`g`g`g`g`g`g`g`g`g`g`g`g`g`g`g`g`g`g`g`g`g`g`g`g`g`g`g`g`g`g`g`g`g`g`g`g`g`g`L`M`k`P`V`B`W`C`N`B",
"`Q`D`A`C`N`m`X`I`J`f`g`g`g`g`g`g`g`g`g`g`g`g`g`g`g`g`g`g`g`g`g`g`g`g`g`g`g`g`g`g`g`g`g`g`g`g`g`g`g`g`g`g`g`g`L`M`Y`Z`0`B`1`z`J`F",
"`F`z`N`1`B`2`3`d`J`f`g`g`g`g`g`g`g`g`g`g`g`g`g`g`g`g`g`g`g`g`g`g`g`g`g`g`g`g`g`g`g`g`g`g`g`g`g`g`g`g`g`g`g`g`L`e`Y`X`H`A`T`B`D`b",
"`a`f`b`N`B`n`4`R`J`f`g`g`g`g`g`g`g`g`g`g`g`g`g`g`g`g`g`g`g`g`g`g`g`g`g`g`g`g`g`g`g`g`g`g`g`g`g`g`g`g`g`g`g`g`L`e`Y`X`5`z`G`e`I`x",
"`6`F`E`1`A`n`7`R`J`f`g`g`g`g`g`g`g`g`g`g`g`g`g`g`g`g`g`g`g`g`g`g`g`g`g`g`g`g`g`g`g`g`g`g`g`g`g`g`g`g`g`g`g`g`L`e`k`X`8`B`T`D`j`6",
"`M`j`D`C`B`X.``i`J`f`g`g`g`g`g`g`g`g`g`g`g`g`g`g`g`g`g`g`g`g`g`g`g`g`g`g`g`g`g`g`g`g`g`g`g`g`g`g`g`g`g`g`g`g`L`e`0`Z`5`N`1`L`e`M",
"`x`V`h`N`A`P..`K`J`f`g`g`g`g`g`g`g`g`g`g`g`g`g`g`g`g`g`g`g`g`g`g`g`g`g`g`g`g`g`g`g`g`g`g`g`g`g`g`g`g`g`g`g`g`L`e`R`P`k`E`N`K`r`x",
"`e`F`z`C`B.#`U`K`J`f`g`g`g`g`g`g`g`g`g`g`g`g`g`g`g`g`g`g`g`g`g`g`g`g`g`g`g`g`g`g`g`g`g`g`g`g`g`g`g`g`g`g`g`g`L`e`R.a`k`B`1`D`h`e",
"`j`Q`A`C`A`V`0`J`N`6`g`g`g`g`g`g`g`g`g`g`g`g`g`g`g`g`g`g`g`g`g`g`g`g`g`g`g`g`g`g`g`g`g`g`g`g`g`g`g`g`g`g`g`g`A`D`Q`Y`K`E`1`z`b`b",
"`k`f`F`N`B`F`J`G`T`z`g`g`g`g`g`g`g`g`g`g`g`g`g`g`g`g`g`g`g`g`g`g`g`g`g`g`g`g`g`g`g`g`g`g`g`g`g`g`g`g`g`g`g`g`1`G`N`b`D`E`G`j`I`k",
"`b`J`B`G`J.b`p`d`L`K`g`g`g`g`g`g`g`g`g`g`g`g`g`g`g`g`g`g`g`g`g`g`g`g`g`g`g`g`g`g`g`g`g`g`g`g`g`g`g`g`g`g`g`g`D`6`M`w`V`D`1`A`F`b",
"`8`R`Q`G`N`H`K`E`B`f`g`g`g`g`g`g`g`g`g`g`g`g`g`g`g`g`g`g`g`g`g`g`g`g`g`g`g`g`g`g`g`g`g`g`g`g`g`g`g`g`g`g`g`g`J`A`z`c`j`B`C`j`k`.",
"`k`M`z`G`A`R`F`B`B`M`g`g`g`g`g`g`g`g`g`g`g`g`g`g`g`g`g`g`g`g`g`g`g`g`g`g`g`g`g`g`g`g`g`g`g`g`g`g`g`g`g`g`g`g`J`z`A`i`6`z`1`L`d`x",
"`L`E`N`z`z`u`r`h`J`6`g`g`g`g`g`g`g`g`g`g`g`g`g`g`g`g`g`g`g`g`g`g`g`g`g`g`g`g`g`g`g`g`g`g`g`g`g`g`g`g`g`g`g`g`J`e`e`#`k`z`N`B`D`L",
"`F`A`B`A`A.c.c`i`J`e`g`g`g`g`g`g`g`g`g`g`g`g`g`g`g`g`g`g`g`g`g`g`g`g`g`g`g`g`g`g`g`g`g`g`g`g`g`g`g`g`g`g`g`g`J`e`f`q`Y`B`B`B`J`b",
"`K`z`e`L`z.b`P`K`J`e`g`g`g`g`g`g`g`g`g`g`g`g`g`g`g`g`g`g`g`g`g`g`g`g`g`g`g`g`g`g`g`g`g`g`g`g`g`g`g`g`g`g`g`g`J`e`f```k`z`j`D`j`Y",
"`z`N`8`i`D.#..`K`J`6`g`g`g`g`g`g`g`g`g`g`g`g`g`g`g`g`g`g`g`g`g`g`g`g`g`g`g`g`g`g`g`g`g`g`g`g`g`g`g`g`g`g`g`g`J`e`c.a`Y`F`k`6`E`D",
"`b`J.d`r`z.a.e`K`J`6`g`g`g`g`g`g`g`g`g`g`g`g`g`g`g`g`g`g`g`g`g`g`g`g`g`g`g`g`g`g`g`g`g`g`g`g`g`g`g`g`g`g`g`g`J`e`d`P`k`b`P`l`F`b",
"`x`e.f.g`B`P`y`K`J`6`g`g`g`g`g`g`g`g`g`g`g`g`g`g`g`g`g`g`g`g`g`g`g`g`g`g`g`g`g`g`g`g`g`g`g`g`g`g`g`g`g`g`g`g`J`e`d`P`V`F.h.#`I`s",
".i`H.j`p`B`2`2`K`J`6`g`g`g`g`g`g`g`g`g`g`g`g`g`g`g`g`g`g`g`g`g`g`g`g`g`g`g`g`g`g`g`g`g`g`g`g`g`g`g`g`g`g`g`g`J`e`d`P`V`F.k.l`w.m",
".n`I.o`m`B`y.a`K`J`6`g`g`g`g`g`g`g`g`g`g`g`g`g`g`g`g`g`g`g`g`g`g`g`g`g`g`g`g`g`g`g`g`g`g`g`g`g`g`g`g`g`g`g`g`J`e`d`P`V`F.p.e.c.q",
"`U`h.r`t`B`n`U`K`J`6`g`g`g`g`g`g`g`g`g`g`g`g`g`g`g`g`g`g`g`g`g`g`g`g`g`g`g`g`g`g`g`g`g`g`g`g`g`g`g`g`g`g`g`g`J`e`d`P`V`b.s`U`I.n",
"`q`i.t`8`A.``X`K`J`6`g`g`g`g`g`g`g`g`g`g`g`g`g`g`g`g`g`g`g`g`g`g`g`g`g`g`g`g`g`g`g`g`g`g`g`g`g`g`g`g`g`g`g`g`J`e`d`P`V`b`p.u`V`p",
"`I`K`Z`R`B`n`2`K`J`6`g`g`g`g`g`g`g`g`g`g`g`g`g`g`g`g`g`g`g`g`g`g`g`g`g`g`g`g`g`g`g`g`g`g`g`g`g`g`g`g`g`g`g`g`J`e`d`P`V`D`.`s`I`H",
"`F`j.u`M`N.v`o`K`J`6`g`g`g`g`g`g`g`g`g`g`g`g`g`g`g`g`g`g`g`g`g`g`g`g`g`g`g`g`g`g`g`g`g`g`g`g`g`g`g`g`g`g`g`g`J`e`d`P`V`D`r`a`j`h",
"`Q`Q`H`L`G.``o`K`J`6`g`g`g`g`g`g`g`g`g`g`g`g`g`g`g`g`g`g`g`g`g`g`g`g`g`g`g`g`g`g`g`g`g`g`g`g`g`g`g`g`g`g`g`g`J`e`d.a`I`N`K`i`h`b",
"`z`z`i`A`C`2.#`K`J`6`g`g`g`g`g`g`g`g`g`g`g`g`g`g`g`g`g`g`g`g`g`g`g`g`g`g`g`g`g`g`g`g`g`g`g`g`g`g`g`g`g`g`g`g`D`e`d`P`d`1`b`Q`Q`E",
"`z`A`e`G`1.#`p`K`J`6`g`g`g`g`g`g`g`g`g`g`g`g`g`g`g`g`g`g`g`g`g`g`g`g`g`g`g`g`g`g`g`g`g`g`g`g`g`g`g`g`g`g`g`g`J`e`d`P`d`T`Q`D`F`B",
"`K`A`F`N`C`2.#`K`J`6`g`g`g`g`g`g`g`g`g`g`g`g`g`g`g`g`g`g`g`g`g`g`g`g`g`g`g`g`g`g`g`g`g`g`g`g`g`g`g`g`g`g`g`g`J`e`d`P`I`C`E`A`b`M",
"`s`6`j`J`N`o`p`K`J`6`g`g`g`g`g`g`g`g`g`g`g`g`g`g`g`g`g`g`g`g`g`g`g`g`g`g`g`g`g`g`g`g`g`g`g`g`g`g`g`g`g`g`g`g`J`e`d`P`V`N`b`z`k`k",
"`j`L`A`F`B`O`O`K`J`6`g`g`g`g`g`g`g`g`g`g`g`g`g`g`g`g`g`g`g`g`g`g`g`g`g`g`g`g`g`g`g`g`g`g`g`g`g`g`g`g`g`g`g`g`J`e`d`P`H`A`J`N`h`j",
"`6`6`J`A`C`m```K`J`6`g`g`g`g`g`g`g`g`g`g`g`g`g`g`g`g`g`g`g`g`g`g`g`g`g`g`g`g`g`g`g`g`g`g`g`g`g`g`g`g`g`g`g`g`J`e`d`P`H`T`D`h`M`e",
"`a`H`6`F`C`O`m`K`J`6`g`g`g`g`g`g`g`g`g`g`g`g`g`g`g`g`g`g`g`g`g`g`g`g`g`g`g`g`g`g`g`g`g`g`g`g`g`g`g`g`g`g`g`g`J`e`d`P`0`C`Q`6`R`R",
"`z`A`C`G`T`v.c`K`J`6`g`g`g`g`g`g`g`g`g`g`g`g`g`g`g`g`g`g`g`g`g`g`g`g`g`g`g`g`g`g`g`g`g`g`g`g`g`g`g`g`g`g`g`g`J`e`d`P`c`W`C`G`A`A",
"`M`e`J`z`1`.`w`M`J`6`g`g`g`g`g`g`g`g`g`g`g`g`g`g`g`g`g`g`g`g`g`g`g`g`g`g`g`g`g`g`g`g`g`g`g`g`g`g`g`g`g`g`g`g`D`e`c.b`d`1`z`F`M`K",
"`J`E`N`B`W`h`6`D`z`6`g`g`g`g`g`g`g`g`g`g`g`g`g`g`g`g`g`g`g`g`g`g`g`g`g`g`g`g`g`g`g`g`g`g`g`g`g`g`g`g`g`g`g`g`J`D`L`K`D.w`A`B`E`J",
"`I`R`b`J`T`5`8`h`J`6`g`g`g`g`g`g`g`g`g`g`g`g`g`g`g`g`g`g`g`g`g`g`g`g`g`g`g`g`g`g`g`g`g`g`g`g`g`g`g`g`g`g`g`g`J`h`M`#`M`1`J`6`d`0",
"`6`j`E`A`1`t.u`K`J`6`g`g`g`g`g`g`g`g`g`g`g`g`g`g`g`g`g`g`g`g`g`g`g`g`g`g`g`g`g`g`g`g`g`g`g`g`g`g`g`g`g`g`g`g`J`e`d.#`I`1`A`L`h`e",
"`z`A`G`C`W`j`h`B`z`6`g`g`g`g`g`g`g`g`g`g`g`g`g`g`g`g`g`g`g`g`g`g`g`g`g`g`g`g`g`g`g`g`g`g`g`g`g`g`g`g`g`g`g`g`J`E`z`K`D.w`C`N`z`z",
"`0`c`b`L`1`c`f`D`E`6`g`g`g`g`g`g`g`g`g`g`g`g`g`g`g`g`g`g`g`g`g`g`g`g`g`g`g`g`g`g`g`g`g`g`g`g`g`g`g`g`g`g`g`g`J`Q`L`I`j`1`L`e`d`V",
"`J`E`N`G`1.a.c`K`D`b`g`g`g`g`g`g`g`g`g`g`g`g`g`g`g`g`g`g`g`g`g`g`g`g`g`g`g`g`g`g`g`g`g`g`g`g`g`g`g`g`g`g`g`g`E`e`d`P`0`W`G`B`D`L",
"`j`e`E`E`1.#.c`K`D`b`g`g`g`g`g`g`g`g`g`g`g`g`g`g`g`g`g`g`g`g`g`g`g`g`g`g`g`g`g`g`g`g`g`g`g`g`g`g`g`g`g`g`g`g`E`e`d`P`I`1`z`L`K`e",
"`H`I`F`F`1.b`q`K`D`b`g`g`g`g`g`g`g`g`g`g`g`g`g`g`g`g`g`g`g`g`g`g`g`g`g`g`g`g`g`g`g`g`g`g`g`g`g`g`g`g`g`g`g`g`E`e`d`P`I`C`F`6`Y`#",
"`6`j`z`E`1`O```K`D`b`g`g`g`g`g`g`g`g`g`g`g`g`g`g`g`g`g`g`g`g`g`g`g`g`g`g`g`g`g`g`g`g`g`g`g`g`g`g`g`g`g`g`g`g`E`e`d`2`H`1`z`J`6`e",
"`F`J`A`B`1`q```K`D`b`g`g`g`g`g`g`g`g`g`g`g`g`g`g`g`g`g`g`g`g`g`g`g`g`g`g`g`g`g`g`g`g`g`g`g`g`g`g`g`g`g`g`g`g`E`e`I`U`H`1`N`z`Q`F",
"`J`D`A`A`C`.`O`K`D`b`g`g`g`g`g`g`g`g`g`g`g`g`g`g`g`g`g`g`g`g`g`g`g`g`g`g`g`g`g`g`g`g`g`g`g`g`g`g`g`g`g`g`g`g`z`e`k`X`K`G`B`A`D`J",
"`V`i`b`L`G`m```K`D`e`g`g`g`g`g`g`g`g`g`g`g`g`g`g`g`g`g`g`g`g`g`g`g`g`g`g`g`g`g`g`g`g`g`g`g`g`g`g`g`g`g`g`g`g`D`e`H.e`I`N`L`6`f`d",
"`r`0`j`Q`N`m.u`M`D`F`g`g`g`g`g`g`g`g`g`g`g`g`g`g`g`g`g`g`g`g`g`g`g`g`g`g`g`g`g`g`g`g`g`g`g`g`g`g`g`g`g`g`g`g`z`e`R`Z`H`B`Q`f`r`l",
"`b`L`A`A`N.u`.`M`D`Q`g`g`g`g`g`g`g`g`g`g`g`g`g`g`g`g`g`g`g`g`g`g`g`g`g`g`g`g`g`g`g`g`g`g`g`g`g`g`g`g`g`g`g`g`A`e`f`m`I`N`A`D`h`6",
"`M`K`L`Q`G`#`#`M`E`L`g`g`g`g`g`g`g`g`g`g`g`g`g`g`g`g`g`g`g`g`g`g`g`g`g`g`g`g`g`g`g`g`g`g`g`g`g`g`g`g`g`g`g`g`A`M`R`v`K`z`D`j`i`M",
"`J`Q`E`D`N`b`h`J`N`1`g`g`g`g`g`g`g`g`g`g`g`g`g`g`g`g`g`g`g`g`g`g`g`g`g`g`g`g`g`g`g`g`g`g`g`g`g`g`g`g`g`g`g`g`T`L`L`h`J`B`E`L`J`J",
".g`0`h`J`f`l`w`8`c`A`g`g`g`g`g`g`g`g`g`g`g`g`g`g`g`g`g`g`g`g`g`g`g`g`g`g`g`g`g`g`g`g`g`g`g`g`g`g`g`g`g`g`g`g`J`c`l`#`0`b`J`K`Y`t",
"`.`V`6`J`R`l`w`#`k`E`g`g`g`g`g`g`g`g`g`g`g`g`g`g`g`g`g`g`g`g`g`g`g`g`g`g`g`g`g`g`g`g`g`g`g`g`g`g`g`g`g`g`g`g`F`5`2`2`S`j`J`R`l.b",
".x.y`D`G`z`L`F`L`D`C`g`g`g`g`g`g`g`g`g`g`g`g`g`g`g`g`g`g`g`g`g`g`g`g`g`g`g`g`g`g`g`g`g`g`g`g`g`g`g`g`g`g`g`g`N`J`b`j`D`B`B.z.A.B",
".C.D.E.F.G.H`A.I.J.K`g`g`g`g`g`g`g`g`g`g`g`g`g`g`g`g`g`g`g`g`g`g`g`g`g`g`g`g`g`g`g`g`g`g`g`g`g`g`g`g`g`g`g`g.L.M.N.O.P.Q.R.S.T.U",
".V.W.X.Y.Z.0.1.2.3.4`g`g`g`g`g`g`g`g`g`g`g`g`g`g`g`g`g`g`g`g`g`g`g`g`g`g`g`g`g`g`g`g`g`g`g`g`g`g`g`g`g`g`g`g.5.6.7.8#`#.###a#b#c",
"#d#e#f#g#h#i#j#k#l#m`g`g`g`g`g`g`g`g`g`g`g`g`g`g`g`g`g`g`g`g`g`g`g`g`g`g`g`g`g`g`g`g`g`g`g`g`g`g`g`g`g`g`g`g#n#o#p#q#r#s#t#u#v#w",
".E#x#y#z#A#B#C#D#E#F`g`g`g`g`g`g`g`g`g`g`g`g`g`g`g`g`g`g`g`g`g`g`g`g`g`g`g`g`g`g`g`g`g`g`g`g`g`g`g`g`g`g`g`g#G#H#I#J#K#L#M#N#O#P",
"`T#Q#v#R#S`C#T#U#V#W`g`g`g`g`g`g`g`g`g`g`g`g`g`g`g`g`g`g`g`g`g`g`g`g`g`g`g`g`g`g`g`g`g`g`g`g`g`g`g`g`g`g`g`g#X#Y#i#Z`1#0#1#v#2`W"
};
