/* XPM */
static char *door_18_xpm[] = {
/* width height num_colors chars_per_pixel */
"    64    64      256            2",
/* colors */
"`` c #6e6e6e",
"`. c #696969",
"`# c #636363",
"`a c #5f5f5f",
"`b c #5a5a5a",
"`c c #505050",
"`d c #4d4d4d",
"`e c #474747",
"`f c #2a2a2a",
"`g c #393939",
"`h c #3a3a3a",
"`i c #303030",
"`j c #363636",
"`k c #ff00d2",
"`l c #2d2d2d",
"`m c #353535",
"`n c #2c2c2c",
"`o c #414141",
"`p c #4a4a4a",
"`q c #585858",
"`r c #686868",
"`s c #6d6d6d",
"`t c #a2a2a2",
"`u c #939393",
"`v c #7f7f7f",
"`w c #747474",
"`x c #6c6c6c",
"`y c #616161",
"`z c #5d5d5d",
"`A c #595959",
"`B c #454545",
"`C c #4c4c4c",
"`D c #525252",
"`E c #4e4e4e",
"`F c #555555",
"`G c #535353",
"`H c #484848",
"`I c #666666",
"`J c #707070",
"`K c #767676",
"`L c #7b7b7b",
"`M c #202020",
"`N c #1e1e1e",
"`O c #1c1c1c",
"`P c #1a1a1a",
"`Q c #141414",
"`R c #222222",
"`S c #282828",
"`T c #161616",
"`U c #3d3d3d",
"`V c #373737",
"`W c #3f3f3f",
"`X c #3c3c3c",
"`Y c #232323",
"`Z c #333333",
"`0 c #252525",
"`1 c #323232",
"`2 c #181818",
"`3 c #4b4b4b",
"`4 c #5b5b5b",
"`5 c #606060",
"`6 c #272727",
"`7 c #777777",
"`8 c #727272",
".` c #0f0f0f",
".. c #656565",
".# c #3e3e3e",
".a c #0c0c0c",
".b c #676767",
".c c #424242",
".d c #121212",
".e c #646464",
".f c #8b8b8b",
".g c #5e5e5e",
".h c #434343",
".i c #515151",
".j c #888888",
".k c #2f2f2f",
".l c #464646",
".m c #5c5c5c",
".n c #565656",
".o c #6f6f6f",
".p c #8a8a8a",
".q c #7a7a7a",
".r c #afafaf",
".s c #8c8c8c",
".t c #6b6b6b",
".u c #818181",
".v c #ababab",
".w c #898989",
".x c #9a9a9a",
".y c #7d7d7d",
".z c #717171",
".A c #797979",
".B c #545454",
".C c #6a6a6a",
".D c #090909",
".E c #252323",
".F c #2c2a2a",
".G c #2d2a28",
".H c #282727",
".I c #2a2727",
".J c #2a2a28",
".K c #432d23",
".L c #1c1614",
".M c #3f2a1c",
".N c #6c3e27",
".O c #3e281c",
".P c #1c140f",
".Q c #422c20",
".R c #4d2f1c",
".S c #462d20",
".T c #181616",
".U c #251e1c",
".V c #271a14",
".W c #28201a",
".X c #221e1c",
".Y c #161414",
".Z c #2a2722",
".0 c #4e2f1e",
".1 c #482c1c",
".2 c #281c16",
".3 c #1a140f",
".4 c #4b2f1e",
".5 c #52301e",
".6 c #120f0f",
".7 c #231a14",
".8 c #432d20",
"#` c #58331e",
"#. c #3e2a20",
"## c #a05630",
"#a c #f17837",
"#b c #be6537",
"#c c #55301e",
"#d c #723d1e",
"#e c #e56e2f",
"#f c #da6932",
"#g c #7a4a2f",
"#h c #2c2320",
"#i c #5d4133",
"#j c #965b37",
"#k c #6d3e2a",
"#l c #854e30",
"#m c #90593a",
"#n c #4a3a30",
"#o c #392a23",
"#p c #b66336",
"#q c #e26e2f",
"#r c #b25827",
"#s c #4e2d18",
"#t c #683c27",
"#u c #d06b36",
"#v c #d1682f",
"#w c #70452d",
"#x c #43281c",
"#y c #9b522d",
"#z c #2f1c14",
"#A c #5a3522",
"#B c #984b23",
"#C c #934b23",
"#D c #472716",
"#E c #392012",
"#F c #7d3e1c",
"#G c #a34e20",
"#H c #753e22",
"#I c #322016",
"#J c #3e2c22",
"#K c #874825",
"#L c #a15228",
"#M c #5a351e",
"#N c #774225",
"#O c #a75427",
"#P c #724128",
"#Q c #2f231a",
"#R c #4c2c1a",
"#S c #a05227",
"#T c #af5322",
"#U c #6a371c",
"#V c #372014",
"#W c #703c22",
"#X c #b65928",
"#Y c #9e5128",
"#Z c #4c3023",
"#0 c #432514",
"#1 c #281e1c",
"#2 c #6b391e",
"#3 c #773e20",
"#4 c #43271a",
"#5 c #482818",
"#6 c #783d1e",
"#7 c #6a371e",
"#8 c #321e14",
"a` c #221c1a",
"a. c #4e2f20",
"a# c #793f22",
"aa c #703e23",
"ab c #3d2518",
"ac c #4c2d1e",
"ad c #7b4223",
"ae c #713d20",
"af c #35251e",
"ag c #221a16",
"ah c #452518",
"ai c #783e1e",
"aj c #70391c",
"ak c #2c1a14",
"al c #231812",
"am c #5a301c",
"an c #7e411e",
"ao c #563320",
"ap c #201816",
"aq c #271812",
"ar c #140f0c",
"as c #281a12",
"at c #20160f",
"au c #140f0f",
"av c #271c16",
"aw c #332016",
"ax c #281e18",
"ay c #2a1e1a",
"az c #201814",
"aA c #160f0c",
"aB c #2c1c14",
"aC c #1e160f",
"aD c #18120c",
"aE c #2c1e16",
"aF c #141212",
"aG c #000000",
"aH c #000000",
"aI c #000000",
"aJ c #000000",
"aK c #000000",
"aL c #000000",
"aM c #000000",
"aN c #000000",
"aO c #000000",
"aP c #000000",
"aQ c #000000",
"aR c #000000",
"aS c #000000",
"aT c #000000",
"aU c #000000",
"aV c #000000",
"aW c #000000",
"aX c #000000",
"aY c #000000",
"aZ c #000000",
"a0 c #000000",
"a1 c #000000",
"a2 c #000000",
"a3 c #000000",
"a4 c #000000",
"a5 c #000000",
"a6 c #000000",
"a7 c #000000",
"a8 c #000000",
/* pixels */
"```.`#`a`b`c`d`e`f`g`h`h`i`j`k`k`k`k`k`k`k`k`k`k`k`k`k`k`k`k`k`k`k`k`k`k`k`k`k`k`k`k`k`k`k`k`k`k`k`k`l`g`h`h`m`n`o`p`c`q`#`r`s``",
"`t`u`v`w`x`y`z`A`B`C`p`D`E`y`k`k`k`k`k`k`k`k`k`k`k`k`k`k`k`k`k`k`k`k`k`k`k`k`k`k`k`k`k`k`k`k`k`k`k`k`F`G`d`H`p`o`G`b`y`I`J`K`L`L",
"`M`M`N`N`N`O`O`P`Q`R`M`N`N`S`k`k`k`k`k`k`k`k`k`k`k`k`k`k`k`k`k`k`k`k`k`k`k`k`k`k`k`k`k`k`k`k`k`k`k`k`M`R`O`M`O`T`P`O`N`N`N`N`N`N",
"`E`B`U`V`n`S`f`n`T`W`X`Y`M`Z`k`k`k`k`k`k`k`k`k`k`k`k`k`k`k`k`k`k`k`k`k`k`k`k`k`k`k`k`k`k`k`k`k`k`k`k`R`f`0`W`1`2`l`f`f`m`e`d`3`3",
"`q`d`B`W`m`1`1`m`N`4`5`m`Y`j`k`k`k`k`k`k`k`k`k`k`k`k`k`k`k`k`k`k`k`k`k`k`k`k`k`k`k`k`k`k`k`k`k`k`k`k`0`i`h`5`o`6`Z`m`V`3`s`7`8`8",
"`2`2`2`2`2`T`Q.``P`q..`h`Y`j`k`k`k`k`k`k`k`k`k`k`k`k`k`k`k`k`k`k`k`k`k`k`k`k`k`k`k`k`k`k`k`k`k`k`k`k`0`1`o`5.#`P.a`Q`2`P`O`O`P`P",
"`S`S`S`S`6`R`O`Q`2`q.b`X`Y`j`k`k`k`k`k`k`k`k`k`k`k`k`k`k`k`k`k`k`k`k`k`k`k`k`k`k`k`k`k`k`k`k`k`k`k`k`0`1.c`#`U`P.d`N`Y`S`S`S`S`S",
"`B`X`j`f`S`N`2.d`P.e`J`h`Y`j`k`k`k`k`k`k`k`k`k`k`k`k`k`k`k`k`k`k`k`k`k`k`k`k`k`k`k`k`k`k`k`k`k`k`k`k`0`i.c.b`W`O.``P`R`f`l`h`U`e",
".f...g`c`e`j`f`2`P`x`w`V`Y`j`k`k`k`k`k`k`k`k`k`k`k`k`k`k`k`k`k`k`k`k`k`k`k`k`k`k`k`k`k`k`k`k`k`k`k`k`0`i.c.b.h`N`T`i`X`H.i.g`I.j",
"`h`0.k`i.k`S`M.d`O`x`8`V`Y`j`k`k`k`k`k`k`k`k`k`k`k`k`k`k`k`k`k`k`k`k`k`k`k`k`k`k`k`k`k`k`k`k`k`k`k`k`0`i`o.b.l`P.``R`n.k`i`f`f`W",
".#`S`m`1`1`n`R`Q`P.b`s`m`Y`j`k`k`k`k`k`k`k`k`k`k`k`k`k`k`k`k`k`k`k`k`k`k`k`k`k`k`k`k`k`k`k`k`k`k`k`k`0`i`U`#.h`2.d`0`i`1`Z.k`l.c",
"`q`V`E`H`H.#`l`2`O`5`.`Z`Y`j`k`k`k`k`k`k`k`k`k`k`k`k`k`k`k`k`k`k`k`k`k`k`k`k`k`k`k`k`k`k`k`k`k`k`k`k`0`i`V`5`o`M`2`Z`B`H`3.h`W.g",
"`i`M.k`i`i`S`N`Q`P.g..`Z`Y`j`k`k`k`k`k`k`k`k`k`k`k`k`k`k`k`k`k`k`k`k`k`k`k`k`k`k`k`k`k`k`k`k`k`k`k`k`0`i`V`a`o`P.d`R`l`i`i`6`0`j",
"`h`R`f`f`n`6`O`Q`O.#`U`Y`2.k`k`k`k`k`k`k`k`k`k`k`k`k`k`k`k`k`k`k`k`k`k`k`k`k`k`k`k`k`k`k`k`k`k`k`k`k`O`R`6.c`Z`M.d`N`f`f`f`0`S.c",
"`b`V`o`o`o`j`S`2`P`S`Y`T.``N`k`k`k`k`k`k`k`k`k`k`k`k`k`k`k`k`k`k`k`k`k`k`k`k`k`k`k`k`k`k`k`k`k`k`k`k.d`T`2`f`R`M`T`n`X`o.c`h.c.e",
"`i`0`f`S`f`Y`P`T`Y.m`z`h`0`Z`k`k`k`k`k`k`k`k`k`k`k`k`k`k`k`k`k`k`k`k`k`k`k`k`k`k`k`k`k`k`k`k`k`k`k`k`R.k`1`G.#`R.d`O`S`f`f`S`f`j",
"`#`4.n`c.l`V`6`T`2`W`Z`M`P`j`k`k`k`k`k`k`k`k`k`k`k`k`k`k`k`k`k`k`k`k`k`k`k`k`k`k`k`k`k`k`k`k`k`k`k`k`Y`O`N`g`n`P`Q`n`o`c.m.g`z`5",
"`J`a.n`p`o`1`N`T`O`V`S`P`P`1`k`k`k`k`k`k`k`k`k`k`k`k`k`k`k`k`k`k`k`k`k`k`k`k`k`k`k`k`k`k`k`k`k`k`k`k`Y`N`O`m.k`N.d`0`h`H`q`z.m.m",
"`6`0`0`0`0`M`2`N`N`E`B`l`Y.k`k`k`k`k`k`k`k`k`k`k`k`k`k`k`k`k`k`k`k`k`k`k`k`k`k`k`k`k`k`k`k`k`k`k`k`k`Y`i`i`d`o`N`2`P`R`0`0`6`0`0",
"`f`S`f`S`S`O`P`O`O.n.n`m`Y`i`k`k`k`k`k`k`k`k`k`k`k`k`k`k`k`k`k`k`k`k`k`k`k`k`k`k`k`k`k`k`k`k`k`k`k`k`Y`i`j`A.c`P`P`P`Y`f`f`S`S`S",
"`e`X`V`j`Z`N`i`0`N.m`5`Z`Y`i`k`k`k`k`k`k`k`k`k`k`k`k`k`k`k`k`k`k`k`k`k`k`k`k`k`k`k`k`k`k`k`k`k`k`k`k`Y`i`j`b`o`N`n`R`n.c`p`G`A.g",
"`2`2`T`M`N`2.l`m`R.g`.`Z`Y.k`k`k`k`k`k`k`k`k`k`k`k`k`k`k`k`k`k`k`k`k`k`k`k`k`k`k`k`k`k`k`k`k`k`k`k`k`Y`i`g`a.c`S`o.k`M`R`N`N`N`M",
"`N`R`P`6`f`Y.o`B`N`a`r`Z`Y.k`k`k`k`k`k`k`k`k`k`k`k`k`k`k`k`k`k`k`k`k`k`k`k`k`k`k`k`k`k`k`k`k`k`k`k`k`Y`i`h`5`o`f`5`p`S`f`R`P`M`N",
"`P`O`Q`V`H`i.p.i`P`5`I`Z`Y.k`k`k`k`k`k`k`k`k`k`k`k`k`k`k`k`k`k`k`k`k`k`k`k`k`k`k`k`k`k`k`k`k`k`k`k`k`Y`i`h`5.#`S.q.g`X`C`N`2`P`2",
"`T`O`P`c`K`W.r`z`P.e.e`Z`Y.k`k`k`k`k`k`k`k`k`k`k`k`k`k`k`k`k`k`k`k`k`k`k`k`k`k`k`k`k`k`k`k`k`k`k`k`k`Y`i`h`5.#`S.s.t`G.u`f`2`N.d",
"`j`c`1.t`v`X.v`q`P`I`a`Z`Y.k`k`k`k`k`k`k`k`k`k`k`k`k`k`k`k`k`k`k`k`k`k`k`k`k`k`k`k`k`k`k`k`k`k`k`k`k`Y`i`h`5.#`S.w`r.n`t`W.h`o.k",
".i`7`h``..`l.x`D`P`x..`Z`Y.k`k`k`k`k`k`k`k`k`k`k`k`k`k`k`k`k`k`k`k`k`k`k`k`k`k`k`k`k`k`k`k`k`k`k`k`k`Y`i`h`5.#`f.y..`X`v.i`A`#.c",
"`N.#`0.z`A`m.A.l`O`s.b`Z`Y.k`k`k`k`k`k`k`k`k`k`k`k`k`k`k`k`k`k`k`k`k`k`k`k`k`k`k`k`k`k`k`k`k`k`k`k`k`Y`i`h`5.#`f`z.B.#`z`U`i`h`O",
".a`M`T`p`X`Z`#`V`P`x.e`Z`Y.k`k`k`k`k`k`k`k`k`k`k`k`k`k`k`k`k`k`k`k`k`k`k`k`k`k`k`k`k`k`k`k`k`k`k`k`k`Y`i`h`5.#`R`c`C`X`W`n`T`O.a",
"`T`n`O`m`S`n.B`1`2.C`y`Z`Y.k`k`k`k`k`k`k`k`k`k`k`k`k`k`k`k`k`k`k`k`k`k`k`k`k`k`k`k`k`k`k`k`k`k`k`k`k`Y`i`h`5.#`R`B`e`n`l`f`N`f`T",
".``P`N`l`6`6`W`0`T`s`y`Z`Y.k`k`k`k`k`k`k`k`k`k`k`k`k`k`k`k`k`k`k`k`k`k`k`k`k`k`k`k`k`k`k`k`k`k`k`k`k`Y`i`h`a`X`2`Z`m`l`f`6`O`P.`",
"`P`T`P`R`N`N`m`O`Q.e.g`Z`Y.k`k`k`k`k`k`k`k`k`k`k`k`k`k`k`k`k`k`k`k`k`k`k`k`k`k`k`k`k`k`k`k`k`k`k`k`k`R`i`h`5`h.d`f`6`6`M`M`P`T`P",
"`P`O`2`2`N`O`i`T.d.g`z`Z`Y.k`k`k`k`k`k`k`k`k`k`k`k`k`k`k`k`k`k`k`k`k`k`k`k`k`k`k`k`k`k`k`k`k`k`k`k`k`Y`i`h`5`h.``6`R`S`P`2`P`P`P",
"`f`S`S`n`Z`O`S`2`Q.e.g`Z`Y.k`k`k`k`k`k`k`k`k`k`k`k`k`k`k`k`k`k`k`k`k`k`k`k`k`k`k`k`k`k`k`k`k`k`k`k`k`Y`i`h`5`X`Q`M`O`f`1`S`l`n`i",
"`G`3.c.l`C.k`n`Y`2`y`z`Z`Y.k`k`k`k`k`k`k`k`k`k`k`k`k`k`k`k`k`k`k`k`k`k`k`k`k`k`k`k`k`k`k`k`k`k`k`k`k`Y`i`h`5.#`2`f`N`o`o.#`W.c`D",
"`0`0`0`f`n`0`O`S`P`4`4`Z`Y.k`k`k`k`k`k`k`k`k`k`k`k`k`k`k`k`k`k`k`k`k`k`k`k`k`k`k`k`k`k`k`k`k`k`k`k`k`Y`i`h`5`W`O`Y`2`l`n`6`0`0`S",
"`f`S`S`l.k.k`Y`O`Q`q`b`Z`Y.k`k`k`k`k`k`k`k`k`k`k`k`k`k`k`k`k`k`k`k`k`k`k`k`k`k`k`k`k`k`k`k`k`k`k`k`k`Y`i`h`5`W.``R`l`1`i.k`n`n`l",
"`A`d`B`e`e`W.k`S`Q`4`q`Z`Y.k`k`k`k`k`k`k`k`k`k`k`k`k`k`k`k`k`k`k`k`k`k`k`k`k`k`k`k`k`k`k`k`k`k`k`k`k`Y`i`h`5`U`Q`6.k`V`V`V`j`U`W",
"`S`N`M`M`N`O`Q`T.``F.n`Z`Y.k`k`k`k`k`k`k`k`k`k`k`k`k`k`k`k`k`k`k`k`k`k`k`k`k`k`k`k`k`k`k`k`k`k`k`k`k`Y`i`h`5`g.a`Q`T`O`O`O`O`M`S",
"`H`1`V`m`1`i`Y`N.d`c`G`1`Y.k`k`k`k`k`k`k`k`k`k`k`k`k`k`k`k`k`k`k`k`k`k`k`k`k`k`k`k`k`k`k`k`k`k`k`k`k`R`i`g.m`h.d`N`S`1`Z`V`i`X`G",
"`U`0`S`Y`Y`M`2`P.a`l.k`R`N.k`k`k`k`k`k`k`k`k`k`k`k`k`k`k`k`k`k`k`k`k`k`k`k`k`k`k`k`k`k`k`k`k`k`k`k`k`Y`R`0`Z`R.D`O`P`M`Y`0`Y.k.c",
"`G`V`p`o`X`V`f`Y.`.h.l`l`Y.k`k`k`k`k`k`k`k`k`k`k`k`k`k`k`k`k`k`k`k`k`k`k`k`k`k`k`k`k`k`k`k`k`k`k`k`k`Y`l`1`d`1.d`Y.k`h`U`e`U.c`4",
"`g`6`Z`i.k`n`M`O.d`D.B`Z`Y.k`k`k`k`k`k`k`k`k`k`k`k`k`k`k`k`k`k`k`k`k`k`k`k`k`k`k`k`k`k`k`k`k`k`k`k`k`Y`i`h.g`X.d`O`0`l`i`Z`f.k.#",
"`i`O`Y`M`N`O`T`Q.a`n`l`P`N.k`k`k`k`k`k`k`k`k`k`k`k`k`k`k`k`k`k`k`k`k`k`k`k`k`k`k`k`k`k`k`k`k`k`k`k`k`Y`M`N`Z`R.D`Q`2`N`N`R`N`R`X",
".i`m`W.#`U`g`f`0.d`g`j`R`M.k`k`k`k`k`k`k`k`k`k`k`k`k`k`k`k`k`k`k`k`k`k`k`k`k`k`k`k`k`k`k`k`k`k`k`k`k`Y`6`0`X`n.d`0`i`h.#.c`j.#`a",
"`6`P`R`0`Y`M`2`T.d`a.n`Z`R`f`k`k`k`k`k`k`k`k`k`k`k`k`k`k`k`k`k`k`k`k`k`k`k`k`k`k`k`k`k`k`k`k`k`k`k`k`M`i`h`5`U.a`T`P`R`0`0`O`M`n",
"`E`o`V`i`n`i`M`M.d.g.n`Z`R`f`k`k`k`k`k`k`k`k`k`k`k`k`k`k`k`k`k`k`k`k`k`k`k`k`k`k`k`k`k`k`k`k`k`k`k`k`M`i`h`5`X.d`N`0`Z`i`m`j.#`H",
"`a.n`d.l`W`X`S`S.d.m`A`Z`R`f`k`k`k`k`k`k`k`k`k`k`k`k`k`k`k`k`k`k`k`k`k`k`k`k`k`k`k`k`k`k`k`k`k`k`k`k`M`i`h`5`X`Q`S.k.c`d`4`4`5`5",
".k.k.k.k.k`n`N`M.d`4`b`Z`R`f`k`k`k`k`k`k`k`k`k`k`k`k`k`k`k`k`k`k`k`k`k`k`k`k`k`k`k`k`k`k`k`k`k`k`k`k`M`i`h.e`W.d`N`Y.k`i`1`1`i.k",
"`S`6`6`6`S`Y`O`P.d`A`b`Z`R`f`k`k`k`k`k`k`k`k`k`k`k`k`k`k`k`k`k`k`k`k`k`k`k`k`k`k`k`k`k`k`k`k`k`k`k`k`M`i`X..`W.d`2`N`6`S`6`6`S`S",
"`Y`R`R`Y`Y`R`O`O`Q`c`4`Z`R`f`k`k`k`k`k`k`k`k`k`k`k`k`k`k`k`k`k`k`k`k`k`k`k`k`k`k`k`k`k`k`k`k`k`k`k`k`N`i`o.b`Z`T`P`O`R`Y`R`R`R`Y",
"`F`A`E.h.#`m`f`0`T`q`b`Z`R`i`k`k`k`k`k`k`k`k`k`k`k`k`k`k`k`k`k`k`k`k`k`k`k`k`k`k`k`k`k`k`k`k`k`k`k`k`R`i`W`r`X`2`0.k`j`h`h`B`F.B",
"`q`F`c`p`B`U`n`6`2`q.B`1`R`S`k`k`k`k`k`k`k`k`k`k`k`k`k`k`k`k`k`k`k`k`k`k`k`k`k`k`k`k`k`k`k`k`k`k`k`k`N`i`V`#`W`P`6`j`B`p`c`4`8`w",
"`l`n`n`f`f`0`O`O`2.B`c`1`R`6`k`k`k`k`k`k`k`k`k`k`k`k`k`k`k`k`k`k`k`k`k`k`k`k`k`k`k`k`k`k`k`k`k`k`k`k`O`i`j`q`X`2`O`R`l.k`1`1`1`Z",
"`l`i`1`1`1`Z`0`6`T`d`d`1`M`0`k`k`k`k`k`k`k`k`k`k`k`k`k`k`k`k`k`k`k`k`k`k`k`k`k`k`k`k`k`k`k`k`k`k`k`k`O`1`V`F`Z`N`R`n`m`1`1`1.k`l",
"`M`Y`Y`0`Y`6`M`R`2`f`l`Y`2.d`k`k`k`k`k`k`k`k`k`k`k`k`k`k`k`k`k`k`k`k`k`k`k`k`k`k`k`k`k`k`k`k`k`k`k`k.``0`0`l`Y`P`M`0`Y`Y`Y`R`Y`N",
"`Y`W`z`z.i`U`l`Y`j`p`G.l`g`O`k`k`k`k`k`k`k`k`k`k`k`k`k`k`k`k`k`k`k`k`k`k`k`k`k`k`k`k`k`k`k`k`k`k`k`k`Y`g`p`d`U`f`Y`Z.c`D.i`3`i`M",
"`6`o`4.m`c.#.k`Y`V`p`G`d`o`M`k`k`k`k`k`k`k`k`k`k`k`k`k`k`k`k`k`k`k`k`k`k`k`k`k`k`k`k`k`k`k`k`k`k`k`k`S.h.e.e`3`n`Y`V`p.m.n`d`m`Y",
"`N.E`0.F.G.H`R`T`N`0`S`0`R`Q`k`k`k`k`k`k`k`k`k`k`k`k`k`k`k`k`k`k`k`k`k`k`k`k`k`k`k`k`k`k`k`k`k`k`k`k`2`Y`f`n`R`P`P.E.I.J`0`M`M`P",
".K.L.L.M.N.O.P.Q.R.S`O.T.U.V`k`k`k`k`k`k`k`k`k`k`k`k`k`k`k`k`k`k`k`k`k`k`k`k`k`k`k`k`k`k`k`k`k`k`k`k.W.X.Y.Z.0.1.2.3.4.5.V.6.7.8",
"#`#.###a#b#c#d#e#f#g#h#i#j#k`k`k`k`k`k`k`k`k`k`k`k`k`k`k`k`k`k`k`k`k`k`k`k`k`k`k`k`k`k`k`k`k`k`k`k`k#l#m#n#o#p#q#r#s#t#u#v#w#x#y",
"#z#A#B#C#D#E#F#G#H#I#J#K#L#M`k`k`k`k`k`k`k`k`k`k`k`k`k`k`k`k`k`k`k`k`k`k`k`k`k`k`k`k`k`k`k`k`k`k`k`k#N#O#P#Q#R#S#T#U#V#W#X#Y#Z#0",
"#1#2#3#4.P#5#6#7#8a`a.a#aaab`k`k`k`k`k`k`k`k`k`k`k`k`k`k`k`k`k`k`k`k`k`k`k`k`k`k`k`k`k`k`k`k`k`k`k`kacadaeafagahaiajakalamanaoap",
".T#8aqar.`as#Vatau`Qavawax.L`k`k`k`k`k`k`k`k`k`k`k`k`k`k`k`k`k`k`k`k`k`k`k`k`k`k`k`k`k`k`k`k`k`k`k`k.7ay#Iaz.daAaB#VaC.aaD#zaEaF"
};
