/* XPM */
static char *door_4_xpm[] = {
/* width height num_colors chars_per_pixel */
"    64    64      256            2",
/* colors */
"`` c #0c0a0c",
"`. c #5c5a5c",
"`# c #fc02d4",
"`a c #4c2a1c",
"`b c #2c2a24",
"`c c #b45a24",
"`d c #4c4a4c",
"`e c #2c1a14",
"`f c #6c361c",
"`g c #848684",
"`h c #f47a34",
"`i c #d46a2c",
"`j c #1c1a14",
"`k c #4c3a34",
"`l c #3c3a3c",
"`m c #744224",
"`n c #945a34",
"`o c #8c4624",
"`p c #3c2214",
"`q c #a44e24",
"`r c #3c2a1c",
"`s c #bc6634",
"`t c #1c120c",
"`u c #6c6e6c",
"`v c #2c221c",
"`w c #7c3e1c",
"`x c #9c9e9c",
"`y c #7c4a2c",
"`z c #5c321c",
"`A c #6c3e24",
"`B c #242224",
"`C c #c4622c",
"`D c #e46e2c",
"`E c #5c361c",
"`F c #844224",
"`G c #944e24",
"`H c #4c3224",
"`I c #343234",
"`J c #241a14",
"`K c #7c421c",
"`L c #a45624",
"`M c #442a1c",
"`N c #342214",
"`O c #141214",
"`P c #646664",
"`Q c #b46234",
"`R c #4c4e4c",
"`S c #949294",
"`T c #dc6a2c",
"`U c #cc662c",
"`V c #24160c",
"`W c #7c7a7c",
"`X c #acaaac",
"`Y c #643624",
"`Z c #342e2c",
"`0 c #341e14",
"`1 c #743a1c",
"`2 c #fc8e3c",
"`3 c #444244",
"`4 c #848284",
"`5 c #9c4a24",
"`6 c #442614",
"`7 c #ac5224",
"`8 c #743e1c",
".` c #cc6e3c",
".. c #140e0c",
".# c #646264",
".a c #4c2e1c",
".b c #2c2e2c",
".c c #bc5e2c",
".d c #2c1e14",
".e c #6c3a1c",
".f c #8c8e8c",
".g c #fc8244",
".h c #1c1e1c",
".i c #74462c",
".j c #a45a34",
".k c #944a24",
".l c #a45224",
".m c #3c2e24",
".n c #1c160c",
".o c #747674",
".p c #2c2624",
".q c #a4a6a4",
".r c #844a24",
".s c #64321c",
".t c #5c3a1c",
".u c #9c4e24",
".v c #54321c",
".w c #241e14",
".x c #7c462c",
".y c #442e1c",
".z c #34261c",
".A c #545654",
".B c #dc6e34",
".C c #cc6a34",
".D c #0c0e0c",
".E c #5c5e5c",
".F c #2c2a2c",
".G c #b45a2c",
".H c #5c4234",
".I c #8c8a8c",
".J c #f47a3c",
".K c #d46a34",
".L c #1c1a1c",
".M c #543624",
".N c #3c3e3c",
".O c #74422c",
".P c #945a3c",
".Q c #8c4a2c",
".R c #3c261c",
".S c #3c2a24",
".T c #747274",
".U c #2c2224",
".V c #7c3e24",
".W c #a4a2a4",
".X c #5c3224",
".Y c #6c3e2c",
".Z c #242624",
".0 c #cc622c",
".1 c #e47234",
".2 c #5c3624",
".3 c #343634",
".4 c #7c4224",
".5 c #a45634",
".6 c #34221c",
".7 c #141614",
".8 c #6c6a6c",
"#` c #bc6234",
"#. c #9c9a9c",
"## c #545254",
"#a c #844e34",
"#b c #9c522c",
"#c c #7c7e7c",
"#d c #acaeac",
"#e c #643a24",
"#f c #444644",
"#g c #dc6a34",
"#h c #cc6634",
"#i c #241614",
"#j c #44261c",
"#k c #743e24",
"#l c #4c2e24",
"#m c #2c1e1c",
"#n c #6c3a24",
"#o c #a4522c",
"#p c #1c1614",
"#q c #543224",
"#r c #241e1c",
"#s c #442e24",
"#t c #000000",
"#u c #000000",
"#v c #000000",
"#w c #000000",
"#x c #000000",
"#y c #000000",
"#z c #000000",
"#A c #000000",
"#B c #000000",
"#C c #000000",
"#D c #000000",
"#E c #000000",
"#F c #000000",
"#G c #000000",
"#H c #000000",
"#I c #000000",
"#J c #000000",
"#K c #000000",
"#L c #000000",
"#M c #000000",
"#N c #000000",
"#O c #000000",
"#P c #000000",
"#Q c #000000",
"#R c #000000",
"#S c #000000",
"#T c #000000",
"#U c #000000",
"#V c #000000",
"#W c #000000",
"#X c #000000",
"#Y c #000000",
"#Z c #000000",
"#0 c #000000",
"#1 c #000000",
"#2 c #000000",
"#3 c #000000",
"#4 c #000000",
"#5 c #000000",
"#6 c #000000",
"#7 c #000000",
"#8 c #000000",
"a` c #000000",
"a. c #000000",
"a# c #000000",
"aa c #000000",
"ab c #000000",
"ac c #000000",
"ad c #000000",
"ae c #000000",
"af c #000000",
"ag c #000000",
"ah c #000000",
"ai c #000000",
"aj c #000000",
"ak c #000000",
"al c #000000",
"am c #000000",
"an c #000000",
"ao c #000000",
"ap c #000000",
"aq c #000000",
"ar c #000000",
"as c #000000",
"at c #000000",
"au c #000000",
"av c #000000",
"aw c #000000",
"ax c #000000",
"ay c #000000",
"az c #000000",
"aA c #000000",
"aB c #000000",
"aC c #000000",
"aD c #000000",
"aE c #000000",
"aF c #000000",
"aG c #000000",
"aH c #000000",
"aI c #000000",
"aJ c #000000",
"aK c #000000",
"aL c #000000",
"aM c #000000",
"aN c #000000",
"aO c #000000",
"aP c #000000",
"aQ c #000000",
"aR c #000000",
"aS c #000000",
"aT c #000000",
"aU c #000000",
"aV c #000000",
"aW c #000000",
"aX c #000000",
"aY c #000000",
"aZ c #000000",
"a0 c #000000",
"a1 c #000000",
"a2 c #000000",
"a3 c #000000",
"a4 c #000000",
"a5 c #000000",
"a6 c #000000",
"a7 c #000000",
"a8 c #000000",
/* pixels */
"`3.N`3####.A.E.T.T`u.8`u.T`u`u.8.#.E`.##`R#f.F`l`l`l.b.3`#`#`#`#`#`#`#`#.b`l`l`l.3.b`3`d`R`..#`P`u`u`u`u.8.8`P.E.A`R`d#f`3`I`3.N",
".E.#.E.#.E.#.T.I.f.I.f#.`x.q.W`S#c.o.8.#`.`.#f`d#f.A`R.#`#`#`#`#`#`#`#`#####`R#f`d`3##`..E`P.T.o`W`W`W.o.o.o.o.8.8`.`..A`.##.E.E",
".h.h.L.7.7.7.7.7.L.L.7.L.L.h`B.h#r.h.h.h.L.L.7`B.h#r.h.p`#`#`#`#`#`#`#`#`B`B.h#r.h.7.7.h.h#r.h.h#r.h.L.7.L.L#p.7.L.7.7.L.7.7`B.h",
".h.L.7.F#f`R`.`u.E.A##`R##`R`R#f.N`l.F.Z.F.b.7.N.N.Z.h`I`#`#`#`#`#`#`#`#`B`b.Z.N`I.7.b.F.F.3#f`R`d`d`R`d.N.N`l.N.3`l`l.F.h`O.h.L",
".Z#p.Z.#.f`4.o`4.T.8.E`..E.E`.`d#f.N.3`I`I.3.h`..#.3`B.3`#`#`#`#`#`#`#`#`B.b`l.E`3.Z.3.3.3`d`u`W.T.T#c`4.o.o.o.#####.E.A`l`O.h.b",
".b.7.F`P.N`B.L.L.h.L.7.L.7.L.7.L.7.L#p.7.7.D.L.A`P`l`B.3`#`#`#`#`#`#`#`#.Z`I`3.E.N.L``.7#p.L.h.L.7.h.L.L.L.L.h.h.7.h.Z`3`3.7.L#f",
".3.L.3.T.b.h.L.L.Z.Z.F.Z.F.Z.F.Z.F.Z.Z`B.h`O.L.A.8`l.Z.3`#`#`#`#`#`#`#`#.Z`Z`3`P.N.L`O.h`B.Z.F.Z.F.Z.Z.Z.Z.F.Z`B.L.L.h`l`R.7`B##",
".p.7.b`..b.L.L.h.3`3`d`R`R`d#f`l.3.F.F.h.L`O.L.#`u`l`B.3`#`#`#`#`#`#`#`#.Z`Z`3`P`3.L.D.L`B.F.b`l.N`d`R##`R`d`3.b.h.L.L`I#f.7.h.b",
".3.7.Z##.3.b.b`d.#`u.8`4.f.I.I`P.E###f.3.F.7.L`u.o.3.Z.3`#`#`#`#`#`#`#`#.Z`Z#f`P`3.h.7`I.N#f##.E`P`g`x.W.I.8`u`..3`I.F.3`3.7#r.N",
".3#p.Z`R`B.L.h.Z`I`I.b.N.N.N`l.Z`Z.b`Z.Z`B.D.h.8.T.3`B`l`#`#`#`#`#`#`#`#.Z.b`3`P#f.L.D`B.b.b`I.F.F.N.A.A.N.F.3`I`B.h.h`B.N.7`B.N",
"`l.L.F##.b.h#r.Z`l.3.3`R`.##.N.Z.3`I`I.b`B.7.L`P`u.3`B.3`#`#`#`#`#`#`#`#`v.b.N.#`3`j`O.Z.b`I`I.b.b`3.#.#`3.b.N.3`B.h.h`I`3.L.Z.N",
".N.L.b`.`I.Z.b.N.A.A`d.T.I#c`..3###f`d.N.b.7.h.#.8`I`B.3`#`#`#`#`#`#`#`#.Z`I.3.#.N.h.7.3#f`d`d`3.N.E.I`4.E#f`.##`I.b.F.3`3.7.Z`3",
"#f.L.b.A.F.h`B.F.3`I.Z.3`l.3`Z.h.b`I.b.F.h.7.L.E`P`I`B.3`#`#`#`#`#`#`#`#.Z`Z.3.#`3.h`O`B.F.b.b.F.Z.3`R#f.3.p`I.b`B`B`B`I#f.L.Z`3",
"#f.L.b`..Z.L.7`B`I.N`I`R`.`d`l`B.F.F.b.Z.L.7.L.N.N`B.7`I`#`#`#`#`#`#`#`#`j`B.Z`3`I.h`O.h.F.F.F.Z.p`3.E.A.N`I.3.b.h.7.h.b`d.7.Z`3",
"`R.L.b.#.b.p.b.3`d###f.T.f.o`..3.N`3.N`l.Z.L.L.Z`B.7`O.h`#`#`#`#`#`#`#`#...7`j.Z.Z.h.7.b.N.N#f`l.N`P.I`W`.`3.A#f`Z.b.p.b#f.L.Z`R",
"##.L.b`u.3.h.L`B.Z.b.F`I`l`I.b.Z.b.Z.F`B.L.7`B.E.E`l.Z`I`#`#`#`#`#`#`#`#.w.b.3##.N`B`O.h.p.F.F.Z.b.3`3`3.b.F.b.Z.h.h.h`I#f.L.Z`d",
".A.h.3.8`I.h.Z.3`3`R.#`u.o`P`P`..A###f.3.Z.7.L.N`I`B.L.3`#`#`#`#`#`#`#`#.Z.h.h`l.b.L.7.F.N`R.E.E.E.#.o`W`P.E`3.N.F.Z`B.F#f.L.F`R",
".E#r`l`P.Z.L.h`I`l`d`u`4.f#c.T.E.A`d`3`I.h.7.L`l.Z.L.7`I`#`#`#`#`#`#`#`#.w.h.h`I.b.h`O.Z.N`d.A.E`.`..#`u`P##.3`I.Z.h.7`B#f`B.b`.",
"`P.h`l`P`B.7.L`B.Z`B.Z.Z.F.Z.Z.Z.Z.Z.Z#r.L.h.h`R#f.b`B`Z`#`#`#`#`#`#`#`#`B`I`Z`R`3.h.L.L`B.Z.Z.p.Z.Z.Z.F`B.Z`B`B`B.L`O`B`3.h.b`.",
"##.h`l`P.p.F.b.b`I.3`I.b.b.F.F.p.F.p.F.L.L.L.h`.##.3`B.b`#`#`#`#`#`#`#`#.w.b.3`.`3.L.7.L`B.F.F.Z.F.F.Z.b.b`I.b.b.b.F`B.Z.N`B.F`.",
".N#r.b`P.N.A`u.T.o.o`W.T.E#f#f.N.3.3`I.h.b.Z.h`..#`I`B`I`#`#`#`#`#`#`#`#.Z`I.3`..N.h.b`B.b.N`R##.A.E`P#c`4.8.A`d.N.3.3.b`l.h.F`R",
".3`B.3.8`I.3.F.7.L.L.L.Z#r.L.7.L.7`B.h.L#f.3`B.E.8`I`B.b`#`#`#`#`#`#`#`#.w`I.3.#`3.F.N.b`B`B.h.h`B.h.F`I.F.Z`B.L.7`I.b.b.N`B.F#f",
".3.Z.N`u.F.3.b.L.h.h.h.h.h.h.h`B.L.Z.F`B`u#f.h.#`P`I`B.b`#`#`#`#`#`#`#`#`B.b.N.E`3.Z.#`d.Z.F`B.L.h.h.h.h`B.h.h`B`O.3.F.F`3.h.b`3",
"`l.b#f.T.Z`l.b.h.L.L.L.L.L.L.L.h`O.3`d.b.I##.L.E`P`I.Z.b`#`#`#`#`#`#`#`#.w`I`l.E.N.F`W.E.N`R.h.7.h.L.L.L.7.h.L.L.L`I.Z.b#f.Z`Z#f",
".F.L.N.o.Z`l.b.7`O.D.L.7.7.7.7.L.L##.o`3#d.E.L.#`P`I`B.b`#`#`#`#`#`#`#`#.Z.b`l.#.N.Z.f.8##`4.F.L.h`O.7`O.L`O.D.7.7.3.Z`I`3.h`B.b",
"`I`B#f`4`B`l`I.3`3.Z`d##.N`..3##`I.8#c.N`X.A.L`P.E`I.Z`Z`#`#`#`#`#`#`#`#.w`I`l.E.N.F.I`P.A.W.N`3.N.b.A`I.A.b.b`3`B`l`B.b#f`B.F.3",
".3.h#f`g`B.N.3`3`R.p`P`W.E`4`R.o`l`u`P.b#.##.L`u`P`I`B.b`#`#`#`#`#`#`#`#`B.b.N.#.N.F#c`P.N#c##`..#`3#c#f.o`l.b`d.Z.3.Z.F#f`B.F.3",
"`I.h`3`4.Z.N`I`I`I`O.b`I.F.N`B.N.Z.T.A.3`W#f.L`u`P`I`B.b`#`#`#`#`#`#`#`#.w`I.3.#.N`b.E##.N.E.N.b`l.h#f#r`l.L.h`l.h`l`B.b#f`B`B`l",
".b.h`l.o`B.3`I.7.7``.L.7`O.7```B.7`d.N`I.#.3.L.8`P`I.Z`Z`#`#`#`#`#`#`#`#.Z`I`l.E.N`B`R`R`l`3.F.7.h``.L``.h.D.D.L.7`I.Z.b`3.h.Z`l",
".3.h`l`u.p.3.3`B`B.D.Z.h.7.Z.7.F.h`I.F.F.A`I.7.8.#`I`B.b`#`#`#`#`#`#`#`#.w.b.N.#.N`B#f`d.F.F.F.h.F.7`B`O.Z.L.7.p.L.3.F.F.N`B`B#f",
".p.L.3.8.Z`I.3.L.7.D.7.7`O.L.D.L.h.b.Z.Z.N.Z.7`u.#`I.Z.b`#`#`#`#`#`#`#`#.Z`I.3.E.N#p`I`I.b.F.Z.h.L.D.L.D`O.7`O.7.h`I.Z`I.N`B.L.b",
".b.h`l`P.F`l`l.7.D.7`O`O.7.L.L.7.L`B.h`B.3.L.7.#.E`I`B.b`#`#`#`#`#`#`#`#.w.b.N.#`l.D.b.Z.Z`B.h.L.7.L.7.7`O`O`O.D.h`l.F.b.N.h`B.N",
"`I.L`l##.b`l.N.L.7.h.L.h.L.L.L.h.7.L.h.L`I.7`O.E.E`I.Z.b`#`#`#`#`#`#`#`#`B`I`l.E`l.D.p`B.Z.L.L.L.L.L.L.L.h.L.L.7`B`l.b`I`l`B.h.N",
".F.7.N##.b.N`3.N.N`l.3`l`I.F.Z.F.Z.b`I.L.Z.L`O`P.E`I`B`Z`#`#`#`#`#`#`#`#.w.b`l.#`l.7.h.h.F`I.Z.b.b.b.3.3`l.3#f#f.N.N.3`I`l`B.h`I",
".F.L.3`R.b`I`I`d`P`4.I`g#c.#.A`d`3#f`R.b.b`B.L.E.E`I.Z.b`#`#`#`#`#`#`#`#.Z`I`l.E.N.L.F.h`3.N.N`3`3##.E.T.o#c`u.E`d`I`I`I.3.h`B.F",
".3.L.b`R`Z.Z.Z.b`I.N#f`3`l.b.Z.Z.Z.F.F.Z.L.F.L`.`.`I`B.b`#`#`#`#`#`#`#`#.w.b.N.E`3.L`B.7.b.b.F`B.Z.Z`I.N.N`3.3`Z.b`B.F.b.3.L.Z.N",
"`l.L`I`.`B`B.Z.b.b.3`l.3.3`I.F.Z.F.F.b`I`B.L.7.A`..3`B`Z`#`#`#`#`#`#`#`#.Z`I`l.E.N.D.Z.b`I`I.b.b.F.b`I.N`l.3`Z.b.F.Z.h`I`l.7.Z.N",
"`l.7`I`u.Z.Z.b`d`.`P`W.o.T`P`.`d#f#f`d.N.b.Z.7`.`.`I`B.b`#`#`#`#`#`#`#`#.w.b`l.#.N.7.p.b.3.3`l.3.N.N`R.E`.`R#f.N.3.Z.h.3`l.L.Z`l",
".3.L.b.E`B`O.7`B.Z.b`I.3.3.b.F.h`B.h.h.L.7.7`O.A.A`I.Z.b`#`#`#`#`#`#`#`#`B`I`l.E`l``.7.7.h.L.L.L`B.Z`I.N`I.b.F`B`B`O.7`I`l.7.Z.N",
"`l.7.b`R`B.L`B.N`3`I##.8.f`P`d.b`l.3`I`I`B.h`O`R##`I`B.b`#`#`#`#`#`#`#`#.w.b`l.E`l`O.h.p`I`I.3`I`l.A`P`W.E`3`I`3.3.L.L.3`l.7.Z`3",
"`l.7.F`R.h`O.7.Z.b.p`l#f.8`d.N.Z.F`B`B.h.L.L``.b.b`B.h.b`#`#`#`#`#`#`#`#.Z`B.Z`I.h``.h.L.h.Z.Z`B.b`3##.A#f`Z.Z.F`B`O`O`I`l.L`B`3",
"`l.7.F`d.Z.h.p.3`d.3##.E`g.###.3`d.N.N.3.F`B.D`3#f.b.Z`Z`#`#`#`#`#`#`#`#.w.b`I`R`I`O`B.b`l.N#f.N`3`.`u#c.##f.N`3`I.h.h.3`l.7`B`d",
"`l.L.F.N.h.L.h.b`I.Z.3`3.A.N`l.Z`I`I.b.b.h.h`O##.A`I`B.b`#`#`#`#`#`#`#`#`B`I.3.E.N.D.h.Z.b`Z`I.F.b.N`R##`3.b.F.b.F.h.7.b`l.7.Z`R",
".N.7.b`3.h.D.7`B.F.L`I#f##`l.b.h`B.h.h.h.L`O.D.F.b.L.h`I`#`#`#`#`#`#`#`#.w.h`B`I`B``.7#p.h.h`B.h`B.N##.A`3.Z.h.F.h`O.D.b.3.7`B.A",
"`3.L.Z#f.F`B.F.N#f.b##`P.T`.##.3.N`3`l`l.F`B`O.3.3`B.h.b`#`#`#`#`#`#`#`#.Z.p.Z.N.b`O.Z.b`l.N`3.3.N.#`W#c.#`3.3#f.3.Z`B.3.N.L`B##",
".N.L.Z#f.p.7.7`B`B.Z.Z.F.b.F.Z.L`B.Z`B.h.7.7`O.E`.`I`B.F`#`#`#`#`#`#`#`#.w.b`l.E.N``.7.L`B.Z.Z.h#r.F.3`l.b.Z`B.Z.h.7.L`l`l`O`B##",
".N.7.p`3.Z.h.Z.3.A.8`u.T#c.#`R`3.3.b.b`I`B.h.7.E.A`I`B.F`#`#`#`#`#`#`#`#`B.b.N.#`l`O.h.Z`I`I`I.3.N`d.E.E`d`d.N`l.F`B.h.3`l.7`B`R",
"`l.L.Z`3.F.F`I`d`P`W`W.T.o.8.E.A`R`d.N`l.Z.F`O`.`.`I.h.b`#`#`#`#`#`#`#`#.w.b`l.E.N.7`b.b`3`R`..E.#.E`P.#.E`.###f.N.b.F.3.3.L`B##",
"`l.7`B.N.Z`B.h.Z`I.b.b.b`I.b`I.b`I.b.b.b.h`B.D.E`..3`B.F`#`#`#`#`#`#`#`#`B.b`l`P.N`O.h`B.b.b`I`I.b`Z.b`I.b.b.b`Z`B`B.L`I.3.7`B.A",
".3.7`B.N.Z.h`B.p.b.F.b.F.Z.F.Z.F.Z.Z.F`B.L.L`O.A`..b.Z.F`#`#`#`#`#`#`#`#.w.b.N`P`3`O.7.h.F.Z.Z.Z.F.F.Z.F.F.b.b.b`B.h.h`I`I`O.h.A",
"`Z.7.h`3`d.b.Z.F.b`I.F.F.F.Z.Z`B`B`B`B`B.h.L.7##.E`I`B.Z`#`#`#`#`#`#`#`#.h`I`3`P`I.7.L.h`B`B.Z`B.h.Z.Z.F.Z.b.F.F`B`B.F`3.3.7`B`3",
".Z#p.h.N`..#`P`P.8.o`u.E.E.E.A`.`R`3.N.3.F.Z.7.A`.`I.h`I`#`#`#`#`#`#`#`#.w.b`3`P.N#p.Z.b.3`l`l#f.A##.#.E.A#####f`l.3#f#f.3`O.h.b",
".F.7.L.3.N`d`R##.A.E.E`..A`..A.A`R`d#f`l.b.Z.L.A.A`I.Z.Z`#`#`#`#`#`#`#`#.w.b.3`P.N.L.Z`l`3`d`R`..T.o.o#c`u.#.E`R`3`3.N.N.b`O.h`I",
".Z.D...h`B`B`B`B`B.Z`B.Z.F.b.b.F.b.F.F.Z.L.h.7.A##.b`B.p`#`#`#`#`#`#`#`#.h`I.3`.`l.L.L`B.b.b`I`I`I`I`I.b.F.Z.F`B`B.h.Z`B.L``.L.3",
".b.7.7`B.Z.Z.Z.Z.Z.Z`B.Z.F.b.b`I`I`I.b.3.Z.Z.L`d`R`I.h.Z`#`#`#`#`#`#`#`#`j`I.3.A`I.h`B.b.3`I`I.b.b.b.b.F.Z`B`B.Z.Z.Z.Z.Z.h.D.h`I",
"`I.b.Z.Z`B.L`B.h`B`B`B`B`B`B.h`B`B.Z`B.Z`B`B.7.F.b`B.L`O`#`#`#`#`#`#`#`#...Z.Z.b`B.L.h.Z`B`B.Z.Z`B.h`B`B`B`B`B`B`B`B.L`B.F`B`I.b",
".8.T.#`d.F`B.N#f.A.A`R.N.3.Z`B.N.E.E##.N.b`B.3`d###f`l.L`#`#`#`#`#`#`#`#.w`l`d`R.N.F.Z`I`3`R##`d.b`B.b.3.N#f##`R`3.3`B.3#f`d`R`d",
"`P.8`P`R.F.b#f.E.T.o.8`d`l.F.Z`3`.`.##.N`I`B.3`d##`R.N`B`#`#`#`#`#`#`#`#`b.N`P.#`d.b`B.3`d.E.A`R.3`B.3.N`d##.E`.`R`3`B.3`R##.A##",
".3.F.p.b.p.Z.Z`Z`I`I.b.Z.Z`B.h`B.Z.F.F.Z`B.7.h.Z.F.Z`B`O`#`#`#`#`#`#`#`#.n.Z.F.b`B`j.7.Z.p.F.Z.h`B.L#r`B.Z.F.b.b`B.Z.h.p.Z`B.F.b",
"`r`O.a#e.2`M.L`a`A.2.6#p.R.M#s#p#p`M.Y.R`t#s#l#s.L.7#r`e`#`#`#`#`#`#`#`#.d.h`O.p.a.y#m#p.a`H`e..`J.m#s`J#p.R.X.v`0#p`M#q#q#i`O.R",
"`v.a.c.C.5`H.2`C#g.k`v#e#h#`.X.S.5.J`s#q#k`D#g`y.U.H.P.Y`#`#`#`#`#`#`#`#.r.P`k.z`Q`D.G.a#e.K.C.i#j#b.g.B`H.M.J`2.K`H.x.`.B`o.6.y",
".L`1.u.r`M`J#n`7`o`p.6`o.u`z.d.2.k.k`6`p`w`q#k`0.m`o#o`E`#`#`#`#`#`#`#`#`K`L.O.z.a#b`7`f`N`1.G#b#l`6.u.0.k.6.e.0`U.a`J#n#b.k.a#p",
"`v`8.4.a#p.6#k`F`p.n.a`w.s`e#r`f#k#j.n#j`w`Y`0`J#l.4`A.R`#`#`#`#`#`#`#`#.a.4`A.z`J`6`w`1`e`J`z`w.M#i`p.V#k.6#p.s`o`z`J#r`Y`K`E.L",
"`j#m#m.7`O`e`N`N..`t.w`N#i.D#p`0`J....`J`0`V...7.w`0.w#p`#`#`#`#`#`#`#`#`J.d`0#i`O...d`0.n```O`0.d`O...d`N`J...n.6`N#p.D#p.z#m`O"
};
