/* XPM */
static char *door_0_xpm[] = {
/* width height num_colors chars_per_pixel */
"    64    64      256            2",
/* colors */
"`` c #0c0a0c",
"`. c #5c5e5c",
"`# c #64321c",
"`a c #343634",
"`b c #3c2214",
"`c c #944a24",
"`d c #b46234",
"`e c #242224",
"`f c #744224",
"`g c #f47a34",
"`h c #24160c",
"`i c #8c8a8c",
"`j c #542e1c",
"`k c #ac5224",
"`l c #d46a2c",
"`m c #4c4a4c",
"`n c #3c2e24",
"`o c #945a34",
"`p c #2c2e2c",
"`q c #743a1c",
"`r c #844224",
"`s c #141614",
"`t c #747674",
"`u c #4c3a34",
"`v c #342214",
"`w c #cc6a34",
"`x c #341e14",
"`y c #9c9e9c",
"`z c #643a24",
"`A c #4c2a1c",
"`B c #a44e24",
"`C c #c4622c",
"`D c #7c4a2c",
"`E c #241e14",
"`F c #3c2a1c",
"`G c #2c2a24",
"`H c #7c421c",
"`I c #e46e2c",
"`J c #6c6a6c",
"`K c #4c2e1c",
"`L c #a45624",
"`M c #1c1e1c",
"`N c #5c4234",
"`O c #1c120c",
"`P c #444244",
"`Q c #9c522c",
"`R c #2c221c",
"`S c #5c321c",
"`T c #dc6a2c",
"`U c #545654",
"`V c #7c3e1c",
"`W c #844a24",
"`X c #1c160c",
"`Y c #848284",
"`Z c #5c361c",
"`0 c #acaaac",
"`1 c #6c3a1c",
"`2 c #141214",
"`3 c #442614",
"`4 c #9c4a24",
"`5 c #bc6634",
"`6 c #fc8e3c",
"`7 c #2c1a14",
"`8 c #9c9a9c",
".` c #b45a24",
".. c #342624",
".# c #cc622c",
".a c #2c1e14",
".b c #7c462c",
".c c #a45634",
".d c #1c1a1c",
".e c #6c3e2c",
".f c #140e0c",
".g c #646664",
".h c #6c361c",
".i c #3c3e3c",
".j c #bc5e2c",
".k c #74462c",
".l c #fc8244",
".m c #241a14",
".n c #949294",
".o c #54321c",
".p c #545254",
".q c #442e1c",
".r c #342e2c",
".s c #743e1c",
".t c #7c7e7c",
".u c #34261c",
".v c #a4a6a4",
".w c #a45224",
".x c #442a1c",
".y c #7c4624",
".z c #747274",
".A c #4c3224",
".B c #2c2624",
".C c #dc6e34",
".D c #8c4a2c",
".E c #1c1a14",
".F c #5c3a1c",
".G c #6c3e24",
".H c #cc662c",
".I c #0c0e0c",
".J c #646264",
".K c #643624",
".L c #3c3a3c",
".M c #3c261c",
".N c #944e24",
".O c #242624",
".P c #74422c",
".Q c #f47a3c",
".R c #241614",
".S c #8c8e8c",
".T c #ac562c",
".U c #d46a34",
".V c #4c4e4c",
".W c #945a3c",
".X c #8c4624",
".Y c #7c7a7c",
".Z c #543624",
".0 c #34221c",
".1 c #cc6e3c",
".2 c #a4a2a4",
".3 c #241e1c",
".4 c #3c2a24",
".5 c #2c2a2c",
".6 c #7c4224",
".7 c #e47234",
".8 c #6c6e6c",
"#` c #4c2e24",
"#. c #5c5a5c",
"## c #844e34",
"#a c #bc6234",
"#b c #343234",
"#c c #444644",
"#d c #848684",
"#e c #acaeac",
"#f c #9c4e24",
"#g c #a45a34",
"#h c #a4562c",
"#i c #2c2224",
"#j c #5c3224",
"#k c #dc6a34",
"#l c #7c3e24",
"#m c #1c1614",
"#n c #5c3624",
"#o c #6c3a24",
"#p c #44261c",
"#q c #b45a2c",
"#r c #2c1e1c",
"#s c #543224",
"#t c #442e24",
"#u c #743e24",
"#v c #a4522c",
"#w c #cc6634",
"#x c #000000",
"#y c #000000",
"#z c #000000",
"#A c #000000",
"#B c #000000",
"#C c #000000",
"#D c #000000",
"#E c #000000",
"#F c #000000",
"#G c #000000",
"#H c #000000",
"#I c #000000",
"#J c #000000",
"#K c #000000",
"#L c #000000",
"#M c #000000",
"#N c #000000",
"#O c #000000",
"#P c #000000",
"#Q c #000000",
"#R c #000000",
"#S c #000000",
"#T c #000000",
"#U c #000000",
"#V c #000000",
"#W c #000000",
"#X c #000000",
"#Y c #000000",
"#Z c #000000",
"#0 c #000000",
"#1 c #000000",
"#2 c #000000",
"#3 c #000000",
"#4 c #000000",
"#5 c #000000",
"#6 c #000000",
"#7 c #000000",
"#8 c #000000",
"a` c #000000",
"a. c #000000",
"a# c #000000",
"aa c #000000",
"ab c #000000",
"ac c #000000",
"ad c #000000",
"ae c #000000",
"af c #000000",
"ag c #000000",
"ah c #000000",
"ai c #000000",
"aj c #000000",
"ak c #000000",
"al c #000000",
"am c #000000",
"an c #000000",
"ao c #000000",
"ap c #000000",
"aq c #000000",
"ar c #000000",
"as c #000000",
"at c #000000",
"au c #000000",
"av c #000000",
"aw c #000000",
"ax c #000000",
"ay c #000000",
"az c #000000",
"aA c #000000",
"aB c #000000",
"aC c #000000",
"aD c #000000",
"aE c #000000",
"aF c #000000",
"aG c #000000",
"aH c #000000",
"aI c #000000",
"aJ c #000000",
"aK c #000000",
"aL c #000000",
"aM c #000000",
"aN c #000000",
"aO c #000000",
"aP c #000000",
"aQ c #000000",
"aR c #000000",
"aS c #000000",
"aT c #000000",
"aU c #000000",
"aV c #000000",
"aW c #000000",
"aX c #000000",
"aY c #000000",
"aZ c #000000",
"a0 c #000000",
"a1 c #000000",
"a2 c #000000",
"a3 c #000000",
"a4 c #000000",
"a5 c #000000",
"a6 c #000000",
"a7 c #000000",
"a8 c #000000",
/* pixels */
"`M.O.L.i`P.i`P.p.p`U`..z.z.8`J.8.z.8.8`J.J`.#..p.V#c.5.L.L.L`p`a`p.L.L.L`a`p`P`m.V#..J.g.8.8.8.8`J`J.g`.`U.V`m#c`P#b`P.i.i`a`M`M",
".B.i`m#.`..J`..J`..J.z`i.S`i.S`8`y.v.2.n.t`t`J.J#.#.#c`m#c`U.V.J`U.p.V#c`m`P.p#.`..g.z`t.Y.Y.Y`t`t`t`t`J`J#.#.`U#..p`.`.`U`m.r`p",
"`M`s#m`s`M`M.d`s`s`s`s`s.d.d`s.d.d`M`e`M.3`M`M`M.d.d`s`e`M.3`M.B`M`e`M.3`M`s`s`M`M.3`M`M.3`M.d`s.d.d#m`s.d`s`s.d`s`s`e`M#m.d`s`e",
"`p.5.O`e`M.d`s.5#c.V#..8`.`U.p.V.p.V.V#c.i.L.5.O.5`p`s.i.i.O`M`a`e.5.O.i#b`s`p.5.5`a#c.V`m`m.V`m.i.i.L.i`a.L.L.5`M`2`M.d.O.5.O`a",
"#b.L.i.i.O#m.O.J.S`Y`t`Y.z`J`.#.`.`.#.`m#c.i`a#b#b`a`M#..J`a`e`a.O`p.L`.`P.O`a`a`a`m.8.Y.z.z.t`Y`t`t`t.J.p.p`.`U.L`2`M`p#c`P`a`a",
"`a.V.8.p.5`s.5.g.i`e.d.d`M.d`s.d`s.d`s.d`s.d#m`s`s.I.d`U.g.L`e`a.O#b`P`..i.d```s#m.d`M.d`s`M.d.d.d.d`M`M`s`M.O`P`P`s.d#c.z.z`P.L",
".L`U`i.V`a.d`a.z`p`M.d.d.O.O.5.O.5.O.5.O.5.O.O`e`M`2.d`U`J.L`e`a.O#b`P.g.i.d`2`M`e.O.5.O.5.O.O.O.O.5.O`e.d.d`M.L.V`s`e.p`U`t`P.L",
"`p.p`..B.O`s.r#.`p.d.d`M`a`P`m.V.V`m#c.L`a.5.5`M.d`2.d.J.8.L.O`a.O.r`P.g`P.d.I.d`e.5`p.L.i`m.V.p.V`m`P`p`M.d.d#b#c`s`M`p.5.g`a`a",
".5#c`m`p.L`s.O.p`a`p`p`m.J.8`J`Y.S`i`i.g`..p#c`a.5`s.d.8`t`a`e`a.O.r`P.g`P`M`s#b.i#c.p`..g#d`y.2`i`J.8#.`a#b.5`a`P`s.3.i`e#.`p#b",
".5#c.L.5`a`s.B`m`e.d`M.O#b#b`p.i.i.i.L.O.r`p.r.O`e.I`M`J.z`a`e.L`e`p`P.g#c.d.I`e`p`p#b.5.5.i`U`U.i.5`a#b`e`M`M`e.i`s`e.i`e.V`p`p",
".O#c`a.5.L.d.5`U`p`M`M.5.L`a`a.V#..p.i.O`a#b#b`p`e`s.d.g.8`a`e`a.O#b.i.J#c.d`2.O`p#b#b`p`p`P.J.J`P`p.i`a`e`M`M#b`P.d.O.i`e`m`p.r",
".5`P#b`p.i.d`p`U#b.5`p.i`U`U`m.z`i.t#.`a.p#c`m.i`p`s`M.J`J#b`e`a.O.r`a.J.i`M`s`a#c`m`m`P.i`.`i`Y`.#c#..p#b`p.5`a`P`s.O`P`M.V`p`p",
".O#c#b`p#c.d`p`U.5`M`e.O`a#b.O`a.L`a.r`M`p#b`p.5`M`s.d`..g#b`e`a.O#b`a`.`P.d`2`e`p`p`p.5.O`a.V#c`a.B#b`p`e`e`e#b#c.d.O`P`e`m.5`p",
".5`P#b`p#c.d`p#..O.d`s`e#b.i#b.V#.`m.L`e.5.5`p.O.d`s.d.i.i`e`s#b.d`e.O`P`a`M`2`M.5.5.5.O.B`P`.`U.i#b.L`p`M`s`M`p`m`s.O`P`e#c`p`p",
".O#c`p`a.V.d`p.J`p.B`p`a`m.p#c.z.S`t#.`a.i`P.i.L.O.d.d.O`e`s`2`M`2`s.d.5`e`M`s`p.L`P.i.L`P.g#d.Y#.`P`U`P`p`p.B`p#c.d.O.V`e#c`p`p",
".5#c.r`p.p.d`p.8`a`M.d`e.5`p.5#b.L#b`p.O`p.O.5`e.d`s`e`.`..L.O#b`e`p#b.V.i.O`2.d.5.5.5.O.5`a#c`P#b.5.5.O`M`M`M#b#c.d.O`m`e#c.r`p",
".O`m`p.5`U`M`a`J#b`e.O`a`P.V.J.8`t.g.g#.`U.p#c`a.O`s.d.i#b`e`s`a`e`M`M.L`p.d`2`p.i.V`.`.`..J`t.Y.g#.`P.i.5.O`e.5#c.d.5.V`M`m`p.5",
".5#c#b.L`..3.L.g.O.d`M#b.L#c.8`Y.S.Y.z`.`U`m`P#b`M`s.d.L.O.d.d#b`e`M`M`a`p`M`2.O.L`m`U`.`.#..J.8.g`U`a`a.O`M`s`e#c`e`p#..5`m`p`p",
".O`m`a.i.g`M.L.g`e`s.d`e`e.O.O.O.5.O.O.O.O.O.O.3.d`M`M.V#c`p`e`p.O`p.r.V`P`M.d.d`e.O.O.5`e.O.O.5`e.O`e`e`e.d`2`e`P`M`p#.`p.V`p.r",
".5.L#b#c.p`M.L.g.O.5`p`p#b#b#b#b`p.5.5.B.5.B.5.d.d.d`M#..p`a`e#b`e`p`a#.`P.d`s.d`e.5.5.O.5.O.5.5`p#b`p`p`p.5`e.O.i`e.5`.`p`P.5`p",
".O`a.i#c.L`e`p`J.i.p.8.z`t`t`t.z`.#c#c.i`a`a#b`M`p.O`M#..J#b`e`p.O#b`a#..i`M`p`e`p.i`m.p`U`..g.t`Y`J`U`m.i`a`a`p.L`M.5.V.i`P.5`p",
".O`a`P.p`a`e`a`J#b`a.5`s.d.d.d.O.3.d`s.d`s`e`M.d#c`a`e`.`J#b`e`p`e`p.L`.`P.5`P`p`M`e`M`M`e`e.O#b.5.O`M`M`s#b#b.5.i`e.5`m#c`P.O#b",
".5.i`P`m`a`e.i.8.5`a.5.d`M`M`M`e`M`M`M`e.d.O.5`e.8#c`M.J.g#b.O`p.O#b.L`.`P.O.J`m.O`p`e.d`M`M`M`M`e`M`M`e`2#b.O`p`P`M.5`P`P#c#b`p",
"`a.J`U.p.L`p#c.z.O.L`p`M.d.d.d.d.d.d.d`M`2`a`m`p`i.p.d`..g#b`e`p`e`p.L.J.i.5`t`..i`m`M.d.d`s.d.d.d.d.d.d.d`a.O`p#c.O`p#c.p`.#c`a",
".5#b.5`p.O`M.i`t`e.L`p`s`2.I`s`s`s`s`s.d.d.V`t`P#e`..d.J.g#b.O`p.O#b`a.J.i.O.S.8.p`Y.5`s`M`2`s`s`s`2.I`s`s.L`e#b`P`e.3#b.O#b`p.r",
"`a.i#b#b#b`e#c`Y`e.L#b`a`P.O`m`U.i#.`a.p#b.8.t.L`0`U.d.g`.#b`e`p`e`p.i`..i.5`i`J`U.2.i`P`P`p`U#b`U#b`p`P`e`a.O`p#c`e.5`a`p.L.L`a",
"`a`P`p#b`a`M#c`Y.O.i`a#c`m.5.g.Y`.`Y.V`t.L.8.g`p`8.p.d.8.g#b.O`p.O#b.L.J.i.5.Y.g.L.t.p#..J`P.t#c`t`a#b`m.O`a.O.5#c`e.5`a#b`a.L`a",
"`a`m.L`a#b`M`P`Y.O.i#b#b`p`2`p#b.5.i`M.i.O.z#.`a.Y#c.d.8.g#b`e.r`e`p.L`..i.5`..p.i`..i`p.L`M#c`e.L.d.d`a`e`a.5.5#c`e`e.L`a`P.i.L",
"`a.V#c.i`p`M.L`t`e`a#b`s`s``.d`s`2.d.I`e`s`m.L#b.J`a.d`J.g#b.O`p.O`p.L.J.i`e.V.V.i`P.5`s`M``#m```M.I`2`s`s`a.O.5`P`M`e.L.i.V`P`a",
"`a#.#.`m`a`M.L.8.B`a`a`e.O.I.O`M`s`e`s.5.d`a.O`p.p#b`s`J.J#b`e`p`e#b.L`..i`e#c`m.5.5.5`M.5`s`e`2.O.d`s.5.d`a.5.5.i`e.O#c`m`U#c`a",
".5#b`p#b.O.d`a`J.O#b`a.d`s`2`s`2`s.d.I.d`M`p.5.O.i.O`s.8.J#b.O`p.O`p.L`..i.d#b#b`p.5.O`M.d.I.d.I`2`2`s`s.d#b.O#b.i`e.d`p.O`p`p#b",
"`p`a`a.i#b.d.L.g.5.L.L`s.I`2`2`2`2.d.d`s.d`e`M`M`a`M`2.g`.#b`e`p`e#b.L.J.L.I.5.O.O`e`M.d`s.d`s`s`2`2`2.I`M.L.5`p.i`M`e.L.L`a.5#b",
".B.i#b.L`p.d.L`U.5.i.i.d`s.d`M`M.d.d.d`M`s.d`M.d#b`s`2`.`.#b.O`p`e`p.L`..L.I.5`e.O`M.d.d.d.d.d.d`M.d.d`s`e`a#b`p.i`e`M.i#b.L.5`p",
".O#c.B`p`p.d.i.p`p.i`P.i.i.L`a`a#b`p.O.5.O`p#b`M.5`s`2.g`.#b`e`p.O#b.L`..i`s`M`M.5#b.O`p`p`p`a`a.L`a#c#c.i.i`a#b.L`e`M#b.O`a.O`p",
".B#c`M.O.5.d`a.V`p#b#b`m.g`Y`i`i.t.J`U`m`P#c.V`p.5`e.d.J#.`a`e#b`e`p.L`..i.d.5`M`P.i.i`P`P.p`..z`t.t.8`.`m#b#b#b`a`M`e.5`e.5.5.5",
".O#..O`p`a.d`p`m.r.O.O.5#b.i#c`P`a`p.O.O.O.5.5.O`M.5.d#.#.#b`e`p.O`p.L.J.i.d`e.d`p`p.5`e.O.O#b.i.i`P`a#b.5`e.5#b`a.d.O.i.5#b.O.5",
"`e`U.O.O.L.d#b`.`e`e.O`p`p`a.L`a`a#b.5.O.5`p`p#b`e.d`2`U#.`a`e`p`e#b.L`.`P.I`e`p#b`p`p.5`p`p#b.i.L`a#b.5.5.O`M`p.L`s.O.i`e`a.5.O",
".O`U.3`M.L`s#b.8.O.O`p`m#..g.t`t.z.g#..V`P#c`m.i`p.5`s#.`U`a`e`p.O`p.L`..i`s.O`p`a.L`a`a.i`P`m`.#..V#c.i`a.O`e`a.L.d.O.L.d#b.5`p",
".5#c`M`M`a.d`p#.`e`2`s`e.O`p#b#b`a#b.O`M`e`M`M.d`s`s.I`U`U#b.O`p`e`p.i.J.L```s`s.d`M.d`M`e.O#b.i#b`p.5`e`e`2`2#b.L`s.O.i.d`p`p`p",
".5`m`M`e.L`s`p.V.O.d`e.i`P#b.p`J.S.g`m#b`a`a#b#b`e`M`2.p.p#b`e`p`e#b`a`..L`2`M.5#b#b`a#b.L.p.g.Y`.`P#b`P`a.d`s`a.L`s.O.i`M`p.5`p",
"`p#c.3`e.L`s.5.V.d`s`s.O`p.5`a`m.g`m.i`e.5`e`e`M.d.d```p`p`e`M`p.O`e.O#b`e``.d.d`M.O.O`e`p`P.p`U#c`p.5.O`e`s`2`a.L`s.O`P`e#b.5`p",
".5#c`e`p.L`s.5`m.O`M.5`a`m`a.p`.`i`..p`a`m`P.i`a.5`e.I`P#c`p.O`p`e`p#b.V`p`2`e`p.L.i#c.i`P#..8.t.J`P.i`P#b`M.d`a.i`s`e`m.O`p`p`p",
"`p.V.O`a.L.d.5.i`M.d`M.5#b.O`a`P`U.i.L.O#b`p`p`p`M`M`2.p`U#b`e`p`e#b`a`..i`2`M.O`p#b#b.5`p.i.V.p`P`p.5#b.O`M`s`p.L.d`e.p`a#b.5`p",
".5.p.B.i.L`s`p`P`M.I`s.O.5.d#b#c.p.i#b.d.O`e`M.d.d`2.I.5`p.d`M#b`e`M`e#b`e```2`s`M`M`e`M`e.L.p`U`P.O`M.5`M`s`2`p`a`s`e.p`a`p`p`p",
".5.V.5.i`P.d.O#c.5`e.5.L#c`p.p.g.z#..V`a.i.i.i.L.5.O`2`a`a`e`M`p.O.O.O.L`p.I.O#b.L.i`P`a.i.J.Y.t.J#c`a#c`a.O`e`a.L`s`e.p`a#b.5`p",
".O`m.O.i.i`s.5#c.O.d`s`e`e.O.O.5`p.O.5.d`e.O`e`M.d`s`2`.`U`a`e.5`M#b.L`..i.I`s.d`e.O`e`M`e.5`a.L`p`e`e.O.d`s.d.L.L`s`e.p`a#b.5`p",
".5.i.O.i.i.d.O`P.5.d`e`a`U`J.8.z.t.g.V`P`a#b.5#b`M`M`2`.#.#b`e.5`e`p.L.J.L`2`M.O#b#b`a`a.i#c`.`.`m`m.i.L`p`e.d`a.L`s`e.p#b`p.5`p",
".O`P`p.p.L`s.B`P.O.5#b#c`J.Y.Y.z`t`J.J.p.V#c.i.L.5.5`2#.#.#b`M.5`M#b.L`..i`s.O`p`P.V#.#..J.J.g.g`.#..p#c.L#b.O`a.L`s`e.V#c`p.5.5",
".O`P.L.J.L`s`e.i.O`e`M.5`p`p`p`p#b`p`p#b`p#b`p.5`M`M`2#.`U`a`e.5`M#b`a.g.i`2`M`e`p#b#b#b`p`p`p#b`p`p`p#b`e`e.d`a#b`s`e`.`.`a.5`p",
".O`P.V#.`a`s`e.i.O`M`e.O`p.5`p.5.O.5.5.O.O.5.O`e`M.d`2#.#.`a`M`p`e`p.i.g`P`2.d`M.O.5.O.O.5.O.5.5.5`p.5`p`e`M.d#b`a`2`M`U.z#c.B`p",
"`e.L#c`U`p`s`e`P#c`p.O.5#b#b.5.5.5.O`e`e`e`e`e`e.d`M`2.V`.#b`e.5`M#b`P.g#b`s.d`M`e`e`e`e`e`e.5.O.O`p`p.5`e`M`p`P`a`s`e.i#.`P.O.5",
".O`a.i`m.B`s`M.i#..g`J.J.g`t`J`.`.`.`U#..V`P.i`a.5.O`s#.`U`a`e`p`e`p.i`J.L`s.O`p`a.L.L#c`U`U`..J.p.p.p#c.L.L`P#c`a`2`M#b.i.i.O`p",
".5`p`a.L.O`s.d`a`P#c.p.p`U`..J`U`U#.#..p.V`m#c.i.5.O.d`U`U#b`e.O`M#b`a.g.i.d.O.L`P`m.V#..z.z`t.t.8.J`..V`P.i`P.i`p`2`M#b.L`a`e#b",
".5`e.5#b.O`2.I.d`e`e`M`e`e.O`e.O.5`p.5`p.5.5.5.O`M.d`s`U.p`p`e.O`M#b`a#..i.d.d`e`p`p#b#b`p`a#b`p.5.O.5`e`e`e`e`M.d.I`s`a`a.5`e`a",
"`p.5.O`p`p`s`s`e.O.O.O.O.O.O`e.O.5`p`p#b#b`p#b#b.O.5`s.V.V#b`e.O`M#b`a`U#b`M`e`p`a#b#b`a`p`p`p.5.O`e`e.O.O.O.O.O`M`2`M#b.5.5`p`a",
".5.O`p`p#b`p.O.B`M.d`e`e`e`e`e`e`e`e`M`e`e.O.O.O`e`M.d.5.5`e`s`2.I.O.O.5`e.d`M.O`e`e`e`M.O`M`e`e`e`e`e`e`M`e.d`e.O`e#b`p.5.5.O.5",
"`p#b.L`U`J.z.J`m.5`e.L#c.p`U.V.i`a.O`e.i`.`..p.L`p`e`a`m.p#c.L`M`e.L`m.V.i.5`e#b`P.V`U`m#b`M`p`a.i#c.p.V`P`a`e`a`m`m`m`m.i.L`p#b",
".5.5.i`.`J`J.g.V.5`p#c`..z`t`J`m.L.5.O`P#.`..V.i#b`e`a`m.p.V`P`M.5`P.J.g`m`p`e`a.V`.`U.V`a`e`a`P#c.p.J#..V`P`e`a.V.p`U`U.V`a.5#b",
".d`M.r.r#b.5.B`p.5`e.5`p#b#b`p.O.O`e`M`e.O.5.5.B`e`s`M.O.5.O`e`2`s.O.5.5`e.d.d.O.O.5.O`M`e.d`M`e.O.5`p.5.O`e`M.B.O`e.5`p.r.B.d`M",
".m.o#u.e`F`2`K`z#n`F.R`K#o#n.0#m.4.Z#t#m#m.x.e.4`O#t#`#t.d`s.3.m#i`M`2`G#`.q.m#m#``j.m.f.m#t#t.m#m.M#j`j`x.d#p#s#s.R`2.M#j`j`R.3",
".4#h`C.N.B`A.j`w.c.A#n`C#k.N#r`z#w#a#j.4.c.Q#a.o#u`I#k`D#i`N.W.e##.W`u..`d`I#q`K`z.U.U.k.M`Q.l.7#`.Z.Q`6`w.A.b.1.C.X`R.q.T`d.y.4",
"`F.b.6`7.E.s`4`W`A.m#o`k.X`v.0.X#f`S.a#n`c`c`3`b`V`B#u`x`n.X#v`Z`f.w`f.u`K`Q`k.h`v#u#q#f.A#p#f`C`c.0`1.#.H`j`E#o`Q`c`K#m`3.N.e..",
".3#`.a#m`R`q.6`K#m.0.G`r`b#m`K`H`#`7.a.h.s#p`X#p`V.K`x.m#``f#u.M`K.6#u.0.m`3`V`q`7.R`S.6#s.R`b#l#u.0#m`#.X`S.E.3.K`H`Z.d`O.4`F.3",
"`2#m`2.I.E`R`R`2`2.a`v`v.f`X`7`v`h.I`s`x.m.f.I`7`x`h.f`s`E`x`E#m.m#r.a.m.I`2`7`v`X```2`x.a`2.f.a`v.m.f`X`v`v.R.I#m.0.a`2`s`2`2`2"
};
