/* XPM */
static char *door_8_xpm[] = {
/* width height num_colors chars_per_pixel */
"    64    64      256            2",
/* colors */
"`` c #0c0a0c",
"`. c #5c5a5c",
"`# c #fc02d4",
"`a c #4c2a1c",
"`b c #2c2a24",
"`c c #b45a24",
"`d c #4c4a4c",
"`e c #2c1a14",
"`f c #848684",
"`g c #6c361c",
"`h c #f47a34",
"`i c #1c1a1c",
"`j c #d46a2c",
"`k c #744224",
"`l c #945a34",
"`m c #4c3a34",
"`n c #3c3a3c",
"`o c #3c2214",
"`p c #8c4624",
"`q c #a44e24",
"`r c #bc6634",
"`s c #1c120c",
"`t c #6c6e6c",
"`u c #3c2a1c",
"`v c #2c221c",
"`w c #9c9e9c",
"`x c #7c3e1c",
"`y c #7c4a2c",
"`z c #5c321c",
"`A c #6c3e24",
"`B c #242224",
"`C c #844224",
"`D c #4c3224",
"`E c #c4622c",
"`F c #e46e2c",
"`G c #7c421c",
"`H c #944e24",
"`I c #a45624",
"`J c #342214",
"`K c #141214",
"`L c #646664",
"`M c #343234",
"`N c #4c4e4c",
"`O c #949294",
"`P c #241a14",
"`Q c #5c361c",
"`R c #cc662c",
"`S c #24160c",
"`T c #7c7a7c",
"`U c #442a1c",
"`V c #acaaac",
"`W c #b46234",
"`X c #341e14",
"`Y c #743a1c",
"`Z c #fc8e3c",
"`0 c #dc6a2c",
"`1 c #848284",
"`2 c #444244",
"`3 c #442614",
"`4 c #ac5224",
"`5 c #743e1c",
"`6 c #cc6e3c",
"`7 c #140e0c",
"`8 c #646264",
".` c #4c2e1c",
".. c #2c2e2c",
".# c #2c1e14",
".a c #8c8e8c",
".b c #6c3a1c",
".c c #fc8244",
".d c #74462c",
".e c #a45a34",
".f c #9c4a24",
".g c #a45224",
".h c #1c160c",
".i c #747674",
".j c #3c2e24",
".k c #2c2624",
".l c #a4a6a4",
".m c #844a24",
".n c #64321c",
".o c #54321c",
".p c #7c462c",
".q c #9c4e24",
".r c #34261c",
".s c #545654",
".t c #241e14",
".u c #5c3a1c",
".v c #cc6a34",
".w c #0c0e0c",
".x c #5c5e5c",
".y c #2c2a2c",
".z c #b45a2c",
".A c #5c4234",
".B c #8c8a8c",
".C c #f47a3c",
".D c #1c1e1c",
".E c #d46a34",
".F c #74422c",
".G c #945a3c",
".H c #543624",
".I c #3c3e3c",
".J c #3c261c",
".K c #944a24",
".L c #747274",
".M c #3c2a24",
".N c #2c2224",
".O c #a4a2a4",
".P c #7c3e24",
".Q c #5c3224",
".R c #6c3e2c",
".S c #242624",
".T c #cc622c",
".U c #e47234",
".V c #7c4224",
".W c #a45634",
".X c #34221c",
".Y c #141614",
".Z c #6c6a6c",
".0 c #343634",
".1 c #545254",
".2 c #9c9a9c",
".3 c #5c3624",
".4 c #cc6634",
".5 c #241614",
".6 c #7c7e7c",
".7 c #442e24",
".8 c #acaeac",
"#` c #bc6234",
"#. c #844e34",
"## c #9c522c",
"#a c #444644",
"#b c #dc6a34",
"#c c #44261c",
"#d c #743e24",
"#e c #4c2e24",
"#f c #2c1e1c",
"#g c #6c3a24",
"#h c #a4522c",
"#i c #1c1614",
"#j c #543224",
"#k c #241e1c",
"#l c #000000",
"#m c #000000",
"#n c #000000",
"#o c #000000",
"#p c #000000",
"#q c #000000",
"#r c #000000",
"#s c #000000",
"#t c #000000",
"#u c #000000",
"#v c #000000",
"#w c #000000",
"#x c #000000",
"#y c #000000",
"#z c #000000",
"#A c #000000",
"#B c #000000",
"#C c #000000",
"#D c #000000",
"#E c #000000",
"#F c #000000",
"#G c #000000",
"#H c #000000",
"#I c #000000",
"#J c #000000",
"#K c #000000",
"#L c #000000",
"#M c #000000",
"#N c #000000",
"#O c #000000",
"#P c #000000",
"#Q c #000000",
"#R c #000000",
"#S c #000000",
"#T c #000000",
"#U c #000000",
"#V c #000000",
"#W c #000000",
"#X c #000000",
"#Y c #000000",
"#Z c #000000",
"#0 c #000000",
"#1 c #000000",
"#2 c #000000",
"#3 c #000000",
"#4 c #000000",
"#5 c #000000",
"#6 c #000000",
"#7 c #000000",
"#8 c #000000",
"a` c #000000",
"a. c #000000",
"a# c #000000",
"aa c #000000",
"ab c #000000",
"ac c #000000",
"ad c #000000",
"ae c #000000",
"af c #000000",
"ag c #000000",
"ah c #000000",
"ai c #000000",
"aj c #000000",
"ak c #000000",
"al c #000000",
"am c #000000",
"an c #000000",
"ao c #000000",
"ap c #000000",
"aq c #000000",
"ar c #000000",
"as c #000000",
"at c #000000",
"au c #000000",
"av c #000000",
"aw c #000000",
"ax c #000000",
"ay c #000000",
"az c #000000",
"aA c #000000",
"aB c #000000",
"aC c #000000",
"aD c #000000",
"aE c #000000",
"aF c #000000",
"aG c #000000",
"aH c #000000",
"aI c #000000",
"aJ c #000000",
"aK c #000000",
"aL c #000000",
"aM c #000000",
"aN c #000000",
"aO c #000000",
"aP c #000000",
"aQ c #000000",
"aR c #000000",
"aS c #000000",
"aT c #000000",
"aU c #000000",
"aV c #000000",
"aW c #000000",
"aX c #000000",
"aY c #000000",
"aZ c #000000",
"a0 c #000000",
"a1 c #000000",
"a2 c #000000",
"a3 c #000000",
"a4 c #000000",
"a5 c #000000",
"a6 c #000000",
"a7 c #000000",
"a8 c #000000",
/* pixels */
".1.s.x.L.L`t.Z`t.L`t`t.Z`8.x`..1`N#a.y`n`n`n...0`#`#`#`#`#`#`#`#`#`#`#`#`#`#`#`#..`n`n`n.0..`2`d`N`.`8`L`t`t`t`t.Z.Z`L.x.s`N`d#a",
"`8.x.L.B.a.B.a.2`w.l.O`O.6.i.Z`8`.`.#a`d#a.s`N`8`#`#`#`#`#`#`#`#`#`#`#`#`#`#`#`#.1.1`N#a`d`2.1`..x`L.L.i`T`T`T.i.i.i.i.Z.Z`.`..s",
".Y.Y`i.Y`i`i`i.Y`i.D`B.D#k.D.D.D`i`i.Y`B.D#k.D.k`#`#`#`#`#`#`#`#`#`#`#`#`#`#`#`#`B`B.D#k.D.Y.Y.D.D#k.D.D#k.D`i.Y`i`i#i.Y`i.Y.Y`i",
"`d`d`.`t.x.s.1`N.1`N`N#a.I`n.y.S.y...Y.I.I.S.D`M`#`#`#`#`#`#`#`#`#`#`#`#`#`#`#`#`B`b.S.I`M.Y...y.y.0#a`N`d`d`N`d.I.I`n.I.0`n`n.y",
".B.6.i`1.L`L.x`..x.x`.`d#a.I.0`M`M.0.D`.`8.0`B.0`#`#`#`#`#`#`#`#`#`#`#`#`#`#`#`#`B..`n.x`2.S.0.0.0`d`t`T.L.L.6`1.i.i.i`8.1.1.x.s",
".I.S`i`i.D`i`i`i`i.Y#i.Y`i#i.Y.Y.Y.w`i.s`L`n`B.0`#`#`#`#`#`#`#`#`#`#`#`#`#`#`#`#.S`M`2.x.I`i``.Y#i`i.D`i.Y.D`i`i`i`i.D.D.Y.D.S`2",
"`M.D`i`i.S.y.S.S.y.S.y.S.y.S.y`B`i.Y#i.s.Z`n.S.0`#`#`#`#`#`#`#`#`#`#`#`#`#`#`#`#.S`M`2`L.I`i`K.D`B.S.y.S.y.S.S.S.S.y.S`B`i`i.D`n",
".y`i.Y`B`M.I`N`N`N`d#a.I.0.y.S.D`i`K`i`L`t`n`B.0`#`#`#`#`#`#`#`#`#`#`#`#`#`#`#`#.t`M`2`L`2`i.w`i`B.y..`n.I`d`N.1`N`d`2...D`i`i`M",
".0....`N.x.L.Z`1.a.B.B`L.x.1#a`n.S.Y`i`t.L.0.S.0`#`#`#`#`#`#`#`#`#`#`#`#`#`#`#`#.S`M.I.Z`2.D.Y`M.I#a.1.x`L`f`w.O.B.Z`t`..0`M...0",
"`B`i.D.k.0....`n.I.I`n.S..`M...k`B`K.D.Z.L.0`B`n`#`#`#`#`#`#`#`#`#`#`#`#`#`#`#`#.S.j.I`L#a`i.w`B....`M.y.y.I.s.s.I.y.0`M`B.D`i`B",
"...D.D.S`n`n.0`N`..1.I.k.0`M`M...D.Y`i`L`t.0`B.0`#`#`#`#`#`#`#`#`#`#`#`#`#`#`#`#.S...I`L`2`i`K.S..`M`M....`2`8`8`2...I.0`B.D.D.0",
"`M.y...I.s.s`d.L.B.6.s.0`N`d#a.I..`i`i.x.Z`M.S.0`#`#`#`#`#`#`#`#`#`#`#`#`#`#`#`#.S`M.0`8.I.D.Y.0#a`d`d`2.I.x.B`1.x#a`..1`M...y.0",
".y.D#k.y.0`M.S.0`n.0`M`B..`M...y.D`K`i.x`L`M`B.0`#`#`#`#`#`#`#`#`#`#`#`#`#`#`#`#.t`M.0`8`2`i`K`B.......y.S.0`N#a.0.k`M..`B`B`B`M",
".S`i.Y`B`M.I`M`N.s`N`n`B.y.y.y.S.D.Y.D.I.I`B`i..`#`#`#`#`#`#`#`#`#`#`#`#`#`#`#`#.D`B.S`2`M.D`K.D.y.y.y.S.k`2.x.s.I`M.0...D.Y.D..",
"...k...0`d.1#a.L`O.i`..0.I`2.I`n.k.Y`i.y`B.Y.w#k`#`#`#`#`#`#`#`#`#`#`#`#`#`#`#`#`7.Y`i.S.S.D.Y..`n.I`2`n.I`L.B`T`.`2.s#a`M.y.k..",
".0.D`i`B.S...y`M.0`M...S.y.S..`B`i.Y`B.x.x`n.S`M`#`#`#`#`#`#`#`#`#`#`#`#`#`#`#`#.t...0.1.I`B`K.D.y.y.y.S...0`2`2...y...S`i.D.D`M",
"`M.D.S.0`2`N`8`t.i.Z`8.x.s.1#a.0.S.Y`i.I`M.D`i.0`#`#`#`#`#`#`#`#`#`#`#`#`#`#`#`#.S.D.D`n..`i.Y.y.I`N.x.x.x`8.i`T`L.x`2.I.y.S`B.y",
".S`i.D`M`n`N`t`1.a`T`t`8.s`d`2`M.D.Y`i.0.y`i`i`M`#`#`#`#`#`#`#`#`#`#`#`#`#`#`#`#.t.D`i.0...D`K.S`n`d.s.x`.`.`8`t`L.1.0`M.S.D.Y`B",
"`B.Y.D`B`B`B.S.S.y.S.S.S.S`B.S.D`i.D`B`N#a..`B..`#`#`#`#`#`#`#`#`#`#`#`#`#`#`#`#`B`M`M`N`2.D#i`i`B.S.S.k.S.S.S.k.S.S`B`B#k`i`K`B",
".S.y.....0`M`M.....y.y.k.y.S.y`i`i`i`i.s.s`M.S`M`#`#`#`#`#`#`#`#`#`#`#`#`#`#`#`#.t...0`.`2`i.Y.D`B.y.y.S.y.S.y....`M....`M.y`B.S",
".I.s`t.L.i.i`T.L.x#a#a.I.0.0`M.D`M.S.D`.`8`M`B..`#`#`#`#`#`#`#`#`#`#`#`#`#`#`#`#.S`M.0`..I.D..`B.y.I`N.1`..x`L.6`1.Z.s`d`n.0.0..",
"`M`n.S.Y`i`i`i.S#k.Y`i.Y#i`B.D`i#a.0`B.x.Z`M`B`M`#`#`#`#`#`#`#`#`#`#`#`#`#`#`#`#.t`M.0`8`2`b.I..`B`B.D.D.D`B.S`M.y.S#k.D.Y..`M..",
".y.0..`i#k.D.D.D.D#k.D`B`i.S.y`B`t#a.D`8`L`M`B..`#`#`#`#`#`#`#`#`#`#`#`#`#`#`#`#`B..`n.x`2.S`8`d.S..`B`i.D.D.D.D`B.D.D`B`K.0.S.y",
".S`n..`i`i`i`i`i`i`i`i.D.Y.0`d...B.1`i.x`L.0`B..`#`#`#`#`#`#`#`#`#`#`#`#`#`#`#`#.t`M`n.x.I.y`T.x.I`d.D.Y.D#i`i`i`i`i`i`i`i.0.S`M",
".S`n.y.Y`K.w.Y.Y.Y.Y.Y`i`i.1.i.I.8.x`i`8`L`M`B`M`#`#`#`#`#`#`#`#`#`#`#`#`#`#`#`#.S...I`8.I.S.a.Z.1`1.y`i.D`K.Y.Y.Y`K.w.Y.Y.0.S..",
"`B`n`M.0#a.S`d.s.I`..0.1..`t.6.I`V`.`i`L.x`M`B..`#`#`#`#`#`#`#`#`#`#`#`#`#`#`#`#.t`M`n.x.I.y.B`L.s.O.I`2.I...s`M.s....`2`B`n.S..",
"`B.I.0#a`d.y`L`T.x`1`N`T`n`t`L...2.1.Y`t`L`M.S..`#`#`#`#`#`#`#`#`#`#`#`#`#`#`#`#`B..`n`8.I`b.6`L.I.6.1`.`L`2.6#a`T.0`M`d.S.0.S.y",
".S.I`M`M..`K..`M.y.I.D.I.S.L`.`M`T#a.D`t.Z`M`B`M`#`#`#`#`#`#`#`#`#`#`#`#`#`#`#`#.t`M.0`8.I.y.x.1.I.x.I..`n.D#a.D`n.D`i.0`B.0.S.y",
".S`n`M.Y.Y```i.Y`K`i```B.Y`d`n`M`8.0`i.Z`8`M`B..`#`#`#`#`#`#`#`#`#`#`#`#`#`#`#`#.S`M`n.x.I`B`N`N`n`2.y.Y.D``#i.w`i`7.w`i.Y.0.y.y",
".S.0.0`B`B.w.S.D.Y`B.Y.y`i.0.S...s`M.Y.Z`8.0`B..`#`#`#`#`#`#`#`#`#`#`#`#`#`#`#`#.t...I`8.I`B#a`d.y...y.D.y.Y`B`K.S`i.Y.y`i.0.S..",
".y`M.0`i.Y`K.Y`K.Y`i.w`i.D...S.y.I.S.Y`t.x`M.S..`#`#`#`#`#`#`#`#`#`#`#`#`#`#`#`#.S`M.0.x.I#i`M.0...y.S.D`i.w`i.w`K.Y`K.Y.D`M.y..",
".y`n.0.Y`7.w.Y`K`K`i`i.Y`i`B.D.D.0`i.Y`8.x.0`B..`#`#`#`#`#`#`#`#`#`#`#`#`#`#`#`#.t...I`8`n.w...S.S#k.D`i.Y`i.Y.Y`K`K`K.w.D.0.y..",
"..`n.I.D.Y.D`i.D`i`i.Y.D.Y`i.D`i`M.Y`K.x.x`M`B`M`#`#`#`#`#`#`#`#`#`#`#`#`#`#`#`#`B`M`n.x`n.w.k`B.S.D`i`i`i`i`i`i.D`i.Y`i`B`n..`M",
"...I`2.I.I`n.0`n`M...y.y.S..`M.D.S`i`K`L`8`M`B..`#`#`#`#`#`#`#`#`#`#`#`#`#`#`#`#.t..`n`8.I.Y.D.D.y`M.S.......0.0`n`n#a#a`n.I.0`M",
"`M`M`M`d`L`1.B`f.6`8.1`N`2#a`N`M.y`B.Y`8`.`M`B..`#`#`#`#`#`#`#`#`#`#`#`#`#`#`#`#.S`M`n.x.I#i.y.D`2.I.I`2`2.1.x.L.i`T`t.x`d.0`M`M",
"...S.S..`M.I#a`2`n...S.S.S.y.y.S`i.S`i`.`..0`B..`#`#`#`#`#`#`#`#`#`#`#`#`#`#`#`#.t..`n.x`2.D`B.Y.....k.S`B.S`M.I.I.I.0....`B.y..",
"`B`B.S..`M`M`n.0.0...y.S.y.......S.D.Y.s`.`M.S..`#`#`#`#`#`#`#`#`#`#`#`#`#`#`#`#.S`M`n.x.I.w`B..`M`M........`M.I`n`n`M.y.y.S.D`M",
".S.S..`d.s.Z`T.i.L`L`.`N#a#a`d.I`M.S`K.x.s.0`B..`#`#`#`#`#`#`#`#`#`#`#`#`#`#`#`#.t...I`8.I.Y.k...0.0`n.0`n.I`N.x`.`d#a.I.0.y.D.0",
"`B`K.Y`B.S..`M.0.0`M.S.D#k`B.D`i`K.Y`K.s.s`M`B..`#`#`#`#`#`#`#`#`#`#`#`#`#`#`#`#.S`M`n.x`n``.Y.Y.D`i`i.D`B.S`M.I`M...y`B#k`K`K`M",
"`B`i`B.I`2`M.1`L`O`8`d`M.0.0`M...S.D`K.1.1`M.S`M`#`#`#`#`#`#`#`#`#`#`#`#`#`#`#`#.t..`n`.`n`K.D.y`M`M.0`M`n.s`L`T.x`2.0`2.0.D.Y.0",
".D`K.Y.S...S`n#a.Z#a.I.S.y`B`B`B.Y`i``.y..`B.D..`#`#`#`#`#`#`#`#`#`#`#`#`#`#`#`#`B`B.S`M.D``.D`i.D.S.S`B..`2.1.s#a`M.S.y.D.Y`K`M",
".S.D.k.0`d.0.1`8`f`8.1.0`d.I.I.0.y`B.w#a#a..`B`M`#`#`#`#`#`#`#`#`#`#`#`#`#`#`#`#.t..`M`N.0`K`B..`n.I#a.I`2`.`t.6`8`2.I`2`M`B`i.0",
".D`i.D..`M.S.0`2.s.I`n.S`M`M....`B`i`K.1.s`M`B..`#`#`#`#`#`#`#`#`#`#`#`#`#`#`#`#.S`M.0.x.I.w.D.S..`M`M.y...I`N.1`2...y`M.S.D.Y..",
".D.w.Y.S.k.D`M#a.1`n...D`B.D.D`i.Y.Y.w.y..`i.D`M`#`#`#`#`#`#`#`#`#`#`#`#`#`#`#`#.t.D`B`M`B``.Y#i.D.D`B.D`B.I.1.1`2.S.D.y.D`K.w`M",
".y`B.k.I#a...1`8.L`..1.0.I`2.I`n.y.S`K.0.0`B.D..`#`#`#`#`#`#`#`#`#`#`#`#`#`#`#`#.S.k.S`n..`K.S..`n.I`2.0.I`8`T.6`L`2.0#a`n.S#k.0",
".S`i.Y`B.S`B.S.....S.S`i`B.S`B.D`i.Y`K.x`.`M`B.y`#`#`#`#`#`#`#`#`#`#`#`#`#`#`#`#.t..`n.x.I``.Y`i`B.S.S`i#k.y.0`n.y.S`B.S`i.Y.D.0",
".y`i.S`M.s`t`t.L.6`L.1.I`n....`M.D.D`K.x.s`M`B.y`#`#`#`#`#`#`#`#`#`#`#`#`#`#`#`#`B...I`8`n`K.D.S`M`M`M.0.I`d.x.x`N`d.I`n.y`B.D.0",
".y.S`M#a.Z`T`T.L.i.Z.x.s`N#a`2`n.S.y`K.x`.`M.D.y`#`#`#`#`#`#`#`#`#`#`#`#`#`#`#`#.t..`n.x.I.Y.k..`2`N`..x`8.x`L`8.x`.`N`d`n...k.0",
".S`B.D.y........`M..`M..`M.....y.D`B.w`.`..0`B.y`#`#`#`#`#`#`#`#`#`#`#`#`#`#`#`#`B..`n`L.I`K.D`B....`M`M..`M..`M..`M....`B`B`i.0",
".S.D`B.S...y.y.y.S.y.S.k.S.k.S.S`i`i`K.s`....S.y`#`#`#`#`#`#`#`#`#`#`#`#`#`#`#`#.t...I`L`2`K.Y.D.y.S.S.S.y.S.k.y.y.y...y.S.D.D`M",
"`d...S.y`M`M.y.y.y.S.S`B`B`B`B`B.D`i.Y.1.x.0`B.S`#`#`#`#`#`#`#`#`#`#`#`#`#`#`#`#.D`M`2`L`M.Y`i.D`B`B.S`B`B`B.S.S.S.....y`B.D..`2",
"`.`8.Z`8`L.i`t.x.x.x.s`.`N`2.I.0.y.S.Y.s`.`M.D`M`#`#`#`#`#`#`#`#`#`#`#`#`#`#`#`#.t..`2`L.I#i.S...0`n`n#a.s.s`8`8.s.1.1#a`n`n`2#a",
".I`d`N.1.s.x`8.s.s`.`..1`N`d#a.I.y.S`i.s.s`M`B.S`#`#`#`#`#`#`#`#`#`#`#`#`#`#`#`#.t...0`L.I`i.S`n#a`d`N`..L.L.i.6`t`8.x`N`2.I`2.I",
"`B`B.D.S`B.S`B.S.y.y...y...y.y.S.D`i`i.s`N`M`B.S`#`#`#`#`#`#`#`#`#`#`#`#`#`#`#`#.D`M.0`.`n`i`i`B....`M`M...0`M...k.S.S`B`B`B.S.D",
".S.S.S.S.S`B`B.S......`M`M..`M`M.S.S.Y`N`N`M.D.k`#`#`#`#`#`#`#`#`#`#`#`#`#`#`#`#`i`M.0.s`M.D`B.y.0`M...0.......y.S`B.S.S.S.S.S.S",
"`B`i`B#k`B`B`B`B`B#k.D`B`B.S.S.S`B`B`i.y..`B`i`K`#`#`#`#`#`#`#`#`#`#`#`#`#`#`#`#`7.S.S..`B`i.D.S`B.S`B`B.S.D`B`B`B`B`B`B`B`B`i`B",
".y`B.I#a.s.s`N.I.0.S.S.I.x.x.1.I.y`B.0`d.1#a.0.D`#`#`#`#`#`#`#`#`#`#`#`#`#`#`#`#.t`n`d`N.I.y.S`M`2`N.1`d..`B...0.I#a.s`N`2.0.D.0",
"...y#a.x.L.i.Z`d`n.y.S`2`.`.`N.I..`B.0`d.1`N`2`B`#`#`#`#`#`#`#`#`#`#`#`#`#`#`#`#`b.I`L`8`d..`B.0`d.x.s`N.0`B`M.I`d.1`8.s`N`2.S`n",
".S.S.y..`M`M...k.S`B.D`B.S.y.y.y`B.Y.D.S.S.S`B`K`#`#`#`#`#`#`#`#`#`#`#`#`#`#`#`#.h.S.y..`B`i.Y.S.k.y.S`B.D`i`B`B.S.y...y.k.S`i.S",
".3`U#i.`#g.3.X#i.M.H.7#i#i`U.R.J#i`U#e#e.D#i#k`P`#`#`#`#`#`#`#`#`#`#`#`#`#`#`#`#.#.D`K.k.`.7.#.h#e.o`P`7`P.7.7`P`s.J.Q.o`X#i`U#j",
".e`D`Q`E`0`H#f.u.4#`#j.M.W.C#`#j`5`F#b`y.N.A.G.R`#`#`#`#`#`#`#`#`#`#`#`#`#`#`#`#.m.G`m.r`W`F`c.`#g.v.E.d#c##.c.U`D.H.C`Z.v`D.p`6",
"`U`P#g`4`p`o.X.K.f.n.#.3.K.K`3`o`x`q#d`X.j`C`I`Q`#`#`#`#`#`#`#`#`#`#`#`#`#`#`#`#`G`I.F.r.`##`4`g`J#g`c###e`3.q`E.K.X.b.T`j`a#k#g",
"#i.X`5`C`o#i.``G.n`P.#`g`5#c.h`a`Y`g`X.D#e.V`A`o`#`#`#`#`#`#`#`#`#`#`#`#`#`#`#`#.`.V`A.r`P`3`x.b`e`P`z`x.H#i`o.P#d.X#i`z`p`z`P`P",
"`K`e`J`J`7.h`P`J`S.w#i`X`P`7.w`e`X#i`7.Y`e`J#f#i`#`#`#`#`#`#`#`#`#`#`#`#`#`#`#`#`P.#`X.5`K`7.#`o.h```s`e.#`K`7.#`J`P`7`s.X`J#i`7"
};
