/* XPM */
static char *collectible_xpm[] = {
/* width height num_colors chars_per_pixel */
"    64    64      256            2",
/* colors */
"`` c #742a81",
"`. c #5b276d",
"`# c #42195d",
"`a c #2a2640",
"`b c #bd771c",
"`c c #c7a339",
"`d c #590c31",
"`e c #6e4816",
"`f c #80201a",
"`g c #4d0b36",
"`h c #b53b33",
"`i c #2d2a41",
"`j c #5d286f",
"`k c #461b60",
"`l c #5d276f",
"`m c #461a60",
"`n c #451a5f",
"`o c #752a82",
"`p c #752a81",
"`q c #5e286f",
"`r c #471b60",
"`s c #752b82",
"`t c #762b82",
"`u c #5f2870",
"`v c #481b61",
"`w c #762a82",
"`x c #5d276e",
"`y c #742a82",
"`z c #762b83",
"`A c #5c276e",
"`B c #491b62",
"`C c #5c276d",
"`D c #5e2870",
"`E c #43195d",
"`F c #471b61",
"`G c #481b62",
"`H c #451a5e",
"`I c #431a5e",
"`J c #43195e",
"`K c #752b81",
"`L c #752b83",
"`M c #000000",
"`N c #000000",
"`O c #000000",
"`P c #000000",
"`Q c #000000",
"`R c #000000",
"`S c #000000",
"`T c #000000",
"`U c #000000",
"`V c #000000",
"`W c #000000",
"`X c #000000",
"`Y c #000000",
"`Z c #000000",
"`0 c #000000",
"`1 c #000000",
"`2 c #000000",
"`3 c #000000",
"`4 c #000000",
"`5 c #000000",
"`6 c #000000",
"`7 c #000000",
"`8 c #000000",
".` c #000000",
".. c #000000",
".# c #000000",
".a c #000000",
".b c #000000",
".c c #000000",
".d c #000000",
".e c #000000",
".f c #000000",
".g c #000000",
".h c #000000",
".i c #000000",
".j c #000000",
".k c #000000",
".l c #000000",
".m c #000000",
".n c #000000",
".o c #000000",
".p c #000000",
".q c #000000",
".r c #000000",
".s c #000000",
".t c #000000",
".u c #000000",
".v c #000000",
".w c #000000",
".x c #000000",
".y c #000000",
".z c #000000",
".A c #000000",
".B c #000000",
".C c #000000",
".D c #000000",
".E c #000000",
".F c #000000",
".G c #000000",
".H c #000000",
".I c #000000",
".J c #000000",
".K c #000000",
".L c #000000",
".M c #000000",
".N c #000000",
".O c #000000",
".P c #000000",
".Q c #000000",
".R c #000000",
".S c #000000",
".T c #000000",
".U c #000000",
".V c #000000",
".W c #000000",
".X c #000000",
".Y c #000000",
".Z c #000000",
".0 c #000000",
".1 c #000000",
".2 c #000000",
".3 c #000000",
".4 c #000000",
".5 c #000000",
".6 c #000000",
".7 c #000000",
".8 c #000000",
"#` c #000000",
"#. c #000000",
"## c #000000",
"#a c #000000",
"#b c #000000",
"#c c #000000",
"#d c #000000",
"#e c #000000",
"#f c #000000",
"#g c #000000",
"#h c #000000",
"#i c #000000",
"#j c #000000",
"#k c #000000",
"#l c #000000",
"#m c #000000",
"#n c #000000",
"#o c #000000",
"#p c #000000",
"#q c #000000",
"#r c #000000",
"#s c #000000",
"#t c #000000",
"#u c #000000",
"#v c #000000",
"#w c #000000",
"#x c #000000",
"#y c #000000",
"#z c #000000",
"#A c #000000",
"#B c #000000",
"#C c #000000",
"#D c #000000",
"#E c #000000",
"#F c #000000",
"#G c #000000",
"#H c #000000",
"#I c #000000",
"#J c #000000",
"#K c #000000",
"#L c #000000",
"#M c #000000",
"#N c #000000",
"#O c #000000",
"#P c #000000",
"#Q c #000000",
"#R c #000000",
"#S c #000000",
"#T c #000000",
"#U c #000000",
"#V c #000000",
"#W c #000000",
"#X c #000000",
"#Y c #000000",
"#Z c #000000",
"#0 c #000000",
"#1 c #000000",
"#2 c #000000",
"#3 c #000000",
"#4 c #000000",
"#5 c #000000",
"#6 c #000000",
"#7 c #000000",
"#8 c #000000",
"a` c #000000",
"a. c #000000",
"a# c #000000",
"aa c #000000",
"ab c #000000",
"ac c #000000",
"ad c #000000",
"ae c #000000",
"af c #000000",
"ag c #000000",
"ah c #000000",
"ai c #000000",
"aj c #000000",
"ak c #000000",
"al c #000000",
"am c #000000",
"an c #000000",
"ao c #000000",
"ap c #000000",
"aq c #000000",
"ar c #000000",
"as c #000000",
"at c #000000",
"au c #000000",
"av c #000000",
"aw c #000000",
"ax c #000000",
"ay c #000000",
"az c #000000",
"aA c #000000",
"aB c #000000",
"aC c #000000",
"aD c #000000",
"aE c #000000",
"aF c #000000",
"aG c #000000",
"aH c #000000",
"aI c #000000",
"aJ c #000000",
"aK c #000000",
"aL c #000000",
"aM c #000000",
"aN c #000000",
"aO c #000000",
"aP c #000000",
"aQ c #000000",
"aR c #000000",
"aS c #000000",
"aT c #000000",
"aU c #000000",
"aV c #000000",
"aW c #000000",
"aX c #000000",
"aY c #000000",
"aZ c #000000",
"a0 c #000000",
"a1 c #000000",
"a2 c #000000",
"a3 c #000000",
"a4 c #000000",
"a5 c #000000",
"a6 c #000000",
"a7 c #000000",
"a8 c #000000",
/* pixels */
"```````````.```#`.`.```````````````````````.```#`.`.```````````````````````.```#`.`.```````````````````````.```#`.`.`````````#`#",
"```````````````.```````````````````````````````.```````````````````````````````.```````````````````````````````.`````````````.`#",
"`````````````.`.`````````````````````````````.`.`````````````````````````````.`.`````````````````````````````.`.`````````````#`#",
"`````````````.`#`````````````````````````````.`#`````````````````````````````.`#`````````````````````````````.`#`````````````.`#",
"`````````````.`#`.```.```````````````````````.`#`.```.```````````````````````.`#`.```.```````````````````````.`#`.```.```````.`#",
"`````````.`.`#`#`#`.```.`````````````````.`.`#`#`#`.```.`````````````````.`.`#`#`#`.```.`````````````````.`.`#`#`#`.```.`````.`a",
"`````.`.`#`#`#`#`#`#`#`#`#`#`.`.`````.`.`#`#`#`#`#`#`#`#`#`#`.`.`````.`.`#`#`#`#`#`#`#`#`#`#`.`.`````.`.`#`#`#`#`#`#`#`#`#`#`a`a",
"```````````````````.`.`#`#`.```````````````````````.`.`#`#`.```````````````````````.`.`#`#`.```````````````````````.`.`#`#`.`#`#",
"```````````````````````.`#`````````````````````````````.`#`````````````````````````````.`#`````````````````````````````.`#```#`#",
"`````````````````````````.`````````````````````b`b`b`c`c`c`c`c`c`c`c`c`c`c`c`b`b`b```````.```````````````````````````````.```.`#",
"```````````.```````````.`.`````````````````.```b`b`b`c`c`c`c`c`c`c`c`c`c`c`c`b`b`b`````.`.`````````````````.```````````.`.```#`.",
"`````````.```.`````.```.`#```````````````.```.`b`b`b`c`c`c`c`c`c`c`c`c`c`c`c`b`b`b`.```.`#```````````````.```.`````.```.`#```.`#",
"```.`.`.`.`.`.`.`.`#`.`#`#`.```````.`.`.`d`d`d`e`e`e`b`b`b`b`b`b`b`b`b`b`b`b`e`e`e`d`d`d`#`.```````.`.`.`.`.`.`.`.`#`.`#`#`.`#`#",
"`.`.`.`#`.`.`#`#`#`#`#`#`#`#`#`#`.`.`.`#`d`d`d`e`e`e`b`b`b`b`b`b`b`b`b`b`b`b`e`e`e`d`d`d`#`#`#`#`.`.`.`#`.`.`#`#`#`#`#`#`#`#`#`a",
"`````````.`.`#`#`#`.`.`.```.`````````````d`d`d`e`e`e`b`b`b`b`b`b`b`b`b`b`b`b`e`e`e`d`d`d```.`````````````.`.`#`#`#`.`.`.```.`.`#",
"```````.`````.`#`.```.```.`````````````.`d`d`d`e`e`e`b`b`b`b`b`b`b`b`b`b`b`b`e`e`e`d`d`d`.`````````````.`````.`#`.```.```.```#`#",
"```````````.```#`.`.`````````````````````f`f`f`d`d`d`g`g`g`g`g`g`g`g`g`g`g`g`d`d`d`d`d`d```````````````````.```#`.`.`````````#`#",
"```````````````.`````````````````````````f`f`f`d`d`d`g`g`g`g`g`g`g`g`g`g`g`g`d`d`d`d`d`d```````````````````````.`````````````.`#",
"`````````````.`.`````````````````````````f`f`f`d`d`d`g`g`g`g`g`g`g`g`g`g`g`g`d`d`d`d`d`d`````````````````````.`.`````````````#`#",
"`````````````.`#`````````````````````````f`f`f`f`f`f`h`h`h`h`h`h`h`h`h`h`h`h`f`f`f`f`f`f`````````````````````.`#`````````````.`#",
"`````````````.`#`.```.```````````````````f`f`f`f`f`f`h`h`h`h`h`h`h`h`h`h`h`h`f`f`f`f`f`f`````````````````````.`#`.```.```````.`#",
"`````````.`.`#`#`#`.```.`````````````````f`f`f`f`f`f`h`h`h`h`h`h`h`h`h`h`h`h`f`f`f`f`f`f`````````````````.`.`#`#`#`.```.`````.`a",
"`````.`.`#`#`#`#`#`#`#`#`#`#`.`.`````.`.`#`#`#`i`i`i`d`d`d`d`d`d`d`d`d`d`d`d`i`i`i`#`#`#`#`#`.`.`````.`.`#`#`#`#`#`#`#`#`#`#`a`a",
"```````````````````.`.`#`#`.```````````````````i`i`i`d`d`d`d`d`d`d`d`d`d`d`d`i`i`i`.`.`#`#`.```````````````````````.`.`#`#`.`#`#",
"```````````````````````.`#`````````````````````i`i`i`d`d`d`d`d`d`d`d`d`d`d`d`i`i`i`````.`#`````````````````````````````.`#```#`#",
"`````````````````````````.`````````````````````i`i`i`d`d`d`d`d`d`d`d`d`d`d`d`i`i`i```````.```````````````````````````````.```.`#",
"```````````.```````````.`.```````i`i`i`i`i`i`i`d`d`d`d`d`d`d`d`d`d`d`d`d`d`d`d`d`d`i`i`i`i`i`i`i```````````.```````````.`.```#`.",
"`````````.```.`````.```.`#```````i`i`i`i`i`i`i`d`d`d`d`d`d`d`d`d`d`d`d`d`d`d`d`d`d`i`i`i`i`i`i`i`````````.```.`````.```.`#```.`#",
"```.`.`.`.`.`.`.`.`#`.`#`#`.`````i`i`i`i`i`i`i`d`d`d`d`d`d`d`d`d`d`d`d`d`d`d`d`d`d`i`i`i`i`i`i`i```.`.`.`.`.`.`.`.`#`.`#`#`.`#`#",
"`.`.`.`#`.`.`#`#`#`#`#`#`#`#`#`#`i`i`i`i`d`d`d`d`d`d`d`d`d`d`f`f`f`f`f`f`f`f`f`f`f`d`d`d`i`i`i`i`.`.`.`#`.`.`#`#`#`#`#`#`#`#`#`a",
"`````````.`.`#`#`#`.`.`.```.`````i`i`i`i`d`d`d`d`d`d`d`d`d`d`f`f`f`f`f`f`f`f`f`f`f`d`d`d`i`i`i`i`````````.`.`#`#`#`.`.`.```.`.`#",
"```````.`````.`#`.```.```.```````i`i`i`i`d`d`d`d`d`d`d`d`d`d`f`f`f`f`f`f`f`f`f`f`f`d`d`d`i`i`i`i```````.`````.`#`.```.```.```#`#",
"```````````.```#`.`.`````````````i`i`i`i`d`d`d`d`d`d`d`d`d`d`f`f`f`f`f`f`f`f`f`f`f`d`d`d`i`i`i`i```````````.```#`.`.`````````#`#",
"```````````````.```````````i`i`i`d`d`d`d`d`d`d`d`d`d`f`f`f`f`f`f`f`f`h`h`h`h`f`f`f`f`f`f`d`d`d`d`i`i`i`````````.`````````````.`#",
"`````````````.`.```````````i`i`i`d`d`d`d`d`d`d`d`d`d`f`f`f`f`f`f`f`f`h`h`h`h`f`f`f`f`f`f`d`d`d`d`i`i`i```````.`.`````````````#`#",
"`````````````.`#```````````i`i`i`d`d`d`d`d`d`d`d`d`d`f`f`f`f`f`f`f`f`h`h`h`h`f`f`f`f`f`f`d`d`d`d`i`i`i```````.`#`````````````.`#",
"`````````````.`#`.```.`````i`i`i`d`d`d`d`d`d`d`d`d`d`f`f`f`f`f`f`f`f`h`h`h`h`f`f`f`f`f`f`d`d`d`d`i`i`i```````.`#`.```.```````.`#",
"`````````.`.`#`#`#`.```.```i`i`i`d`d`d`d`f`f`f`h`h`h`h`h`h`h`f`f`f`f`f`f`f`f`f`f`f`g`g`g`d`d`d`d`i`i`i```.`.`#`#`#`.```.`````.`a",
"`````.`.`#`#`#`#`#`#`#`#`#`i`i`i`d`d`d`d`f`f`f`h`h`h`h`h`h`h`f`f`f`f`f`f`f`f`f`f`f`g`g`g`d`d`d`d`i`i`i`.`#`#`#`#`#`#`#`#`#`#`a`a",
"```````````````````.`.`#`#`i`i`i`d`d`d`d`f`f`f`h`h`h`h`h`h`h`f`f`f`f`f`f`f`f`f`f`f`g`g`g`d`d`d`d`i`i`i`````````````.`.`#`#`.`#`#",
"```````````````````````.`#`i`i`i`d`d`d`d`f`f`f`f`f`f`f`f`f`f`f`f`f`f`f`f`f`f`g`g`g`g`g`g`d`d`d`d`i`i`i`````````````````.`#```#`#",
"`````````````````````````.`i`i`i`d`d`d`d`f`f`f`f`f`f`f`f`f`f`f`f`f`f`f`f`f`f`g`g`g`g`g`g`d`d`d`d`i`i`i```````````````````.```.`#",
"```````````.```````````.`.`i`i`i`d`d`d`d`f`f`f`f`f`f`f`f`f`f`f`f`f`f`f`f`f`f`g`g`g`g`g`g`d`d`d`d`i`i`i`````.```````````.`.```#`.",
"`````````.```.`````.```.`#`i`i`i`d`d`d`d`f`f`f`f`f`f`f`f`f`f`f`f`f`f`f`f`f`f`g`g`g`g`g`g`d`d`d`d`i`i`i```.```.`````.```.`#```.`#",
"```.`.`.`.`.`.`.`.`#`.`#`#`i`i`i`d`d`d`d`g`g`g`g`g`g`g`g`g`g`g`g`g`g`g`g`g`g`g`g`g`g`g`g`d`d`d`d`i`i`i`.`.`.`.`.`.`#`.`#`#`.`#`#",
"`j`j`j`k`j`l`k`k`k`k`m`n`n`i`i`i`d`d`d`d`g`g`g`g`g`g`g`g`g`g`g`g`g`g`g`g`g`g`g`g`g`g`g`g`d`d`d`d`i`i`i`#`.`.`#`#`#`#`#`#`#`#`#`a",
"`o`````p`q`q`r`k`k`j`j`j`o`i`i`i`d`d`d`d`g`g`g`g`g`g`g`g`g`g`g`g`g`g`g`g`g`g`g`g`g`g`g`g`d`d`d`d`i`i`i```.`.`#`#`#`.`.`.```.`.`#",
"`o`o`o`q`o`o`q`r`q`s`q`s`q`s`s`s`i`i`i`i`d`d`d`g`g`g`g`g`g`g`g`g`g`g`g`g`g`g`g`g`g`d`d`d`i`i`i`i```````.`````.`#`.```.```.```#`#",
"`s`s`s`s`s`q`s`r`q`q`s`s`s`s`s`s`i`i`i`i`d`d`d`g`g`g`g`g`g`g`g`g`g`g`g`g`g`g`g`g`g`d`d`d`i`i`i`i```````````.```#`.`.`````````#`#",
"`s`s`s`s`s`s`s`q`s`t`s`t`t`t`t`t`i`i`i`i`d`d`d`g`g`g`g`g`g`g`g`g`g`g`g`g`g`g`g`g`g`d`d`d`i`i`i`i```````````````.`````````````.`#",
"`s`t`t`t`t`t`u`u`t`t`t`t`t`t`t`t`i`i`i`i`i`i`i`d`d`d`d`d`d`d`d`d`d`d`d`d`d`d`d`d`d`i`i`i`i`i`i`i`````````````.`.`````````````#`#",
"`t`t`t`t`t`t`u`v`t`t`t`t`t`t`t`w`i`i`i`i`i`i`i`d`d`d`d`d`d`d`d`d`d`d`d`d`d`d`d`d`d`i`i`i`i`i`i`i`````````````.`#`````````````.`#",
"`t`t`t`t`t`t`u`v`u`t`u`t`t`t`t`w`i`i`i`i`i`i`i`d`d`d`d`d`d`d`d`d`d`d`d`d`d`d`d`d`d`i`i`i`i`i`i`i`````````````.`#`.```.```````.`#",
"`t`t`t`t`u`u`v`v`v`u`t`u`t`t`t`w`i`i`i`i`i`i`i`d`d`d`d`d`d`d`d`d`d`d`d`d`d`d`d`d`d`i`i`i`i`i`i`i`````````.`.`#`#`#`.```.`````.`a",
"`t`t`u`u`v`v`v`v`v`v`v`v`v`v`q`q`w`o`x`x`i`i`i`i`i`i`i`i`i`i`i`i`i`i`i`i`i`i`i`i`i`i`i`i`#`#`.`.`````.`.`#`#`#`#`#`#`#`#`#`#`a`a",
"`t`t`t`t`t`t`t`t`t`u`u`v`v`u`t`w`w`o`o`o`i`i`i`i`i`i`i`i`i`i`i`i`i`i`i`i`i`i`i`i`i`i`i`i`#`.```````````````````````.`.`#`#`.`#`#",
"`t`t`t`t`t`t`t`t`t`t`t`u`v`t`t`t`w`o`o`o`i`i`i`i`i`i`i`i`i`i`i`i`i`i`i`i`i`i`i`i`i`i`i`i`#`````````````````````````````.`#```#`#",
"`s`s`s`s`s`s`s`t`t`t`t`t`u`t`t`t`o`o`o`o`o`o`o`o`y```````.```````````````````````````````.```````````````````````````````.```.`#",
"`s`s`s`s`s`u`t`t`t`t`z`u`u`t`t`t`o`o`o`o`o`A`o`o`o`````.`.`````````````````.```````````.`.`````````````````.```````````.`.```#`.",
"`s`s`s`s`q`s`u`t`t`u`z`u`B`z`t`t`o`o`o`o`x`o`A`o`o`C```.`#```````````````.```.`````.```.`#```````````````.```.`````.```.`#```.`#",
"`s`q`q`q`q`D`D`u`u`v`u`B`B`u`t`t`o`l`x`x`A`A`A`A`A`E`.`#`#`.```````.`.`.`.`.`.`.`.`#`.`#`#`.```````.`.`.`.`.`.`.`.`#`.`#`#`.`#`#",
"`q`q`q`r`q`q`F`v`v`v`G`B`B`B`v`r`q`j`x`H`x`A`I`J`J`E`#`#`#`#`#`#`.`.`.`#`.`.`#`#`#`#`#`#`#`#`#`#`.`.`.`#`.`.`#`#`#`#`#`#`#`#`#`a",
"`s`s`K`K`q`q`F`v`v`u`u`u`z`u`t`t`s`o`o`o`A`A`I`I`J`.`.`.```.`````````````.`.`#`#`#`.`.`.```.`````````````.`.`#`#`#`.`.`.```.`.`#",
"`s`s`s`q`s`s`q`F`u`t`u`t`u`z`z`z`L`o`o`x`s`o`A`I`A`y`.```.`````````````.`````.`#`.```.```.`````````````.`````.`#`.```.```.```#`#"
};
