/* XPM */
static char *ea_xpm[] = {
/* width height num_colors chars_per_pixel */
"    64    64      256            2",
/* colors */
"`` c #040204",
"`. c #845a04",
"`# c #043a64",
"`a c #041e2c",
"`b c #241e1c",
"`c c #5c3e04",
"`d c #042e4c",
"`e c #243a44",
"`f c #0c527c",
"`g c #041e3c",
"`h c #04121c",
"`i c #0c466c",
"`j c #2c2e2c",
"`k c #143a4c",
"`l c #545654",
"`m c #241a04",
"`n c #c48a0c",
"`o c #141e24",
"`p c #142e44",
"`q c #141214",
"`r c #14263c",
"`s c #443e3c",
"`t c #04365c",
"`u c #14262c",
"`v c #040a0c",
"`w c #242224",
"`x c #04263c",
"`y c #04162c",
"`z c #04426c",
"`A c #e49a04",
"`B c #444e3c",
"`C c #3c4a3c",
"`D c #3c3634",
"`E c #143a64",
"`F c #0c2e4c",
"`G c #2c363c",
"`H c #a47204",
"`I c #041a24",
"`J c #141e2c",
"`K c #140e0c",
"`L c #042654",
"`M c #043a6c",
"`N c #145e8c",
"`O c #14466c",
"`P c #7c5604",
"`Q c #cc921c",
"`R c #040a14",
"`S c #242a2c",
"`T c #343a3c",
"`U c #1c4e7c",
"`V c #0c1214",
"`W c #342e2c",
"`X c #0c1e2c",
"`Y c #143654",
"`Z c #444644",
"`0 c #0c263c",
"`1 c #444a4c",
"`2 c #14426c",
"`3 c #946604",
"`4 c #34260c",
"`5 c #042e5c",
"`6 c #1c3a54",
"`7 c #5c5a44",
"`8 c #1c1e1c",
".` c #141a1c",
".. c #1c262c",
".# c #0c325c",
".a c #3c4244",
".b c #040604",
".c c #0c3a5c",
".d c #0c5684",
".e c #0c223c",
".f c #0c467c",
".g c #2c323c",
".h c #1c1614",
".i c #cc8e14",
".j c #143244",
".k c #1c2a3c",
".l c #0c3654",
".m c #0c0a04",
".n c #2c2624",
".o c #0c1a2c",
".p c #0c426c",
".q c #f4a204",
".r c #344a5c",
".s c #0c324c",
".t c #b48214",
".u c #1c222c",
".v c #0c3e6c",
".w c #144a7c",
".x c #dc9604",
".y c #0c0e14",
".z c #2c2a24",
".A c #3c3a34",
".B c #0c1624",
".C c #4c4a44",
".D c #042234",
".E c #2c220c",
".F c #043254",
".G c #144e7c",
".H c #04224c",
".I c #041624",
".J c #2c3234",
".K c #143a5c",
".L c #cc8604",
".M c #141614",
".N c #142a3c",
".O c #44423c",
".P c #242624",
".Q c #042a44",
".R c #041a2c",
".S c #143e64",
".T c #343634",
".U c #14222c",
".V c #0c2a4c",
".W c #043e6c",
".X c #144a74",
".Y c #6c623c",
".Z c #040e14",
".0 c #1c568c",
".1 c #0c161c",
".2 c #34322c",
".3 c #0c2234",
".4 c #4c4644",
".5 c #0c2a44",
".6 c #1c4264",
".7 c #9c6604",
".8 c #5c5a5c",
"#` c #1c2224",
"#. c #9c7e34",
"## c #7c6a3c",
"#a c #2c4254",
"#b c #3c5254",
"#c c #4c5e54",
"#d c #3c524c",
"#e c #bc861c",
"#f c #8c5e04",
"#g c #644204",
"#h c #ec9e04",
"#i c #fca604",
"#j c #4c4e34",
"#k c #0c1a24",
"#l c #dc9614",
"#m c #042a4c",
"#n c #1c5284",
"#o c #1c3e5c",
"#p c #1c2a34",
"#q c #0c3e64",
"#r c #1c1a14",
"#s c #0c0e0c",
"#t c #3c3e3c",
"#u c #4c4e4c",
"#v c #cc8a0c",
"#w c #24221c",
"#x c #04223c",
"#y c #142224",
"#z c #342a0c",
"#A c #04325c",
"#B c #0c4a7c",
"#C c #9c6a04",
"#D c #5c5e5c",
"#E c #04020c",
"#F c #041e34",
"#G c #042e54",
"#H c #041224",
"#I c #0c4674",
"#J c #2c2e34",
"#K c #143a54",
"#L c #142e4c",
"#M c #043664",
"#N c #142634",
"#O c #042644",
"#P c #044274",
"#Q c #0c2e54",
"#R c #144674",
"#S c #242a34",
"#T c #0c121c",
"#U c #0c1e34",
"#V c #14365c",
"#W c #44464c",
"#X c #0c2644",
"#Y c #144274",
"#Z c #1c1e24",
"#0 c #141a24",
"#1 c #1c2634",
"#2 c #04060c",
"#3 c #0c3a64",
"#4 c #14324c",
"#5 c #0c365c",
"#6 c #0c0a0c",
"#7 c #0c4274",
"#8 c #0c3254",
"a` c #dc960c",
"a. c #2c2a2c",
"a# c #3c3a3c",
"aa c #4c4a4c",
"ab c #144e84",
"ac c #14161c",
"ad c #142a44",
"ae c #444244",
"af c #24262c",
"ag c #041a34",
"ah c #143e6c",
"ai c #34363c",
"aj c #142234",
"ak c #043e74",
"al c #040e1c",
"am c #343234",
"an c #1c1a1c",
"ao c #000000",
"ap c #000000",
"aq c #000000",
"ar c #000000",
"as c #000000",
"at c #000000",
"au c #000000",
"av c #000000",
"aw c #000000",
"ax c #000000",
"ay c #000000",
"az c #000000",
"aA c #000000",
"aB c #000000",
"aC c #000000",
"aD c #000000",
"aE c #000000",
"aF c #000000",
"aG c #000000",
"aH c #000000",
"aI c #000000",
"aJ c #000000",
"aK c #000000",
"aL c #000000",
"aM c #000000",
"aN c #000000",
"aO c #000000",
"aP c #000000",
"aQ c #000000",
"aR c #000000",
"aS c #000000",
"aT c #000000",
"aU c #000000",
"aV c #000000",
"aW c #000000",
"aX c #000000",
"aY c #000000",
"aZ c #000000",
"a0 c #000000",
"a1 c #000000",
"a2 c #000000",
"a3 c #000000",
"a4 c #000000",
"a5 c #000000",
"a6 c #000000",
"a7 c #000000",
"a8 c #000000",
/* pixels */
".b#san`8`w`w`w`w.P.P.P.P.P.P.P.P.P.P.P.P.P.P.P.P.P.P.P.P.P.P.P.P.P.P.P.P.P.P.P.P.P.P.P.P.P.P.P.P.P.P.P.P.P.P.P.P.P.P`w`w`8an#s#6",
"#6`b`ja.`j`j`j`j`j`j`W#J`j`W#J`j`W#J`j`W#J`j`W#J`j`W#J`j`W#J`j`W#J`j`W#J`j`W#J`j`W#J`j`W#J`j`W#J`j`W#J`j`W#J`j`W#J`ja.`ja..P`w`q",
".Maia#am`jam`jam`W#J`W#J`W#J`W#J`W#J`W#J`W#J`W#Jam`Wam#Jam`Wam#J`W#Jam`Wam#J.2`W#J`W#J`W#J`W#J`W#J`W#J`W#J.2#J`W#Jam`ja##tam`San",
"`8aea#.J.za.a.a.a.a.a.a.a.a.a..za.a.a..za.a.a..z`Saf.za.`S.z`Sa.a..z`Sa.`S.zafa.a.a.a.a..za.a.a..za.a.a..za.a.a..za..P`T`s`T.zan",
"`w`Z#tama.`8`V.1#k.1.`.1#k.M#k.1.`.1.1ac.1.1.1.Man`w#``8`8anan.M.`anan`8`8`w`wan.1.1.M.1.1.`.1#k.`#k#k.`.1#kac#k.1.1`8#taea#`jan",
".Paa#t.T`jac`R`h`h`h`h`h`h`h`hal`hal`h.Z.Z`R.Z.y`8`w`8an.h.M#s#2`v`q`q#ran`8.P`8`q`Ralalal`h`hal`hal`h`h`h`h`h`h`h#2#0.4`Za#.Jan",
".Paa`saia..``h.R#Fag.Rag.Rag`aag`aag.R.R.R.I.`.Pa.`w`8`8.``q.Z.Z`R.Z.M.M#Z`w.P`ja..`ag`a#F#F#F#F#F#F`aagagagag#Fag#H.``Z`Za#.2an",
".Paa.a`D`j`o`y#O#m.Q.Q#m.Q.Q.Q.Q#m.Q.Q.Q.H`8`jam.P.P`w`8.h#H.I.R.R.I.B#r`8`wa.`j.T`j.u#m`d#m`d#m`d#m.j.t`n.i`n`e#O#F`o`Z#Wa#`jan",
"`wae#t.Ta.`o.3#8#V.l.K.c.K#V#5#V#5`Y#5`Y..ama#`ja.`S`ban#k#F#X`F.s.5#x`Xan#w`Sa.ama#.2#p#V.c`Y.K.K`t#a#h#e`7.Y#o#8#x.u`Z`Z`W.P`q",
"`w#ta#`Da.`o.e#5.S#3`E.S#q.S#3.S.S#q#V`S`D#tam`ja.#w`8.R.e`F.l.S`E#5`F#X.3`8`wa..Jam#tam#S.c.S#q.S#5.r`Aa`.i##`M.K#X..ae`Z.Ta..M",
".P#u.a.T`j`o#x#5#3#5`t#3#5#3#5`##3#5`Sa##t.T#Ja..Pan.R#F.Q#8#3#3#3#3#5`d#m.3#Z.Pa..2.Tae.T#S`t.v#3#M.r#h#.#c#b`M#5#O`uae.4#tam`8",
"`wae#t`Da.`o#F.F`t.F.F#A#A`#.F#M#8`Sa##tai.2`j.P`8.Iag.Q.F#A`t`t`t`t`t#A`F#O#U`8.n`jam.Tae.A#S#A`t`5#d#ia``Q#e.c.F#x.U`Z#W.Ta.an",
"`w#ta#`Ta.`oag.Q.F#m`d#G`d#G`d`F`S`sae`Tam`j.Pan.I.R#x#m#G`d.F#G.F#G.F#G`d.Q#x.R#`.n`jam`Tae.A#S`d#m`k`B`B#j`C.F#m#F.U.4`Zama..`",
".P#u#t`D`j#0.R#O#m#O#O.Q#O`d#Xa.ae.a.Aam`j.n#Z`h.I#F#O.Q#m#m#m#m#m#m#m#m#m#O`xag.I#`.n.Jam.A`Z#t`S.Q#m.H`L.H.H#m#O.R`J`Z`Za#aman",
".P.4#tai.z`o#F`d#5`d#8#8#A.s`jae`Za#.T`j.n#Z.Iag`x#G#8`t.##8#8#8.F#5#8#5.F#5.F`F#F.o#`.n.J.Ta##W`s#S`F`t.l#8.F#5.F#F.U.4`Zai`j#r",
"`w#t#t`D`j.u#X.S`2.S.v`2#Vam`Z`Za#.T.J.n#`.D.5#8`E`2#R`2`2.p`O`2`2#Y`2.pah.p#Y`2.c`0#U#`.nam.Ta#aa.O#J.S#R`2`2`2.S.V..ae`Z`Da..`",
".Paa#taia..U`F`2.w`2#R`2.2`Z`Za#.T.2.n.u.e`F.K#Y.X.w.w#R#R#R.w#R#R.G.w.p#R.G#n.w#R.S.5.3#`.zam`Ta##W.O.J#R#R#R.w.p.s#N`Z.4#t.Jan",
".Paa#ta#.z.U#O.v#I#P#V.2`Z#Wa#.A.J.n.u.D`d#5.v#I.f#7#I#7.p#7#I#7#7#I#7.v#7.0.w#I.f#7.c#O#U#`a..2`T#taaae.J#q#7.p.v#m#1`Z#Wa#.2an",
".naa#tai.z.U`x#5ak#8.2aa#W#t`D.Ja.#Z#F#O.F`#.W.W.W#3.W.W`#`#.W`M.W.W.W`#.v#7.v.W.v.W.W.F#F`I#`.nam.T#taaae.J#5.W`t#m#N.4`Za##Jan",
"afaa.a`Da.`o`g#A.s.Taa`Z#t`D.J.n`o.I#x.Q#A#5#M#5#M#A#5#A.#.#`t#5.F#5#M.#`t`t#M#5#M`t#5#A.Q.R`y#`a.am`T#taa`Z.J`F.F#x.Uae`Za#.2an",
"`S.C#t.T`j#0.R.5`D.C#W#t`D.Ja..``h#F`x#m`d#G#G#G`d`d#G`d`d`d#G`d`d`d#G`d#G#G#G#G#G`d#m#G`d#x.R.I#`.zam.A#taa.4.J.5`g#y.4`Za#.Jan",
".naa#t`Da.`o`X.T.C#W#t.A#J.z`o.I#x#m#8`t#5#3.c#3#5#5#5#5.##5#5#5#5#A#5#5.l#5.c.c#5#5#5#3#5`t`F#x.R#`.namai#taa.4.J.3ajae`Za#.2an",
".Paa.aai`j#``j.4`Za#`D.Ja.#Z.R`0#4#Y#R`2#R#B`2#R.X`2#R#I`2`2.w.p#R`2#R`2#Y`O#R#R#R#R#7#R#R#R#R.c.V.3.u.zama##t#W.4`S..`Z.4`Taman",
".Paa`s.Ta..Pa##ta#`T`j.z`o.R.5`E`O.G.G#R.G.p#q#Y.w.w.w.w.w.Xab.X.w.Xab.X.w#Rababab.w.X.w.w.G.G.w.S#8`0.u.z.J`D#t.a`D.nae`Za#.Jan",
"afaa.a`D`S.zamam.T`Wa.#0`y`0#3#P#7.f.f#7`z#q#7.d.G`z.f#I#7#7.f#7#I#7#I#7#7#I.f.f.f#I#7#7#I.f.f.f#7#3`d#x.u.z#J.T.2`j`Sae`1.Aaman",
".zaa#t.Ta..Pa..J`j.P`o.I#x.F.W.v`#.W`z#3`z`z`f`N#B`#.v.W`#`#`z`M.v`#.W.W`#.W.W`zak.v`#.W#3.W.v.W.W`##5.Q#F.U.n`j`j`w`w`Z`Za#`Wan",
".Paa#ta#a.`w.zaf.n#0.I#F`d`t#M`t`t#3#M`t#5`#`i.p#5#A`#`t#5#A#3`t`t#A#5`t.#`t#5`##M`t#5`t#M`t`t#3`t`t`t`d#x#F`o`w`w`8`wae`Za#.J#r",
"afaa#t.Ta.`w`8`w.1.Iag#O`d`F`d`F#m`d`d#m`d#G#m#m#G#m`F#m#m#m`d.V.Q#m`d#m#m#m#G`F`d#m#m#m`F#m#m`d.V#m.V#m`xag.R.``8.M`8`Z.4a#`jac",
".zaa.a`Da.`w.P`jamam.Tai.Taiai.Tai.Tai.Tai.Tai.Tai.Tai.T.Tai.Tai.Tai.Tai.T.Tai.Tai.Tai.T.Tai.Tai.T.Tai.T.T.T.J`j.P.h#Z`Z`Za#`jan",
".Paa#t.Ta.`S.Tae`Zaa#uaaaaaaaaaaaaaaaaaaaaaaaaaa.Caaaaaaaaaaaaaaaaaaaaaaaaaaaaaaaa#u.Caaaaaaaa.Caaaaaaaaaaaa`Zaeam`w`w`Z`Za#`Wan",
".Paa#ta#.z.P`j.Ta##t#t#t#t#t#t#t#t#t`s#t`s#t`s#t#t`s#t#t#t#t#t#t#t#t`s#t`s#t#t#t`s#t#t#t#t#t#t#t#t#t#t#t#t#ta#ama.an#`ae.4`Taman",
"afaa#t.Ta.`w.P`Wam.T.Tai`D.T.T`Dai.T.Tai.T.Tai`Dai.Tai`Dai`D.T`D.T.T.T.T.T`D.T.Tai`Dai`Dai`Dai`Dai`Dai`D.T.Tam`j.P.`#w`Z`Za#.Jan",
".zaa.a`Da.`8an#Z.Pa.a..za.a.a.a..za.a..za.a..za..za.a..za.a.a.a.a.a.a.a.a.a.a..za..za..za..za..za.a..za.a..z.n.Pan`qan`Z`Za#.2an",
".Paa#t.T`j#Zan.P.P#Z`J#y.U#y.U#y.U.U#y.U.U.U#y.U.U.U#y`J#y`o.U#y.U#y.U`o.U#y.U.U.U.U`J.U.U.U.U.U.U.U.U.U.U.U`J.``8.M`8`Z`Za#.Jan",
"afaa#t`Da.`w.P.T`s.J`X`g#F`g#F`g#Fag`g#F#F#F`g#F#F#F#F#F#F#F`g#F`g#F#F#F#F`g#F#F`g#F#F#x#F#F`g#F#F`g#F#F#F`g`a`S`W#Z`wae`Za#.2an",
".naa.a.T`j#``w`W.a.4am.5.F#8#G.F`d#Q.F.F#8#G.F#Q.F#G#8#G.F#Q.F.F#Q.F.F#Q.F.F#Q.F`d#G.F#8.F.F#8.F.F.F.F#8#A`F`W#tam`8#wae`Za#aman",
"`S.C#t`Da.`8#w`j.Tae`1.2#K#R`2`2`2.v`2.p#q#q`2`2#Y`2`2`2`2`2`2`2`2`2`2`2`2`2`2#3#q`2`2.p#Y`2#Y`2#R#Y`O.f`6.2ae#ta.an#Z`Z`Za#.Jan",
".Paa#t`Ta.`8anafam.Tae`Zam`6.w#R#R`2.X#Y.p#R#R#R.X#R#R`2#R#I#R.X#R.w#R#Y.X#R#R.v#Y.w`U`U#R.w#R.w.X.w.w#oam`Z.aam`S#r`8`Z.4a#.2an",
".naa#t`D`jac`V`wa.am.T`sae`j`Y#7.v#q.v.p#B#B.f.v.p.v.v`#.v#q.v.p.v.p.v#q.v#7.p.v.p`U.w#Y.p#7.p#7.p#7.K.2`Zae.Tam.Pan#Z`Z#Wa#.Jan",
"`Saa#taia..`al#k#wa..J.T#tae`W`p#M`t#M`#`#`M`#`t#M`#`t#A`t#A`##M`#`t`t#A`##M`##M`##3`##M`#`#`##3`M.s`W#Wae.T.Ta.`w`V.`.4`Za#`jan",
".Paa#ta#a..`#H.I#k#w.n#J.Ta#.a`W.5`d#G#Q#G`F#G`F#G#G`d.V`d`F#G#Q#G`d`F#m`d`d#Q.F#G#G#G#8.F#Q.F`5`p`W`Z#t.Tama.`w.``R#0`Z`Za#am`8",
".naa#t.T`j.`#H`y.I.1#w.P`j`W`T#t`W.U#O#O#O#O#O#x#O#O#x#x#O#x#O#O#O#O#x.H`x#O#O#O#O.Q#O#O#O#O#m`0`W.a#t.Tama..P.`#H#H`o`Z.4a#.Jan",
"`Saa#t`Da.#0.R#x#F.I.B`b.Pa.`j.Ta#`j#N#m.Q#m.Q.Q.5#m.Q.Q.Q#m.Q.Q.Q.Q.Q.Q#X.Q.Q.5#m.Q.V#m.Q`d#N`j.Oa#am`W`S#w#0.I#F.R`J`Z`Za#`Wan",
".Paa#t`Ta.`o.D.s#8`0.R#k`8`wa.`jama#.z.N#5`Y#8#8.l#4.##8#4.#`Y#8#V#8#4#8#8#8#8#5`Y#5.l.l.#.N`ja#`T`W`jaf#w#0#F`F#8.D.uae.4`Taman",
".n#u#t`Da.#Z.e#8#V.l.5#U#k`8`w.P`jamai.z.k.c#V#5#V#3`Y#5#V#5.K#5#V#5#V#5#V`Y`Y#5#V.K.K#3.k`ja#.T`W`j.P#w#k#U.s.S#V`x#1ae`Za#.Jan",
"#`ae#tai`j`o#F`F.F#8#Q`x.R.Ban`w.Pa..2.T.n`r#8.F#8#8.F#Q.F#8.F#8.F#8#G`F.F#8#G#8`t#8`t.N.za#am`ja.`w`8.B.R`F#3#3.F#x.u`Z.4.Ta..M",
"`wae#t`Da.`oag#O`d#m`d#m.D`y.1an#`.P.n#J.T.zaj.Q`d#m#m.Q#m.Q`d#m#m#m.Q#m#m.Q.Q`d`d#Gaj.z.Tama..P`w`8.1`y.Q#A#A`t.V#F.Uae#W.A`jan",
"`w`Zae.Ta..`.I.D#O#O`x#O#x`a.I#T#r#Z.Pa.`jam.z.U#O#O`x#x`x.H`x#x#O`x`x#x#x#O#x#O#O.U.zai`W`S.n`w`8#T#H.D#m`d#m`d#O`y#y`Z.4a#aman",
"`w#t#t`T`j.`#H.R#F#F#F#F#F#F`y#H`h#r`8`w.P`j.J.n`o#F#Fag#F`a#F#F#F#F#Fag#F#F.R`g`o.nam`jaf.P`8an`V`hag#x`x#x#x#O#F#H`o`Z#Wa#`jan",
".Paa#t`Da.#0.I#F#x.D`g#x#x.D#F#F.I#T.M`8`w.Pa..J.n`o.D#F.D`g#x.D#x#F.D#F#F#x#F`o.P.Ja..P.P`ban`V#H.D`x#O#O#X`x#O#x.I`J.4`Z.T`S.M",
"`8ae#taia.`o.I.3.5#X`0.5.5.5#X`0#x.R.1.Man#Z`w.P#J.P`o#X.5`0.5#X.5#X#X`0.5#X`o.P`Waf`w`wan.M#T.I`0`F.V`F.s`F`F#8.5.R.u`Z`Za#.2an",
".Paa#t`Da.`o.I.e.5.5#X.Q.V.V.5`0.5.3#F#T.M#r`8`w`w.z`w.``0`0#X`0`0`0`0.e`0`o`ba.`w#w`8.`.M#T`I`0`F`F`F.5#L#Q`F#4.V`a.uae.4.Ta.ac",
".Paa#t`Ta..`.I#F#x#F`x#Q`t.F#x.D#x#F#U.R`h`K`q`q.M.Man.M.yal`hal`h`h`h`h`V.M`8.`.M`q`q`q.Z.I#F#O#O#X.Q.5#m.Q.5`d`0`y#y`Z#Wa#`jan",
".Paa`s.T`j.`al.R`a.R#F`x`d#x.Rag#F.R#F`y`h`v`8`Sa.a.a.`ja.`S`S`S`S`S`Sa.a.`ja.a.a..Pan.Zal#F.D#F#F#x#x#x#x#x#x#O`g.I`o.4`Za#.2an",
".naa.a.Ta..`al.I`y`y.I`y.I.R.R.I.R`y.R.Ial`Va##Daa`1.C`1aa.Caaaa.Caaaaaa`1aaaa.Caa`Zam`V`h#Fag.Rag#F#F#F#F#F#F#x.R#H#0`Z`Za#.Jan",
"`Saa#t`D`jac`R`h.I#H.I.I.I#H.I#H.I#H.I.I`R.1aa`lam`j`D.T.T.T.T.T.T.T.T.T.T.T.Taiama#`Z.1al.R.I`y`I.R.R.R.R.R.Rag`Ial`o`Z`Za#.2an",
".Paa#taia..`al.I.I.I.I.R.I.I.R.I.I.I.R.I.Z.`ae#u.2.J#ta##ta##ta##ta##ta##ta#a##t.2`T`Z.``h.R.R.R`y.R.Rag.Rag.R#F.Ral#0`Z.4a#.Jan",
".Paa`s.T`j.`al.I.R.I`y.R.I`y.I`y.R.I`y.I`R.1.T`sae`l.8.8.8.8.8.8.8.8.8.8.8.8.8.8`Z#ta##T`h.R.R`y`I.R.R.R`aag.R#F.Ral`o.4`Za#.2ac",
"`w`Z#taia.#``o`o`o`o.U`o`J#y.U`o`J.U`o`o#0#Z.P#J.Tai.T.T.T.T.T.T.T.T.T.T.T.T.T.T.T`W`S.`#0.U`o`J.U.U.U.U.U.U#`.U`o`o#`#tae`T`j`q",
".P#uae#t#t.4`Z`Zaa.4`Z`Z.4aaae`Z.4.C`Z`Zaa`Z`Zae`Z`Zaeae`Zaeaeae`Z`Zaeae`Zaeaeae`Z`Zae.4aa.4`Z.4.4.C`Z.4.4.4`Z`Z.4.Cae`Z.4ae.Tan",
"an.g`D.A.T.g`s#ta#.g`s.O`Tam#t.Oa#.g`s`s`Tam#t`sa#ai#t`sa#ai#t.Oa#am#t.Oa#`G`s.Oa#.g`s.a`Tam#t.O`Tam#t`s`T`G`s`s`T.ga#`s`T#J.T`8",
"```P.7`K#E`..7`K```.#C`K#E`.#C`K#E`.#C`K#E`.#C`K#E`.#C`K```.#C`K#E`.#C`K#E`.#C`K```.#C`K```.#C`K#E`.#C`K#E`.#C`K#E`.#C`K#E`.`3.m",
"#g.x#z#2`H`A#z#2`H`A#z#2`H#h`4#2`H`A`4`v`H#h`4#2`H`A#z#2`H#h`4#2`H#h`4#2`H#h`4#2`H`A#z#2`H#h`4#2`H#h`4#2`H`A`4`v`H#h`4#2`H#h`4``",
"`c`4#E`P.L.E#E`P.L.E#E`P.L.E#E`P.L.E#E`P.L.E#E`P.L.E#E`P.L.E#E`P.L.E#E`P.L.E#E`P.L.E#E`P.L.E#E`P.L.E#E`P.L.E#E`P.L.E#E`P.L.E#E`m"
};
