/* XPM */
static char *no_xpm[] = {
/* width height num_colors chars_per_pixel */
"    64    64      256            2",
/* colors */
"`` c #040204",
"`. c #145e8c",
"`# c #042e4c",
"`a c #5c3e04",
"`b c #041a24",
"`c c #0c466c",
"`d c #2c2e2c",
"`e c #241a04",
"`f c #041e3c",
"`g c #043a64",
"`h c #8c5e04",
"`i c #14262c",
"`j c #040e14",
"`k c #141a1c",
"`l c #143a54",
"`m c #042e5c",
"`n c #bc8a14",
"`o c #14263c",
"`p c #244254",
"`q c #140e0c",
"`r c #3c4a44",
"`s c #04263c",
"`t c #644204",
"`u c #0c527c",
"`v c #34260c",
"`w c #443e3c",
"`x c #141e2c",
"`y c #142e44",
"`z c #04426c",
"`A c #b48214",
"`B c #041224",
"`C c #042654",
"`D c #444e3c",
"`E c #6c5a2c",
"`F c #042234",
"`G c #1c4e7c",
"`H c #3c3634",
"`I c #143a64",
"`J c #144e7c",
"`K c #2c363c",
"`L c #a47204",
"`M c #14365c",
"`N c #e49a04",
"`O c #5c5a5c",
"`P c #0c1a24",
"`Q c #142224",
"`R c #04365c",
"`S c #0c263c",
"`T c #242624",
"`U c #444644",
"`V c #040a0c",
"`W c #0c3654",
"`X c #14466c",
"`Y c #043a6c",
"`Z c #0c161c",
"`0 c #343a3c",
"`1 c #0c2e4c",
"`2 c #342e2c",
"`3 c #0c0e0c",
"`4 c #1c1a14",
"`5 c #2c2624",
"`6 c #d4920c",
"`7 c #14426c",
"`8 c #a47e24",
".` c #7c6e44",
".. c #4c4644",
".# c #041a34",
".a c #241e1c",
".b c #1c262c",
".c c #1c3a4c",
".d c #0c325c",
".e c #141614",
".f c #04264c",
".g c #3c4244",
".h c #dc9a0c",
".i c #040604",
".j c #0c467c",
".k c #2c323c",
".l c #0c223c",
".m c #0c3a5c",
".n c #946604",
".o c #04325c",
".p c #1c2a3c",
".q c #1c5284",
".r c #1c222c",
".s c #143654",
".t c #0c426c",
".u c #0c1624",
".v c #845a04",
".w c #fcae04",
".x c #64623c",
".y c #0c1e34",
".z c #0c365c",
".A c #0c2a4c",
".B c #242a34",
".C c #0c0a04",
".D c #144a7c",
".E c #0c3e6c",
".F c #3c3a34",
".G c #0c324c",
".H c #0c121c",
".I c #1c1e24",
".J c #dc9604",
".K c #043254",
".L c #041e2c",
".M c #2c3234",
".N c #04224c",
".O c #04121c",
".P c #141e24",
".Q c #142a3c",
".R c #2c3e44",
".S c #042a44",
".T c #44423c",
".U c #14222c",
".V c #14324c",
".W c #041624",
".X c #042a54",
".Y c #545654",
".Z c #143e64",
".0 c #343634",
".1 c #9c762c",
".2 c #f4a204",
".3 c #0c1e2c",
".4 c #04366c",
".5 c #0c2a44",
".6 c #242a2c",
".7 c #444a4c",
".8 c #144a74",
"#` c #043e6c",
"#. c #7c5604",
"## c #7c662c",
"#a c #cc8604",
"#b c #2c220c",
"#c c #4c4e4c",
"#d c #1c4264",
"#e c #846e34",
"#f c #ac8224",
"#g c #ec9e04",
"#h c #1c3e5c",
"#i c #9c6604",
"#j c #6c663c",
"#k c #1c1614",
"#l c #846624",
"#m c #0c2234",
"#n c #1c2224",
"#o c #141214",
"#p c #0c5684",
"#q c #34322c",
"#r c #0c1214",
"#s c #1c1e1c",
"#t c #2c2a24",
"#u c #d4960c",
"#v c #4c4a44",
"#w c #24221c",
"#x c #1c2a34",
"#y c #0c3e64",
"#z c #1c568c",
"#A c #3c3e3c",
"#B c #04223c",
"#C c #342a0c",
"#D c #5c5e5c",
"#E c #041e34",
"#F c #042a4c",
"#G c #0c4a7c",
"#H c #2c4244",
"#I c #9c7a2c",
"#J c #9c6a04",
"#K c #04020c",
"#L c #042e54",
"#M c #041a2c",
"#N c #0c4674",
"#O c #2c2e34",
"#P c #142634",
"#Q c #040e1c",
"#R c #141a24",
"#S c #143a5c",
"#T c #042e64",
"#U c #042644",
"#V c #142e4c",
"#W c #044274",
"#X c #144e84",
"#Y c #0c1a2c",
"#Z c #043664",
"#0 c #0c2644",
"#1 c #24262c",
"#2 c #44464c",
"#3 c #040a14",
"#4 c #144674",
"#5 c #0c2e54",
"#6 c #0c0e14",
"#7 c #1c1a1c",
"#8 c #d49214",
"a` c #144274",
"a. c #a47e2c",
"a# c #1c2634",
"aa c #1c3a54",
"ab c #14161c",
"ac c #04060c",
"ad c #0c3a64",
"ae c #043264",
"af c #0c4274",
"ag c #0c0a0c",
"ah c #3c3a3c",
"ai c #0c3254",
"aj c #142a44",
"ak c #444244",
"al c #142234",
"am c #04162c",
"an c #042a5c",
"ao c #143e6c",
"ap c #34363c",
"aq c #043e74",
"ar c #343234",
"as c #2c2a2c",
"at c #4c4a4c",
"au c #242224",
"av c #000000",
"aw c #000000",
"ax c #000000",
"ay c #000000",
"az c #000000",
"aA c #000000",
"aB c #000000",
"aC c #000000",
"aD c #000000",
"aE c #000000",
"aF c #000000",
"aG c #000000",
"aH c #000000",
"aI c #000000",
"aJ c #000000",
"aK c #000000",
"aL c #000000",
"aM c #000000",
"aN c #000000",
"aO c #000000",
"aP c #000000",
"aQ c #000000",
"aR c #000000",
"aS c #000000",
"aT c #000000",
"aU c #000000",
"aV c #000000",
"aW c #000000",
"aX c #000000",
"aY c #000000",
"aZ c #000000",
"a0 c #000000",
"a1 c #000000",
"a2 c #000000",
"a3 c #000000",
"a4 c #000000",
"a5 c #000000",
"a6 c #000000",
"a7 c #000000",
"a8 c #000000",
/* pixels */
".i`3#7#sauauauau`T`T`T`T`T`T`T`T`T`T`T`T`T`T`T`T`T`T`T`T`T`T`T`T`T`T`T`T`T`T`T`T`T`T`T`T`T`T`T`T`T`T`T`T`T`T`T`T`T`Tauau#s#7`3ag",
"ag.a`das`d`d`d`d`d`d`2#O`d`2#O`d`2#O`d`2#O`d`2#O`d`2#O`d`2#O`d`2#O`d`2#O`d`2#O`d`2#O`d`2#O`d`2#O`d`2#O`d`2#O`d`2#O`das`das`Tau#o",
".eapahar`dar`dar`2#O`2#O`2#O`2#O`2#O`2#O`2#O`2#Oar`2ar#Oar`2ar#O`2#Oar`2ar#O#q`2#O`2#O`2#O`2#O`2#O`2#O`2#O#q#O`2#Oar`dah#Aar.6#7",
"#sakah.M#tasasasasasasasasasas#tasasas#tasasas#t.6#1#tas.6#t.6asas#t.6as.6#t#1asasasasas#tasasas#tasasas#tasasas#tas`T`0`w`0#t#7",
"au`U#Aaras#s#r`Z`P`Z`k`Z`P.e`P`Z`k`Z`Zab`Z`Z`Z.e#7au#n#s#s#7#7.e`k#7#7#s#sauau#7`Z`Z.e`Z`Z`k`Z`P`k`P`Z`k`Z`Pab`P`Z`Z#s#Aakah`d#7",
"`Tat#A.0`dab#3.O.O.O.O.O.O.O.O#Q.O#Q.O`j`j#3`j#6#sau#s#7#k.e`3ac`V#o#o`4#7#s`T#s#o#3#Q#Q#Q.O.O#Q.O#Q.O.O.O.O.O.O.Oac#R..`Uah.M#7",
"`Tat`wapas`k.O#M#E.##M.##M.#.L.#.L.##M#M#M.W`k`Tasau#s#s`k#o`j`j#3`j.e.e.Iau`T`das`k.#.L#E#E#E#E#E#E#E#E.##E.##E.#`B#R`U`Uah#q#7",
"`Tat.g`H`d.Pam#U#F.S.S#F.S.S.S.S#F.S.S.S.N#s`dar`T`Tau#s#k`B.W#M#M.W.u`4#sauas`d.0`d.r#F`##F`##F`1.f##`6`E`C`A#l.N.L`Q`U`Uah`d#7",
"auak#A.0as.P#mai`M`W#S.m#S`M.z`M.z.s.z.s.barah`das.6.a#7`P#E#0`1.G.5#B.3#7#w.6asarah#q#x`M.m.s.m#S.o`8.w.J`p.J.1`m`S.r`U`U`2`T#o",
"au#Aah`Has.P.l.z.Zad`I.Z#y.Zad.Z.Z#y`M.6`H#Aar`das#w#s#M.l`1`W.Z`I.z`1#0#m#sauas.Mar#Aar.B.m.Z.Z.Z.4#f`6`N#I#8.`.o.5.U..`Uapas.e",
"`T#c.g.0`d.P#B.zad.z`Rad.zad.z`gad.z.6ah#A.0#Oas`T#7#M#E.Saiadadadad.z`##F#m.I`Tas#q.0ak.0.B`R.E.mae`na..`.2.2#j#T`s.Uak`Uahar#s",
"auak#A`Has.P#E.K`R.K.K.o.o`g.K#Zai.6ah#Aap#q`d`T#s.W.#.S.K.o`R`R`R`R`R.o`1#U.y#s`5`dar.0ak.F#x.o`R`m#u#f.4#8.w.xan#B.U..#2.0`d#7",
"au#Aah`0as.P.#.S.K#F`##L`##L`#`1.6`wak`0ar`d`T#7.W#M#B#F#L`#.K#L.K#L.K#L`#.S#B#M#n`5`dar`0ak.F.B`##L`r#Han.R`D.c#F#E.Uak`U.0as.e",
"`T#c#A`H`d#R#M#U#F#U#U.S#U`##0asak`r`Har`d`5.I.O.W#E#U.S#F#F#F#F#F#F#F#F#F#U`s.#.W#n`5.Mar.F`U`w.6#U.f.f`##U.N#F#U#M`Q..`Uahar#s",
"`T..#Aap#t.P#E`#.z`#aiai.o.G`dakak`H.0#O`5.I.W.#`s#Lai`R.daiaiai.K.zai.z.K.z.K`1#E#Y#n`5.M.0ah#2`w.B`1`Rai.Kai`R`##B.Uak.7`Has#7",
"au#A#A`H`d.r#0.Z`7.Z.E`7`Mar`U`Uahap.M`5#n`F.5ai`I`7#4`7`7.t`X`7`7a``7.tao.ta``7.m`S.y#n`5ar.0ah.7.T#O.Z#4ao`7`7.Z.A.bak..`0#t`k",
"`Tat#Aapas.U`1`7.D`7#4`7#q`U`Uah.0#q`5#n.l`1#S`7.D.D.8#4#4#4.D#4#4`J.D.t#4`J.q.D#4.Z.5#m#n#tar`0.Fat.T.M#4.8#4.D`7`1#x`U`Uah.M#7",
"`Tat#Aah#t.U#U.E#N#W`M#q`U#2ah.F.M`5.r`F`#.z.E#N#Naf.jafaf.t.jafaf#Naf.Eaf#z.D#N.jaf.m#U.y#nas#qap#Aat.T#O#yaf.t.E`##Pak`Uah#q#7",
"`5at#Aap#t.U`s.zaqai#qat#2#A`H.Mas.I#E#U.K`g#`aq#`ad#`#``g`g#``g#`#`#``g.Eaf.E#`.E#`#`.K#E`b#nasar.0#Aat`U#O.m`Y`R#F#P..`Uah.M#7",
"#1at.g`Has.P`f.o.G.0at`U#A`H.M`5.P.W#B#F.o.z`R.z#Z.o.z.o.d.d`R.z.o.z#Z.d`R`R#Z.z#Z`R.z.o.S#M.W.Iasarahahat`U.Mai.K#B.Uak`Uah#q#7",
".6#v#A.0`d#R#M.5`H#v#2#A`H.Mas`k.O#E`s.S#L#L#L#L#L`##L`#`#`##L`#`#`##L`#`##L#L#L#L`##F#L`##B#M.W#n#t.Mah#Aat...M#0#E.U..`Uah.M#7",
"`5at#A`Has.P.3.0#v#2#A.F#O#t.P.W#B#F.d`R.z.mad.m.z.z.z.z.d.z.z.z.z.o.z.z.z.z.m.m.z.z.zad.z.z`##B#M#nasar.F#A.7...M#m.Uak`Uah#q#7",
"`Tat.gap`d#n`d..`Uah`H.Mas.I#M`S.V`7#4`7#4#G`7#4.D`7#4#N`7`7.D.t#4`7#4`7`7#4#4#4#4#4af#4#4#4#4#S.A#m.r#t.M`H#Aat`Uas.b`U..ah.M#7",
"`Tat`w.0as`Tah#Aah`0`d#t.P#M.5`I#4`J`J#4`J.t#y`7.D.8.D.D.D.8`J.D.8.D`J.D.8#4#X#X#X.D.8.D.D`J#X.D.Zai`S.r#tarapah.T.0`5ak#2ah#q#7",
"#1at.g`H.6#tarar.0`2as#Ram`Sad`zaf.j.jaf`z#yaf#p`J#W.j#Nafaf.jaf#Naf#Nafaf#N.j.j.j#Nafaf#N.j#N.jafad`##B.r#t.M.0ar`dasak.7.F.M#7",
"#tat#A.0as`Tas.M`d`T.P.W#B.K#`.E`g#``zad`z`z`u`.#G`g.E#``g`Y`z`Y#y`Y#`#``g#`#``z#`.E`Y#`ad#`#`.E#``g.z.S#E.U`5as`dauau`U`Uah`2#7",
"`Tat#Aahasau#t#1`5#R.W#E`#`R#Z`R`Rad#Z`R.z`g`c.t.z.o`g`R.z.o.m`R`R.o.z`R.d`R.z`g#Z`R.z`R`R.z`R`g`R.o`R#F#B#E.P`Tau#s#nak`Uah.M#7",
"#1at#A.0asau#sau`Z.W.##U`#`1#L`1#F`#`##F`##L#F#F#L#F`1#F#F.S#L.A#F.S#L.S#F#F#L`1#L#F#F#F`##F#F`1#F.A`##F`s.#`b#R#s.e.a`U`Uah`d#k",
"#tat.g`Hasau`T`darar.0ap.0ap.0ap.0ap.0ap.0ap.0ap.0.0ap.0ap.0ap.0.0ap.0ap.0ap.0ap.0.0ap.0ap.0ap.0ap.0.0ap.0.0ar`dau.e.I`U..ah`d#7",
"`Tat#A.0as.6.0ak`Uat#catatatat#vatatatatatatatatatatatatatat#vatatatatatatatat#vat#catatatatatat#vatatatatat`U.garau`Tak`Uah.M#7",
"`Tat#Aah#t`T`d.0ah#A#A#A#A#A#A#A#A#A`w#A`w#A`w#A#A`w#A#A#A#A#A#A#A#A`w#A`w#A#A#A`w#A#A`w#A#A`w#A#A#A#A#A#A#Aah.0as#7#w`U#2ah#q#7",
"#1at#A.0asau`T`2ar.0.0ap`H.0ap`Hap.0ap.0.0.0ap`H.0ap.0`Hap`Hap`Hap.0.0ap.0`Hap.0ap`H.0ap`H.0.0ap`Hap`H.0ap.0ar`d`T`4.I`U`Uah.M#7",
"#tat.g`Has#s#7.I`Tasas#tasasas#tasas#tasasas#tasas#tasas#tas#tas#tasas#tasas#tas#tasas#tasas#tas#tasasas#tas`5au#s#6#s`U..ah#q#7",
"`Tat#A.0`d.I#7`T`T.I`x`Q.U`Q.U.U`Q.U.U`Q.U.U.U`Q.U.U`Q`x.U.P.U.U.U`Q.U`x.U.U.U.U.U.U`x.U.U.U.U.U.U.U.U.U.U`Q`x.P#7.e.a`U`Uah.M#7",
"#1at#A`Hasau`T.0`w.M.3`f#E#E#E#E#E.##E`f#E#E#E`f#E#E#E#E#E#E#E#E`f#E#E#E#E#E#E#E#E#E#E`F#E`f#E#E`f#E#E#E`f`f.Las`d#w.I`U`Uah#q#7",
"`5at.g.0`d#nau`2.g..ar.5.Kai#L.K#L#5.K.Kai#L.K#5.K#Lai`#.K#5.K.K#5.K.K`1.K.K#5.K#L#L.Kai.K.Kai.K.Kai.Kai.K`1`2#Aar#7auak`Uah.M#7",
".6#v#A`Has#s#w`d.0ak.7#q`l#4`7a``7#ya`.t#y#y`7`7a``7`7`7`7`7`7`7`7a``7`7a``7`7ad#y`7`7.ta``7a``7#4a``X.jaaarak#Aas#7#s`U`Uah#q#7",
"`Tat#A`0as#s#7#1ar.0ak`Uaraa.D#4#4`7.8`7af#4#4#4.8#4#4a`#4#N#4.8#4.8#4a`.8#4#4#ya`.8`G`G#4.D#4.D.8.D.D#har`U.gar.6`4#s`U..ah.M#7",
"`5at#A`H`dab#rauasar.0`wak`d.saf.E#y.Eaf#G#G#N.Eaf.E.E`g#y.E.E.t.E.t.E#y.Eaf.t.E.t`G.Da`af.taf.tafaf#S#q`Uak.0#q`T#7.I`U#2ah#q#7",
".6at#Aapas`k#Q`P#was.M.0#Aak`2`y#Z`R#Z`g`g`Y`g`R#Z`g`R.K`R.o`g#Z`g#Z`R.o`g#Z`g#Z`gad`g#Z`g`g`g`g`Y.V`d`Uak.0.0asau#r`k..`Uah.M#7",
"`Tat#Aahas`k`B.W`P#w`5#O.0ah.g`2.5`##L`1#L`1#L`1#L`#`#.A#L`1#L#5#L`#`1#F`#`##5.K#L#L#Lai.K#5.K#L`y`2`U#Aaparas`T`k#3.Pak`Uah#q#7",
"`5at#A.0`d`k`Bam.W`Z#w`T`d`2`0#A`2.U#U#U#U#U#U#B#U#U.N`F#U#B#U#U#U`s.N#B`s#U#U#U#U.S#U#U#U#U#F`S`2.g#A.0arasau`k`B#Q`x..`Uah.M#7",
".6at#A`Has#R#M#B#E.W.u.a`Tas`d.0ah`d#P#F.S#F.S.S.5.S.S.S.S.S.S.S#F.S.S.S#0#F.S.5#F.S.A.S.S`##P`d.Tahar`2.6#w`kam`F#M`x`U`Uah#q#7",
"`Tat#A`0as.P`F.Gai`S#M`P#sauas`darah#t.Q.z.saiai.z.V.dai.V.d`Mai.sai.Vaiaiaiai`W`M`W.z`Mai.Q`2ah`0`2#O`Tau#R#E`1ai#B.r`U`Uah.M#7",
"`5#c#A`Has.I.lai`M`W.5.y`P#sau`T`dar.0as.p.m`M`W`M.m`M.z`M.z#S`W`M.z`M.z`M.s.s.z`M#S.mad.p`dah.0`d`d`Tau`k#E.G.Z`M#B.bak..ahar#7",
"#nak#Aap`d.P#E`1.Kai#5`s#M.u#7au`Tas#q.0`5#P.d.Kai.d.K`1.Kai.Kai.Kai#L`1.Kai#Lai`Rai.z.Q#t`0ar`dasau.a`Z.#`1adadai#B.bak`U.0.6#k",
"auak#A`Has.P.##U`##F`##F`Fam`Z#7#n`T`5#O.0as.U#F`##F.S#F#F.S`##F#F#F.S#F#F.S.S`#`##Lal#t.0aras#1au#s`Zam.S.K.o`R#F#E.U`U#2.F`d#7",
"au`Uak.0as`k.W`F#U#U`s#U#B.L.W.H`4.I`Tas`dar#t.U#U#U`s#B`s.N`s#B#U`s`s#B#B#U#B#U#U.U#tap`das`T#w#s.H`B`F#F`##F`##Uam.U`U..ahar#7",
"au#A#A`0`d`k`B#M#E#E#E#E#E#Eam`B.O`4#sau`T`d.M`5.P#E#E.##E.L#E#E#E#E#E.##E#E#M`f.P`5ar`d`5`T.a#7#r.O.##B`s.N#B`s#E`B.P`U`Uah`d#7",
"`Tat#A`Has#R.W#E#B`F`f#B#B`F#E#E.W.H.e#sau`Tas.M`5.P`F#E`F`f#B`F#B#E`F#E#E#B#E.P`T.Mas`T`T.I`k#r`B`F`s#U#U`s`s#0#Bam.P..#2.0#1.e",
"#sak#Aapas.P.W#m.5#0`S.5.5.5#0`S#B#M`Zab#7#sau`T#O`T.P#0.5`S.5#0.5#0#0`S.5#0.P`T`2#1auau#7#k.H.W`S`1.A`1.G`1`1ai.5#M.U`U`Uah#q#7",
"`Tat#A`Has.P.W.l.5.5#0.S.A.A.5`S.5#m#E.H.e#7#sauau#tau`k`S`S#0`S`S`S`S.l`S.P.aasau#w#s`k.e.H`b`S`1`1`1.A#V`1`1.V.A.L.rak...0as`k",
"`Tat#A`0as`k.W#E#B#E`s#5`R.K#B`F#B#E.y#M.O`q#o#o.e.e#7.e#6#Q.O#Q.O.O.O.O#r.e#s`k.e#o#o#o`j.W#E#U#0#U.5.S.5#F.A`#`Sam`Q`U#2ah`d#7",
"`Tat`w.0`d`k#Q#M.L#M#E`s`##B#M.##E#M#E.W.O`V#s.6#tasas`das.6.6.6.6.6.6asas`dasasas`T#7`j#Q#E`F#E#E#B#B#B#B#B#B#U#E.W`x..`Uah#q#7",
"`5at.g.0as`k#Q.Wamam.Wam.W#M#M.W#Mam#Mam`j.H.F#Dat.7at.7#vat#vatat#vatat.7atat#vat`Uar#r.O#E.##M.##E#E#E#E#E#E#B#M`B#R`U`Uah.M#7",
".6at#A`H`dab#3.O.W`B.W.W.W`B.W`B.W`B.W.W#3`Zat.Yar`d`H.0.0.0ap.0.0.0.0.0.0.0.0aparah`U`Z#Q#M.Wam`b#M#M#M#M#M#M.##M`j.P`U`Uah#q#7",
"`Tat#Aapas`k#Q.W.W.W.W#M.W.W#M.W.W.W#M.W`j`kak#car.M#Aah#Aah#Aah#Aah#Aah#Aahah#A#q`0`U`k.O#M#M#Mam#M#M.##M.##M#E#M#Q#R`U..ah.M#7",
"`Tat`w.0`d`k#Q.W#M.Wam#M.Wam.Wam#M.Wam.W#3.u.0`wak.Y`O`O`O`O`O`O`O`O`O`O`O`O`O`O`U#Aah.H.O#M#Mam`b#M#M#M.L.##M#E`b#Q.P..`Uah#q.e",
"au`U#Aapas#n.P.P.P.P.U.P`x`Q.U.P`x.U.P.P#R.I`T`d.0ap.0.0.0.0.0.0.0.0.0.0.0.0.0.0.0`2.6`k#R.U.P`x.U.U.U.U.U.U#n.U`x.P#n#Aak`0`d#o",
"`T#cak#A#A..`U`Uat..`U`U..atak`U..#v`U`U#v`U`Uak`U`Uakak`Uakakak`U`Uakak`Uakakak`U`Uak..at..`U....#v`U......`U`U..#vak`U..akap#7",
"#7.k`H.F.0.k`w#Aah.k`w.T`0ar#A.Tah.k`w`w`0ar#A`wahap#A`wahap#A.Tahar#A.Tah`K`w.Tah.k`w.g`0ar#A.T`0ar#A`w`0`K`w`w`0.kah`w`0#O.0#s",
"``#.#i`q#K.v#i`q``.v#J`q#K.v#J`q#K.v#J`q#K.v#J`q#K.v#J`q#K.v#J`q#K.v#J`q#K.v#J`q#K.v#J`q``.v#J`q#K.v#J`q#K.v#J`q#K.v#J`q``.v.n.C",
"`t.J#Cac`L`N#Cac`L`N#Cac`L#g`vac`L`N`v`V`L#g`vac`L`N#Cac`L#g`vac`L#g`vac`L#g`vac`L`N#Cac`L#g`vac`L#g`vac`L`N`v`V`L#g`vac`L#g`v``",
"`a`v#K#.#a#b#K#.#a#b#K#.#a#b#K#.#a#b#K#.#a#b#K#.#a#b#K#.#a#b#K#.#a#b#K#.#a#b#K#.#a#b#K#.#a#b#K#.#a#b#K#.#a#b#K#.#a#b#K#.#a#b#K`e"
};
