/* XPM */
static char *so_xpm[] = {
/* width height num_colors chars_per_pixel */
"    64    64      256            2",
/* colors */
"`` c #303322",
"`. c #2e291c",
"`# c #2b2619",
"`a c #343825",
"`b c #393c29",
"`c c #2c2f1f",
"`d c #231f14",
"`e c #211d13",
"`f c #242719",
"`g c #2b2e1e",
"`h c #282a1b",
"`i c #1e2014",
"`j c #212316",
"`k c #272317",
"`l c #322c1f",
"`m c #212417",
"`n c #222417",
"`o c #1e1b11",
"`p c #201d13",
"`q c #262216",
"`r c #271b13",
"`s c #292c1c",
"`t c #242115",
"`u c #26281a",
"`v c #4b5034",
"`w c #616743",
"`x c #71784d",
"`y c #666d46",
"`z c #626944",
"`A c #3e422b",
"`B c #343824",
"`C c #393d27",
"`D c #42462e",
"`E c #757d51",
"`F c #828b59",
"`G c #505538",
"`H c #535839",
"`I c #676e47",
"`J c #7e8757",
"`K c #7a8254",
"`L c #5f6642",
"`M c #747c50",
"`N c #3f432d",
"`O c #868f5c",
"`P c #4b5035",
"`Q c #646b45",
"`R c #17150c",
"`S c #505134",
"`T c #585e3d",
"`U c #2e2017",
"`V c #646944",
"`W c #3b3f2a",
"`X c #7e8656",
"`Y c #2a1d15",
"`Z c #656c45",
"`0 c #3d4129",
"`1 c #737b4f",
"`2 c #7d8556",
"`3 c #72794e",
"`4 c #333723",
"`5 c #41462d",
"`6 c #6b7249",
"`7 c #545a3a",
"`8 c #4d5236",
".` c #242015",
".. c #5a603f",
".# c #57593a",
".a c #767e51",
".b c #70774d",
".c c #798052",
".d c #1c1e12",
".e c #332f1f",
".f c #747b4f",
".g c #545638",
".h c #454930",
".i c #747a4f",
".j c #798153",
".k c #393524",
".l c #6d744b",
".m c #383c26",
".n c #565c3b",
".o c #484d31",
".p c #6a7148",
".q c #7d8656",
".r c #6c734a",
".s c #000000",
".t c #000000",
".u c #000000",
".v c #000000",
".w c #000000",
".x c #000000",
".y c #000000",
".z c #000000",
".A c #000000",
".B c #000000",
".C c #000000",
".D c #000000",
".E c #000000",
".F c #000000",
".G c #000000",
".H c #000000",
".I c #000000",
".J c #000000",
".K c #000000",
".L c #000000",
".M c #000000",
".N c #000000",
".O c #000000",
".P c #000000",
".Q c #000000",
".R c #000000",
".S c #000000",
".T c #000000",
".U c #000000",
".V c #000000",
".W c #000000",
".X c #000000",
".Y c #000000",
".Z c #000000",
".0 c #000000",
".1 c #000000",
".2 c #000000",
".3 c #000000",
".4 c #000000",
".5 c #000000",
".6 c #000000",
".7 c #000000",
".8 c #000000",
"#` c #000000",
"#. c #000000",
"## c #000000",
"#a c #000000",
"#b c #000000",
"#c c #000000",
"#d c #000000",
"#e c #000000",
"#f c #000000",
"#g c #000000",
"#h c #000000",
"#i c #000000",
"#j c #000000",
"#k c #000000",
"#l c #000000",
"#m c #000000",
"#n c #000000",
"#o c #000000",
"#p c #000000",
"#q c #000000",
"#r c #000000",
"#s c #000000",
"#t c #000000",
"#u c #000000",
"#v c #000000",
"#w c #000000",
"#x c #000000",
"#y c #000000",
"#z c #000000",
"#A c #000000",
"#B c #000000",
"#C c #000000",
"#D c #000000",
"#E c #000000",
"#F c #000000",
"#G c #000000",
"#H c #000000",
"#I c #000000",
"#J c #000000",
"#K c #000000",
"#L c #000000",
"#M c #000000",
"#N c #000000",
"#O c #000000",
"#P c #000000",
"#Q c #000000",
"#R c #000000",
"#S c #000000",
"#T c #000000",
"#U c #000000",
"#V c #000000",
"#W c #000000",
"#X c #000000",
"#Y c #000000",
"#Z c #000000",
"#0 c #000000",
"#1 c #000000",
"#2 c #000000",
"#3 c #000000",
"#4 c #000000",
"#5 c #000000",
"#6 c #000000",
"#7 c #000000",
"#8 c #000000",
"a` c #000000",
"a. c #000000",
"a# c #000000",
"aa c #000000",
"ab c #000000",
"ac c #000000",
"ad c #000000",
"ae c #000000",
"af c #000000",
"ag c #000000",
"ah c #000000",
"ai c #000000",
"aj c #000000",
"ak c #000000",
"al c #000000",
"am c #000000",
"an c #000000",
"ao c #000000",
"ap c #000000",
"aq c #000000",
"ar c #000000",
"as c #000000",
"at c #000000",
"au c #000000",
"av c #000000",
"aw c #000000",
"ax c #000000",
"ay c #000000",
"az c #000000",
"aA c #000000",
"aB c #000000",
"aC c #000000",
"aD c #000000",
"aE c #000000",
"aF c #000000",
"aG c #000000",
"aH c #000000",
"aI c #000000",
"aJ c #000000",
"aK c #000000",
"aL c #000000",
"aM c #000000",
"aN c #000000",
"aO c #000000",
"aP c #000000",
"aQ c #000000",
"aR c #000000",
"aS c #000000",
"aT c #000000",
"aU c #000000",
"aV c #000000",
"aW c #000000",
"aX c #000000",
"aY c #000000",
"aZ c #000000",
"a0 c #000000",
"a1 c #000000",
"a2 c #000000",
"a3 c #000000",
"a4 c #000000",
"a5 c #000000",
"a6 c #000000",
"a7 c #000000",
"a8 c #000000",
/* pixels */
"```.`#`a`a```b`a`a`c```a`a`a`a`b```c`c`c`a```a`b`b`a`a`a`a```````a`````````````b`a`b`b`a`````c```a```#`#`#```````.`d`e`````.`a``",
"`````````f`a`b`b```a```c```a`a`c`a`#```a`a`a`a`g`a```b`a`a`a```c```c```````c```a`h`g`a`b`b`````a`a`a```````````a`````f```#`.`h`g",
"`a```#`#`f`g`g`a`b`````b`a`a`b`a`#`.`.`a`b`b`h`h`f`a`a`a`b`a`b```c`c`c`````a`a`h`h`h`a```a`````a`a```````f`f```````````````i`i`j",
"```a`.`.```h`b`b`````````a`a`a```.```a`````b`a`a`a```a`a`b`a`a`#`k`````a```a`a```````a`````a```a```a`a`e`f`f`````a`````a`a`a`b`g",
"`f`a```a`a`a`b`a`a`b```````a`c`````a`b`b`a`a`.`a`b```f`.`l`b`.`k`k`````a`a`a`a`a`````a`a```c```a`a```a`#`.`.`.`.`.`````a`a```a`b",
"```````a`a`a`a`b`b`a`a`c`c```c`````a`a`a`a`.`l`.`h`f`m`#`.`b`b`d`m`c`a`a`a`a`b`a`````c```````c`a`b`a`a`a`l`a`d`.`f`````````c`a`a",
"`b`a`b`b`b`a`a`a```c```c`n`n`n`h`h`f`a`a`b`b`b`b`````````a`a`g`f`f```a`a`a`a`b`a```a```````````a`a`a`b`b```.`d`h`h`h```c`c`````a",
"`a`a`a`b`b`a`a`a```c`c`c`f`f`f```f```.`b`a`a`````f`f`f```a`b`b`d`o`p`k`a`a```b`b`b`b```````````c```a`b`a`a`.`.`d`h`h`f```````c`a",
"`a`a```a`a`a`a```````````c```c`````#`q`q`a`a```f`n`h```a`````a`#`r`r`#```````b`b`b`b`````a```b`a```a`b```f`h`a`a`a`b`````a`f`f`b",
"```a`````a```b`a`c`s`s`c```````a`````e`g`b`f`h`h`a`h```a`a`a`a`a`l`k`````a`a`b`b`b`b`````a```a`a`a`a`a`h`f`f```a`a`a`a`a```c`o`a",
"```````a`a`a`a`````c`t`k`s`c`c`a```````a`a```b`b`g`f`h`a`a`b`a`a`b`a`.`l`l`b`b`b`b`b```c`a`a`a`a`a`b`b`b`a`````a`b`a```a`a```.`.",
"```a`a`a`c`````````s`o`e`n`c```````c`a`b```c`a`a`a`h`h`a`a`a```a`b`b```b`a`b`b`a`b`b```a```.`a`a```b`b`b`a`a`````````c```f`c`b`l",
"`a`c`````c`c`a`.`#```c`c`c`s`c```a`a`````a`````a`a`a`a`a```a`a`a`a`a`a`a`b`b`a`a`a`b`a`a`#`#```f`a`a`a`a```a`a`a```a```h`f`c```a",
"`a`````k`k`k`#`.```c`c`c`c`n`c`````a```a`a`a`f`a```#```a`.`.`a`a```a```a`a`b`a`a`a`b```a`#```f`h```a`a`````a`a`a`a```````h`s`h`a",
"`#`.`c`c`k`c`c```c`````a`f`h`a`#`#```a`````f`h`f`#`#`#`#`.`.`a```c`a```````b`b`a`b```````````h`h`b`b`a`````````n`a```````````f`f",
"`#`c`k`k`k`````c`````````.`a```#`#`.`c`````````f`c`k```a`#`c```s`s`s```c`b`b`b`a`````s```````a`a`h`a`b`b`f`h`h`n`h```a`a`b`a`b`a",
"`c`````#```a```a`a`c`c`f`.`#`l`a`a`a```````````a`c`s`c```a`a```u`s`````c```b`b`a```c`s`b`a```a`f`h`h`````f`h`b```n`c```b`b`b`b`b",
"```a```````a`a```a`f`n`f`c`a`a`````a`````````a```c`````a`a`c`c`f`m`h```````b`b`a`a`````c`c`c```````h`d`h`h`h`g`a`a```a`b`b`b```a",
"`a`b`b`a```a```f`f`f```f`b```b`a`````````a`a`a```c`c`c`a`h`h```````a`a`a```b`b`b```a```c`c```a`c`c`a`q`.`a`a`b`b```a`a`b`b`b`c`a",
"`b`b`a`a`````b`a`````n`h`h`a`a`l`b`b`b`a`a`a`c`c```s`a`a`f`g`a`v`w`x`y`z`A`b`b`B`C```````c`c`a```a`a`a`a```a`b`b`a`a`b`g`g`b```a",
"`a`a`a`b`a```a```````a`f`g`a`b`d`d`l`b```a`a`````a`c```a`a`D`E`F`z`G`H`I`J`K`L`M`w`a`a`a`````a`a```b```a```b`b`b`````b`g`g`b`a`b",
"`b`a`a`a`a```````a`````a`a`a```d`e`f`b`````a`a`a`a`````b`N`F`O`P`a`b`b`c`N`K`O`O`z`a`a```a`a`a```````d`.`a`a`b`b`b`a`b`b`a`a```b",
"`b`c```a`a```````a`b`h`a`a`a```a`a```b`b```c```a```a`b`a`x`O`Q`b`a`b`b`a`a`P`F`O`z`a`.`````b`````h`f`R`.`a`a`b`b`h`b`a`a```b`.`a",
"`a`````````a`a`a`.`a`g`h`h`a```a`#`l`a`b`a```c`````c`c`S`O`O`G```b`a`.`a`b`b`T`O`z`b`.`#```a`````h`h`d`l`b`b`g`b`g`g`b`b`a`b`l`.",
"`.```c`a```c```c`#`#`a`h`a`a`a`a`U`l`.`b```a`c```a```c`V`O`O`W`a`q`.`.`b`a`b`a`X`z`b`#`b`a`c`````a`````a`f`h`g`i`g`h`b`a`b`a```b",
"`.`c```a`a```a`c`#`b`b`b```a`b`.`.`Y```b`g`b`a`a`b`a`a`E`O`O`H`h`g`h`a`b`a```a`Z`M`a`.`.```c`b`a```f`f`a`a`h`f```b```a`b`a```f`h",
"`a`a`b`b`b`a```````a`b`l`l`a`h`e`b`b`b`h`g`b`b`a`b`a`h`O`O`O`K`h`g`g`a`a`f`h`f`0`1`g`.`.`f```b`b`b`m`f`a`a`a```a`.`.`#`b```a`f`f",
"`a`a`b`a`a`b`````a`````#`#`a`f`g`h`b`a`q`.`a`b`````f`f`2`O`O`O`3`4`b`g`f`h`h`h`f`5`b`a`a`f`h`h`h`h`c`a`a`a`a`a`b`#`.`a`````a````",
"`a`a`b`a`b`a`a```````a```a```b`a`a`a`l`Y`.`a`````a```h`6`O`O`O`O`J`7`h`f`a`a`````a`b`a`a`a`g`m`m`a`a`a`a`a```````b`````````````a",
"`b`b`a`````a`````````````b`````a`a`b`a`Y`.`a`a```a```a`8`O`O`O`O`O`O`2`T`a`a`f`h`a`a`a`a`g`g`o.``a`c`````````a`a`b```a```````a`.",
"`a```````a`````````````a`a`b```a`b`b`a`.`l`a`b`a`a```a`b`Q`O`O`O`O`O`O`O`X..`h`h`b`a`a`b`a`a`#`k`````c```````a`a`a`a`````a```a`.",
"`````a`````a`````f`f```a```````a`a`b`b`a`a`g`d`l`a`a`a`b`l.#`O`O`O`O`O`O`O`O.a`W`b`a`a`b`a`a`a```````c`````a`a```a`a`a`a`a```a`a",
"```a`a`a`````a`f`f`f`a`a`a`````a`b`b`b`a`a`d`p`l`a`a`a`b`a`l`A.b`O`O`O`O`O`O`O`F`P`b`a`b`````a`````````````````````b`a`h`f`h`b`b",
"`.```a`#`#```a`a`a```a`a`a```a`a`b`h`h```a`.`#`l`a`a`a`b`a`b`b`a`8`E`O`O`O`O`O`O`K`b`a`a`a`a`````c`a`a`````````````a`````````a`a",
"`#```a`.`.`a`h`h`f`#`````a```h`b`a`g`h`a`a`a`#`a`b`b`l`l`l`a`b`a`a`b`G`J`O`O`O`O`O..`a`a`c`c`c`m`m`f`c`````````````a`a`````a`a``",
"```a`````a`a`.`h```#`#`a`b`h`f`g`a```.`#`.`a`````a`b`b`l`.`a```a`a`b`b`N`K`O`O`O`O.c`a`a`a`````c`````````````````.```a`f`f```b`b",
"`a`a`a`````a`.`.```#`a`a`b`a```f`f```a`b`a```a```a`b`b```a```````a`b`b`b`N`X`O`O`O`O```b`b```c`c`c`c`````````a`.`.`d`i.d`f`a```b",
"`````b`a`a`a`.`#```````a`b`a```f`h`a```a`a`a`a`a`b`a`E.e`a`b`a```````a`b`b..`O`O`O`O`````b`b```s`c```a```#`#```#```a`a`a```a`a`a",
"```````a`a`a`a```````a`a```f`b`````a```````a`a`a`a`a.f.g`#`b`b```a`b```a`U.h`O`O`O`O`c`a`b`b`b```c`````#`#`a`a```a```a`b`a`````a",
"```````a`a`a`a`````a`a`h`h`f`a`````a`a`b`a`b`a`b`b`a`E.i`a```a`b`b`a`a`U`U`.`O`O`O.j`````a`b`a`a`````f`````````a`a`a`a`b````````",
"```````a`a```````a`b`a```````a```b`b`b`b`b`b`a```a`b`E`O`8`a`a`b`b`a`a`l`U.k`O`O`O`Q`a`a`a`a`a`#`k`h`f`````````a```a```a````````",
"`a`b```a`````a`````b`a`````a`b`a`a`a`g```b`b`b`a`b`a.a`O`K`a`b`b`b`a`a`b`b..`O`O`F`W`a`b`b`a`#`#```h`g`a```a`b`a````````````````",
"`a```a`a`````a```b`a`f`f`g`a`b```h`f`f`a`b`a`a`a`a`b`M`O`O.l`b`b`a`a`b`b`N`X`O`O`T`a`a`a```b`a`````a`a`a`b```b`````a`a`a````````",
"`````a```a```h`h`h`l`h`f`b`a```````a`.`.`a`a`a`a`b`b`E`F`K`O`3.m`a`b`a`P`K`O`F..`a`````a`a`a```a```a`a`.`.`h`h`f```````b`````a`a",
"```c```````b`.`d`.`.`a```a`b`````b`l`l`l`l`a`b`b`a`a.n`W``.o.p.q.j`E`K`O`J.r`A`b`b`b`a`a`b`b`a`b`````a`.`.`.`b`a```a```c`c`c`a`a",
"```a`````.`.`.`.`Y`Y`a`a`h`h`f`b`a`a`a`b`b`a`a`a`a`a`a`a`a`a`g`h`a`8`8`N`b```a`l`l`l`f`h`f`````a`````a`a`.`l`b`b`a`````a`a`a````",
"`c```c```a`a`a`#`#`.`a`h`h`g`h`a`b`b`b`b`a`a`a`a`a```a`````b```b`b`a`a`g`g`````b`b`b`b`b`a```c`c```b`a`f`h```````````c`c```a```#",
"`````c`````a`a`a`#`.`a`g`h`h`h`f`a`b`b`b`b`a`a`a`a`a`b`a```a`a`a`a`b`b`g`g`h`b`b`b`b`g`g`b`b```b`a`b`g`n```a```b```a`c`c```a`a`.",
"`c`s```````b`a`````````````d`#`````b`b`a`b```a`a`a`a`a`a`a`a`a`a`a`b`a`a`b`b`a`b`b`g`g`b`a`b```a`c`a`l`a```f`f`g`a```c`c`c``````",
"`c`c`a`a`````a`a`a`````a`a`#`.`a`b`a`a`a`a`a```b`a`````a```a`a`a`b`l`b`b`b`b`a`a```l`.`a`b`a`b`a`#`#`.`a`a`````b`b```````c`c```c",
"`c`s`a```````a`````a`a`a`a`b`b`b`a`a`a`a`a```````a```a`a`a`b`a`a`b`l`l```````a`a`.`.`#`.`c`a`a```a`a`b`b`a`a`a`b`a`c`c`c`c`c`c`c",
"```c`a`a`b`b`.`l`a```a```b`b`.`.`a`a```````a`a```````a`a`b`a`b`g`a`a`a`````a`a`b`b`a`a`#```````````a`a`a`a`a`s```a`f`h`n````````",
"`a```.`a`a`a`.`.`````a`a`a`l`l`a`b`a`.`l```````````a`a`b`b`b`l`d`a`a`````f`a```a`a`b`b`a`a`h`f```a`````a`c`c`s```a```f```````c``",
"`a```l`.`a`a`.`.`#```c`a```b```b`b`a`b`.`h`a```a`a`b`a`a`a`.`.`.`a```a`a`h`.`.`#`#`a`b`a`a`a`h`a`a`````````````c`a`a`c```c``````",
"`a```l`b`a`a```b`.`a```a`a`a`a`b`a`a`c`f`h`b`a`a`a`a`a`a`b`a`a`a`a```a`.`.`.`.`.`c`a```c`c```a```a`a`a`a`````````````c`c`c`c`c`a",
"`a```a`a`a`a`b`b```b`b`a`b`b`a`b`a`a`a`h`g`a`b`b`a`a```a`a`a`a`.`.`a`a`a`a`a`b`a`a`````c`c`a`a`a```b`a`a`b`a`a``````````````````",
"```c```a`a`a`a`c`a`b`b`a`b`b`b```c`a`a`b`a```````````a`b`a`h`f`#`#`#`c```a`a`b`b`a`a```a`a`a`a`a`a`a`a```b```b`a`````````b```a`a",
"```````#`#`#```a`b`b`````a```````a```b`a`a`b`a`````````a```h`d`#`#```c`````b`a`b`b`b`b`b`b```a`a`a`a```g`g`h`b`````````b`a`a`.`l",
"```a`a`#`#`#```b`a```c`a```f`h`h`b`a```a`b`a`b`a`c```a`a`a`a`a`a`````````a`b`b`a`b`b`b`a```c`a```a`a```a`a`g`a```c`a`````a```#`.",
"`a```a`a`a`a```````````a```a`g`b`b`b`b`b`b`a`a```b```a`````a`a```a```c```b`b`b`b```a`a`````c`````b`b`````a`a`a```````````````c`a",
"`a`a`b`a`b`b`b`a`a```````a`b`a`a`a`b`a`b`b`b`a```c`.`#`#`m`a`a```c```````a```#`.```b`a`````````a`a`a`a`c`````a```#```#`````a```c",
"`h`a`b`a`b`a`b`a`a```````a`b`a`a`a`a`a`a`b`a```a`a`l`p`h`f```a`a`````c`````.`#```a`b`b`b`a```b`a`b`a`c```c`a`a`#`#`Y`#`````b`c`c",
"`h`a`b`b`b`b`b`b```a```````a`a`b```a`````b`a```````````p`#`a`h`b`a`b```a```.`#`#`b`b`a`a`c`````a`a```````c`````a`.`c```a`b`b```a",
"`a`a`b`b`b`b`g`g`a```a```b`a`a`a`a`b`a`a`a`a`a```````````f`h`g`b`a`a`a`a`a`b`a```````````c`c```a`a`c`c`a`c`a```a`a`a```b`b`a`a``"
};
