/* XPM */
static char *we_xpm[] = {
/* width height num_colors chars_per_pixel */
"    64    64      256            2",
/* colors */
"`` c #303322",
"`. c #2e291c",
"`# c #2b2619",
"`a c #343825",
"`b c #393c29",
"`c c #2c2f1f",
"`d c #231f14",
"`e c #211d13",
"`f c #242719",
"`g c #2b2e1e",
"`h c #282a1b",
"`i c #1e2014",
"`j c #212316",
"`k c #272317",
"`l c #322c1f",
"`m c #212417",
"`n c #222417",
"`o c #1e1b11",
"`p c #201d13",
"`q c #262216",
"`r c #271b13",
"`s c #292c1c",
"`t c #242115",
"`u c #26281a",
"`v c #747c4f",
"`w c #7e8656",
"`x c #868f5c",
"`y c #747c50",
"`z c #565c3b",
"`A c #585e3d",
"`B c #757d51",
"`C c #828b59",
"`D c #7a8254",
"`E c #767e51",
"`F c #454930",
"`G c #70774d",
"`H c #454931",
"`I c #5a603f",
"`J c #484c32",
"`K c #6b7249",
"`L c #626944",
"`M c #616743",
"`N c #4b5035",
"`O c #737b4f",
"`P c #17150c",
"`Q c #3b3f2a",
"`R c #828a59",
"`S c #6c734a",
"`T c #383c26",
"`U c #666843",
"`V c #798153",
"`W c #3d3b27",
"`X c #535839",
"`Y c #343824",
"`Z c #6f764c",
"`0 c #686f47",
"`1 c #646b45",
"`2 c #6d744b",
"`3 c #545a3a",
"`4 c #788052",
"`5 c #525838",
"`6 c #666d46",
"`7 c #3f432d",
"`8 c #4d5236",
".` c #42462e",
".. c #676e47",
".# c #6a7148",
".a c #656b45",
".b c #242015",
".c c #5b5e3d",
".d c #7e8757",
".e c #798053",
".f c #43422b",
".g c #5f6642",
".h c #71784d",
".i c #72794e",
".j c #515638",
".k c #5d6440",
".l c #697048",
".m c #363222",
".n c #403d29",
".o c #7d8556",
".p c #565a39",
".q c #5c623f",
".r c #70764c",
".s c #1c1e12",
".t c #4b5034",
".u c #747b4f",
".v c #6f744b",
".w c #646944",
".x c #2e2017",
".y c #555437",
".z c #362b1e",
".A c #505538",
".B c #2a1d15",
".C c #000000",
".D c #000000",
".E c #000000",
".F c #000000",
".G c #000000",
".H c #000000",
".I c #000000",
".J c #000000",
".K c #000000",
".L c #000000",
".M c #000000",
".N c #000000",
".O c #000000",
".P c #000000",
".Q c #000000",
".R c #000000",
".S c #000000",
".T c #000000",
".U c #000000",
".V c #000000",
".W c #000000",
".X c #000000",
".Y c #000000",
".Z c #000000",
".0 c #000000",
".1 c #000000",
".2 c #000000",
".3 c #000000",
".4 c #000000",
".5 c #000000",
".6 c #000000",
".7 c #000000",
".8 c #000000",
"#` c #000000",
"#. c #000000",
"## c #000000",
"#a c #000000",
"#b c #000000",
"#c c #000000",
"#d c #000000",
"#e c #000000",
"#f c #000000",
"#g c #000000",
"#h c #000000",
"#i c #000000",
"#j c #000000",
"#k c #000000",
"#l c #000000",
"#m c #000000",
"#n c #000000",
"#o c #000000",
"#p c #000000",
"#q c #000000",
"#r c #000000",
"#s c #000000",
"#t c #000000",
"#u c #000000",
"#v c #000000",
"#w c #000000",
"#x c #000000",
"#y c #000000",
"#z c #000000",
"#A c #000000",
"#B c #000000",
"#C c #000000",
"#D c #000000",
"#E c #000000",
"#F c #000000",
"#G c #000000",
"#H c #000000",
"#I c #000000",
"#J c #000000",
"#K c #000000",
"#L c #000000",
"#M c #000000",
"#N c #000000",
"#O c #000000",
"#P c #000000",
"#Q c #000000",
"#R c #000000",
"#S c #000000",
"#T c #000000",
"#U c #000000",
"#V c #000000",
"#W c #000000",
"#X c #000000",
"#Y c #000000",
"#Z c #000000",
"#0 c #000000",
"#1 c #000000",
"#2 c #000000",
"#3 c #000000",
"#4 c #000000",
"#5 c #000000",
"#6 c #000000",
"#7 c #000000",
"#8 c #000000",
"a` c #000000",
"a. c #000000",
"a# c #000000",
"aa c #000000",
"ab c #000000",
"ac c #000000",
"ad c #000000",
"ae c #000000",
"af c #000000",
"ag c #000000",
"ah c #000000",
"ai c #000000",
"aj c #000000",
"ak c #000000",
"al c #000000",
"am c #000000",
"an c #000000",
"ao c #000000",
"ap c #000000",
"aq c #000000",
"ar c #000000",
"as c #000000",
"at c #000000",
"au c #000000",
"av c #000000",
"aw c #000000",
"ax c #000000",
"ay c #000000",
"az c #000000",
"aA c #000000",
"aB c #000000",
"aC c #000000",
"aD c #000000",
"aE c #000000",
"aF c #000000",
"aG c #000000",
"aH c #000000",
"aI c #000000",
"aJ c #000000",
"aK c #000000",
"aL c #000000",
"aM c #000000",
"aN c #000000",
"aO c #000000",
"aP c #000000",
"aQ c #000000",
"aR c #000000",
"aS c #000000",
"aT c #000000",
"aU c #000000",
"aV c #000000",
"aW c #000000",
"aX c #000000",
"aY c #000000",
"aZ c #000000",
"a0 c #000000",
"a1 c #000000",
"a2 c #000000",
"a3 c #000000",
"a4 c #000000",
"a5 c #000000",
"a6 c #000000",
"a7 c #000000",
"a8 c #000000",
/* pixels */
"```.`#`a`a```b`a`a`c```a`a`a`a`b```c`c`c`a```a`b`b`a`a`a`a```````a`````````````b`a`b`b`a`````c```a```#`#`#```````.`d`e`````.`a``",
"`````````f`a`b`b```a```c```a`a`c`a`#```a`a`a`a`g`a```b`a`a`a```c```c```````c```a`h`g`a`b`b`````a`a`a```````````a`````f```#`.`h`g",
"`a```#`#`f`g`g`a`b`````b`a`a`b`a`#`.`.`a`b`b`h`h`f`a`a`a`b`a`b```c`c`c`````a`a`h`h`h`a```a`````a`a```````f`f```````````````i`i`j",
"```a`.`.```h`b`b`````````a`a`a```.```a`````b`a`a`a```a`a`b`a`a`#`k`````a```a`a```````a`````a```a```a`a`e`f`f`````a`````a`a`a`b`g",
"`f`a```a`a`a`b`a`a`b```````a`c`````a`b`b`a`a`.`a`b```f`.`l`b`.`k`k`````a`a`a`a`a`````a`a```c```a`a```a`#`.`.`.`.`.`````a`a```a`b",
"```````a`a`a`a`b`b`a`a`c`c```c`````a`a`a`a`.`l`.`h`f`m`#`.`b`b`d`m`c`a`a`a`a`b`a`````c```````c`a`b`a`a`a`l`a`d`.`f`````````c`a`a",
"`b`a`b`b`b`a`a`a```c```c`n`n`n`h`h`f`a`a`b`b`b`b`````````a`a`g`f`f```a`a`a`a`b`a```a```````````a`a`a`b`b```.`d`h`h`h```c`c`````a",
"`a`a`a`b`b`a`a`a```c`c`c`f`f`f```f```.`b`a`a`````f`f`f```a`b`b`d`o`p`k`a`a```b`b`b`b```````````c```a`b`a`a`.`.`d`h`h`f```````c`a",
"`a`a```a`a`a`a```````````c```c`````#`q`q`a`a```f`n`h```a`````a`#`r`r`#```````b`b`b`b`````a```b`a```a`b```f`h`a`a`a`b`````a`f`f`b",
"```a`````a```b`a`c`s`s`c```````a`````e`g`b`f`h`h`a`h```a`a`a`a`a`l`k`````a`a`b`b`b`b`````a```a`a`a`a`a`h`f`f```a`a`a`a`a```c`o`a",
"```````a`a`a`a`````c`t`k`s`c`c`a```````a`a```b`b`g`f`h`a`a`b`a`a`b`a`.`l`l`b`b`b`b`b```c`a`a`a`a`a`b`b`b`a`````a`b`a```a`a```.`.",
"```a`a`a`c`````````s`o`e`n`c```````c`a`b```c`a`a`a`h`h`a`a`a```a`b`b```b`a`b`b`a`b`b```a```.`a`a```b`b`b`a`a`````````c```f`c`b`l",
"`a`c`````c`c`a`.`#```c`c`c`s`c```a`a`````a`````a`a`a`a`a```a`a`a`a`a`a`a`b`b`a`a`a`b`a`a`#`#```f`a`a`a`a```a`a`a```a```h`f`c```a",
"`a`````k`k`k`#`.```c`c`c`c`n`c`````a```a`a`a`f`a```#```a`.`.`a`a```a```a`a`b`a`a`a`b```a`#```f`h```a`a`````a`a`a`a```````h`s`h`a",
"`#`.`c`c`k`c`c```c`````a`f`h`a`#`#```a`````f`h`f`#`#`#`#`.`.`a```c`a```````b`b`a`b```````````h`h`b`b`a`````````n`a```````````f`f",
"`#`c`k`k`k`````c`````````.`a```#`#`.`c`````````f`c`k```a`#`c```s`s`s```c`b`b`b`a`````s```````a`a`h`a`b`b`f`h`h`n`h```a`a`b`a`b`a",
"`c`````#```a```a`a`c`c`f`.`#`l`a`a`a```````````a`c`s`c```a`a```u`s`````c```b`b`a```c`s`b`a```a`f`h`h`````f`h`b```n`c```b`b`b`b`b",
"```a```````a`a```a`f`n`f`c`a`a`````a`````````a```c`````a`a`c`c`f`m`h```````b`b`a`a`````c`c`c```````h`d`h`h`h`g`a`a```a`b`b`b```a",
"`a`b`b`a```a```f`f`f```f`b```b`a`````````a`a`a```c`c`c`a`h`h```````a`a`a```b`b`b```a```c`c```a`c`c`a`q`.`a`a`b`b```a`a`b`b`b`c`a",
"`b`b`a`a`````b`a`````n`h`h`a`a`l`b`b`b`a`a`a`c`c```s`a`a`f`g`a`````a```a```b`b`c`s```````c`c`a```a`a`a`a```a`b`b`a`a`b`g`g`b```a",
"`a`a`a`b`a```a```````a`f`v`w`x`x`x`x`x`x`x`w`y`z`a`c```A`B`C`x`x`x`x`x`x`x`D`E`F```a`a`A`w`x`x`x`x`x`x`B```b`b`b`````b`g`g`b`a`b",
"`b`a`a`a`a```````a`````a`a`a`z`x`x`x`x`x`G`a`a`a`a`````b`b`H`D`x`x`x`x`x`I`a`b`b`a`a`a```a`J`x`x`x`K`d`.`a`a`b`b`b`a`b`b`a`a```b",
"`b`c```a`a```````a`b`h`a`a`a```L`x`x`x`x`M`c```a```a`b`a`a`b`N`x`x`x`x`C`a`b`b`b`a`a`.`````b`G`x`O`f`P`.`a`a`b`b`h`b`a`a```b`.`a",
"`a`````````a`a`a`.`a`g`h`h`a```Q`R`x`x`x`S```c`````c`c`.`#`.`b`w`x`x`x`B`b`b`a`b`a`b`.`#```a`K`x`T`h`d`l`b`b`g`b`g`g`b`b`a`b`l`.",
"`.```c`a```c```c`#`#`a`h`a`a`a`a`U`x`x`x`w`a`c```a```c`#`.`a`a`B`x`x`x`x`Q`b`a`a`a`b`#`b`a`c`V`K`a`````a`f`h`g`i`g`h`b`a`b`a```b",
"`.`c```a`a```a`c`#`b`b`b```a`b`.`W`x`x`x`x`I`a`a`b`a`a`a```a`a`R`x`x`x`x`X```a`c`c`a`.`.```Y`x`J```f`f`a`a`h`f```b```a`b`a```f`h",
"`a`a`b`b`b`a```````a`b`l`l`a`h`e`b`E`x`x`x`E`b`a`b`a`h`a`b```N`R`Z`x`x`x`0`h`f`f`f`g`.`.`f`z`D`b`b`m`f`a`a`a```a`.`.`#`b```a`f`f",
"`a`a`b`a`a`b`````a`````#`#`a`f`g`h`I`x`x`x`x`H`````f`f`f```a`1`2`3`x`x`x`R`h`h`f`g`b`a`a`f`4`5`h`h`c`a`a`a`a`a`b`#`.`a`````a````",
"`a`a`b`a`b`a`a```````a```a```b`a`a`a`w`x`x`x`6```a```h```a`a`V`X`7`x`x`x`x`8`````a`b`a`a`8`C`m`m`a`a`a`a`a```````b`````````````a",
"`b`b`a`````a`````````````b`````a`a`b`L`x`x`x`C```a```a`a`b.``C`b`g`Z`x`x`x..`f`h`a`a`a`a.#.a`o.b`a`c`````````a`a`b```a```````a`.",
"`a```````a`````````````a`a`b```a`b`b.``x`x`x`x`A`a```a`b`b.c..`a`b`A`x`x`x.d`h`h`b`a`a`7`x.``#`k`````c```````a`a`a`a`````a```a`.",
"`````a`````a`````f`f```a```````a`a`b`b`S`x`x`x.e`a`a`a`b`l.e.f```b`Q`x`x`x`x`N`a`b`a`a.g.h`a`a```````c`````a`a```a`a`a`a`a```a`a",
"```a`a`a`````a`f`f`f`a`a`a`````a`b`b`b`8`x`x`x`x`J`a`a`b.``w`````a`a.i`x`x`x`1`a`b`b`a.d.j```a`````````````````````b`a`h`f`h`b`b",
"`.```a`#`#```a`a`a```a`a`a```a`a`b`h`h```w`x`x`x`S`a`a`b.k.l`b`a`a`a`I`x`x`x`D`b`b`b`8`w`a`a`````c`a`a`````````````a`````````a`a",
"`#```a`.`.`a`h`h`f`#`````a```h`b`a`g`h`a`A`x`x`x`C`7`l`l.e`J`b`a`a`b`7`x`x`x`x`T`a`b`S`L`c`c`c`m`m`f`c`````````````a`a`````a`a``",
"```a`````a`a`.`h```#`#`a`b`h`f`g`a```.`#.m`C`x`x`x`I`b.n.o`a```a`a`b`b.i`x`x`x.p`l`W`x`Q`a`````c`````````````````.```a`f`f```b`b",
"`a`a`a`````a`.`.```#`a`a`b`a```f`f```a`b`a`K`x`x`x.d`b.q..```````a`b`b`I`x`x`x.r`l`M`K`b`b```c`c`c`c`````````a`.`.`d`i.s`f`a```b",
"`````b`a`a`a`.`#```````a`b`a```f`h`a```a`a.``x`x`x`x`8`4`J`b`a```````a`7`x`x`x`x`7`w.t```b`b```s`c```a```#`#```#```a`a`a```a`a`a",
"```````a`a`a`a```````a`a```f`b`````a```````a`B`x`x`x.u.o`#`b`b```a`b```a.v`x`x`x.h`w`c`a`b`b`b```c`````#`#`a`a```a```a`b`a`````a",
"```````a`a`a`a`````a`a`h`h`f`a`````a`a`b`a`b`A`x`x`x`x.w`a```a`b`b`a`a.x.y`x`x`x`x`z`````a`b`a`a`````f`````````a`a`a`a`b````````",
"```````a`a```````a`b`a```````a```b`b`b`b`b`b`a`w`x`x`x`F`a`a`a`b`b`a`a`l.z`x`x`x`C`7`a`a`a`a`a`#`k`h`f`````````a```a```a````````",
"`a`b```a`````a`````b`a`````a`b`a`a`a`g```b`b`b`L`x`x.d`b`b`a`b`b`b`a`a`b`b.i`x`x`S`a`a`b`b`a`#`#```h`g`a```a`b`a````````````````",
"`a```a`a`````a```b`a`f`f`g`a`b```h`f`f`a`b`a`a.``x`x`6`a`b`b`b`b`a`a`b`b`b`A`x`x`J`a`a`a```b`a`````a`a`a`b```b`````a`a`a````````",
"`````a```a```h`h`h`l`h`f`b`a```````a`.`.`a`a`a`a.i`x`J`a`b`b`b`h`a`b`a`b`b`Q`x`E`a`````a`a`a```a```a`a`.`.`h`h`f```````b`````a`a",
"```c```````b`.`d`.`.`a```a`b`````b`l`l`l`l`a`b`b`J`L```a```g`g`g```a`b`b`b`a`z.A`b`b`a`a`b`b`a`b`````a`.`.`.`b`a```a```c`c`c`a`a",
"```a`````.`.`.`..B.B`a`a`h`h`f`b`a`a`a`b`b`a`a`a`a`a`a`a`a`a`g`h`a`a`a`b`b```a`l`l`l`f`h`f`````a`````a`a`.`l`b`b`a`````a`a`a````",
"`c```c```a`a`a`#`#`.`a`h`h`g`h`a`b`b`b`b`a`a`a`a`a```a`````b```b`b`a`a`g`g`````b`b`b`b`b`a```c`c```b`a`f`h```````````c`c```a```#",
"`````c`````a`a`a`#`.`a`g`h`h`h`f`a`b`b`b`b`a`a`a`a`a`b`a```a`a`a`a`b`b`g`g`h`b`b`b`b`g`g`b`b```b`a`b`g`n```a```b```a`c`c```a`a`.",
"`c`s```````b`a`````````````d`#`````b`b`a`b```a`a`a`a`a`a`a`a`a`a`a`b`a`a`b`b`a`b`b`g`g`b`a`b```a`c`a`l`a```f`f`g`a```c`c`c``````",
"`c`c`a`a`````a`a`a`````a`a`#`.`a`b`a`a`a`a`a```b`a`````a```a`a`a`b`l`b`b`b`b`a`a```l`.`a`b`a`b`a`#`#`.`a`a`````b`b```````c`c```c",
"`c`s`a```````a`````a`a`a`a`b`b`b`a`a`a`a`a```````a```a`a`a`b`a`a`b`l`l```````a`a`.`.`#`.`c`a`a```a`a`b`b`a`a`a`b`a`c`c`c`c`c`c`c",
"```c`a`a`b`b`.`l`a```a```b`b`.`.`a`a```````a`a```````a`a`b`a`b`g`a`a`a`````a`a`b`b`a`a`#```````````a`a`a`a`a`s```a`f`h`n````````",
"`a```.`a`a`a`.`.`````a`a`a`l`l`a`b`a`.`l```````````a`a`b`b`b`l`d`a`a`````f`a```a`a`b`b`a`a`h`f```a`````a`c`c`s```a```f```````c``",
"`a```l`.`a`a`.`.`#```c`a```b```b`b`a`b`.`h`a```a`a`b`a`a`a`.`.`.`a```a`a`h`.`.`#`#`a`b`a`a`a`h`a`a`````````````c`a`a`c```c``````",
"`a```l`b`a`a```b`.`a```a`a`a`a`b`a`a`c`f`h`b`a`a`a`a`a`a`b`a`a`a`a```a`.`.`.`.`.`c`a```c`c```a```a`a`a`a`````````````c`c`c`c`c`a",
"`a```a`a`a`a`b`b```b`b`a`b`b`a`b`a`a`a`h`g`a`b`b`a`a```a`a`a`a`.`.`a`a`a`a`a`b`a`a`````c`c`a`a`a```b`a`a`b`a`a``````````````````",
"```c```a`a`a`a`c`a`b`b`a`b`b`b```c`a`a`b`a```````````a`b`a`h`f`#`#`#`c```a`a`b`b`a`a```a`a`a`a`a`a`a`a```b```b`a`````````b```a`a",
"```````#`#`#```a`b`b`````a```````a```b`a`a`b`a`````````a```h`d`#`#```c`````b`a`b`b`b`b`b`b```a`a`a`a```g`g`h`b`````````b`a`a`.`l",
"```a`a`#`#`#```b`a```c`a```f`h`h`b`a```a`b`a`b`a`c```a`a`a`a`a`a`````````a`b`b`a`b`b`b`a```c`a```a`a```a`a`g`a```c`a`````a```#`.",
"`a```a`a`a`a```````````a```a`g`b`b`b`b`b`b`a`a```b```a`````a`a```a```c```b`b`b`b```a`a`````c`````b`b`````a`a`a```````````````c`a",
"`a`a`b`a`b`b`b`a`a```````a`b`a`a`a`b`a`b`b`b`a```c`.`#`#`m`a`a```c```````a```#`.```b`a`````````a`a`a`a`c`````a```#```#`````a```c",
"`h`a`b`a`b`a`b`a`a```````a`b`a`a`a`a`a`a`b`a```a`a`l`p`h`f```a`a`````c`````.`#```a`b`b`b`a```b`a`b`a`c```c`a`a`#`#.B`#`````b`c`c",
"`h`a`b`b`b`b`b`b```a```````a`a`b```a`````b`a```````````p`#`a`h`b`a`b```a```.`#`#`b`b`a`a`c`````a`a```````c`````a`.`c```a`b`b```a",
"`a`a`b`b`b`b`g`g`a```a```b`a`a`a`a`b`a`a`a`a`a```````````f`h`g`b`a`a`a`a`a`b`a```````````c`c```a`a`c`c`a`c`a```a`a`a```b`b`a`a``"
};
