/* XPM */
static char *we_xpm[] = {
/* width height num_colors chars_per_pixel */
"    64    64      256            2",
/* colors */
"`` c #040204",
"`. c #145e8c",
"`# c #042e4c",
"`a c #5c3e04",
"`b c #041a24",
"`c c #0c466c",
"`d c #241a04",
"`e c #242e34",
"`f c #041e3c",
"`g c #043a64",
"`h c #8c5e04",
"`i c #14262c",
"`j c #c48a1c",
"`k c #040e14",
"`l c #141a1c",
"`m c #143a54",
"`n c #04325c",
"`o c #3c4a3c",
"`p c #14263c",
"`q c #343a3c",
"`r c #644204",
"`s c #140e0c",
"`t c #04263c",
"`u c #443e3c",
"`v c #0c527c",
"`w c #b47e14",
"`x c #34260c",
"`y c #444e3c",
"`z c #141e2c",
"`A c #142e44",
"`B c #342e2c",
"`C c #04426c",
"`D c #e49a0c",
"`E c #041224",
"`F c #143e6c",
"`G c #042234",
"`H c #1c4e7c",
"`I c #042654",
"`J c #144e7c",
"`K c #a47204",
"`L c #0c1a24",
"`M c #142224",
"`N c #144264",
"`O c #0c263c",
"`P c #444644",
"`Q c #242624",
"`R c #040a0c",
"`S c #845a04",
"`T c #0c3654",
"`U c #14466c",
"`V c #043a6c",
"`W c #0c161c",
"`X c #14365c",
"`Y c #0c2e4c",
"`Z c #0c0e0c",
"`0 c #1c1a14",
"`1 c #1c3a54",
"`2 c #0c325c",
"`3 c #fca604",
"`4 c #2c2624",
"`5 c #5c5a5c",
"`6 c #2c363c",
"`7 c #3c3a34",
"`8 c #343634",
".` c #947634",
".. c #4c4644",
".# c #041a34",
".a c #241e1c",
".b c #2c2e2c",
".c c #0c223c",
".d c #1c262c",
".e c #d4960c",
".f c #04366c",
".g c #3c5254",
".h c #141614",
".i c #04264c",
".j c #c48614",
".k c #545654",
".l c #040604",
".m c #0c467c",
".n c #04224c",
".o c #0c3a5c",
".p c #946604",
".q c #143a64",
".r c #04365c",
".s c #344654",
".t c #1c2a3c",
".u c #1c5284",
".v c #4c4e4c",
".w c #1c222c",
".x c #143654",
".y c #0c426c",
".z c #f4a204",
".A c #0c1624",
".B c #0c1e34",
".C c #0c2a4c",
".D c #242a34",
".E c #0c0a04",
".F c #144a7c",
".G c #0c3e6c",
".H c #0c324c",
".I c #0c121c",
".J c #1c1e24",
".K c #74663c",
".L c #3c4244",
".M c #2c323c",
".N c #043254",
".O c #041e2c",
".P c #04223c",
".Q c #04121c",
".R c #141e24",
".S c #142a3c",
".T c #042a44",
".U c #44423c",
".V c #b4861c",
".W c #444e4c",
".X c #14222c",
".Y c #14324c",
".Z c #34322c",
".0 c #ec9e04",
".1 c #041624",
".2 c #14426c",
".3 c #a47a1c",
".4 c #0c1e2c",
".5 c #0c2a44",
".6 c #444a4c",
".7 c #242a2c",
".8 c #846a24",
"#` c #144a74",
"#. c #7c5604",
"## c #9c761c",
"#a c #2c220c",
"#b c #cc9214",
"#c c #2c4244",
"#d c #9c7e34",
"#e c #fcae04",
"#f c #cc8604",
"#g c #7c6a34",
"#h c #9c6604",
"#i c #3c3634",
"#j c #9c762c",
"#k c #dc9604",
"#l c #1c1614",
"#m c #0c2234",
"#n c #1c2224",
"#o c #1c4264",
"#p c #bc861c",
"#q c #141214",
"#r c #0c5684",
"#s c #042a5c",
"#t c #043e6c",
"#u c #0c1214",
"#v c #1c1e1c",
"#w c #1c3e54",
"#x c #2c2a24",
"#y c #3c3e3c",
"#z c #4c4a44",
"#A c #24221c",
"#B c #2c3234",
"#C c #1c2a34",
"#D c #0c3e64",
"#E c #1c568c",
"#F c #342a0c",
"#G c #e49e0c",
"#H c #0c365c",
"#I c #fcaa04",
"#J c #5c5e5c",
"#K c #041e34",
"#L c #042a4c",
"#M c #0c4a7c",
"#N c #143e64",
"#O c #344a54",
"#P c #44524c",
"#Q c #9c6a04",
"#R c #04020c",
"#S c #042e54",
"#T c #041a2c",
"#U c #0c4674",
"#V c #041e44",
"#W c #142634",
"#X c #040e1c",
"#Y c #141a24",
"#Z c #143a5c",
"#0 c #043264",
"#1 c #3c4a44",
"#2 c #042644",
"#3 c #142e4c",
"#4 c #044274",
"#5 c #144e84",
"#6 c #0c1a2c",
"#7 c #0c2644",
"#8 c #44464c",
"a` c #24262c",
"a. c #040a14",
"a# c #144674",
"aa c #0c2e54",
"ab c #0c0e14",
"ac c #1c1a1c",
"ad c #3c3a3c",
"ae c #34363c",
"af c #2c2e34",
"ag c #1c2634",
"ah c #14161c",
"ai c #04060c",
"aj c #0c3a64",
"ak c #043664",
"al c #0c4274",
"am c #0c0a0c",
"an c #0c3254",
"ao c #142a44",
"ap c #444244",
"aq c #142234",
"ar c #343234",
"as c #04162c",
"at c #144274",
"au c #846a2c",
"av c #dc960c",
"aw c #043e74",
"ax c #1c3e5c",
"ay c #2c2a2c",
"az c #4c4a4c",
"aA c #242224",
"aB c #000000",
"aC c #000000",
"aD c #000000",
"aE c #000000",
"aF c #000000",
"aG c #000000",
"aH c #000000",
"aI c #000000",
"aJ c #000000",
"aK c #000000",
"aL c #000000",
"aM c #000000",
"aN c #000000",
"aO c #000000",
"aP c #000000",
"aQ c #000000",
"aR c #000000",
"aS c #000000",
"aT c #000000",
"aU c #000000",
"aV c #000000",
"aW c #000000",
"aX c #000000",
"aY c #000000",
"aZ c #000000",
"a0 c #000000",
"a1 c #000000",
"a2 c #000000",
"a3 c #000000",
"a4 c #000000",
"a5 c #000000",
"a6 c #000000",
"a7 c #000000",
"a8 c #000000",
/* pixels */
".l`Zac#vaAaAaAaA`Q`Q`Q`Q`Q`Q`Q`Q`Q`Q`Q`Q`Q`Q`Q`Q`Q`Q`Q`Q`Q`Q`Q`Q`Q`Q`Q`Q`Q`Q`Q`Q`Q`Q`Q`Q`Q`Q`Q`Q`Q`Q`Q`Q`Q`Q`Q`Q`Q`QaAaA#vac`Zam",
"am.a.bay.b.b.b.b.b.b`Baf.b`Baf.b`Baf.b`Baf.b`Baf.b`Baf.b`Baf.b`Baf.b`Baf.b`Baf.b`Baf.b`Baf.b`Baf.b`Baf.b`Baf.b`Baf.bay.bay`QaA#q",
".haeadar.bar.bar`Baf`Baf`Baf`Baf`Baf`Baf`Baf`Bafar`Barafar`Baraf`Bafar`Baraf.Z`Baf`Baf`Baf`Baf`Baf`Baf`Baf.Zaf`Bafar.bad#yar.7ac",
"#vapad#B#xayayayayayayayayayay#xayayay#xayayay#x.7a`#xay.7#x.7ayay#x.7ay.7#xa`ayayayayay#xayayay#xayayay#xayayay#xay`Q`q`u`q#xac",
"aA`P#yaray#v#u`W`L`W`l`W`L.h`L`W`l`W`Wah`W`W`W.hacaA#n#v#vacac.h`lacac#v#vaAaAac`W`W.h`W`W`l`W`L`l`L`W`l`W`Lah`Lah`W#v#yapad.bac",
"`Qaz#y`8.baha..Q.Q.Q.Q.Q.Q.Q.Q#X.Q#X.Q`k`ka.`kab#vaA#vac#l.h`Zai`R#q#q`0ac#v`Q#v#qa.#X#X#X.Q.Q#X.Q#X.Q.Q.Q.Q.Q.Q#Xa.ah..`Pad#Bac",
"`Qaz`uaeay`l.Q#T#K.##T.##T.#.O.#.O.##T#T#T.1`l`QayaA#v#v`l#q`k`ka.`k.h.h.JaA`Q.bay`l.#.O#K#K#K#K#K#K#K#K.##K.##K.#.Q.R`P#8`7arac",
"`Qaz.L#i.b.Ras#2#L.T.T#L.T.T.T.T#L.T.T.T.n#v.bar`Q`QaA#v#l`E.1#T#T.1.A`0#vaAay.b`8.b.w#L`##L`##L`#`w.8`Y#p.3.i####as.X`P`Pad.bac",
"aAap#y`8ay.R#man`X`T#Z.o#Z`X#H`X#H.x#H.x.darad.bay.7.aac`L#K#7`Y.H.5.P.4ac#A.7ayarad.Z#C`X#Z.x#Z#0.V#b.W`3#k#O.zau#V.w`P`P`B`Q#q",
"aA#yad#iay.R.c#H#Naj.q#N#D#Naj#N#N#D`X.7#i#yar.bay#A#v#T.c`Y`T#N.q#H`Y#7#m#vaAay#Bar#yar#C.o#D`N.f#g`D##.0av.`.0.s.n.dap`P`8ay.h",
"`Q.v.L`8.b.R.P#Haj#H.raj#Haj#H`gaj#H.7ad#y`8afay`Qac#T#K.Tanajajajaj#H`##L#m.J`Qay.Z`8ap#i.D#H.G#0.W.0`D#d#b.0#p`n`t`iap..#yar#v",
"aAap#y#iay.R#K.N.r.N.N`n`n`g.Nakan.7ad#yae.Z.b`Q#v.1.#.T.N`n.r.r.r.r.r`n`Y#2.B#v`4.bar`8ap`7#C`n`n#w#G`3.g`j#e.K#s.P.X`P`Paeayac",
"aA#yad`qay.R.#.T.N#L`##S`##S`#`Y.7`uap`qar.b`Qac.1#T.P#L#S`#.N#S.N#S.N#S`#.T.P#T#n`4.bar`qap`7.D`#`#.L`oan#c`y.x`##K.X..`Paray`l",
"`Q.v#y#i.b#Y#T#2#L#2#2.T#2`##7ayap.L`7ar.b`4.J.Q.1#K#2.T#L#L#L#L#L#L#L#L#L#2`t.#.1#n`4#Bar`7`P#y.7.T.i.i#L.n.n.T#2#T.R`P#8ad.Zac",
"`Q..#yae#x.R#K`##H`#anan`n.H.bap`Pad`8.b`4.J.1.#`t#San.r`2ananan.N#Han#H.N#H.N`Y#K#6#n`4#B`8ad#8`u`e`Y#H.Nan.r`T`#.P.X..`P`8.bac",
"aA#y#y#i.b.w#7#N.2#N.G.2`Xar`P`Pad`8#B`4#n`G.5an.q.2a#.2.2.y`U.2.2at.2.y`F.yat.2.o`O.B#n`4ar`8ad..ap`e#Na#`N#Na##N.5agap`P#iay`l",
"`Qaz#yaeay.X`Y.2.F.2a#`Nar`P`Pad`8.Z`4.w.c`Y#Zat#`.F.Fa#a#a#.Fa#a#`J.F.ya#`J.u.Fa##N.5#m#n#xar`q#y`P.U#Ba#.Fa#.F.yaa.S.Uazad#Bac",
"`Qaz#yad#x.X#2.G#U#4`Xar`P`Padad#B`4#n.P`##H.G#U.mal#Ual.yal#Ualal#Ual.Gal#E.F#U.mal.o#2.B#nay.Zae#yazap#Bajal.y#D#L.d`P`Pad.Zac",
"`4az#yae#x.X`t#Hawan.Z#z#8#y#i#B#x.J#K#2.N`g#t#t#taj#t#t`g`g#t`V#t#t#t`g.Gal.G#t.G#t#t.N#K#T#n#xar#i#yaz`Paf.o`Vak.T#W..`Pad#Bac",
"a`az.L#iay.R`f`n.H`8az`P#y#i#B`4.Ras.P.T`n#Hak#Hak`n#H`n`2`2.r#H.N#Hak`2.r.rak#Hak.r#H`n.T#T.1.Jay#Badadaz`P#B.H.N.P.Xap`Pad.Zac",
".7#z#y`8.b#Y#T.5#i#z#8#y#i#Bay`l.Q#K`t.T#S#S#S#S`#`##S`#`#`##S`#`#`##S`##S#S#S#S#S`##L#S`#.P#T.1#n#xar`7#yaz..#B#7`f.X..`Pad#Bac",
"`4az#y#iay.R.4`8#z#8#yadaf#x.R.1.P.T`2.r#H.oaj.o#H#H#H#H`2#H#H#H#H`n#H#H`T#H.o.o#H#H#Haj#H#H`#.P#T#nayar`q#yaz..#B#m.Xap`Pad.Zac",
"`Qaz.Lae.b#n.b..`Pad#i#B#x.J#T`O.Yata#.2a##M.2a#.F.2a##U.2.2.F.ya#.2a#.2at`Ua#a#a#a#al`Ua#a#a##Z.C#m.w#xar#i#y.6..ay.d`P..`qarac",
"`Qaz`u`8ay`Qad#yad`q.b#x.R#T.5.qa#`J`Ja#`J.y#D.2.F#`.F.F.F#`#5#`.F#`#5#`.Fa##5#5#5.F.F#`.F#5`J.F#Nan`O.w#x#B#iad.L`8`4ap`Pad#Bac",
"a`az.L#i.7#xarar`8`Bay#Yas`Oaj#4.y.m.mal`C#Dal#r#5#4.m#Ualal.mal#Ual#Ualal#U.m.m.m#Ualal#U.m.m.malaj`#.P.w#x#B`8ar.bayap.6`7arac",
"#xaz#y`8ay`Qay#B.b`Q.R.1.P.N#t.G`V#t`Caj`C`C`v`.#M`g.G#t`g`g`C`V.G`g#t#t`g#t#t`C#t.G`V#taj#t#t.G#t`g#H.T#K.X`4ay.b#AaA`P`Pad.bac",
"`Qaz#yadayaA#xa``4#Y.1#K`#.rak.r.raj.r.r#H`V`c.y#H`n`g.r#H`naj.r.r`n#H.r`2.r#H`gak.r#H.r.r#H.r`g.r`n.r#L.P#K.R`QaA#v#nap`Pad.Zac",
"a`az#y`8ayaA#vaA`W.1.##2`#`Y`#`Y#L`#`##L`#`##L#L#S.T`Y#L#L#L`#.C.T#L`##L#L#L#S`Y`##L#L#L`##L#L`Y#L.C`##L`t.##T`l#v.h.a`P`Pad.bah",
"#xaz.L#iayaA`Q.barar`8ae`8aeae`8ae`8ae`8aeae`8ae`8ae`8ae`8ae`8ae`8ae`8ae`8`8ae`8ae`8ae`8ae`8ae`8ae`8`8ae`8`8#B.baA#l.J`P#8ad.bac",
"`Qaz#y`8ay.7`8ap`Paz.vazazazazazazazazazazazazazazazazazazazazazazazazazazazazazaz.vazazazazazaz#zazazazazaz`PaparaA`Qap`Pad.Zac",
"`Qaz#yad#x`Q.b`8ad#y#y#y#y#y#y#y#y#y`u#y`u#y`u#y#y`u#y#y#y#y#y#y#y#y`u#y`u#y#y#y`u#y#y`u#y#y`u#y#y#y#y#y#y#yad`8ayac#n`P`Pad#Bac",
"a`az#y`8ayaA`Q`Bar`8`8ae#i`8`8#iae`8`8ae`8`8`8#i`8ae`8#iae#i`8#i`8`8`8`8`8#i`8`8`8#i`8`8#i`8ae`8#iae#i`8#i`8ar.b`Q`l.a`P`Pad.Zac",
"#xaz.L#iay#vac.J`Qayay#xayayayay#xayay#xayayayayay#xayay#xayayayayayayayayayayayayayayayayay#xayay#xayayay#x`QaA#v`s#v`P`Padarac",
"`Qaz#y`8.b.Jac`Q`Q.J`z`M.X`M.X`M.X.X`M.X.X`M.X`M.X.X`M`z.X.R.X`M.X`M.X.R.X`M.X`M.X`M`z`M.X.X.X.X.X.X.X.X.X.X`z.Rac.h#v`P..`q.Zac",
"a`az#y#iayaA`Q`8`u#B.4`f#K`f#K`f#K.#`f#K#K`f#K`f#K#K#K#K#K#K#K`f#K`f#K#K#K`f#K`f#K`f#K.P#K#K#K#K#K`f#K#K#K`f.Oay.baA.a#8`Pad#Bac",
"`4az.L`8.b#naA`B.L..ar.5.Nan#S.N`#aa.N.Nan#S.Naa.N#San`#.Naa.N.Naa.N.N`Y.N.Naa.N`##S.Nan.N.Nan.N.Nan.Nan`n`Y`B#yarac#nap`Pad.Zac",
".7#z#y#iay#v#A.b`8ap.6.Z`ma#.2.2.2.G.2.y#D#D.2.2.2.2.2.2.2.2.2.2.2.2.2.2.2.2.2aj#D.2.2.yatatatata#at`U.m`1.Zap#yayac#v`P`Pad#Bac",
"`Qaz#y`qay#vaca`ar`8ap`Par`1.Fa#a#.2#`.2ala#a#a#.Fa#a#ata##Ua##`a#.Fa#at#`a#a#.G.2.F`H`Ha##`a##`#`.F.Faxar`P.Lar.7`0#v`P..ad.Zac",
"`4az#y#i.bah#uaAayar`8`uap.b.xal.G#D.Gal#M#M#U.G.y.G.G`g#D.G.G.y.G.y.G#D.Gal.y.G.y`H.Fatal.yalalalal#Z.Z`Pap`8ar`Qac.J`P#8ad#Bac",
".7az#yaeay`l#X`L#Aay#B`8#yap`B`Aak.rak`g`g`V`g.rak`g.r.N.r`n`gak`g.r.r`n`gak`gak`gaj`gak`g`g`g`g`g.Y.b`Papae`8ay#A#u`l..`Pad.Zac",
"`Qaz#yaday`l`E.1`L#A`4af`8ad.L`B.5`##S`Y#S`Y#S`Y#S`#`#.C#S`Y#S`Y#S`#`Y#L`##S`Y.N#S#S#San.Naa.N#S`A`B`P#yaearay`Q`la..Rap`Pad#Bac",
"`4az#y`8.b`l`Eas.1`W#A`Q.b`B`q#y`B.X#2#2#2#2#2.P#2#2.n`G#2.P#2#2#2#2.n.P`t#2#2#2#2.T#2#2#2#2#L`O`B.L#y`8ar#xaA`l`E#X`z..`Pad.Zac",
".7az#y#iay#Y#T.P#K.1.A.a`Qay.b`8ad.b#W#L.T#L.T.T.5.T.T.T.T.T#L.T#L.T.T.T#7#L.T.C.T#L.C.T.T`##W.bapadar`B.7aA`las`G#T`z`P`Pad#Bac",
"`Qaz#y`qay.R`G.Han`O#T`L#vaAay.barad#x.S#H.xanan#H.Y`2an.Y`2.xan.xan.Yanananan`T`X`T#H`Xan.S`Bad`q`B.ba`#A#Y.O`Yan.P.w`P`Padarac",
"`4.v#y#iay.J.can`X`T.5.B`L#vaA`Q.bar`8ay.t.o`X`T`Xaj.x#H`X#H#Z#H`X#H`X#H`X.x.x#H`X#Z.oaj.t.bad`8.b.b`Q#A#Y#Kan#N`X.P.dap..ad#B`0",
"#nap#yae.b.R#K`Y.Nanaa`t#T.AacaA`Qay.Z`8`4#W`2.Nanan.Naa.Nan.Nan.Nan#S`Y.Nan#San.ran#H.S#x`qar.bayaA.a.A#T`Yajajan.P.dap`P`8ay.h",
"aAap#y#iay.R.##2`##L`##L`Gas`Wac#n`Q`4af`8ay.X#L`##L#L.T#L.T`##L#L#L.T#L.T#L.T`#`##Saq#x`8araya`aA#v`Was.T.N`n.r#L#K.X`P#8`7.bac",
"aA`Pap`8ay`l.1`G#2#2`t#2.P.O.1.I`0.J`Qay.bar#x.X#2#2`t.P`t.n`t.P#2`t`t.P.n`t.P#2#2.X#xae.bay`Q#A#v.I`E`G#L`##L`##2as`M`P..adarac",
"aA#y#y`q.b`l`E#T#K#K#K#K#K#Kas`E.Q`0#vaA`Q.b#B`4.R#K#K.##K.O#K#K#K#K#K.#.O#K#T`f.R`4ar.b`4`Q.aac#u.Q.#.P`t.n`G#2#K`E.R`P#8ad.bac",
"`Qaz#y#iay#Y.1#K.P`G`f.P.P`G#K#K.1.I.h#vaA`Qay#B`4.R`G#K`G`f.P`G.P#K`G#K#K.P#K.R`Q#Bay`Q`Q.J`l#u`E`G`t#2#2`t#2#7.P.1`z..`P`8a`.h",
"#vap#yaeay.R.1#m.5#7`O.5.5.5#7`O.P#T`Wahac#vaA`Qaf`Q.R#7.5`O.5#7.5#7#7`O.5#7.R`Q`Ba`aAaAac#l.I.1`O`Y.C`Y.H`Y`Yan.5#T.X`P`Pad.Zac",
"`Qaz#y#iay.R.1.c.5.5#7.T.C.C.5`O.5#m#K.I.hac#vaAaA#xaA`l`O`O#7`O`O`O`O.c`O.R.aayaA#A#v`l.h.I`b`O`Y`Y`Y.C#3`Y`Y.Y.C.O.wap..`8ay`l",
"`Qaz#y`qay`l.1#K.P#K`taa.r.N.P`G.P#K.B#T.Q`s#q#q.h.hac.hab#X.Q#X.Q.Q.Q.Q#u.h#v`l.h#q#q#q`k.1#K#2#7#2.5.T.5#L.5`#`Oas`M`P#8ad.bac",
"`Qaz`u`8.b`l#X#T.O#T#K`t`#.P#T.##K#T#K.1.Q`R#v.7#xayay.bay.7.7.7.7.7.7ayay.bayayay`Qac`k#X#K`G#K#K.P.P.P.P.P.P#2#K.1.R..`Pad.Zac",
"`4az.L`8ay`l#X.1asas.1as.1#T#T.1#Tas#Tas`k.I`7#Jaz.6az.6#zaz#zazaz#zazaz.6azaz#zaz`Par#u.Q#K.##T.##K#K#K#K#K#K.P#T`E#Y`P`Pad#Bac",
".7az#y#i.baha..Q.1`E.1.1.1`E.1`E.1`E.1.1a.`Waz.kar.b#i`8`8`8ae`8`8`8`8`8`8`8`8aearad`P`W#X#T.1as`b#T#T#T#T#T#T.##T#X.R`P`Pad.Zac",
"`Qaz#yaeay`l#X.1.1.1.1#T.1.1#T.1.1.1#T.1`k`lap.var#B#yad#yad#yad#yad#yad#yadad#y.Z`q`P`l.Q#T#T#Tas#T#T.##T.##T#K#T#X`l`P..ad#Bac",
"`Qaz`u`8.b`l#X.1#T.1as#T.1as.1as#T.1as.1a..A`8`uap.k`5`5`5`5`5`5`5`5`5`5`5`5`5`5`P#yad.I.Q#T#Tas`b#T#T#T.O.##T#K`b#X.R..#8ad.Z.h",
"aA`P#yaeay#n.R.R.R.R.X.R`z`M.X.R`z.X.R.R#Y.J`Q.b`8ae`8`8`8`8`8`8`8`8`8`8`8`8`8`8`8`B.7`l#Y.X.R`z.X.X.X.X.X.X#n.X.R.R#n#yap`q.b#q",
"`Q.vap#y#y..`P`Paz..`P`P..azap`P..#z`P`P#z`P`Pap`P`Papap`Papapap`P`Papap`Papapap`P`Pap..az..`P....#z`P......`P`P..azap`P..ap`8ac",
"ac.M#i`7`8.M`u#yad.M`u.U`qar#y.Uad.M`u`u`qar#y`uadae#y`uadae#y.Uadar#y.Uad`6`u.Uad.M`u.L`qar#y.U`qar#y`u`q`6`u`u`q.Mad`u`qaf`8#v",
"``#.#h`s#R`S#h`s```S#Q`s#R`S#Q`s#R`S#Q`s#R`S#Q`s#R`S#Q`s#R`S#Q`s#R`S#Q`s#R`S#Q`s#R`S#Q`s```S#Q`s#R`S#Q`s#R`S#Q`s#R`S#Q`s#R`S.p.E",
"`r#k#Fai`K#G`x.l`K#G`xai`K.0`xai`K`D`x`R`K.0`xai`K#G`xai`K.0`xai`K.0`xai`K.0`xai`K#G`x.l`K.0`xai`K.0`xai`K`D`x`R`K.0`xai`K.0`x``",
"`a`x#R#.#f#a``#.#f#a#R#.#f#a#R#.#f#a``#.#f#a#R#.#f#a#R#.#f#a#R#.#f#a#R#.#f#a#R#.#f#a``#.#f#a#R#.#f#a#R#.#f#a``#.#f#a#R#.#f#a#R`d"
};
