/* XPM */
static char *door_15_xpm[] = {
/* width height num_colors chars_per_pixel */
"    64    64      256            2",
/* colors */
"`` c #0c0a0c",
"`. c #5c5a5c",
"`# c #fc02d4",
"`a c #4c2a1c",
"`b c #2c2a2c",
"`c c #b45a24",
"`d c #4c4a4c",
"`e c #2c1a14",
"`f c #848684",
"`g c #6c361c",
"`h c #1c1a1c",
"`i c #dc6a34",
"`j c #747274",
"`k c #4c3a34",
"`l c #3c3a3c",
"`m c #744224",
"`n c #3c2214",
"`o c #8c4624",
"`p c #a44e24",
"`q c #1c120c",
"`r c #9c9e9c",
"`s c #3c2a1c",
"`t c #cc6634",
"`u c #2c221c",
"`v c #7c3e1c",
"`w c #945a34",
"`x c #5c321c",
"`y c #7c4a2c",
"`z c #6c3e24",
"`A c #242224",
"`B c #646664",
"`C c #4c3224",
"`D c #b46234",
"`E c #a45624",
"`F c #141214",
"`G c #4c4e4c",
"`H c #949294",
"`I c #241a14",
"`J c #f47a34",
"`K c #7c7e7c",
"`L c #5c361c",
"`M c #7c421c",
"`N c #9c4e24",
"`O c #24160c",
"`P c #acaaac",
"`Q c #442a1c",
"`R c #342214",
"`S c #343234",
"`T c #341e14",
"`U c #444244",
"`V c #442614",
"`W c #ac5224",
"`X c #743e1c",
"`Y c #c4622c",
"`Z c #140e0c",
"`0 c #646264",
"`1 c #4c2e1c",
"`2 c #2c1e14",
"`3 c #8c8e8c",
"`4 c #743a1c",
"`5 c #e47234",
"`6 c #7c7a7c",
"`7 c #74462c",
"`8 c #9c4a24",
".` c #a45224",
".. c #1c160c",
".# c #a4a6a4",
".a c #3c2e24",
".b c #d46a2c",
".c c #2c2624",
".d c #844a24",
".e c #6c6e6c",
".f c #54321c",
".g c #bc6234",
".h c #545654",
".i c #241e14",
".j c #5c3a1c",
".k c #0c0e0c",
".l c #5c5e5c",
".m c #2c2e2c",
".n c #b45a2c",
".o c #5c4234",
".p c #8c8a8c",
".q c #6c3a1c",
".r c #1c1e1c",
".s c #e46e2c",
".t c #747674",
".u c #543624",
".v c #3c3e3c",
".w c #74422c",
".x c #3c261c",
".y c #944a24",
".z c #a4a2a4",
".A c #3c2a24",
".B c #2c2224",
".C c #7c3e24",
".D c #945a3c",
".E c #64321c",
".F c #6c3e2c",
".G c #242624",
".H c #6c6a6c",
".I c #a45634",
".J c #141614",
".K c #545254",
".L c #9c9a9c",
".M c #fc8244",
".N c #848284",
".O c #5c3624",
".P c #7c4224",
".Q c #9c522c",
".R c #241614",
".S c #acaeac",
".T c #442e24",
".U c #34261c",
".V c #343634",
".W c #444644",
".X c #44261c",
".Y c #743e24",
".Z c #4c2e24",
".0 c #2c1e1c",
".1 c #a4522c",
".2 c #1c1614",
".3 c #d46a34",
".4 c #844e34",
".5 c #543224",
".6 c #bc6634",
".7 c #241e1c",
".8 c #000000",
"#` c #000000",
"#. c #000000",
"## c #000000",
"#a c #000000",
"#b c #000000",
"#c c #000000",
"#d c #000000",
"#e c #000000",
"#f c #000000",
"#g c #000000",
"#h c #000000",
"#i c #000000",
"#j c #000000",
"#k c #000000",
"#l c #000000",
"#m c #000000",
"#n c #000000",
"#o c #000000",
"#p c #000000",
"#q c #000000",
"#r c #000000",
"#s c #000000",
"#t c #000000",
"#u c #000000",
"#v c #000000",
"#w c #000000",
"#x c #000000",
"#y c #000000",
"#z c #000000",
"#A c #000000",
"#B c #000000",
"#C c #000000",
"#D c #000000",
"#E c #000000",
"#F c #000000",
"#G c #000000",
"#H c #000000",
"#I c #000000",
"#J c #000000",
"#K c #000000",
"#L c #000000",
"#M c #000000",
"#N c #000000",
"#O c #000000",
"#P c #000000",
"#Q c #000000",
"#R c #000000",
"#S c #000000",
"#T c #000000",
"#U c #000000",
"#V c #000000",
"#W c #000000",
"#X c #000000",
"#Y c #000000",
"#Z c #000000",
"#0 c #000000",
"#1 c #000000",
"#2 c #000000",
"#3 c #000000",
"#4 c #000000",
"#5 c #000000",
"#6 c #000000",
"#7 c #000000",
"#8 c #000000",
"a` c #000000",
"a. c #000000",
"a# c #000000",
"aa c #000000",
"ab c #000000",
"ac c #000000",
"ad c #000000",
"ae c #000000",
"af c #000000",
"ag c #000000",
"ah c #000000",
"ai c #000000",
"aj c #000000",
"ak c #000000",
"al c #000000",
"am c #000000",
"an c #000000",
"ao c #000000",
"ap c #000000",
"aq c #000000",
"ar c #000000",
"as c #000000",
"at c #000000",
"au c #000000",
"av c #000000",
"aw c #000000",
"ax c #000000",
"ay c #000000",
"az c #000000",
"aA c #000000",
"aB c #000000",
"aC c #000000",
"aD c #000000",
"aE c #000000",
"aF c #000000",
"aG c #000000",
"aH c #000000",
"aI c #000000",
"aJ c #000000",
"aK c #000000",
"aL c #000000",
"aM c #000000",
"aN c #000000",
"aO c #000000",
"aP c #000000",
"aQ c #000000",
"aR c #000000",
"aS c #000000",
"aT c #000000",
"aU c #000000",
"aV c #000000",
"aW c #000000",
"aX c #000000",
"aY c #000000",
"aZ c #000000",
"a0 c #000000",
"a1 c #000000",
"a2 c #000000",
"a3 c #000000",
"a4 c #000000",
"a5 c #000000",
"a6 c #000000",
"a7 c #000000",
"a8 c #000000",
/* pixels */
"`j.e.e.e.H`0.l`..K`G.W`b`l`l`l.m.V`#`#`#`#`#`#`#`#`#`#`#`#`#`#`#`#`#`#`#`#`#`#`#`#`#`#`#`#`#`#.m`l`l`l.V.m`U`d`G`.`0`B.e.e.e.e.H",
".L`r`P.z`H`K.t.H`0`.`..W`d.W.h`G`0`#`#`#`#`#`#`#`#`#`#`#`#`#`#`#`#`#`#`#`#`#`#`#`#`#`#`#`#`#`#.K.K`G.W`d`U.K`..l`B`j.t`6`6`6.t.t",
"`h`h.r.r`A.r.r.r.r`h`h.J`A.r.7.r.c`#`#`#`#`#`#`#`#`#`#`#`#`#`#`#`#`#`#`#`#`#`#`#`#`#`#`#`#`#`#`A`A.r.7.r.J.J.r.r.7.r.r.7.r`h.J`h",
"`G`G`G`G.W.v`l`b`b.G.m.J.v.v.G.r`S`#`#`#`#`#`#`#`#`#`#`#`#`#`#`#`#`#`#`#`#`#`#`#`#`#`#`#`#`#`#`A`b.G.v`S.J.m`b`b.V.W`G`d`d`G`d.v",
".l`0`.`.`d.W.v.V`S`S.V.r`.`0.V`A.V`#`#`#`#`#`#`#`#`#`#`#`#`#`#`#`#`#`#`#`#`#`#`#`#`#`#`#`#`#`#`A.m`l.l`U.G.V.V.V`d.e`6`j`j`K.N.t",
".J`h.J`h.J`h.2.J.J.J.k`h`.`0`l`A.V`#`#`#`#`#`#`#`#`#`#`#`#`#`#`#`#`#`#`#`#`#`#`#`#`#`#`#`#`#`#.G`S`U.l.v`h``.J.2`h.r`h.J.r`h`h`h",
"`b.G`b.G`b.G`b.G`A`h.J.2.h`B.v`A.V`#`#`#`#`#`#`#`#`#`#`#`#`#`#`#`#`#`#`#`#`#`#`#`#`#`#`#`#`#`#.G`S`U`B.v`h`F.r`A.G`b.G`b.G.G.G`b",
"`G`G`d.W`l.V`b`b.r`h`F.J`B`j`l`A.V`#`#`#`#`#`#`#`#`#`#`#`#`#`#`#`#`#`#`#`#`#`#`#`#`#`#`#`#`#`#.i`S`U`B`U`h.k`h`A`b.m`l.v`d`G`G`G",
".N`3.p.p`B.l.K.W.V`b.J.r.e`j.V.G.V`#`#`#`#`#`#`#`#`#`#`#`#`#`#`#`#`#`#`#`#`#`#`#`#`#`#`#`#`#`#.G`S.v.H`U.r.J`S.v.W.K.l`B`f.z.z.p",
".v.v.v`l.G`S.m`S.G`A`F`h.e`j.V`A.V`#`#`#`#`#`#`#`#`#`#`#`#`#`#`#`#`#`#`#`#`#`#`#`#`#`#`#`#`#`#.G.a.v`B.W`h.k`A.m.m`S`b`b.v.K.h.v",
"`G`..K.v.G`S`S`S`b.r.J`h`B.e.V`A.V`#`#`#`#`#`#`#`#`#`#`#`#`#`#`#`#`#`#`#`#`#`#`#`#`#`#`#`#`#`#.G.m.v`B`U`h`F.G.m`S`S.m.m`U`0`0.W",
"`j.p`K`..V`G`d.W.v.m`h.r.l.H`S`A.V`#`#`#`#`#`#`#`#`#`#`#`#`#`#`#`#`#`#`#`#`#`#`#`#`#`#`#`#`#`#.G`S.V`0.v.r.J.V.W`d`d`U.v.l.p.N.l",
".V`l.V`S.r`S.m`S`b.r`F`h.l`B`S.G.V`#`#`#`#`#`#`#`#`#`#`#`#`#`#`#`#`#`#`#`#`#`#`#`#`#`#`#`#`#`#.i`S.V`0`U`h`F`A.m.m.m.G.G.V`G.W.V",
"`G`.`d`l`A`b`b`b.G.r`F.r.v.v`A.2.m`#`#`#`#`#`#`#`#`#`#`#`#`#`#`#`#`#`#`#`#`#`#`#`#`#`#`#`#`#`#.r`A.G`U`S.r`F.r`b`b`b.G`b`U.l.h.v",
"`j`3.t`..V.v`U.v.V`b.J`h.c`A.J.k.7`#`#`#`#`#`#`#`#`#`#`#`#`#`#`#`#`#`#`#`#`#`#`#`#`#`#`#`#`#`#`Z.J`h.G.G.r.J.m`l`U`U`l`U`0`f`6`.",
"`S`l`S.m.G`b.G.m`A`h.J`A.l.l`l.G`S`#`#`#`#`#`#`#`#`#`#`#`#`#`#`#`#`#`#`#`#`#`#`#`#`#`#`#`#`#`#.i.m.V.K.v`A`F.r.G`b.G.G.m.V.W`U`S",
".e.t`B`B`..h.K.W.V.c.J.J.v.V.r`h.V`#`#`#`#`#`#`#`#`#`#`#`#`#`#`#`#`#`#`#`#`#`#`#`#`#`#`#`#`#`#.G.r.r`l.m`h.J`b`U`G.l`0.l`0.t`6`B",
".N`3`6`j.l.h`d`U`S.r.J.r`l.G`h`h`S`#`#`#`#`#`#`#`#`#`#`#`#`#`#`#`#`#`#`#`#`#`#`#`#`#`#`#`#`#`#.i.r`h.V.m.r`F.G`l`d.h.l`.`.`0.e`B",
".G`b.G.G.G.G.G.G.r`h.r.r`G.W.m`A.m`#`#`#`#`#`#`#`#`#`#`#`#`#`#`#`#`#`#`#`#`#`#`#`#`#`#`#`#`#`#`A`S`S`G`U.r.2`h.r.G.G.c.G.G.G.c.G",
"`S.m`b`b.c`b.G`b`h`h.r`h`..K.V`A`S`#`#`#`#`#`#`#`#`#`#`#`#`#`#`#`#`#`#`#`#`#`#`#`#`#`#`#`#`#`#.i.m.V`.`U`h.J.r.G`b`b.G`b.G`b.m.m",
"`j.l.W.W.v.V.V`S.r`S.G.r`.`0`S`A`S`#`#`#`#`#`#`#`#`#`#`#`#`#`#`#`#`#`#`#`#`#`#`#`#`#`#`#`#`#`#.G`S.V`..v.r.m`A`b`U`d.K.h.l`B`K.N",
".G.7.J`h.J.2.r.7.J.W.V`A.l.H`S`A.m`#`#`#`#`#`#`#`#`#`#`#`#`#`#`#`#`#`#`#`#`#`#`#`#`#`#`#`#`#`#.i`S.V`0`U`b.v`S.r`A.r.r`A`A.G`S`b",
".r.r.r.r`A`h.G.m`A`j`U.r`0`B`S.G.m`#`#`#`#`#`#`#`#`#`#`#`#`#`#`#`#`#`#`#`#`#`#`#`#`#`#`#`#`#`#`A.m`l.l`U.G`0`d.G`b`A`h.r.r.r.r`A",
"`h`h`h`h.r.J.V`d.m.p.K`h.l`B`S`A.m`#`#`#`#`#`#`#`#`#`#`#`#`#`#`#`#`#`#`#`#`#`#`#`#`#`#`#`#`#`#.i`S`l.l.v`b.t.l.v`G.r.J`h`h`h`h`h",
".J.J.J.J`h`h`G.t`U.S.l`h`B`0.V`A`S`#`#`#`#`#`#`#`#`#`#`#`#`#`#`#`#`#`#`#`#`#`#`#`#`#`#`#`#`#`#.G.m.v`0.v`b`3.H.K.N`b.J.r`F.J`F.J",
".h.v`..V.K`S.e`K`l`P.h`h`B.l`S`A.m`#`#`#`#`#`#`#`#`#`#`#`#`#`#`#`#`#`#`#`#`#`#`#`#`#`#`#`#`#`#.i`S`l.l.v`b`f.H.h.z.v.W`U.m.h`S.h",
"`6.l.N.K.t`l.e`B.m.L.K`h.e`B`S.G.m`#`#`#`#`#`#`#`#`#`#`#`#`#`#`#`#`#`#`#`#`#`#`#`#`#`#`#`#`#`#`A.m`l`0.v`b`K`B`l`K.K`.`0`U`K.W.t",
"`S.m.v.r.v.G`j`..V`6.W.r.e`B`S`A`S`#`#`#`#`#`#`#`#`#`#`#`#`#`#`#`#`#`#`#`#`#`#`#`#`#`#`#`#`#`#.i`S.V`0.v`b.l.K.v.l.v.m`l.r.W.r.v",
".J`F.2```A.J`d`l`S`0.V`h.H`B`S`A.m`#`#`#`#`#`#`#`#`#`#`#`#`#`#`#`#`#`#`#`#`#`#`#`#`#`#`#`#`#`#.G`S`l.l.v`A`G`G.v`U`b.J.r``.2.k`h",
".r.J.G.J`b`h.V.G.m.K`S.J.H`0`S.G.m`#`#`#`#`#`#`#`#`#`#`#`#`#`#`#`#`#`#`#`#`#`#`#`#`#`#`#`#`#`#.i.m.v.l.v`A.W`d`b`b`b.r`b.J`A`F.G",
".J`F`h.k`h.r.m.c.G.v.G.J.e`0`S`A.m`#`#`#`#`#`#`#`#`#`#`#`#`#`#`#`#`#`#`#`#`#`#`#`#`#`#`#`#`#`#.G`S`l.l.v`h`S`S.m`b.G.r`h.k`h.k`F",
"`F.J`h`h.J`h`A.r.r.V.r.J`0.l`S.G.m`#`#`#`#`#`#`#`#`#`#`#`#`#`#`#`#`#`#`#`#`#`#`#`#`#`#`#`#`#`#.i.m`l`0`l`F.G`b.G`A.r`h.J`h.J.J`F",
".r`h`h.J.r.J`h.r.r`S.J`F.l.l`S`A.m`#`#`#`#`#`#`#`#`#`#`#`#`#`#`#`#`#`#`#`#`#`#`#`#`#`#`#`#`#`#`A`S.V.l`l.k.G`A.G`h`h`h`h`h`h.r`h",
".V`S.m`b`b.G.m`S`h.c.J.J`0.l`S.G`S`#`#`#`#`#`#`#`#`#`#`#`#`#`#`#`#`#`#`#`#`#`#`#`#`#`#`#`#`#`#.i`S.v`0.v.J`A.r`b`S.G.m.m.m`S.V`l",
".p`K`0.K`G`U.W`G.m.m`A`h`0.l`S`A.m`#`#`#`#`#`#`#`#`#`#`#`#`#`#`#`#`#`#`#`#`#`#`#`#`#`#`#`#`#`#`A.m`l.l.v.2.G.r`U.v.v.v`U.K.l`j.t",
"`U`l.m.G.G.G`b`b.G.r`b`h`.`.`S`A.m`#`#`#`#`#`#`#`#`#`#`#`#`#`#`#`#`#`#`#`#`#`#`#`#`#`#`#`#`#`#.i`S`l.l`U.r`A`h.m.m.c.G.G`b`S.v.v",
".V.V`S`b.G.c.m.m`S`A`h`F.h`..V`A.m`#`#`#`#`#`#`#`#`#`#`#`#`#`#`#`#`#`#`#`#`#`#`#`#`#`#`#`#`#`#.G.m.v.l.v.k`A.m`S.m.m.m`b.m`S.v`l",
".t`j`B`.`G.W.W`d.v.m.G.J.l.h`S.G.m`#`#`#`#`#`#`#`#`#`#`#`#`#`#`#`#`#`#`#`#`#`#`#`#`#`#`#`#`#`#.i`S`l`0.v.J.G.m`l.V`l.V.v.v`G.l`.",
"`S.V.m.c.r.7`A.r`h.J.J`F.K.h`S`A.m`#`#`#`#`#`#`#`#`#`#`#`#`#`#`#`#`#`#`#`#`#`#`#`#`#`#`#`#`#`#`A.m`l.l`l``.J.J`h.r`h`h`A.c`S.v`S",
".H`3`B`d.m`l`S`S.m`A.r`F.K.K`S.G.m`#`#`#`#`#`#`#`#`#`#`#`#`#`#`#`#`#`#`#`#`#`#`#`#`#`#`#`#`#`#.i`S.V.l`l`F.r`b`S`S.V`S`l.h`B`6.l",
".W.H`d.v.G.G.G`A.r`h`h``.m.m`A.r`S`#`#`#`#`#`#`#`#`#`#`#`#`#`#`#`#`#`#`#`#`#`#`#`#`#`#`#`#`#`#`A.G.G`S`A```h`h.r.G.G`A.m`U`G`..W",
"`0`f`0.K.V`d`U.v.V`b.G.k`U.W.m`A.m`#`#`#`#`#`#`#`#`#`#`#`#`#`#`#`#`#`#`#`#`#`#`#`#`#`#`#`#`#`#.i.m`S`G`S.k.G.m`l.v.W.v`U`..e`K.l",
"`U.h.v`l.G`S.m`S`b.r.r`F.K.h`S`A.m`#`#`#`#`#`#`#`#`#`#`#`#`#`#`#`#`#`#`#`#`#`#`#`#`#`#`#`#`#`#`A`S`l.l.v`F.r.G.m`S`S`b.m.v`G.K`U",
".W.K`l.m.r`A`A.r.r.J`F.k`b.m`h.r`S`#`#`#`#`#`#`#`#`#`#`#`#`#`#`#`#`#`#`#`#`#`#`#`#`#`#`#`#`#`#.i.r.r`S`A```F.J.r.r`A.r`A.v.K.h`U",
"`B`j`..K.V.v.v.v`l`b.G`F.V.V`A.r`S`#`#`#`#`#`#`#`#`#`#`#`#`#`#`#`#`#`#`#`#`#`#`#`#`#`#`#`#`#`#.G`b.G.v`b.k.G`S`l.v`U.V.v`0`6`K`0",
"`b.m.G.G`h`A.G`A.r.2.J`F.l`.`S`A`b`#`#`#`#`#`#`#`#`#`#`#`#`#`#`#`#`#`#`#`#`#`#`#`#`#`#`#`#`#`#.i.m`l.l.v.k.J`h`A.G.G`h.7`b.V`l.m",
".e.N`B`G`U.V`S`b`S.r`A`F.l.h`S.r.m`#`#`#`#`#`#`#`#`#`#`#`#`#`#`#`#`#`#`#`#`#`#`#`#`#`#`#`#`#`#.i.m.v`0.v`F.r.G`S`S`S.V.v`d.l.l`d",
"`j.t.H`0.h`G.W.v.v`b.G`F.l`.`S.G`b`#`#`#`#`#`#`#`#`#`#`#`#`#`#`#`#`#`#`#`#`#`#`#`#`#`#`#`#`#`#`A.m`l.l.v`F`b.m`U`G`..l.l`0`0`B.l",
".m`S.m.m`S.m`S.m`b.r`A`F`..h.V.r`b`#`#`#`#`#`#`#`#`#`#`#`#`#`#`#`#`#`#`#`#`#`#`#`#`#`#`#`#`#`#.i.m.v`0.v`F.r`A.m`S`S`S.m.m`S.m`S",
"`b.G`b.c.G.G.c.G.G`h`h.k`.`.`S`A`b`#`#`#`#`#`#`#`#`#`#`#`#`#`#`#`#`#`#`#`#`#`#`#`#`#`#`#`#`#`#`A.m.v`B`U`F.J.7.G.G.G.G`b.G.c`b`b",
"`b`b.G.G`A`A`A.G`A.r.r.J`G.l`S.r.m`#`#`#`#`#`#`#`#`#`#`#`#`#`#`#`#`#`#`#`#`#`#`#`#`#`#`#`#`#`#.r`S`U`B`S.J`h.r`A`A`A`A`A`A.G.G`b",
".l.l.l.h`.`G`U.v.V`b`A.J`.`..V`A.m`#`#`#`#`#`#`#`#`#`#`#`#`#`#`#`#`#`#`#`#`#`#`#`#`#`#`#`#`#`#.i.m`U`B`l`h.G.m.V`l`l.W.h.h`0`0.K",
"`..h`..h.h`G`d.W.v`b.G`h.h.h.m`A`b`#`#`#`#`#`#`#`#`#`#`#`#`#`#`#`#`#`#`#`#`#`#`#`#`#`#`#`#`#`#.i.m.V`0.v`h.G.V.W`d`G.l`j`j.t`K.e",
".G`b.m.m`b.m`b`b.G.r.r.J.h.K`S`A.G`#`#`#`#`#`#`#`#`#`#`#`#`#`#`#`#`#`#`#`#`#`#`#`#`#`#`#`#`#`#`h`S.V`..v.2.r`A`b`S`S`S.m.V`S.m`b",
".G`b.m.m`S`S`S.m`S.G.c.J`G`d`S.r.G`#`#`#`#`#`#`#`#`#`#`#`#`#`#`#`#`#`#`#`#`#`#`#`#`#`#`#`#`#`#...V.V.h`S.r`A`b.V`S.m.V.m.m.m`b.G",
"`A`A.7.r`A`A.G.G.G`A`A.J`b.m`A`h`F`#`#`#`#`#`#`#`#`#`#`#`#`#`#`#`#`#`#`#`#`#`#`#`#`#`#`#`#`#`#`Z.G.G.m`A`h.r.G`A.G`A`A`A.r`A`A`A",
".v.V.G.G.v.l.l.K`l.m`A.V`d.K.W.V.r`#`#`#`#`#`#`#`#`#`#`#`#`#`#`#`#`#`#`#`#`#`#`#`#`#`#`#`#`#`#`A`l`d`d.v`b.G`S`U.K`G`G`S.r`S.V.v",
"`G`l`b.G`U`.`.`G.v`S`A.V`d.h`G`U.7`#`#`#`#`#`#`#`#`#`#`#`#`#`#`#`#`#`#`#`#`#`#`#`#`#`#`#`#`#`#.c.v`B`B`d.m`A.V`d.l.h`G.V`A`S.v`d",
".G.c.r.7`A.G`b`b.c`A.J.r.G.G.G`A`F`#`#`#`#`#`#`#`#`#`#`#`#`#`#`#`#`#`#`#`#`#`#`#`#`#`#`#`#`#`#...G`b`b`A`h`h`A.c`b.G.7.r`h`A`A`A",
".2.A.u.T.2.2`Q.F`s.2`Q`C.T`h.2.7`I`#`#`#`#`#`#`#`#`#`#`#`#`#`#`#`#`#`#`#`#`#`#`#`#`#`#`#`#`#`#`2.r.J.c`1`Q.i..`1`C`e`Z`I.T.T`I..",
".j`t.g.5.A.I`J.6.5`4.s`i`y.B.o.D.F`#`#`#`#`#`#`#`#`#`#`#`#`#`#`#`#`#`#`#`#`#`#`#`#`#`#`#`#`#`#.d.D`k.U`D`5`c`a`z`t.b`7.A.Q.M`5.Z",
"`o`N.E`2.O.y.y.X`n`v`p.Y`T.a`o.1`L`#`#`#`#`#`#`#`#`#`#`#`#`#`#`#`#`#`#`#`#`#`#`#`#`#`#`#`#`#`#`M`E`m.U`1.``W`g`R.Y.n`N`C`V`N`Y.y",
"`M.E`O.0.q`X.X..`V`v.E`R`I`C.Y`z.x`#`#`#`#`#`#`#`#`#`#`#`#`#`#`#`#`#`#`#`#`#`#`#`#`#`#`#`#`#`#`1.P.q.U`I.X`X`4`e.R`x`M.5.R`n`v.Y",
"`R.R.k.2`T.R`Z`Z`I`R.R`Z.J`I`R.0.2`#`#`#`#`#`#`#`#`#`#`#`#`#`#`#`#`#`#`#`#`#`#`#`#`#`#`#`#`#`#`I`2`T`I.k`Z`e`T..```F`T`2`F`Z`2`R"
};
