/* XPM */
static char *door_14_xpm[] = {
/* width height num_colors chars_per_pixel */
"    64    64      256            2",
/* colors */
"`` c #0c0a0c",
"`. c #5c5a5c",
"`# c #fc02d4",
"`a c #4c2a1c",
"`b c #2c2a2c",
"`c c #b45a24",
"`d c #4c4a4c",
"`e c #2c1a14",
"`f c #848684",
"`g c #6c361c",
"`h c #1c1a1c",
"`i c #dc6a34",
"`j c #3c2214",
"`k c #747274",
"`l c #4c3a34",
"`m c #3c3a3c",
"`n c #744224",
"`o c #8c4624",
"`p c #a44e24",
"`q c #1c120c",
"`r c #2c221c",
"`s c #9c9e9c",
"`t c #3c2a1c",
"`u c #cc6634",
"`v c #7c3e1c",
"`w c #945a34",
"`x c #5c321c",
"`y c #7c4a2c",
"`z c #6c3e24",
"`A c #242224",
"`B c #646664",
"`C c #4c3224",
"`D c #b46234",
"`E c #a45624",
"`F c #342214",
"`G c #141214",
"`H c #4c4e4c",
"`I c #949294",
"`J c #241a14",
"`K c #f47a34",
"`L c #7c7e7c",
"`M c #5c361c",
"`N c #7c421c",
"`O c #9c4e24",
"`P c #24160c",
"`Q c #acaaac",
"`R c #442a1c",
"`S c #343234",
"`T c #341e14",
"`U c #442614",
"`V c #444244",
"`W c #ac5224",
"`X c #743e1c",
"`Y c #c4622c",
"`Z c #140e0c",
"`0 c #646264",
"`1 c #4c2e1c",
"`2 c #2c1e14",
"`3 c #8c8e8c",
"`4 c #743a1c",
"`5 c #e47234",
"`6 c #7c7a7c",
"`7 c #74462c",
"`8 c #9c4a24",
".` c #a45224",
".. c #1c160c",
".# c #2c2624",
".a c #a4a6a4",
".b c #3c2e24",
".c c #d46a2c",
".d c #844a24",
".e c #6c6e6c",
".f c #54321c",
".g c #bc6234",
".h c #34261c",
".i c #545654",
".j c #241e14",
".k c #5c3a1c",
".l c #0c0e0c",
".m c #5c5e5c",
".n c #2c2e2c",
".o c #b45a2c",
".p c #5c4234",
".q c #8c8a8c",
".r c #6c3a1c",
".s c #1c1e1c",
".t c #e46e2c",
".u c #3c261c",
".v c #747674",
".w c #543624",
".x c #3c3e3c",
".y c #74422c",
".z c #944a24",
".A c #2c2224",
".B c #a4a2a4",
".C c #3c2a24",
".D c #7c3e24",
".E c #945a3c",
".F c #64321c",
".G c #6c3e2c",
".H c #242624",
".I c #6c6a6c",
".J c #a45634",
".K c #34221c",
".L c #141614",
".M c #545254",
".N c #9c9a9c",
".O c #fc8244",
".P c #848284",
".Q c #5c3624",
".R c #7c4224",
".S c #9c522c",
".T c #241614",
".U c #acaeac",
".V c #442e24",
".W c #343634",
".X c #44261c",
".Y c #444644",
".Z c #743e24",
".0 c #4c2e24",
".1 c #2c1e1c",
".2 c #a4522c",
".3 c #1c1614",
".4 c #d46a34",
".5 c #844e34",
".6 c #543224",
".7 c #bc6634",
".8 c #241e1c",
"#` c #000000",
"#. c #000000",
"## c #000000",
"#a c #000000",
"#b c #000000",
"#c c #000000",
"#d c #000000",
"#e c #000000",
"#f c #000000",
"#g c #000000",
"#h c #000000",
"#i c #000000",
"#j c #000000",
"#k c #000000",
"#l c #000000",
"#m c #000000",
"#n c #000000",
"#o c #000000",
"#p c #000000",
"#q c #000000",
"#r c #000000",
"#s c #000000",
"#t c #000000",
"#u c #000000",
"#v c #000000",
"#w c #000000",
"#x c #000000",
"#y c #000000",
"#z c #000000",
"#A c #000000",
"#B c #000000",
"#C c #000000",
"#D c #000000",
"#E c #000000",
"#F c #000000",
"#G c #000000",
"#H c #000000",
"#I c #000000",
"#J c #000000",
"#K c #000000",
"#L c #000000",
"#M c #000000",
"#N c #000000",
"#O c #000000",
"#P c #000000",
"#Q c #000000",
"#R c #000000",
"#S c #000000",
"#T c #000000",
"#U c #000000",
"#V c #000000",
"#W c #000000",
"#X c #000000",
"#Y c #000000",
"#Z c #000000",
"#0 c #000000",
"#1 c #000000",
"#2 c #000000",
"#3 c #000000",
"#4 c #000000",
"#5 c #000000",
"#6 c #000000",
"#7 c #000000",
"#8 c #000000",
"a` c #000000",
"a. c #000000",
"a# c #000000",
"aa c #000000",
"ab c #000000",
"ac c #000000",
"ad c #000000",
"ae c #000000",
"af c #000000",
"ag c #000000",
"ah c #000000",
"ai c #000000",
"aj c #000000",
"ak c #000000",
"al c #000000",
"am c #000000",
"an c #000000",
"ao c #000000",
"ap c #000000",
"aq c #000000",
"ar c #000000",
"as c #000000",
"at c #000000",
"au c #000000",
"av c #000000",
"aw c #000000",
"ax c #000000",
"ay c #000000",
"az c #000000",
"aA c #000000",
"aB c #000000",
"aC c #000000",
"aD c #000000",
"aE c #000000",
"aF c #000000",
"aG c #000000",
"aH c #000000",
"aI c #000000",
"aJ c #000000",
"aK c #000000",
"aL c #000000",
"aM c #000000",
"aN c #000000",
"aO c #000000",
"aP c #000000",
"aQ c #000000",
"aR c #000000",
"aS c #000000",
"aT c #000000",
"aU c #000000",
"aV c #000000",
"aW c #000000",
"aX c #000000",
"aY c #000000",
"aZ c #000000",
"a0 c #000000",
"a1 c #000000",
"a2 c #000000",
"a3 c #000000",
"a4 c #000000",
"a5 c #000000",
"a6 c #000000",
"a7 c #000000",
"a8 c #000000",
/* pixels */
".I.e`k.e.e.I`0.m`..M`H.Y`b`m`m`m.n.W`#`#`#`#`#`#`#`#`#`#`#`#`#`#`#`#`#`#`#`#`#`#`#`#`#`#`#`#.n`m`m`m.W.n`V`d`H`.`0`B.e.e.e.e.I.I",
".q.N`s.a.B`I`L.v.I`0`.`..Y`d.Y.i`H`0`#`#`#`#`#`#`#`#`#`#`#`#`#`#`#`#`#`#`#`#`#`#`#`#`#`#`#`#.M.M`H.Y`d`V.M`..m`B`k.v`6`6`6.v.v.v",
"`h`h`h.s`A.s.8.s.s.s`h`h.L`A.s.8.s.#`#`#`#`#`#`#`#`#`#`#`#`#`#`#`#`#`#`#`#`#`#`#`#`#`#`#`#`#`A`A.s.8.s.L.L.s.s.8.s.s.8.s`h.L`h.3",
"`H`H.M`H`H.Y.x`m`b.H`b.n.L.x.x.H.s`S`#`#`#`#`#`#`#`#`#`#`#`#`#`#`#`#`#`#`#`#`#`#`#`#`#`#`#`#`A`b.H.x`S.L.n`b`b.W.Y`H`d`d`H`d.x.x",
".m.m.m`.`.`H`V.x.W`S`S.W.s`.`0.W`A.W`#`#`#`#`#`#`#`#`#`#`#`#`#`#`#`#`#`#`#`#`#`#`#`#`#`#`#`#`A.n`m.m`V.H.W.W.W`d.e`6`k`k`L.P.v.v",
"`h.3.L`h.L`h.L`h.3.L.L.l`h.i`B`m`A.W`#`#`#`#`#`#`#`#`#`#`#`#`#`#`#`#`#`#`#`#`#`#`#`#`#`#`#`#.H`S`V.m.x`h``.L.3`h.s`h.L.s`h`h`h`h",
".H`b.H`b.H`b.H`b.H`A`h.L.3.i.I`m.H.W`#`#`#`#`#`#`#`#`#`#`#`#`#`#`#`#`#`#`#`#`#`#`#`#`#`#`#`#.H`S`V`B.x`h`G.s`A.H`b.H`b.H.H.H`b.H",
"`H`H`H`d.Y`m.W`b.H.s`h`G`h`B.e`m`A.W`#`#`#`#`#`#`#`#`#`#`#`#`#`#`#`#`#`#`#`#`#`#`#`#`#`#`#`#.j`S`V`B`V`h.l`h`A`b.n`m.x`d`H`H`H`d",
".I.P`3.q.q`B.m.M.Y`m.H.L`h.e`k.W.H.W`#`#`#`#`#`#`#`#`#`#`#`#`#`#`#`#`#`#`#`#`#`#`#`#`#`#`#`#.H`S.x.I`V.s.L`S.x.Y.M.m`B`f.B.B.q.e",
".n`m.x.x`m.H`S.n`S.H`A`G.s.I`k.W`A`m`#`#`#`#`#`#`#`#`#`#`#`#`#`#`#`#`#`#`#`#`#`#`#`#`#`#`#`#.H.b.x`B.Y`h.l`A.n.n`S`b`b.x.M.i.x.#",
".W`H`..M.x.H`S`S`S`b`A`G`h`B.e.W`A.W`#`#`#`#`#`#`#`#`#`#`#`#`#`#`#`#`#`#`#`#`#`#`#`#`#`#`#`#.H.n.x`B`V`h`G.H.n`S`S.n.n`V`0`0.Y.n",
"`d`k.q`L`..W.M.Y`d.x.n.L.s`0.I`S`A.W`#`#`#`#`#`#`#`#`#`#`#`#`#`#`#`#`#`#`#`#`#`#`#`#`#`#`#`#.H`S.W`0.x.s.L.W.Y`d`d`V.x.m.q.P.m.Y",
".H.W`m.W`S.s.n`S.n.#.s.L`h.m`B`S`A.W`#`#`#`#`#`#`#`#`#`#`#`#`#`#`#`#`#`#`#`#`#`#`#`#`#`#`#`#.j`S.W`0`V`h`G`A.n.n.n.H.H.W`H.Y.W.#",
"`S`H`.`H`m`A`b`b`b.H.s`G`h.x.x`A.L`S`#`#`#`#`#`#`#`#`#`#`#`#`#`#`#`#`#`#`#`#`#`#`#`#`#`#`#`#.s`A.H`V`S.s`G.s`b`b`b.H`b`V.m.i.x`S",
".Y`k`3.v`..W.x`V.x`m.H`h`h.H`A.L`G.s`#`#`#`#`#`#`#`#`#`#`#`#`#`#`#`#`#`#`#`#`#`#`#`#`#`#`#`#`Z.L`h.H.H.s.L.n`m`V`V`m`V`0`f`6`.`V",
"`b`S`m`S.n.H`b.H`b`A`h.L`A.m.m`m.H`S`#`#`#`#`#`#`#`#`#`#`#`#`#`#`#`#`#`#`#`#`#`#`#`#`#`#`#`#.j.n.W.M.x`A`G.s.H`b.H.H.n.W.Y`V`S`b",
"`0.e.v`B`B`..i.M.Y.W.H.L`h.x`S`A`h.W`#`#`#`#`#`#`#`#`#`#`#`#`#`#`#`#`#`#`#`#`#`#`#`#`#`#`#`#.H.s.s`m.n`h.L`b`V`H.m`0.m`0.v`6`B`.",
".e.P`3`L`k.m.i`d`V`S.s.L`h`m.H`h.L`S`#`#`#`#`#`#`#`#`#`#`#`#`#`#`#`#`#`#`#`#`#`#`#`#`#`#`#`#.j.s`h.W.n.s`G.H`m`d.i.m`.`.`0.e`B.M",
".H`b.H.#.H.H.H.H.H.8`h.s.s`H.Y.n`A`S`#`#`#`#`#`#`#`#`#`#`#`#`#`#`#`#`#`#`#`#`#`#`#`#`#`#`#`#`A`S`S`H`V.s.3`h.s.H.H.#.H.H.H.#.H.H",
"`S.n`S.H`b`b`b.#.H.s`h`h.s`..M.W`A.n`#`#`#`#`#`#`#`#`#`#`#`#`#`#`#`#`#`#`#`#`#`#`#`#`#`#`#`#.j.n.W`.`V`h.L.s.H`b`b.H`b.H`b.n.n`S",
".v`k.m.Y.Y`m.W.W`S.s.n.H.s`.`0`S`A`S`#`#`#`#`#`#`#`#`#`#`#`#`#`#`#`#`#`#`#`#`#`#`#`#`#`#`#`#.H`S.W`..x.s.n`A`b`V`d.M.i.m`B`L.P.I",
"`h.H.8`h.L`h.L`A.s`h.Y.W`A.m.I`S`A.n`#`#`#`#`#`#`#`#`#`#`#`#`#`#`#`#`#`#`#`#`#`#`#`#`#`#`#`#.j`S.W`0`V`b.x`S.s`A.s.s`A`A.H`S`b.H",
".s`A.s.s.s`A`h.H`b`A.e.Y.8.m`B`S`A.n`#`#`#`#`#`#`#`#`#`#`#`#`#`#`#`#`#`#`#`#`#`#`#`#`#`#`#`#`A.n`m.m`V.H`0`d.H`b`A`h.s.s.s.s`A.s",
"`h`h`h`h`h.s`G.W`d.n.q.M`h.m.I`S.H.n`#`#`#`#`#`#`#`#`#`#`#`#`#`#`#`#`#`#`#`#`#`#`#`#`#`#`#`#.j`S`m.m.x`b.v.m.x`H.s.L`h`h`h`h`h`h",
".L.L`G.L.L.s`h`H.v`V.U.m`h`0`B`S`A.n`#`#`#`#`#`#`#`#`#`#`#`#`#`#`#`#`#`#`#`#`#`#`#`#`#`#`#`#.H.n.x`0.x`b`3.I.M.P`b.L.s`G.L`G.L`G",
"`d.i.x`..W.M`S.e`L.x`Q`..L`B.m`S.H.n`#`#`#`#`#`#`#`#`#`#`#`#`#`#`#`#`#`#`#`#`#`#`#`#`#`#`#`#.j`S`m.m.x`b`f.I.i.B.x.Y`V.n.i`S.i.n",
"`B`6.m.P`H.v`m.e`B.n.N.M`h.e`B`S`A`S`#`#`#`#`#`#`#`#`#`#`#`#`#`#`#`#`#`#`#`#`#`#`#`#`#`#`#`#`A.n`m`0.x`b`L`B`m`L.M`.`0`V`L.Y.v`m",
".n`S`b.x.8.x.H`k`.`S`6.Y.s.e.I`S`A.n`#`#`#`#`#`#`#`#`#`#`#`#`#`#`#`#`#`#`#`#`#`#`#`#`#`#`#`#.j`S.W`0.x`b.m.M.x.m.x.n`m.s.Y.s.x`h",
"`h.L`G.L.l.8.L`d`m`S`0.W`h.I`0`S.H.n`#`#`#`#`#`#`#`#`#`#`#`#`#`#`#`#`#`#`#`#`#`#`#`#`#`#`#`#.H`S`m.m.x`A`H`H.x`V`b.L.s``.3.l`h`Z",
".H.s`h`A.L.n`h.W.H.n.i`S.L.I.m.W`A.n`#`#`#`#`#`#`#`#`#`#`#`#`#`#`#`#`#`#`#`#`#`#`#`#`#`#`#`#.j.n.x.m.x`A.Y`d`b`b`b.s`b.L`A`G.H.L",
".L`G.L`h.l`h.s.n.#.H.x.H.L.e`0`S.H.n`#`#`#`#`#`#`#`#`#`#`#`#`#`#`#`#`#`#`#`#`#`#`#`#`#`#`#`#.H`S`m.m.x`h`S`S.n`b.H.s`h.l`h.l`G.L",
"`G`G`G`h`h.L`h`A.s.s`m`h.L`0.m`S`A.n`#`#`#`#`#`#`#`#`#`#`#`#`#`#`#`#`#`#`#`#`#`#`#`#`#`#`#`#.j.n`m`0`m`G.H`b.H`A.s`h.L`h.L.L`G`G",
".s.s`h.L.s`h.L`h.s.s.n.L`G.m.m.W`A`S`#`#`#`#`#`#`#`#`#`#`#`#`#`#`#`#`#`#`#`#`#`#`#`#`#`#`#`#`A`S.W.m`m.l.H`A.H`h`h`h`h`h`h.s`h.s",
".W.W.W.n`b.H`b`b`S.s`b`h`G`B.m`S`A.n`#`#`#`#`#`#`#`#`#`#`#`#`#`#`#`#`#`#`#`#`#`#`#`#`#`#`#`#.j`S.x`0.x.L`A.s`b`S.H.n.n.n`S.W`m`m",
".q.q`L`0.M`d`V.Y`H.n`b`A.L`0.m`S`A.n`#`#`#`#`#`#`#`#`#`#`#`#`#`#`#`#`#`#`#`#`#`#`#`#`#`#`#`#`A.n`m.m.x.3.H.s`V.x.x.x`V.M.m`k.v`6",
".Y`V`m.n.H.H.H`b`b.H.s.H`h`.`..W`A`S`#`#`#`#`#`#`#`#`#`#`#`#`#`#`#`#`#`#`#`#`#`#`#`#`#`#`#`#.j`S`m.m`V.s`A`h.n.n.#.H.H`b`S.x.x.x",
"`m.W.W.n`b.H`b.n.n`S`A.s.L`.`.`S`A.n`#`#`#`#`#`#`#`#`#`#`#`#`#`#`#`#`#`#`#`#`#`#`#`#`#`#`#`#.H.n.x.m.x.l`A.n`S.n.n.n`b.n`S.x`m.W",
"`L.v`k`B`.`H.Y.Y`d.x.n`b`G`..i.W`A.n`#`#`#`#`#`#`#`#`#`#`#`#`#`#`#`#`#`#`#`#`#`#`#`#`#`#`#`#.j`S`m`0.x.L.H.n`m.W`m.W.x.x`H.m`.`H",
"`S`S.W`S.H.8.s`A`h`h`G.L.l.i.i`S.H.n`#`#`#`#`#`#`#`#`#`#`#`#`#`#`#`#`#`#`#`#`#`#`#`#`#`#`#`#`A.n`m.m`m``.L.L`h.s`h`h`A.#`S.x`S.n",
".M`B`I`0`d`S.W.W`S.n.H.s`G.M.M`S`A.n`#`#`#`#`#`#`#`#`#`#`#`#`#`#`#`#`#`#`#`#`#`#`#`#`#`#`#`#.j`S.W.m`m`G.s`b`S`S.W`S`m.i`B`6.m`V",
"`m.Y.I.Y.x.H.#`A`A`A.L`h``.n.n`A.s`S`#`#`#`#`#`#`#`#`#`#`#`#`#`#`#`#`#`#`#`#`#`#`#`#`#`#`#`#`A.H.H`S`A```h`h.s.H.H`A.n`V`H`.`V.n",
".M`0`f`0.M.W`d.x.x.W`b.H.l`V.Y.n`A.n`#`#`#`#`#`#`#`#`#`#`#`#`#`#`#`#`#`#`#`#`#`#`#`#`#`#`#`#.j.n`S`H`S.l.H.n`m.x.Y.x`V`..e`L`0.Y",
".W`V.i.x`m.H.W`S.n.n`A`h`G.M.i`S`A`S`#`#`#`#`#`#`#`#`#`#`#`#`#`#`#`#`#`#`#`#`#`#`#`#`#`#`#`#`A`S`m.m.x`G.s.H.n`S`S`b.n.x`H.M.x`S",
"`S.Y.M.x.n.s`A.s.8.s.L.L``.n.n`h.s.n`#`#`#`#`#`#`#`#`#`#`#`#`#`#`#`#`#`#`#`#`#`#`#`#`#`#`#`#.j.s.s`S`A```G.L.s.s`A.s`A.x.M.i`V.H",
".M`B`k`..M.W.x.x.x`m`b.H`G.W.W`A.8.n`#`#`#`#`#`#`#`#`#`#`#`#`#`#`#`#`#`#`#`#`#`#`#`#`#`#`#`#.H`b.H.x`b.l.H`S`m.x`V.W.x`0`6`L`0`V",
".H`b.n.H.H`h`A.H`A.s.L.L`G`0.i`S`A`b`#`#`#`#`#`#`#`#`#`#`#`#`#`#`#`#`#`#`#`#`#`#`#`#`#`#`#`#.j.n`m.m.x.l.L`h`A.H.H`h.8`b.W`m.n.H",
".e`k`L`B.M.x`m.n.n`S`A.s`G.m.i`S`A`b`#`#`#`#`#`#`#`#`#`#`#`#`#`#`#`#`#`#`#`#`#`#`#`#`#`#`#`#.j.n.x`0.x`G.s.H`S`S`S.W.x.Y.m.m`d`d",
"`6`k.v.I.m.i`H`d.x`m`b.H`G.m`.`S.s`b`#`#`#`#`#`#`#`#`#`#`#`#`#`#`#`#`#`#`#`#`#`#`#`#`#`#`#`#`A.n`m.m.x`G`b.n`V`H`..m`0`0`B`B.m`.",
".n.n`S.n`S.n`S`b`S`b.s`A`G`..i.W`A`b`#`#`#`#`#`#`#`#`#`#`#`#`#`#`#`#`#`#`#`#`#`#`#`#`#`#`#`#.j.n.x`0.x`G.s`A.n`S`S.n`S.n.n`S.n`S",
".n`b.H`b.H.#.H.H.H`A.s`h.l`.`..W`A`b`#`#`#`#`#`#`#`#`#`#`#`#`#`#`#`#`#`#`#`#`#`#`#`#`#`#`#`#`A.n.x`B`V`G.L.8.H.H.H`b.H.#.H`b`b`b",
"`b`b`b.H.H`A`A`A.H`A`h.s.L`H.m`S.s`b`#`#`#`#`#`#`#`#`#`#`#`#`#`#`#`#`#`#`#`#`#`#`#`#`#`#`#`#.s`S`V`B`S.L`h.s`A`A`A`A`A.H.H`b.H.n",
".e.m.m.m.i`.`H`V.x.W`b.H.L`.`.`S.H.n`#`#`#`#`#`#`#`#`#`#`#`#`#`#`#`#`#`#`#`#`#`#`#`#`#`#`#`#.j.n`V`B`m`h.H.n.W`m`m.Y.i.M.m`0.M.M",
".m`..i`..i.i.M`d.Y.x`b.H`h.i.i`S`A.#`#`#`#`#`#`#`#`#`#`#`#`#`#`#`#`#`#`#`#`#`#`#`#`#`#`#`#`#.j.n.W`0.x`h.H.W.Y`d`H`.`k.v.v`L.e`0",
"`A.H`b.n.n`b`b`b`b.H`h.s.L.M`H`S.s.H`#`#`#`#`#`#`#`#`#`#`#`#`#`#`#`#`#`#`#`#`#`#`#`#`#`#`#`#`h`S.W`..x.3.s`A`b.n`S`S.n.W`S.n`b.H",
"`A.H`b.n`b`S`S.n`S`S.H.#.L`H`H`S`A.H`#`#`#`#`#`#`#`#`#`#`#`#`#`#`#`#`#`#`#`#`#`#`#`#`#`#`#`#...W.W.i`S.s`A`b.W`S`S.W.n.n.n`b.H`A",
"`A`A`A`A.8`A.H.H.H.H`A`A`h`b.n`A.L`G`#`#`#`#`#`#`#`#`#`#`#`#`#`#`#`#`#`#`#`#`#`#`#`#`#`#`#`#`Z.H.H.n`A`h.s.H`A.H`A.s.H.8`A`A`A`A",
"`H.x.W.H`A.x.m.m.M.x`b.s.W`d.M.Y`m.s`#`#`#`#`#`#`#`#`#`#`#`#`#`#`#`#`#`#`#`#`#`#`#`#`#`#`#`#`A`m`d`d.x`b.H`S`V`H.M`H.n`A.n.W.x.Y",
".I`d`m`b.H`V`.`.`H.x`S.H.W`d.i`H`V.s`#`#`#`#`#`#`#`#`#`#`#`#`#`#`#`#`#`#`#`#`#`#`#`#`#`#`#`#.#.x`B`B`d.n`A.W`d.m.i`H.W`A`S.x`d.M",
".n.H.H`A.s`A.H`b`b.#.s.L.s.H`b`A`A.L`#`#`#`#`#`#`#`#`#`#`#`#`#`#`#`#`#`#`#`#`#`#`#`#`#`#`#`#...H`b`b`A`h`h.H.#`b.H.8.s`h`A`A.H`b",
".K.3`t.w.V.3.3`t.G`t.3.V.0.V`h.L.8`e`#`#`#`#`#`#`#`#`#`#`#`#`#`#`#`#`#`#`#`#`#`#`#`#`#`#`#`#`2.s.L.#`1.V`J..`1.f`J`G`J.V.V`J.3.u",
"`r.F`u.g.f.C`E`K.7.6`4.t`i`y.A.p.E.G`#`#`#`#`#`#`#`#`#`#`#`#`#`#`#`#`#`#`#`#`#`#`#`#`#`#`#`#.d.E`l.h`D.t`c`1.k.4.4`7.X.S.O`5.0.w",
".K`o`O.F`2.Q.z.z`a`j`v`p.Z`T.b`o.2`M`#`#`#`#`#`#`#`#`#`#`#`#`#`#`#`#`#`#`#`#`#`#`#`#`#`#`#`#`N`E`n.h`1.``W`g`j`4.o.S.0`U`O`Y.z.K",
"`1`N.F`J.1.r.D.X`q`U`v`g`T.8.0.D`z.u`#`#`#`#`#`#`#`#`#`#`#`#`#`#`#`#`#`#`#`#`#`#`#`#`#`#`#`#`1.R.r.h`J.X`v.r`e`J.f`v.w.3`j`v.Z.K",
"`2`F`P.l.3`T.T`Z.l`e`T.3`Z.L`J`F.j.3`#`#`#`#`#`#`#`#`#`#`#`#`#`#`#`#`#`#`#`#`#`#`#`#`#`#`#`#`J`2.K.T.l`G`e`F.3```q`e`2`G`Z`2`F`J"
};
