/* XPM */
static char *door_21_xpm[] = {
/* width height num_colors chars_per_pixel */
"    64    64      256            2",
/* colors */
"`` c #5f5f5f",
"`. c #5a5a5a",
"`# c #505050",
"`a c #4d4d4d",
"`b c #474747",
"`c c #2a2a2a",
"`d c #393939",
"`e c #3a3a3a",
"`f c #303030",
"`g c #363636",
"`h c #ff00d2",
"`i c #2d2d2d",
"`j c #353535",
"`k c #2c2c2c",
"`l c #414141",
"`m c #4a4a4a",
"`n c #585858",
"`o c #636363",
"`p c #747474",
"`q c #6c6c6c",
"`r c #616161",
"`s c #5d5d5d",
"`t c #595959",
"`u c #454545",
"`v c #4c4c4c",
"`w c #525252",
"`x c #4e4e4e",
"`y c #555555",
"`z c #535353",
"`A c #484848",
"`B c #666666",
"`C c #707070",
"`D c #1e1e1e",
"`E c #1c1c1c",
"`F c #1a1a1a",
"`G c #141414",
"`H c #222222",
"`I c #202020",
"`J c #282828",
"`K c #161616",
"`L c #373737",
"`M c #3f3f3f",
"`N c #3c3c3c",
"`O c #232323",
"`P c #333333",
"`Q c #252525",
"`R c #323232",
"`S c #181818",
"`T c #5b5b5b",
"`U c #606060",
"`V c #272727",
"`W c #4b4b4b",
"`X c #6d6d6d",
"`Y c #0f0f0f",
"`Z c #656565",
"`0 c #3e3e3e",
"`1 c #0c0c0c",
"`2 c #676767",
"`3 c #424242",
"`4 c #3d3d3d",
"`5 c #121212",
"`6 c #646464",
"`7 c #434343",
"`8 c #515151",
".` c #2f2f2f",
".. c #727272",
".# c #464646",
".a c #696969",
".b c #5e5e5e",
".c c #5c5c5c",
".d c #565656",
".e c #6f6f6f",
".f c #686868",
".g c #8a8a8a",
".h c #7a7a7a",
".i c #767676",
".j c #afafaf",
".k c #8c8c8c",
".l c #6b6b6b",
".m c #818181",
".n c #7f7f7f",
".o c #ababab",
".p c #898989",
".q c #a2a2a2",
".r c #6e6e6e",
".s c #9a9a9a",
".t c #7d7d7d",
".u c #717171",
".v c #797979",
".w c #545454",
".x c #6a6a6a",
".y c #090909",
".z c #2c2a2a",
".A c #2d2a28",
".B c #282727",
".C c #252323",
".D c #2a2727",
".E c #2a2a28",
".F c #3f2a1c",
".G c #6c3e27",
".H c #3e281c",
".I c #1c140f",
".J c #422c20",
".K c #4d2f1c",
".L c #462d20",
".M c #181616",
".N c #251e1c",
".O c #271a14",
".P c #28201a",
".Q c #221e1c",
".R c #161414",
".S c #2a2722",
".T c #4e2f1e",
".U c #482c1c",
".V c #281c16",
".W c #1a140f",
".X c #4b2f1e",
".Y c #52301e",
".Z c #f17837",
".0 c #be6537",
".1 c #55301e",
".2 c #723d1e",
".3 c #e56e2f",
".4 c #da6932",
".5 c #7a4a2f",
".6 c #2c2320",
".7 c #5d4133",
".8 c #965b37",
"#` c #6d3e2a",
"#. c #854e30",
"## c #90593a",
"#a c #4a3a30",
"#b c #392a23",
"#c c #b66336",
"#d c #e26e2f",
"#e c #b25827",
"#f c #4e2d18",
"#g c #683c27",
"#h c #d06b36",
"#i c #d1682f",
"#j c #934b23",
"#k c #472716",
"#l c #392012",
"#m c #7d3e1c",
"#n c #a34e20",
"#o c #753e22",
"#p c #322016",
"#q c #3e2c22",
"#r c #874825",
"#s c #a15228",
"#t c #5a351e",
"#u c #774225",
"#v c #a75427",
"#w c #724128",
"#x c #2f231a",
"#y c #4c2c1a",
"#z c #a05227",
"#A c #af5322",
"#B c #6a371c",
"#C c #372014",
"#D c #703c22",
"#E c #b65928",
"#F c #43271a",
"#G c #482818",
"#H c #783d1e",
"#I c #6a371e",
"#J c #321e14",
"#K c #221c1a",
"#L c #4e2f20",
"#M c #793f22",
"#N c #703e23",
"#O c #3d2518",
"#P c #4c2d1e",
"#Q c #7b4223",
"#R c #713d20",
"#S c #35251e",
"#T c #221a16",
"#U c #452518",
"#V c #783e1e",
"#W c #70391c",
"#X c #2c1a14",
"#Y c #231812",
"#Z c #5a301c",
"#0 c #140f0c",
"#1 c #281a12",
"#2 c #20160f",
"#3 c #140f0f",
"#4 c #271c16",
"#5 c #332016",
"#6 c #281e18",
"#7 c #1c1614",
"#8 c #231a14",
"a` c #2a1e1a",
"a. c #201814",
"a# c #160f0c",
"aa c #2c1c14",
"ab c #1e160f",
"ac c #18120c",
"ad c #000000",
"ae c #000000",
"af c #000000",
"ag c #000000",
"ah c #000000",
"ai c #000000",
"aj c #000000",
"ak c #000000",
"al c #000000",
"am c #000000",
"an c #000000",
"ao c #000000",
"ap c #000000",
"aq c #000000",
"ar c #000000",
"as c #000000",
"at c #000000",
"au c #000000",
"av c #000000",
"aw c #000000",
"ax c #000000",
"ay c #000000",
"az c #000000",
"aA c #000000",
"aB c #000000",
"aC c #000000",
"aD c #000000",
"aE c #000000",
"aF c #000000",
"aG c #000000",
"aH c #000000",
"aI c #000000",
"aJ c #000000",
"aK c #000000",
"aL c #000000",
"aM c #000000",
"aN c #000000",
"aO c #000000",
"aP c #000000",
"aQ c #000000",
"aR c #000000",
"aS c #000000",
"aT c #000000",
"aU c #000000",
"aV c #000000",
"aW c #000000",
"aX c #000000",
"aY c #000000",
"aZ c #000000",
"a0 c #000000",
"a1 c #000000",
"a2 c #000000",
"a3 c #000000",
"a4 c #000000",
"a5 c #000000",
"a6 c #000000",
"a7 c #000000",
"a8 c #000000",
/* pixels */
"```.`#`a`b`c`d`e`e`f`g`h`h`h`h`h`h`h`h`h`h`h`h`h`h`h`h`h`h`h`h`h`h`h`h`h`h`h`h`h`h`h`h`h`h`h`h`h`h`h`h`h`h`i`d`e`e`j`k`l`m`#`n`o",
"`p`q`r`s`t`u`v`m`w`x`r`h`h`h`h`h`h`h`h`h`h`h`h`h`h`h`h`h`h`h`h`h`h`h`h`h`h`h`h`h`h`h`h`h`h`h`h`h`h`h`h`h`h`y`z`a`A`m`l`z`.`r`B`C",
"`D`D`E`E`F`G`H`I`D`D`J`h`h`h`h`h`h`h`h`h`h`h`h`h`h`h`h`h`h`h`h`h`h`h`h`h`h`h`h`h`h`h`h`h`h`h`h`h`h`h`h`h`h`I`H`E`I`E`K`F`E`D`D`D",
"`L`k`J`c`k`K`M`N`O`I`P`h`h`h`h`h`h`h`h`h`h`h`h`h`h`h`h`h`h`h`h`h`h`h`h`h`h`h`h`h`h`h`h`h`h`h`h`h`h`h`h`h`h`H`c`Q`M`R`S`i`c`c`j`b",
"`M`j`R`R`j`D`T`U`j`O`g`h`h`h`h`h`h`h`h`h`h`h`h`h`h`h`h`h`h`h`h`h`h`h`h`h`h`h`h`h`h`h`h`h`h`h`h`h`h`h`h`h`h`Q`f`e`U`l`V`P`j`L`W`X",
"`S`S`K`G`Y`F`n`Z`e`O`g`h`h`h`h`h`h`h`h`h`h`h`h`h`h`h`h`h`h`h`h`h`h`h`h`h`h`h`h`h`h`h`h`h`h`h`h`h`h`h`h`h`h`Q`R`l`U`0`F`1`G`S`F`E",
"`J`V`H`E`G`S`n`2`N`O`g`h`h`h`h`h`h`h`h`h`h`h`h`h`h`h`h`h`h`h`h`h`h`h`h`h`h`h`h`h`h`h`h`h`h`h`h`h`h`h`h`h`h`Q`R`3`o`4`F`5`D`O`J`J",
"`c`J`D`S`5`F`6`C`e`O`g`h`h`h`h`h`h`h`h`h`h`h`h`h`h`h`h`h`h`h`h`h`h`h`h`h`h`h`h`h`h`h`h`h`h`h`h`h`h`h`h`h`h`Q`f`3`2`M`E`Y`F`H`c`i",
"`#`b`g`c`S`F`q`p`L`O`g`h`h`h`h`h`h`h`h`h`h`h`h`h`h`h`h`h`h`h`h`h`h`h`h`h`h`h`h`h`h`h`h`h`h`h`h`h`h`h`h`h`h`Q`f`3`2`7`D`K`f`N`A`8",
"`f.``J`I`5`E`q..`L`O`g`h`h`h`h`h`h`h`h`h`h`h`h`h`h`h`h`h`h`h`h`h`h`h`h`h`h`h`h`h`h`h`h`h`h`h`h`h`h`h`h`h`h`Q`f`l`2.#`F`Y`H`k.``f",
"`R`R`k`H`G`F`2`X`j`O`g`h`h`h`h`h`h`h`h`h`h`h`h`h`h`h`h`h`h`h`h`h`h`h`h`h`h`h`h`h`h`h`h`h`h`h`h`h`h`h`h`h`h`Q`f`4`o`7`S`5`Q`f`R`P",
"`A`A`0`i`S`E`U.a`P`O`g`h`h`h`h`h`h`h`h`h`h`h`h`h`h`h`h`h`h`h`h`h`h`h`h`h`h`h`h`h`h`h`h`h`h`h`h`h`h`h`h`h`h`Q`f`L`U`l`I`S`P`u`A`W",
"`f`f`J`D`G`F.b`Z`P`O`g`h`h`h`h`h`h`h`h`h`h`h`h`h`h`h`h`h`h`h`h`h`h`h`h`h`h`h`h`h`h`h`h`h`h`h`h`h`h`h`h`h`h`Q`f`L```l`F`5`H`i`f`f",
"`c`k`V`E`G`E`0`4`O`S.``h`h`h`h`h`h`h`h`h`h`h`h`h`h`h`h`h`h`h`h`h`h`h`h`h`h`h`h`h`h`h`h`h`h`h`h`h`h`h`h`h`h`E`H`V`3`P`I`5`D`c`c`c",
"`l`l`g`J`S`F`J`O`K`Y`D`h`h`h`h`h`h`h`h`h`h`h`h`h`h`h`h`h`h`h`h`h`h`h`h`h`h`h`h`h`h`h`h`h`h`h`h`h`h`h`h`h`h`5`K`S`c`H`I`K`k`N`l`3",
"`J`c`O`F`K`O.c`s`e`Q`P`h`h`h`h`h`h`h`h`h`h`h`h`h`h`h`h`h`h`h`h`h`h`h`h`h`h`h`h`h`h`h`h`h`h`h`h`h`h`h`h`h`h`H.``R`z`0`H`5`E`J`c`c",
"`#.#`L`V`K`S`M`P`I`F`g`h`h`h`h`h`h`h`h`h`h`h`h`h`h`h`h`h`h`h`h`h`h`h`h`h`h`h`h`h`h`h`h`h`h`h`h`h`h`h`h`h`h`O`E`D`d`k`F`G`k`l`#.c",
"`m`l`R`D`K`E`L`J`F`F`R`h`h`h`h`h`h`h`h`h`h`h`h`h`h`h`h`h`h`h`h`h`h`h`h`h`h`h`h`h`h`h`h`h`h`h`h`h`h`h`h`h`h`O`D`E`j.``D`5`Q`e`A`n",
"`Q`Q`I`S`D`D`x`u`i`O.``h`h`h`h`h`h`h`h`h`h`h`h`h`h`h`h`h`h`h`h`h`h`h`h`h`h`h`h`h`h`h`h`h`h`h`h`h`h`h`h`h`h`O`f`f`a`l`D`S`F`H`Q`Q",
"`J`J`E`F`E`E.d.d`j`O`f`h`h`h`h`h`h`h`h`h`h`h`h`h`h`h`h`h`h`h`h`h`h`h`h`h`h`h`h`h`h`h`h`h`h`h`h`h`h`h`h`h`h`O`f`g`t`3`F`F`F`O`c`c",
"`g`P`D`f`Q`D.c`U`P`O`f`h`h`h`h`h`h`h`h`h`h`h`h`h`h`h`h`h`h`h`h`h`h`h`h`h`h`h`h`h`h`h`h`h`h`h`h`h`h`h`h`h`h`O`f`g`.`l`D`k`H`k`3`m",
"`I`D`S.#`j`H.b.a`P`O.``h`h`h`h`h`h`h`h`h`h`h`h`h`h`h`h`h`h`h`h`h`h`h`h`h`h`h`h`h`h`h`h`h`h`h`h`h`h`h`h`h`h`O`f`d```3`J`l.``I`H`D",
"`V`c`O.e`u`D``.f`P`O.``h`h`h`h`h`h`h`h`h`h`h`h`h`h`h`h`h`h`h`h`h`h`h`h`h`h`h`h`h`h`h`h`h`h`h`h`h`h`h`h`h`h`O`f`e`U`l`c`U`m`J`c`H",
"`L`A`f.g`8`F`U`B`P`O.``h`h`h`h`h`h`h`h`h`h`h`h`h`h`h`h`h`h`h`h`h`h`h`h`h`h`h`h`h`h`h`h`h`h`h`h`h`h`h`h`h`h`O`f`e`U`0`J.h.b`N`v`D",
"`#.i`M.j`s`F`6`6`P`O.``h`h`h`h`h`h`h`h`h`h`h`h`h`h`h`h`h`h`h`h`h`h`h`h`h`h`h`h`h`h`h`h`h`h`h`h`h`h`h`h`h`h`O`f`e`U`0`J.k.l`z.m`c",
".l.n`N.o`n`F`B```P`O.``h`h`h`h`h`h`h`h`h`h`h`h`h`h`h`h`h`h`h`h`h`h`h`h`h`h`h`h`h`h`h`h`h`h`h`h`h`h`h`h`h`h`O`f`e`U`0`J.p.f.d.q`M",
".r`Z`i.s`w`F`q`Z`P`O.``h`h`h`h`h`h`h`h`h`h`h`h`h`h`h`h`h`h`h`h`h`h`h`h`h`h`h`h`h`h`h`h`h`h`h`h`h`h`h`h`h`h`O`f`e`U`0`c.t`Z`N.n`8",
".u`t`j.v.#`E`X`2`P`O.``h`h`h`h`h`h`h`h`h`h`h`h`h`h`h`h`h`h`h`h`h`h`h`h`h`h`h`h`h`h`h`h`h`h`h`h`h`h`h`h`h`h`O`f`e`U`0`c`s.w`0`s`4",
"`m`N`P`o`L`F`q`6`P`O.``h`h`h`h`h`h`h`h`h`h`h`h`h`h`h`h`h`h`h`h`h`h`h`h`h`h`h`h`h`h`h`h`h`h`h`h`h`h`h`h`h`h`O`f`e`U`0`H`#`v`N`M`k",
"`j`J`k.w`R`S.x`r`P`O.``h`h`h`h`h`h`h`h`h`h`h`h`h`h`h`h`h`h`h`h`h`h`h`h`h`h`h`h`h`h`h`h`h`h`h`h`h`h`h`h`h`h`O`f`e`U`0`H`u`b`k`i`c",
"`i`V`V`M`Q`K`X`r`P`O.``h`h`h`h`h`h`h`h`h`h`h`h`h`h`h`h`h`h`h`h`h`h`h`h`h`h`h`h`h`h`h`h`h`h`h`h`h`h`h`h`h`h`O`f`e```N`S`P`j`i`c`V",
"`H`D`D`j`E`G`6.b`P`O.``h`h`h`h`h`h`h`h`h`h`h`h`h`h`h`h`h`h`h`h`h`h`h`h`h`h`h`h`h`h`h`h`h`h`h`h`h`h`h`h`h`h`H`f`e`U`e`5`c`V`V`I`I",
"`S`D`E`f`K`5.b`s`P`O.``h`h`h`h`h`h`h`h`h`h`h`h`h`h`h`h`h`h`h`h`h`h`h`h`h`h`h`h`h`h`h`h`h`h`h`h`h`h`h`h`h`h`O`f`e`U`e`Y`V`H`J`F`S",
"`k`P`E`J`S`G`6.b`P`O.``h`h`h`h`h`h`h`h`h`h`h`h`h`h`h`h`h`h`h`h`h`h`h`h`h`h`h`h`h`h`h`h`h`h`h`h`h`h`h`h`h`h`O`f`e`U`N`G`I`E`c`R`J",
".#`v.``k`O`S`r`s`P`O.``h`h`h`h`h`h`h`h`h`h`h`h`h`h`h`h`h`h`h`h`h`h`h`h`h`h`h`h`h`h`h`h`h`h`h`h`h`h`h`h`h`h`O`f`e`U`0`S`c`D`l`l`0",
"`c`k`Q`E`J`F`T`T`P`O.``h`h`h`h`h`h`h`h`h`h`h`h`h`h`h`h`h`h`h`h`h`h`h`h`h`h`h`h`h`h`h`h`h`h`h`h`h`h`h`h`h`h`O`f`e`U`M`E`O`S`i`k`V",
"`i.`.``O`E`G`n`.`P`O.``h`h`h`h`h`h`h`h`h`h`h`h`h`h`h`h`h`h`h`h`h`h`h`h`h`h`h`h`h`h`h`h`h`h`h`h`h`h`h`h`h`h`O`f`e`U`M`Y`H`i`R`f.`",
"`b`b`M.``J`G`T`n`P`O.``h`h`h`h`h`h`h`h`h`h`h`h`h`h`h`h`h`h`h`h`h`h`h`h`h`h`h`h`h`h`h`h`h`h`h`h`h`h`h`h`h`h`O`f`e`U`4`G`V.``L`L`L",
"`I`D`E`G`K`Y`y.d`P`O.``h`h`h`h`h`h`h`h`h`h`h`h`h`h`h`h`h`h`h`h`h`h`h`h`h`h`h`h`h`h`h`h`h`h`h`h`h`h`h`h`h`h`O`f`e`U`d`1`G`K`E`E`E",
"`j`R`f`O`D`5`#`z`R`O.``h`h`h`h`h`h`h`h`h`h`h`h`h`h`h`h`h`h`h`h`h`h`h`h`h`h`h`h`h`h`h`h`h`h`h`h`h`h`h`h`h`h`H`f`d.c`e`5`D`J`R`P`L",
"`O`O`I`S`F`1`i.``H`D.``h`h`h`h`h`h`h`h`h`h`h`h`h`h`h`h`h`h`h`h`h`h`h`h`h`h`h`h`h`h`h`h`h`h`h`h`h`h`h`h`h`h`O`H`Q`P`H.y`E`F`I`O`Q",
"`l`N`L`c`O`Y`7.#`i`O.``h`h`h`h`h`h`h`h`h`h`h`h`h`h`h`h`h`h`h`h`h`h`h`h`h`h`h`h`h`h`h`h`h`h`h`h`h`h`h`h`h`h`O`i`R`a`R`5`O.``e`4`b",
"`f.``k`I`E`5`w.w`P`O.``h`h`h`h`h`h`h`h`h`h`h`h`h`h`h`h`h`h`h`h`h`h`h`h`h`h`h`h`h`h`h`h`h`h`h`h`h`h`h`h`h`h`O`f`e.b`N`5`E`Q`i`f`P",
"`I`D`E`K`G`1`k`i`F`D.``h`h`h`h`h`h`h`h`h`h`h`h`h`h`h`h`h`h`h`h`h`h`h`h`h`h`h`h`h`h`h`h`h`h`h`h`h`h`h`h`h`h`O`I`D`P`H.y`G`S`D`D`H",
"`0`4`d`c`Q`5`d`g`H`I.``h`h`h`h`h`h`h`h`h`h`h`h`h`h`h`h`h`h`h`h`h`h`h`h`h`h`h`h`h`h`h`h`h`h`h`h`h`h`h`h`h`h`O`V`Q`N`k`5`Q`f`e`0`3",
"`Q`O`I`S`K`5``.d`P`H`c`h`h`h`h`h`h`h`h`h`h`h`h`h`h`h`h`h`h`h`h`h`h`h`h`h`h`h`h`h`h`h`h`h`h`h`h`h`h`h`h`h`h`I`f`e`U`4`1`K`F`H`Q`Q",
"`f`k`f`I`I`5.b.d`P`H`c`h`h`h`h`h`h`h`h`h`h`h`h`h`h`h`h`h`h`h`h`h`h`h`h`h`h`h`h`h`h`h`h`h`h`h`h`h`h`h`h`h`h`I`f`e`U`N`5`D`Q`P`f`j",
".#`M`N`J`J`5.c`t`P`H`c`h`h`h`h`h`h`h`h`h`h`h`h`h`h`h`h`h`h`h`h`h`h`h`h`h`h`h`h`h`h`h`h`h`h`h`h`h`h`h`h`h`h`I`f`e`U`N`G`J.``3`a`T",
".`.``k`D`I`5`T`.`P`H`c`h`h`h`h`h`h`h`h`h`h`h`h`h`h`h`h`h`h`h`h`h`h`h`h`h`h`h`h`h`h`h`h`h`h`h`h`h`h`h`h`h`h`I`f`e`6`M`5`D`O.``f`R",
"`V`J`O`E`F`5`t`.`P`H`c`h`h`h`h`h`h`h`h`h`h`h`h`h`h`h`h`h`h`h`h`h`h`h`h`h`h`h`h`h`h`h`h`h`h`h`h`h`h`h`h`h`h`I`f`N`Z`M`5`S`D`V`J`V",
"`O`O`H`E`E`G`#`T`P`H`c`h`h`h`h`h`h`h`h`h`h`h`h`h`h`h`h`h`h`h`h`h`h`h`h`h`h`h`h`h`h`h`h`h`h`h`h`h`h`h`h`h`h`D`f`l`2`P`K`F`E`H`O`H",
"`7`0`j`c`Q`K`n`.`P`H`f`h`h`h`h`h`h`h`h`h`h`h`h`h`h`h`h`h`h`h`h`h`h`h`h`h`h`h`h`h`h`h`h`h`h`h`h`h`h`h`h`h`h`H`f`M.f`N`S`Q.``g`e`e",
"`m`u`4`k`V`S`n.w`R`H`J`h`h`h`h`h`h`h`h`h`h`h`h`h`h`h`h`h`h`h`h`h`h`h`h`h`h`h`h`h`h`h`h`h`h`h`h`h`h`h`h`h`h`D`f`L`o`M`F`V`g`u`m`#",
"`c`c`Q`E`E`S.w`#`R`H`V`h`h`h`h`h`h`h`h`h`h`h`h`h`h`h`h`h`h`h`h`h`h`h`h`h`h`h`h`h`h`h`h`h`h`h`h`h`h`h`h`h`h`E`f`g`n`N`S`E`H`i.``R",
"`R`R`P`Q`V`K`a`a`R`I`Q`h`h`h`h`h`h`h`h`h`h`h`h`h`h`h`h`h`h`h`h`h`h`h`h`h`h`h`h`h`h`h`h`h`h`h`h`h`h`h`h`h`h`E`R`L`y`P`D`H`k`j`R`R",
"`Q`O`V`I`H`S`c`i`O`S`5`h`h`h`h`h`h`h`h`h`h`h`h`h`h`h`h`h`h`h`h`h`h`h`h`h`h`h`h`h`h`h`h`h`h`h`h`h`h`h`h`h`h`Y`Q`Q`i`O`F`I`Q`O`O`O",
"`s`8`4`i`O`g`m`z.#`d`E`h`h`h`h`h`h`h`h`h`h`h`h`h`h`h`h`h`h`h`h`h`h`h`h`h`h`h`h`h`h`h`h`h`h`h`h`h`h`h`h`h`h`O`d`m`a`4`c`O`P`3`w`8",
".c`#`0.``O`L`m`z`a`l`I`h`h`h`h`h`h`h`h`h`h`h`h`h`h`h`h`h`h`h`h`h`h`h`h`h`h`h`h`h`h`h`h`h`h`h`h`h`h`h`h`h`h`J`7`6`6`W`k`O`L`m.c.d",
".z.A.B`H`K`D`Q`J`Q`H`G`h`h`h`h`h`h`h`h`h`h`h`h`h`h`h`h`h`h`h`h`h`h`h`h`h`h`h`h`h`h`h`h`h`h`h`h`h`h`h`h`h`h`S`O`c`k`H`F`F.C.D.E`Q",
".F.G.H.I.J.K.L`E.M.N.O`h`h`h`h`h`h`h`h`h`h`h`h`h`h`h`h`h`h`h`h`h`h`h`h`h`h`h`h`h`h`h`h`h`h`h`h`h`h`h`h`h`h.P.Q.R.S.T.U.V.W.X.Y.O",
".Z.0.1.2.3.4.5.6.7.8#``h`h`h`h`h`h`h`h`h`h`h`h`h`h`h`h`h`h`h`h`h`h`h`h`h`h`h`h`h`h`h`h`h`h`h`h`h`h`h`h`h`h#.###a#b#c#d#e#f#g#h#i",
"#j#k#l#m#n#o#p#q#r#s#t`h`h`h`h`h`h`h`h`h`h`h`h`h`h`h`h`h`h`h`h`h`h`h`h`h`h`h`h`h`h`h`h`h`h`h`h`h`h`h`h`h`h#u#v#w#x#y#z#A#B#C#D#E",
"#F.I#G#H#I#J#K#L#M#N#O`h`h`h`h`h`h`h`h`h`h`h`h`h`h`h`h`h`h`h`h`h`h`h`h`h`h`h`h`h`h`h`h`h`h`h`h`h`h`h`h`h`h#P#Q#R#S#T#U#V#W#X#Y#Z",
"#0`Y#1#C#2#3`G#4#5#6#7`h`h`h`h`h`h`h`h`h`h`h`h`h`h`h`h`h`h`h`h`h`h`h`h`h`h`h`h`h`h`h`h`h`h`h`h`h`h`h`h`h`h#8a`#pa.`5a#aa#Cab`1ac"
};
