/* XPM */
static char *door_13_xpm[] = {
/* width height num_colors chars_per_pixel */
"    64    64      256            2",
/* colors */
"`` c #0c0a0c",
"`. c #5c5a5c",
"`# c #fc02d4",
"`a c #4c2a1c",
"`b c #2c2a2c",
"`c c #b45a24",
"`d c #4c4a4c",
"`e c #2c1a14",
"`f c #848684",
"`g c #6c361c",
"`h c #1c1a1c",
"`i c #dc6a34",
"`j c #4c3a34",
"`k c #3c2214",
"`l c #747274",
"`m c #8c4624",
"`n c #3c3a3c",
"`o c #744224",
"`p c #a44e24",
"`q c #1c120c",
"`r c #2c221c",
"`s c #9c9e9c",
"`t c #5c321c",
"`u c #3c2a1c",
"`v c #cc6634",
"`w c #7c3e1c",
"`x c #945a34",
"`y c #7c4a2c",
"`z c #6c3e24",
"`A c #242224",
"`B c #646664",
"`C c #4c3224",
"`D c #b46234",
"`E c #f47a34",
"`F c #944e24",
"`G c #a45624",
"`H c #342214",
"`I c #141214",
"`J c #4c4e4c",
"`K c #949294",
"`L c #241a14",
"`M c #5c361c",
"`N c #7c7e7c",
"`O c #7c421c",
"`P c #24160c",
"`Q c #acaaac",
"`R c #442a1c",
"`S c #343234",
"`T c #341e14",
"`U c #442614",
"`V c #444244",
"`W c #ac5224",
"`X c #743e1c",
"`Y c #c4622c",
"`Z c #140e0c",
"`0 c #646264",
"`1 c #4c2e1c",
"`2 c #2c1e14",
"`3 c #8c8e8c",
"`4 c #743a1c",
"`5 c #e47234",
"`6 c #7c7a7c",
"`7 c #9c4a24",
"`8 c #74462c",
".` c #a45224",
".. c #1c160c",
".# c #2c2624",
".a c #a4a6a4",
".b c #64321c",
".c c #3c2e24",
".d c #d46a2c",
".e c #844a24",
".f c #6c6e6c",
".g c #54321c",
".h c #bc6234",
".i c #fc8244",
".j c #9c4e24",
".k c #34261c",
".l c #545654",
".m c #241e14",
".n c #5c3a1c",
".o c #0c0e0c",
".p c #5c5e5c",
".q c #2c2e2c",
".r c #b45a2c",
".s c #5c4234",
".t c #8c8a8c",
".u c #6c3a1c",
".v c #1c1e1c",
".w c #e46e2c",
".x c #543624",
".y c #3c261c",
".z c #747674",
".A c #944a24",
".B c #3c3e3c",
".C c #74422c",
".D c #2c2224",
".E c #a4a2a4",
".F c #5c3224",
".G c #3c2a24",
".H c #7c3e24",
".I c #945a3c",
".J c #6c3e2c",
".K c #242624",
".L c #6c6a6c",
".M c #f47a3c",
".N c #a45634",
".O c #34221c",
".P c #141614",
".Q c #545254",
".R c #9c9a9c",
".S c #5c3624",
".T c #848284",
".U c #7c4224",
".V c #241614",
".W c #acaeac",
".X c #442e24",
".Y c #343634",
".Z c #44261c",
".0 c #444644",
".1 c #743e24",
".2 c #4c2e24",
".3 c #2c1e1c",
".4 c #a4522c",
".5 c #1c1614",
".6 c #d46a34",
".7 c #844e34",
".8 c #543224",
"#` c #bc6634",
"#. c #9c522c",
"## c #241e1c",
"#a c #000000",
"#b c #000000",
"#c c #000000",
"#d c #000000",
"#e c #000000",
"#f c #000000",
"#g c #000000",
"#h c #000000",
"#i c #000000",
"#j c #000000",
"#k c #000000",
"#l c #000000",
"#m c #000000",
"#n c #000000",
"#o c #000000",
"#p c #000000",
"#q c #000000",
"#r c #000000",
"#s c #000000",
"#t c #000000",
"#u c #000000",
"#v c #000000",
"#w c #000000",
"#x c #000000",
"#y c #000000",
"#z c #000000",
"#A c #000000",
"#B c #000000",
"#C c #000000",
"#D c #000000",
"#E c #000000",
"#F c #000000",
"#G c #000000",
"#H c #000000",
"#I c #000000",
"#J c #000000",
"#K c #000000",
"#L c #000000",
"#M c #000000",
"#N c #000000",
"#O c #000000",
"#P c #000000",
"#Q c #000000",
"#R c #000000",
"#S c #000000",
"#T c #000000",
"#U c #000000",
"#V c #000000",
"#W c #000000",
"#X c #000000",
"#Y c #000000",
"#Z c #000000",
"#0 c #000000",
"#1 c #000000",
"#2 c #000000",
"#3 c #000000",
"#4 c #000000",
"#5 c #000000",
"#6 c #000000",
"#7 c #000000",
"#8 c #000000",
"a` c #000000",
"a. c #000000",
"a# c #000000",
"aa c #000000",
"ab c #000000",
"ac c #000000",
"ad c #000000",
"ae c #000000",
"af c #000000",
"ag c #000000",
"ah c #000000",
"ai c #000000",
"aj c #000000",
"ak c #000000",
"al c #000000",
"am c #000000",
"an c #000000",
"ao c #000000",
"ap c #000000",
"aq c #000000",
"ar c #000000",
"as c #000000",
"at c #000000",
"au c #000000",
"av c #000000",
"aw c #000000",
"ax c #000000",
"ay c #000000",
"az c #000000",
"aA c #000000",
"aB c #000000",
"aC c #000000",
"aD c #000000",
"aE c #000000",
"aF c #000000",
"aG c #000000",
"aH c #000000",
"aI c #000000",
"aJ c #000000",
"aK c #000000",
"aL c #000000",
"aM c #000000",
"aN c #000000",
"aO c #000000",
"aP c #000000",
"aQ c #000000",
"aR c #000000",
"aS c #000000",
"aT c #000000",
"aU c #000000",
"aV c #000000",
"aW c #000000",
"aX c #000000",
"aY c #000000",
"aZ c #000000",
"a0 c #000000",
"a1 c #000000",
"a2 c #000000",
"a3 c #000000",
"a4 c #000000",
"a5 c #000000",
"a6 c #000000",
"a7 c #000000",
"a8 c #000000",
/* pixels */
".f.L.f`l.f.f.L`0.p`..Q`J.0`b`n`n`n.q.Y`#`#`#`#`#`#`#`#`#`#`#`#`#`#`#`#`#`#`#`#`#`#`#`#`#`#.q`n`n`n.Y.q`V`d`J`.`0`B.f.f.f.f.L.L`B",
".t`3.R`s.a.E`K`N.z.L`0`.`..0`d.0.l`J`0`#`#`#`#`#`#`#`#`#`#`#`#`#`#`#`#`#`#`#`#`#`#`#`#`#`#.Q.Q`J.0`d`V.Q`..p`B`l.z`6`6`6.z.z.z.z",
"`h`h.P`h.v`A.v##.v.v.v`h`h.P`A.v##.v.#`#`#`#`#`#`#`#`#`#`#`#`#`#`#`#`#`#`#`#`#`#`#`#`#`#`#`A`A.v##.v.P.P.v.v##.v.v##.v`h.P`h`h.P",
".l.Q`J.Q`J`J.0.B`n`b.K`b.q.P.B.B.K.v`S`#`#`#`#`#`#`#`#`#`#`#`#`#`#`#`#`#`#`#`#`#`#`#`#`#`#`A`b.K.B`S.P.q`b`b.Y.0`J`d`d`J`d.B.B`n",
"`B.p`..p.p`.`d.0.B.Y`S`S.Y.v`.`0.Y`A.Y`#`#`#`#`#`#`#`#`#`#`#`#`#`#`#`#`#`#`#`#`#`#`#`#`#`#`A.q`n.p`V.K.Y.Y.Y`d.f`6`l`l`N.T.z.z.z",
"`h`h`h`h.P.5.P`h.5.P.P.P.o`h.l`B`n`A.Y`#`#`#`#`#`#`#`#`#`#`#`#`#`#`#`#`#`#`#`#`#`#`#`#`#`#.K`S`V.p.B`h``.P.5`h.v`h.P.v`h`h`h`h.v",
".K`b.K.K`b.K`b.K`b.K`A.v`I`h`.`B`n.K.Y`#`#`#`#`#`#`#`#`#`#`#`#`#`#`#`#`#`#`#`#`#`#`#`#`#`#.K`S`V`B.B`h`I.v`A.K`b.K`b.K.K.K`b.K`b",
"`V`d`J`J`d.0.B.Y`b`b.v`h`I.P`B`l`n`A.Y`#`#`#`#`#`#`#`#`#`#`#`#`#`#`#`#`#`#`#`#`#`#`#`#`#`#.m`S`V`B`V`h.o`h`A`b.q`n.B`d`J`J`J`d`V",
".f.L.T`3.t.t`B.p.Q.0.Y`b.P`h.L`l.Y`A.Y`#`#`#`#`#`#`#`#`#`#`#`#`#`#`#`#`#`#`#`#`#`#`#`#`#`#.K`S.B.L`V.v.P`S.B.0.Q.p`B`f.E.E.t.L.f",
"`S.q.B.B.B`n.K`S.q`S.K`A`I.v.f`l.Y.K.Y`#`#`#`#`#`#`#`#`#`#`#`#`#`#`#`#`#`#`#`#`#`#`#`#`#`#.K.c.B`B.0`h.o`A.q.q`S`b`b.B.Q.l.B`b.Y",
"`n.Y`J`..Q.B.K.Y`S`S`b.v.P`h`B.f.Y`A`n`#`#`#`#`#`#`#`#`#`#`#`#`#`#`#`#`#`#`#`#`#`#`#`#`#`#.K.q.B`B`V`h`I.K.q`S`S.q.q`V`0`0.0.q.B",
".l`d`l.t`N`..Y`J`d.0.B.q`h`h.p.L`S`A.Y`#`#`#`#`#`#`#`#`#`#`#`#`#`#`#`#`#`#`#`#`#`#`#`#`#`#.K`S.Y`0.B.v.P.Y.0`d`d`V.B.p.t.T.p.0`.",
"`S.K.Y`n.Y`S.v`S.q`S`b.v.P`h.p`B`S`A.Y`#`#`#`#`#`#`#`#`#`#`#`#`#`#`#`#`#`#`#`#`#`#`#`#`#`#.m`S.Y`0`V`h`I`A.q.q.q.K.K.Y`J.0.Y.#`S",
".B`S`J.l`J`n`A`b`b`b.K`h.P`h.B.B`A.P`S`#`#`#`#`#`#`#`#`#`#`#`#`#`#`#`#`#`#`#`#`#`#`#`#`#`#.v`A.K`V`S.v`I.v`b`b`b.K`b`V.p.l.B`S`n",
".Q.0`l`K`l`..Y.B`V.B.Y`b.P`h`b`A.P`I.v`#`#`#`#`#`#`#`#`#`#`#`#`#`#`#`#`#`#`#`#`#`#`#`#`#`#`Z.P`h.K.K.v.P.q`n`V`V`n`V`0`f`6`.`V.l",
".q`b`S.Y.Y.q.K`b.K.q`A`h.P`A.p.p`n.K`S`#`#`#`#`#`#`#`#`#`#`#`#`#`#`#`#`#`#`#`#`#`#`#`#`#`#.m.q.Y.Q.B`A`I.v.K`b.K.K.q.Y.0`V`S`b`b",
"`J`0.f.z.L`0`..l.Q.0.Y.#.P.P`V`S.v`h.Y`#`#`#`#`#`#`#`#`#`#`#`#`#`#`#`#`#`#`#`#`#`#`#`#`#`#.K.v.v`n.q`h.P`b`V`J.p`0.p`0.z`6`B`.`V",
"`d.f.T`3`6.f`0.l`d`V`S.v.P.v.Y`b`h`h`S`#`#`#`#`#`#`#`#`#`#`#`#`#`#`#`#`#`#`#`#`#`#`#`#`#`#.m.v`h.Y.q.v`I.K`n`d.l.p`.`.`0.f`B.l.Y",
"`A.K.#.K`b.K.K.K`A.K.v`h.v##`J.0.q`A.q`#`#`#`#`#`#`#`#`#`#`#`#`#`#`#`#`#`#`#`#`#`#`#`#`#`#`A`S`S`J`V.v.5`h.v.K.K.#.K.K.K.#.K.K`A",
".Y`S.q`S.K`b.#`b.K`b.v`h.v`h.l.l.Y`A`S`#`#`#`#`#`#`#`#`#`#`#`#`#`#`#`#`#`#`#`#`#`#`#`#`#`#.m.q.Y`.`V`h.P.v.K`b`b.K`b.K`b.q.q`S.q",
".z.z.z`..0.0.B.Y.Y`S.v.q.K.v.p`0`S`A.q`#`#`#`#`#`#`#`#`#`#`#`#`#`#`#`#`#`#`#`#`#`#`#`#`#`#.K`S.Y`..B.v.q`A`b`V`d.Q.l.p`B`N.T.L.l",
"`h`h.K`A`h.P`h.P`A.v`h.0.Y`A.p.L.q.K.q`#`#`#`#`#`#`#`#`#`#`#`#`#`#`#`#`#`#`#`#`#`#`#`#`#`#.m`S.Y`0`V`b.B`S.v`A.v.v`A`A.K`S`b.K##",
".v.v##.v.v.v`A`h.K`b`A.f.0##.p.L`S`A`S`#`#`#`#`#`#`#`#`#`#`#`#`#`#`#`#`#`#`#`#`#`#`#`#`#`#`A.q`n.p`V.K`0`d.K`b`A`h.v.v.v.v`A.v.v",
"`h`h`h`h`h`h.v`I.Y`d.q.t.Q`h.p`B`S`A.q`#`#`#`#`#`#`#`#`#`#`#`#`#`#`#`#`#`#`#`#`#`#`#`#`#`#.m`S`n.p.B`b.z.p.B`J.v.P`h`h`h`h.P.v`h",
".o.P.P.P.P.P`h`h`J.z`V.W.p`h`0`B`S.K.q`#`#`#`#`#`#`#`#`#`#`#`#`#`#`#`#`#`#`#`#`#`#`#`#`#`#.K.q.B`0.B`b`3.L.Q.T`b.P.v`I.P`I`h`I.o",
"`b`d.l.B`..Y.Q`S.f`N.B`Q`..P`B`0`S`A.q`#`#`#`#`#`#`#`#`#`#`#`#`#`#`#`#`#`#`#`#`#`#`#`#`#`#.m`S`n.p.B`b`f.L.l.E.B.0`V.q.l`S.l.q.q",
".K`B`6.p.T`J.z`n.f`B.q.R.Q`h.f`0`S.K.q`#`#`#`#`#`#`#`#`#`#`#`#`#`#`#`#`#`#`#`#`#`#`#`#`#`#`A.q`n`0.B`b`N`B`n`N.Q`.`0`V`N.0.z`n.q",
"`I.q`S`b.B##.B.K`l`.`S`6.0.v.f`B`S`A.q`#`#`#`#`#`#`#`#`#`#`#`#`#`#`#`#`#`#`#`#`#`#`#`#`#`#.m`S.Y`0.B`b.p.Q.B.p.B.q`n.v.0.v`n`h.v",
"```h.P`I.P.o##.P`d`n`S`0.Y`h.L`B`S.K`S`#`#`#`#`#`#`#`#`#`#`#`#`#`#`#`#`#`#`#`#`#`#`#`#`#`#.K`S`n.p.B`A`J`J.B`V`b.P.v``.5.o.v`Z.o",
".o.K`h`h`A.P.q`h.Y.K.q.l`S.P.L`0`S`A.q`#`#`#`#`#`#`#`#`#`#`#`#`#`#`#`#`#`#`#`#`#`#`#`#`#`#.m.q.B.p.B`A.0`d`b`b`b.v`b.P`A`I.K.P`h",
"`Z.P.P`I`h.o`h.v.q`b.K.B.K.P.f.p.Y`A.q`#`#`#`#`#`#`#`#`#`#`#`#`#`#`#`#`#`#`#`#`#`#`#`#`#`#.K`S`n.p.B`h`S`S.q`b.K.v`h.o`h.o`I.P`I",
"`I`I`I.P`h`h.P`h`A.v.v`n`h`I`B`0`S`A.q`#`#`#`#`#`#`#`#`#`#`#`#`#`#`#`#`#`#`#`#`#`#`#`#`#`#.m.q`n`0`n`I.K`b.K`A.v`h.P`h.P.P`I`I`I",
".v`h.v`h.P`h.v.P`h.v`h.q.P`I.p`.`S.K.q`#`#`#`#`#`#`#`#`#`#`#`#`#`#`#`#`#`#`#`#`#`#`#`#`#`#`A`S.Y.p`n.o.K`A.K`h`h`h`h`h`h.v`h.v`h",
".Y.Y.Y.Y.q`b.K`b`b`S.v`b.5.P`0.p`S`A.q`#`#`#`#`#`#`#`#`#`#`#`#`#`#`#`#`#`#`#`#`#`#`#`#`#`#.m`S.B`0.B.P`A.v`b`S.K.q.q.q`S.Y`n`n.0",
".T`3.t`N`0.Q`d`V.0`J.q`b`A`h`0.p`S.K`S`#`#`#`#`#`#`#`#`#`#`#`#`#`#`#`#`#`#`#`#`#`#`#`#`#`#`A.q`n.p.B.5.K.v`V.B.B.B`V.Q.p`l.z`6.f",
".B.0`V`n.q.K.K.K`b`b.K.v.K`h`.`.`S`A.q`#`#`#`#`#`#`#`#`#`#`#`#`#`#`#`#`#`#`#`#`#`#`#`#`#`#.m`S`n.p`V.v`A`h.q.q.#.K.K`b`S.B.B.B.Y",
".Y`n.Y.Y.q`b.K`b.q.q`S`A.v`I.l.p.q.K.q`#`#`#`#`#`#`#`#`#`#`#`#`#`#`#`#`#`#`#`#`#`#`#`#`#`#.K.q.B.p.B.o`A.q`S.q.q.q`b.q`S.B`n.Y`S",
".L`6.z`l`B`.`J.0.0`d.B.q`b`I.p.l.Y`A`S`#`#`#`#`#`#`#`#`#`#`#`#`#`#`#`#`#`#`#`#`#`#`#`#`#`#.m`S`n`0.B.P.K.q`n.Y`n.Y.B.B`J.p`.`J.0",
".q`S.Y.Y`S.K##.v`A`h`h`I.P.o.l`.`S`A.q`#`#`#`#`#`#`#`#`#`#`#`#`#`#`#`#`#`#`#`#`#`#`#`#`#`#`A.q`n.p`n``.P.P`h.v`h`h`A.#`S.B`S.q`b",
"`S.Q`B`K`0`d`S.Y.Y`S.q.K.v`I.Q.Q.q.K.q`#`#`#`#`#`#`#`#`#`#`#`#`#`#`#`#`#`#`#`#`#`#`#`#`#`#.m`S.Y.p`n`I.v`b`S`S.Y`S`n.l`B`6.p`V.Y",
".K`n.0.L`d.B.K.#`A.K`A.P`h``.q.q`A.v`S`#`#`#`#`#`#`#`#`#`#`#`#`#`#`#`#`#`#`#`#`#`#`#`#`#`#`A.K.K`S`A```h`h.v.K.K`A.q`V`J`.`V.q`b",
".Y.Q`0`f.p.Q.Y`d`V`n.Y`b.K.o`V.0.q`A.q`#`#`#`#`#`#`#`#`#`#`#`#`#`#`#`#`#`#`#`#`#`#`#`#`#`#.m.q`S`J`S.o.K.q`n.B.0.B`V`..f`N`0.0.B",
".K.Y`V.l.B`n.K`S.q.q.q`A`h`I.Q.l`S`A`S`#`#`#`#`#`#`#`#`#`#`#`#`#`#`#`#`#`#`#`#`#`#`#`#`#`#`A`S`n.p.B`I.v.K.q`S`S`b.q.B`J.Q.B`S`b",
".v`S.0.Q`n`S.v`A.v`A`h.P.P``.q.q`h.v.q`#`#`#`#`#`#`#`#`#`#`#`#`#`#`#`#`#`#`#`#`#`#`#`#`#`#.m.v.v`S`A```I.P.v.v`A.v`A.B.Q.l`V.K.v",
"`S.Q`0`l.l.Q.Y.B.B.B`n`b.K`I.Y.Y`A##.q`#`#`#`#`#`#`#`#`#`#`#`#`#`#`#`#`#`#`#`#`#`#`#`#`#`#.K`b.K.B`b.o.K`S`n.B`V.Y.B`0`6`N`0`V.Y",
"`A.K`b.q`b.K`h`A.K`A.v.P.P`I.p`.`S`A`b`#`#`#`#`#`#`#`#`#`#`#`#`#`#`#`#`#`#`#`#`#`#`#`#`#`#.m.q`n.p.B.o.P`h`A.K.K`h##`b.Y`n.q.K`A",
".f.f.f.T`0`J`V.Y`S`b`S`A.v`I.p.l`S.v`b`#`#`#`#`#`#`#`#`#`#`#`#`#`#`#`#`#`#`#`#`#`#`#`#`#`#.m.q.B`0.B`I.v.K`S`S`S.Y.B.0.p.p`d`d.B",
"`6`6`l.z.L.p.l`J.0.B.B.K`b`I.p`.`S.K`b`#`#`#`#`#`#`#`#`#`#`#`#`#`#`#`#`#`#`#`#`#`#`#`#`#`#`A.q`n.p.B`I`b.q`V`J`..p`0`0`B`B.p`..Q",
".q.q.q`S.q`S.q`S.q`S`b.v`A.o`.`.`S.v`b`#`#`#`#`#`#`#`#`#`#`#`#`#`#`#`#`#`#`#`#`#`#`#`#`#`#.m.q.B`0.B`I.v`A.q`S`S.q`S.q.q`S.q.q.q",
"`b.q`b.K`b.K.#.K.K`b`A.v`h`I.l.p`S.K`b`#`#`#`#`#`#`#`#`#`#`#`#`#`#`#`#`#`#`#`#`#`#`#`#`#`#`A.q.B`B`V`I.P##.K.K.K`b.K.#.K`b`b.q`b",
"`S.q`b`b`b`A`A`A`A`A.v.v`h.P.Q`.`S.v`b`#`#`#`#`#`#`#`#`#`#`#`#`#`#`#`#`#`#`#`#`#`#`#`#`#`#.v`S`V`B`S.P`h.v`A`A`A`A`A.K.K`b.K.q.q",
".z.L.p.p.p.l.l`J.0.B.Y`b.K.P.l`..Y`A.q`#`#`#`#`#`#`#`#`#`#`#`#`#`#`#`#`#`#`#`#`#`#`#`#`#`#.m.q`V`B`n`h.K.q.Y`n`n.0.l.Q.p`0.Q.Q.Q",
".p`0.l.l`..l`.`J`d.0.B`b.#`h.l.l`S`A`b`#`#`#`#`#`#`#`#`#`#`#`#`#`#`#`#`#`#`#`#`#`#`#`#`#`#.m.q.Y`0.B`h.K.Y.0`d`J`.`l.z.z`N.f`0.p",
".K`A.K`b.q.q`b.q`b`b.K.v`h`h.Q`J`S.v.K`#`#`#`#`#`#`#`#`#`#`#`#`#`#`#`#`#`#`#`#`#`#`#`#`#`#`h`S.Y`..B.5.v`A`b.q`S`S.q.Y`S.q`b.K.#",
".K`A.K.q.q`b`S`S`S`S`S.K.K.P`J`J`S`A.K`#`#`#`#`#`#`#`#`#`#`#`#`#`#`#`#`#`#`#`#`#`#`#`#`#`#...Y.Y.l`S.v`A`b.Y`S`S.Y.q.q.q`b.K`A.K",
"`A`A`A`A##.v`A`A.K`A.K`A`A.P`b.q.K.P`I`#`#`#`#`#`#`#`#`#`#`#`#`#`#`#`#`#`#`#`#`#`#`#`#`#`#`Z.K.K.q`A`h.v.K`A.K`A.v.K##`A`A`A`A`A",
".l`J.B.Y.K.K.B.p.p.Q.B.q`A.Y`d.Q.0`n.v`#`#`#`#`#`#`#`#`#`#`#`#`#`#`#`#`#`#`#`#`#`#`#`#`#`#`A`n`d`d.B`b.K`S`V`J.Q`J.q`A.q.Y.B.0.l",
".z.L`d`n`b.K`V`..p`J.B.q`A.Y`d.l`J`V.v`#`#`#`#`#`#`#`#`#`#`#`#`#`#`#`#`#`#`#`#`#`#`#`#`#`#.#.B`B`B`d.q`A.Y`d.p.l`J.Y`A`S.B`d.Q.p",
"`S.q`b.K`A.v`A.K`b`b.#`A.P##.K.K.K`A`I`#`#`#`#`#`#`#`#`#`#`#`#`#`#`#`#`#`#`#`#`#`#`#`#`#`#...K`b`b`A`h`h.K.#`b.K##.v`h`A`A.K`b.q",
".S`H`q.G.8.X.5.5`u.J`u.5.X.2.X.v.5##`e`#`#`#`#`#`#`#`#`#`#`#`#`#`#`#`#`#`#`#`#`#`#`#`#`#`#`2.v.P.#`1.X`L..`1.g`L`I`L.X.X`L.5.y.F",
"`F.3.n`v.h.g.G.N`E#`.g`4.w`i`y.D.s.I.J`#`#`#`#`#`#`#`#`#`#`#`#`#`#`#`#`#`#`#`#`#`#`#`#`#`#.e.I`j.k`D.w`c`1.n.6.6`8.Z#..i`5.2.x`E",
"`k.O`m.j.b`2.S.A.A`a`k`w`p.1`T.c`m.4`M`#`#`#`#`#`#`#`#`#`#`#`#`#`#`#`#`#`#`#`#`#`#`#`#`#`#`O`G`o.k`1.``W`g`k`4.r#..2`U.j`Y.A.O.u",
".5`1`O.b`L.3`g`w.Z`q`U`w.b`T##.2.1`z.y`#`#`#`#`#`#`#`#`#`#`#`#`#`#`#`#`#`#`#`#`#`#`#`#`#`#`1.U.u.k`L.Z`w.u`e`L.g`w.x.5`k`w.1.O.5",
"..`L`H.V`Z.P`T`L`Z.o`e`H.V`Z.P`L`H`2.5`#`#`#`#`#`#`#`#`#`#`#`#`#`#`#`#`#`#`#`#`#`#`#`#`#`#`L`2.O.V.o`I`e`H.5```q`e`2`I`Z`2`H`L`Z"
};
