/* XPM */
static char *door_20_xpm[] = {
/* width height num_colors chars_per_pixel */
"    64    64      256            2",
/* colors */
"`` c #636363",
"`. c #5f5f5f",
"`# c #5a5a5a",
"`a c #505050",
"`b c #4d4d4d",
"`c c #474747",
"`d c #2a2a2a",
"`e c #393939",
"`f c #3a3a3a",
"`g c #303030",
"`h c #363636",
"`i c #ff00d2",
"`j c #2d2d2d",
"`k c #353535",
"`l c #2c2c2c",
"`m c #414141",
"`n c #4a4a4a",
"`o c #585858",
"`p c #686868",
"`q c #7f7f7f",
"`r c #747474",
"`s c #6c6c6c",
"`t c #616161",
"`u c #5d5d5d",
"`v c #595959",
"`w c #454545",
"`x c #4c4c4c",
"`y c #525252",
"`z c #4e4e4e",
"`A c #555555",
"`B c #535353",
"`C c #484848",
"`D c #666666",
"`E c #707070",
"`F c #767676",
"`G c #1e1e1e",
"`H c #1c1c1c",
"`I c #1a1a1a",
"`J c #141414",
"`K c #222222",
"`L c #202020",
"`M c #282828",
"`N c #161616",
"`O c #3d3d3d",
"`P c #373737",
"`Q c #3f3f3f",
"`R c #3c3c3c",
"`S c #232323",
"`T c #333333",
"`U c #252525",
"`V c #323232",
"`W c #181818",
"`X c #5b5b5b",
"`Y c #606060",
"`Z c #272727",
"`0 c #4b4b4b",
"`1 c #6d6d6d",
"`2 c #777777",
"`3 c #0f0f0f",
"`4 c #656565",
"`5 c #3e3e3e",
"`6 c #0c0c0c",
"`7 c #676767",
"`8 c #424242",
".` c #121212",
".. c #646464",
".# c #5e5e5e",
".a c #434343",
".b c #515151",
".c c #2f2f2f",
".d c #727272",
".e c #464646",
".f c #696969",
".g c #5c5c5c",
".h c #565656",
".i c #6f6f6f",
".j c #8a8a8a",
".k c #7a7a7a",
".l c #afafaf",
".m c #8c8c8c",
".n c #6b6b6b",
".o c #818181",
".p c #ababab",
".q c #898989",
".r c #a2a2a2",
".s c #6e6e6e",
".t c #9a9a9a",
".u c #7d7d7d",
".v c #717171",
".w c #797979",
".x c #545454",
".y c #6a6a6a",
".z c #090909",
".A c #2c2a2a",
".B c #2d2a28",
".C c #282727",
".D c #252323",
".E c #2a2727",
".F c #2a2a28",
".G c #1c1614",
".H c #3f2a1c",
".I c #6c3e27",
".J c #3e281c",
".K c #1c140f",
".L c #422c20",
".M c #4d2f1c",
".N c #462d20",
".O c #181616",
".P c #251e1c",
".Q c #271a14",
".R c #28201a",
".S c #221e1c",
".T c #161414",
".U c #2a2722",
".V c #4e2f1e",
".W c #482c1c",
".X c #281c16",
".Y c #1a140f",
".Z c #4b2f1e",
".0 c #52301e",
".1 c #120f0f",
".2 c #a05630",
".3 c #f17837",
".4 c #be6537",
".5 c #55301e",
".6 c #723d1e",
".7 c #e56e2f",
".8 c #da6932",
"#` c #7a4a2f",
"#. c #2c2320",
"## c #5d4133",
"#a c #965b37",
"#b c #6d3e2a",
"#c c #854e30",
"#d c #90593a",
"#e c #4a3a30",
"#f c #392a23",
"#g c #b66336",
"#h c #e26e2f",
"#i c #b25827",
"#j c #4e2d18",
"#k c #683c27",
"#l c #d06b36",
"#m c #d1682f",
"#n c #70452d",
"#o c #984b23",
"#p c #934b23",
"#q c #472716",
"#r c #392012",
"#s c #7d3e1c",
"#t c #a34e20",
"#u c #753e22",
"#v c #322016",
"#w c #3e2c22",
"#x c #874825",
"#y c #a15228",
"#z c #5a351e",
"#A c #774225",
"#B c #a75427",
"#C c #724128",
"#D c #2f231a",
"#E c #4c2c1a",
"#F c #a05227",
"#G c #af5322",
"#H c #6a371c",
"#I c #372014",
"#J c #703c22",
"#K c #b65928",
"#L c #9e5128",
"#M c #773e20",
"#N c #43271a",
"#O c #482818",
"#P c #783d1e",
"#Q c #6a371e",
"#R c #321e14",
"#S c #221c1a",
"#T c #4e2f20",
"#U c #793f22",
"#V c #703e23",
"#W c #3d2518",
"#X c #4c2d1e",
"#Y c #7b4223",
"#Z c #713d20",
"#0 c #35251e",
"#1 c #221a16",
"#2 c #452518",
"#3 c #783e1e",
"#4 c #70391c",
"#5 c #2c1a14",
"#6 c #231812",
"#7 c #5a301c",
"#8 c #7e411e",
"a` c #271812",
"a. c #140f0c",
"a# c #281a12",
"aa c #20160f",
"ab c #140f0f",
"ac c #271c16",
"ad c #332016",
"ae c #281e18",
"af c #231a14",
"ag c #2a1e1a",
"ah c #201814",
"ai c #160f0c",
"aj c #2c1c14",
"ak c #1e160f",
"al c #18120c",
"am c #2f1c14",
"an c #000000",
"ao c #000000",
"ap c #000000",
"aq c #000000",
"ar c #000000",
"as c #000000",
"at c #000000",
"au c #000000",
"av c #000000",
"aw c #000000",
"ax c #000000",
"ay c #000000",
"az c #000000",
"aA c #000000",
"aB c #000000",
"aC c #000000",
"aD c #000000",
"aE c #000000",
"aF c #000000",
"aG c #000000",
"aH c #000000",
"aI c #000000",
"aJ c #000000",
"aK c #000000",
"aL c #000000",
"aM c #000000",
"aN c #000000",
"aO c #000000",
"aP c #000000",
"aQ c #000000",
"aR c #000000",
"aS c #000000",
"aT c #000000",
"aU c #000000",
"aV c #000000",
"aW c #000000",
"aX c #000000",
"aY c #000000",
"aZ c #000000",
"a0 c #000000",
"a1 c #000000",
"a2 c #000000",
"a3 c #000000",
"a4 c #000000",
"a5 c #000000",
"a6 c #000000",
"a7 c #000000",
"a8 c #000000",
/* pixels */
"```.`#`a`b`c`d`e`f`f`g`h`i`i`i`i`i`i`i`i`i`i`i`i`i`i`i`i`i`i`i`i`i`i`i`i`i`i`i`i`i`i`i`i`i`i`i`i`i`i`i`i`j`e`f`f`k`l`m`n`a`o```p",
"`q`r`s`t`u`v`w`x`n`y`z`t`i`i`i`i`i`i`i`i`i`i`i`i`i`i`i`i`i`i`i`i`i`i`i`i`i`i`i`i`i`i`i`i`i`i`i`i`i`i`i`i`A`B`b`C`n`m`B`#`t`D`E`F",
"`G`G`G`H`H`I`J`K`L`G`G`M`i`i`i`i`i`i`i`i`i`i`i`i`i`i`i`i`i`i`i`i`i`i`i`i`i`i`i`i`i`i`i`i`i`i`i`i`i`i`i`i`L`K`H`L`H`N`I`H`G`G`G`G",
"`O`P`l`M`d`l`N`Q`R`S`L`T`i`i`i`i`i`i`i`i`i`i`i`i`i`i`i`i`i`i`i`i`i`i`i`i`i`i`i`i`i`i`i`i`i`i`i`i`i`i`i`i`K`d`U`Q`V`W`j`d`d`k`c`b",
"`w`Q`k`V`V`k`G`X`Y`k`S`h`i`i`i`i`i`i`i`i`i`i`i`i`i`i`i`i`i`i`i`i`i`i`i`i`i`i`i`i`i`i`i`i`i`i`i`i`i`i`i`i`U`g`f`Y`m`Z`T`k`P`0`1`2",
"`W`W`W`N`J`3`I`o`4`f`S`h`i`i`i`i`i`i`i`i`i`i`i`i`i`i`i`i`i`i`i`i`i`i`i`i`i`i`i`i`i`i`i`i`i`i`i`i`i`i`i`i`U`V`m`Y`5`I`6`J`W`I`H`H",
"`M`M`Z`K`H`J`W`o`7`R`S`h`i`i`i`i`i`i`i`i`i`i`i`i`i`i`i`i`i`i`i`i`i`i`i`i`i`i`i`i`i`i`i`i`i`i`i`i`i`i`i`i`U`V`8```O`I.``G`S`M`M`M",
"`h`d`M`G`W.``I..`E`f`S`h`i`i`i`i`i`i`i`i`i`i`i`i`i`i`i`i`i`i`i`i`i`i`i`i`i`i`i`i`i`i`i`i`i`i`i`i`i`i`i`i`U`g`8`7`Q`H`3`I`K`d`j`f",
".#`a`c`h`d`W`I`s`r`P`S`h`i`i`i`i`i`i`i`i`i`i`i`i`i`i`i`i`i`i`i`i`i`i`i`i`i`i`i`i`i`i`i`i`i`i`i`i`i`i`i`i`U`g`8`7.a`G`N`g`R`C.b.#",
".c`g.c`M`L.``H`s.d`P`S`h`i`i`i`i`i`i`i`i`i`i`i`i`i`i`i`i`i`i`i`i`i`i`i`i`i`i`i`i`i`i`i`i`i`i`i`i`i`i`i`i`U`g`m`7.e`I`3`K`l.c`g`d",
"`k`V`V`l`K`J`I`7`1`k`S`h`i`i`i`i`i`i`i`i`i`i`i`i`i`i`i`i`i`i`i`i`i`i`i`i`i`i`i`i`i`i`i`i`i`i`i`i`i`i`i`i`U`g`O``.a`W.``U`g`V`T.c",
"`z`C`C`5`j`W`H`Y.f`T`S`h`i`i`i`i`i`i`i`i`i`i`i`i`i`i`i`i`i`i`i`i`i`i`i`i`i`i`i`i`i`i`i`i`i`i`i`i`i`i`i`i`U`g`P`Y`m`L`W`T`w`C`0.a",
".c`g`g`M`G`J`I.#`4`T`S`h`i`i`i`i`i`i`i`i`i`i`i`i`i`i`i`i`i`i`i`i`i`i`i`i`i`i`i`i`i`i`i`i`i`i`i`i`i`i`i`i`U`g`P`.`m`I.``K`j`g`g`Z",
"`d`d`l`Z`H`J`H`5`O`S`W.c`i`i`i`i`i`i`i`i`i`i`i`i`i`i`i`i`i`i`i`i`i`i`i`i`i`i`i`i`i`i`i`i`i`i`i`i`i`i`i`i`H`K`Z`8`T`L.``G`d`d`d`U",
"`m`m`m`h`M`W`I`M`S`N`3`G`i`i`i`i`i`i`i`i`i`i`i`i`i`i`i`i`i`i`i`i`i`i`i`i`i`i`i`i`i`i`i`i`i`i`i`i`i`i`i`i.``N`W`d`K`L`N`l`R`m`8`f",
"`d`M`d`S`I`N`S.g`u`f`U`T`i`i`i`i`i`i`i`i`i`i`i`i`i`i`i`i`i`i`i`i`i`i`i`i`i`i`i`i`i`i`i`i`i`i`i`i`i`i`i`i`K.c`V`B`5`K.``H`M`d`d`M",
".h`a.e`P`Z`N`W`Q`T`L`I`h`i`i`i`i`i`i`i`i`i`i`i`i`i`i`i`i`i`i`i`i`i`i`i`i`i`i`i`i`i`i`i`i`i`i`i`i`i`i`i`i`S`H`G`e`l`I`J`l`m`a.g.#",
".h`n`m`V`G`N`H`P`M`I`I`V`i`i`i`i`i`i`i`i`i`i`i`i`i`i`i`i`i`i`i`i`i`i`i`i`i`i`i`i`i`i`i`i`i`i`i`i`i`i`i`i`S`G`H`k.c`G.``U`f`C`o`u",
"`U`U`U`L`W`G`G`z`w`j`S.c`i`i`i`i`i`i`i`i`i`i`i`i`i`i`i`i`i`i`i`i`i`i`i`i`i`i`i`i`i`i`i`i`i`i`i`i`i`i`i`i`S`g`g`b`m`G`W`I`K`U`U`Z",
"`d`M`M`H`I`H`H.h.h`k`S`g`i`i`i`i`i`i`i`i`i`i`i`i`i`i`i`i`i`i`i`i`i`i`i`i`i`i`i`i`i`i`i`i`i`i`i`i`i`i`i`i`S`g`h`v`8`I`I`I`S`d`d`M",
"`P`h`T`G`g`U`G.g`Y`T`S`g`i`i`i`i`i`i`i`i`i`i`i`i`i`i`i`i`i`i`i`i`i`i`i`i`i`i`i`i`i`i`i`i`i`i`i`i`i`i`i`i`S`g`h`#`m`G`l`K`l`8`n`B",
"`N`L`G`W.e`k`K.#.f`T`S.c`i`i`i`i`i`i`i`i`i`i`i`i`i`i`i`i`i`i`i`i`i`i`i`i`i`i`i`i`i`i`i`i`i`i`i`i`i`i`i`i`S`g`e`.`8`M`m.c`L`K`G`G",
"`I`Z`d`S.i`w`G`.`p`T`S.c`i`i`i`i`i`i`i`i`i`i`i`i`i`i`i`i`i`i`i`i`i`i`i`i`i`i`i`i`i`i`i`i`i`i`i`i`i`i`i`i`S`g`f`Y`m`d`Y`n`M`d`K`I",
"`J`P`C`g.j.b`I`Y`D`T`S.c`i`i`i`i`i`i`i`i`i`i`i`i`i`i`i`i`i`i`i`i`i`i`i`i`i`i`i`i`i`i`i`i`i`i`i`i`i`i`i`i`S`g`f`Y`5`M.k.#`R`x`G`W",
"`I`a`F`Q.l`u`I....`T`S.c`i`i`i`i`i`i`i`i`i`i`i`i`i`i`i`i`i`i`i`i`i`i`i`i`i`i`i`i`i`i`i`i`i`i`i`i`i`i`i`i`S`g`f`Y`5`M.m.n`B.o`d`W",
"`V.n`q`R.p`o`I`D`.`T`S.c`i`i`i`i`i`i`i`i`i`i`i`i`i`i`i`i`i`i`i`i`i`i`i`i`i`i`i`i`i`i`i`i`i`i`i`i`i`i`i`i`S`g`f`Y`5`M.q`p.h.r`Q.a",
"`f.s`4`j.t`y`I`s`4`T`S.c`i`i`i`i`i`i`i`i`i`i`i`i`i`i`i`i`i`i`i`i`i`i`i`i`i`i`i`i`i`i`i`i`i`i`i`i`i`i`i`i`S`g`f`Y`5`d.u`4`R`q.b`v",
"`U.v`v`k.w.e`H`1`7`T`S.c`i`i`i`i`i`i`i`i`i`i`i`i`i`i`i`i`i`i`i`i`i`i`i`i`i`i`i`i`i`i`i`i`i`i`i`i`i`i`i`i`S`g`f`Y`5`d`u.x`5`u`O`g",
"`N`n`R`T```P`I`s..`T`S.c`i`i`i`i`i`i`i`i`i`i`i`i`i`i`i`i`i`i`i`i`i`i`i`i`i`i`i`i`i`i`i`i`i`i`i`i`i`i`i`i`S`g`f`Y`5`K`a`x`R`Q`l`N",
"`H`k`M`l.x`V`W.y`t`T`S.c`i`i`i`i`i`i`i`i`i`i`i`i`i`i`i`i`i`i`i`i`i`i`i`i`i`i`i`i`i`i`i`i`i`i`i`i`i`i`i`i`S`g`f`Y`5`K`w`c`l`j`d`G",
"`G`j`Z`Z`Q`U`N`1`t`T`S.c`i`i`i`i`i`i`i`i`i`i`i`i`i`i`i`i`i`i`i`i`i`i`i`i`i`i`i`i`i`i`i`i`i`i`i`i`i`i`i`i`S`g`f`.`R`W`T`k`j`d`Z`H",
"`I`K`G`G`k`H`J...#`T`S.c`i`i`i`i`i`i`i`i`i`i`i`i`i`i`i`i`i`i`i`i`i`i`i`i`i`i`i`i`i`i`i`i`i`i`i`i`i`i`i`i`K`g`f`Y`f.``d`Z`Z`L`L`I",
"`W`W`G`H`g`N.`.#`u`T`S.c`i`i`i`i`i`i`i`i`i`i`i`i`i`i`i`i`i`i`i`i`i`i`i`i`i`i`i`i`i`i`i`i`i`i`i`i`i`i`i`i`S`g`f`Y`f`3`Z`K`M`I`W`I",
"`M`l`T`H`M`W`J...#`T`S.c`i`i`i`i`i`i`i`i`i`i`i`i`i`i`i`i`i`i`i`i`i`i`i`i`i`i`i`i`i`i`i`i`i`i`i`i`i`i`i`i`S`g`f`Y`R`J`L`H`d`V`M`j",
"`8.e`x.c`l`S`W`t`u`T`S.c`i`i`i`i`i`i`i`i`i`i`i`i`i`i`i`i`i`i`i`i`i`i`i`i`i`i`i`i`i`i`i`i`i`i`i`i`i`i`i`i`S`g`f`Y`5`W`d`G`m`m`5`Q",
"`U`d`l`U`H`M`I`X`X`T`S.c`i`i`i`i`i`i`i`i`i`i`i`i`i`i`i`i`i`i`i`i`i`i`i`i`i`i`i`i`i`i`i`i`i`i`i`i`i`i`i`i`S`g`f`Y`Q`H`S`W`j`l`Z`U",
"`M`j.c.c`S`H`J`o`#`T`S.c`i`i`i`i`i`i`i`i`i`i`i`i`i`i`i`i`i`i`i`i`i`i`i`i`i`i`i`i`i`i`i`i`i`i`i`i`i`i`i`i`S`g`f`Y`Q`3`K`j`V`g.c`l",
"`w`c`c`Q.c`M`J`X`o`T`S.c`i`i`i`i`i`i`i`i`i`i`i`i`i`i`i`i`i`i`i`i`i`i`i`i`i`i`i`i`i`i`i`i`i`i`i`i`i`i`i`i`S`g`f`Y`O`J`Z.c`P`P`P`h",
"`L`L`G`H`J`N`3`A.h`T`S.c`i`i`i`i`i`i`i`i`i`i`i`i`i`i`i`i`i`i`i`i`i`i`i`i`i`i`i`i`i`i`i`i`i`i`i`i`i`i`i`i`S`g`f`Y`e`6`J`N`H`H`H`H",
"`P`k`V`g`S`G.``a`B`V`S.c`i`i`i`i`i`i`i`i`i`i`i`i`i`i`i`i`i`i`i`i`i`i`i`i`i`i`i`i`i`i`i`i`i`i`i`i`i`i`i`i`K`g`e.g`f.``G`M`V`T`P`g",
"`M`S`S`L`W`I`6`j.c`K`G.c`i`i`i`i`i`i`i`i`i`i`i`i`i`i`i`i`i`i`i`i`i`i`i`i`i`i`i`i`i`i`i`i`i`i`i`i`i`i`i`i`S`K`U`T`K.z`H`I`L`S`U`S",
"`n`m`R`P`d`S`3.a.e`j`S.c`i`i`i`i`i`i`i`i`i`i`i`i`i`i`i`i`i`i`i`i`i`i`i`i`i`i`i`i`i`i`i`i`i`i`i`i`i`i`i`i`S`j`V`b`V.``S.c`f`O`c`O",
"`T`g.c`l`L`H.``y.x`T`S.c`i`i`i`i`i`i`i`i`i`i`i`i`i`i`i`i`i`i`i`i`i`i`i`i`i`i`i`i`i`i`i`i`i`i`i`i`i`i`i`i`S`g`f.#`R.``H`U`j`g`T`d",
"`S`L`G`H`N`J`6`l`j`I`G.c`i`i`i`i`i`i`i`i`i`i`i`i`i`i`i`i`i`i`i`i`i`i`i`i`i`i`i`i`i`i`i`i`i`i`i`i`i`i`i`i`S`L`G`T`K.z`J`W`G`G`K`G",
"`Q`5`O`e`d`U.``e`h`K`L.c`i`i`i`i`i`i`i`i`i`i`i`i`i`i`i`i`i`i`i`i`i`i`i`i`i`i`i`i`i`i`i`i`i`i`i`i`i`i`i`i`S`Z`U`R`l.``U`g`f`5`8`h",
"`K`U`S`L`W`N.``..h`T`K`d`i`i`i`i`i`i`i`i`i`i`i`i`i`i`i`i`i`i`i`i`i`i`i`i`i`i`i`i`i`i`i`i`i`i`i`i`i`i`i`i`L`g`f`Y`O`6`N`I`K`U`U`H",
"`P`g`l`g`L`L.`.#.h`T`K`d`i`i`i`i`i`i`i`i`i`i`i`i`i`i`i`i`i`i`i`i`i`i`i`i`i`i`i`i`i`i`i`i`i`i`i`i`i`i`i`i`L`g`f`Y`R.``G`U`T`g`k`h",
"`b.e`Q`R`M`M.`.g`v`T`K`d`i`i`i`i`i`i`i`i`i`i`i`i`i`i`i`i`i`i`i`i`i`i`i`i`i`i`i`i`i`i`i`i`i`i`i`i`i`i`i`i`L`g`f`Y`R`J`M.c`8`b`X`X",
".c.c.c`l`G`L.``X`#`T`K`d`i`i`i`i`i`i`i`i`i`i`i`i`i`i`i`i`i`i`i`i`i`i`i`i`i`i`i`i`i`i`i`i`i`i`i`i`i`i`i`i`L`g`f..`Q.``G`S.c`g`V`V",
"`Z`Z`M`S`H`I.``v`#`T`K`d`i`i`i`i`i`i`i`i`i`i`i`i`i`i`i`i`i`i`i`i`i`i`i`i`i`i`i`i`i`i`i`i`i`i`i`i`i`i`i`i`L`g`R`4`Q.``W`G`Z`M`Z`Z",
"`K`S`S`K`H`H`J`a`X`T`K`d`i`i`i`i`i`i`i`i`i`i`i`i`i`i`i`i`i`i`i`i`i`i`i`i`i`i`i`i`i`i`i`i`i`i`i`i`i`i`i`i`G`g`m`7`T`N`I`H`K`S`K`K",
"`z.a`5`k`d`U`N`o`#`T`K`g`i`i`i`i`i`i`i`i`i`i`i`i`i`i`i`i`i`i`i`i`i`i`i`i`i`i`i`i`i`i`i`i`i`i`i`i`i`i`i`i`K`g`Q`p`R`W`U.c`h`f`f`w",
"`a`n`w`O`l`Z`W`o.x`V`K`M`i`i`i`i`i`i`i`i`i`i`i`i`i`i`i`i`i`i`i`i`i`i`i`i`i`i`i`i`i`i`i`i`i`i`i`i`i`i`i`i`G`g`P```Q`I`Z`h`w`n`a`X",
"`l`d`d`U`H`H`W.x`a`V`K`Z`i`i`i`i`i`i`i`i`i`i`i`i`i`i`i`i`i`i`i`i`i`i`i`i`i`i`i`i`i`i`i`i`i`i`i`i`i`i`i`i`H`g`h`o`R`W`H`K`j.c`V`V",
"`V`V`V`T`U`Z`N`b`b`V`L`U`i`i`i`i`i`i`i`i`i`i`i`i`i`i`i`i`i`i`i`i`i`i`i`i`i`i`i`i`i`i`i`i`i`i`i`i`i`i`i`i`H`V`P`A`T`G`K`l`k`V`V`V",
"`S`U`S`Z`L`K`W`d`j`S`W.``i`i`i`i`i`i`i`i`i`i`i`i`i`i`i`i`i`i`i`i`i`i`i`i`i`i`i`i`i`i`i`i`i`i`i`i`i`i`i`i`3`U`U`j`S`I`L`U`S`S`S`K",
"`u`u.b`O`j`S`h`n`B.e`e`H`i`i`i`i`i`i`i`i`i`i`i`i`i`i`i`i`i`i`i`i`i`i`i`i`i`i`i`i`i`i`i`i`i`i`i`i`i`i`i`i`S`e`n`b`O`d`S`T`8`y.b`0",
"`X.g`a`5.c`S`P`n`B`b`m`L`i`i`i`i`i`i`i`i`i`i`i`i`i`i`i`i`i`i`i`i`i`i`i`i`i`i`i`i`i`i`i`i`i`i`i`i`i`i`i`i`M.a....`0`l`S`P`n.g.h`b",
"`U.A.B.C`K`N`G`U`M`U`K`J`i`i`i`i`i`i`i`i`i`i`i`i`i`i`i`i`i`i`i`i`i`i`i`i`i`i`i`i`i`i`i`i`i`i`i`i`i`i`i`i`W`S`d`l`K`I`I.D.E.F`U`L",
".G.H.I.J.K.L.M.N`H.O.P.Q`i`i`i`i`i`i`i`i`i`i`i`i`i`i`i`i`i`i`i`i`i`i`i`i`i`i`i`i`i`i`i`i`i`i`i`i`i`i`i`i.R.S.T.U.V.W.X.Y.Z.0.Q.1",
".2.3.4.5.6.7.8#`#.###a#b`i`i`i`i`i`i`i`i`i`i`i`i`i`i`i`i`i`i`i`i`i`i`i`i`i`i`i`i`i`i`i`i`i`i`i`i`i`i`i`i#c#d#e#f#g#h#i#j#k#l#m#n",
"#o#p#q#r#s#t#u#v#w#x#y#z`i`i`i`i`i`i`i`i`i`i`i`i`i`i`i`i`i`i`i`i`i`i`i`i`i`i`i`i`i`i`i`i`i`i`i`i`i`i`i`i#A#B#C#D#E#F#G#H#I#J#K#L",
"#M#N.K#O#P#Q#R#S#T#U#V#W`i`i`i`i`i`i`i`i`i`i`i`i`i`i`i`i`i`i`i`i`i`i`i`i`i`i`i`i`i`i`i`i`i`i`i`i`i`i`i`i#X#Y#Z#0#1#2#3#4#5#6#7#8",
"a`a.`3a##Iaaab`Jacadae.G`i`i`i`i`i`i`i`i`i`i`i`i`i`i`i`i`i`i`i`i`i`i`i`i`i`i`i`i`i`i`i`i`i`i`i`i`i`i`i`iafag#vah.`aiaj#Iak`6alam"
};
