/* XPM */
static char *door_1_xpm[] = {
/* width height num_colors chars_per_pixel */
"    64    64      256            2",
/* colors */
"`` c #0c0a0c",
"`. c #5c5a5c",
"`# c #fc02d4",
"`a c #4c2a1c",
"`b c #2c2a24",
"`c c #b45a24",
"`d c #4c4a4c",
"`e c #2c1a14",
"`f c #6c361c",
"`g c #848684",
"`h c #f47a34",
"`i c #d46a2c",
"`j c #1c1a14",
"`k c #4c3a34",
"`l c #8c4624",
"`m c #3c3a3c",
"`n c #744224",
"`o c #a44e24",
"`p c #945a34",
"`q c #3c2214",
"`r c #3c2a1c",
"`s c #bc6634",
"`t c #7c4a2c",
"`u c #1c120c",
"`v c #6c6e6c",
"`w c #5c321c",
"`x c #2c221c",
"`y c #7c3e1c",
"`z c #9c9e9c",
"`A c #6c3e24",
"`B c #242224",
"`C c #844224",
"`D c #a45624",
"`E c #4c3224",
"`F c #c4622c",
"`G c #e46e2c",
"`H c #5c361c",
"`I c #944e24",
"`J c #7c421c",
"`K c #343234",
"`L c #241a14",
"`M c #442a1c",
"`N c #342214",
"`O c #141214",
"`P c #646664",
"`Q c #b46234",
"`R c #4c4e4c",
"`S c #949294",
"`T c #dc6a2c",
"`U c #cc662c",
"`V c #24160c",
"`W c #7c7a7c",
"`X c #acaaac",
"`Y c #643624",
"`Z c #542e1c",
"`0 c #342e2c",
"`1 c #341e14",
"`2 c #743a1c",
"`3 c #fc8e3c",
"`4 c #9c4a24",
"`5 c #444244",
"`6 c #ac5224",
"`7 c #848284",
"`8 c #442614",
".` c #743e1c",
".. c #ac562c",
".# c #7c462c",
".a c #cc6e3c",
".b c #140e0c",
".c c #646264",
".d c #4c2e1c",
".e c #2c2e2c",
".f c #bc5e2c",
".g c #2c1e14",
".h c #6c3a1c",
".i c #8c8e8c",
".j c #fc8244",
".k c #1c1e1c",
".l c #944a24",
".m c #74462c",
".n c #a45224",
".o c #a45a34",
".p c #3c2e24",
".q c #844a24",
".r c #1c160c",
".s c #747674",
".t c #64321c",
".u c #2c2624",
".v c #a4a6a4",
".w c #a45634",
".x c #54321c",
".y c #5c3a1c",
".z c #9c4e24",
".A c #7c4624",
".B c #241e14",
".C c #442e1c",
".D c #34261c",
".E c #545654",
".F c #dc6e34",
".G c #cc6a34",
".H c #0c0e0c",
".I c #5c5e5c",
".J c #2c2a2c",
".K c #b45a2c",
".L c #5c4234",
".M c #8c8a8c",
".N c #f47a3c",
".O c #d46a34",
".P c #1c1a1c",
".Q c #543624",
".R c #8c4a2c",
".S c #3c3e3c",
".T c #74422c",
".U c #945a3c",
".V c #3c261c",
".W c #3c2a24",
".X c #747274",
".Y c #5c3224",
".Z c #2c2224",
".0 c #7c3e24",
".1 c #a4a2a4",
".2 c #6c3e2c",
".3 c #242624",
".4 c #a4562c",
".5 c #cc622c",
".6 c #e47234",
".7 c #5c3624",
".8 c #7c4224",
"#` c #343634",
"#. c #9c9a9c",
"## c #6c6a6c",
"#a c #545254",
"#b c #844e34",
"#c c #bc6234",
"#d c #9c522c",
"#e c #141614",
"#f c #7c7e7c",
"#g c #acaeac",
"#h c #643a24",
"#i c #444644",
"#j c #34221c",
"#k c #dc6a34",
"#l c #cc6634",
"#m c #241614",
"#n c #44261c",
"#o c #743e24",
"#p c #4c2e24",
"#q c #2c1e1c",
"#r c #6c3a24",
"#s c #a4522c",
"#t c #1c1614",
"#u c #543224",
"#v c #241e1c",
"#w c #442e24",
"#x c #000000",
"#y c #000000",
"#z c #000000",
"#A c #000000",
"#B c #000000",
"#C c #000000",
"#D c #000000",
"#E c #000000",
"#F c #000000",
"#G c #000000",
"#H c #000000",
"#I c #000000",
"#J c #000000",
"#K c #000000",
"#L c #000000",
"#M c #000000",
"#N c #000000",
"#O c #000000",
"#P c #000000",
"#Q c #000000",
"#R c #000000",
"#S c #000000",
"#T c #000000",
"#U c #000000",
"#V c #000000",
"#W c #000000",
"#X c #000000",
"#Y c #000000",
"#Z c #000000",
"#0 c #000000",
"#1 c #000000",
"#2 c #000000",
"#3 c #000000",
"#4 c #000000",
"#5 c #000000",
"#6 c #000000",
"#7 c #000000",
"#8 c #000000",
"a` c #000000",
"a. c #000000",
"a# c #000000",
"aa c #000000",
"ab c #000000",
"ac c #000000",
"ad c #000000",
"ae c #000000",
"af c #000000",
"ag c #000000",
"ah c #000000",
"ai c #000000",
"aj c #000000",
"ak c #000000",
"al c #000000",
"am c #000000",
"an c #000000",
"ao c #000000",
"ap c #000000",
"aq c #000000",
"ar c #000000",
"as c #000000",
"at c #000000",
"au c #000000",
"av c #000000",
"aw c #000000",
"ax c #000000",
"ay c #000000",
"az c #000000",
"aA c #000000",
"aB c #000000",
"aC c #000000",
"aD c #000000",
"aE c #000000",
"aF c #000000",
"aG c #000000",
"aH c #000000",
"aI c #000000",
"aJ c #000000",
"aK c #000000",
"aL c #000000",
"aM c #000000",
"aN c #000000",
"aO c #000000",
"aP c #000000",
"aQ c #000000",
"aR c #000000",
"aS c #000000",
"aT c #000000",
"aU c #000000",
"aV c #000000",
"aW c #000000",
"aX c #000000",
"aY c #000000",
"aZ c #000000",
"a0 c #000000",
"a1 c #000000",
"a2 c #000000",
"a3 c #000000",
"a4 c #000000",
"a5 c #000000",
"a6 c #000000",
"a7 c #000000",
"a8 c #000000",
/* pixels */
".3`m.S`5.S`5#a#a.E.I.X.X`v##`v.X`v`v##.c.I`.#a`R#i.J`m`m`m.e#``#`#.e`m`m`m#`.e`5`d`R`..c`P`v`v`v`v####`P.I.E`R`d#i`5`K`5.S.S#`.k",
".S`R`..I.c.I.c.I.c.X.M.i.M.i#.`z.v.1`S#f.s##.c`.`.#i`d#i.E`R.c`#`##a#a`R#i`d`5#a`..I`P.X.s`W`W`W.s.s.s.s####`.`..E`.#a.I.I.E`d.e",
"#e#t#e.k.k#t#e#e#e#e#e.P.P#e.P.P.k`B.k#v.k.k.k.P.P#e`B.k#v.k.u`#`#`B`B.k#v.k#e#e.k.k#v.k.k#v.k.P#e.P.P#t#e.P#e#e.P#e#e`B.k#t.P#e",
".J.3`B.P.P#e.J#i`R`.`v.I.E#a`R#a`R`R#i.S`m.J.3.J.e#e.S.S.3.k`K`#`#`B`b.3.S`K#e.e.J.J#`#i`R`d`d`R`d.S.S`m.S#``m`m.J.k`O.k.P.3.J.J",
"`m.S.S.3.P.3.c.i`7.s`7.X##.I`..I.I`.`d#i.S#``K`K#`.k`..c#``B#``#`#`B.e`m.I`5.3#`#`#``d`v`W.X.X#f`7.s.s.s.c#a#a.I.E`m`O.k.e#i`5#`",
"`R`v#a.e#e.J`P.S`B.P.P.k.P#e.P#e.P#e.P#e.P#t#e#e.H.P.E`P`m`B#``#`#.3`K`5.I.S.P``#e#t.P.k.P#e.k.P.P.P.P.k.k#e.k.3`5`5#e.P#i.X.X`5",
".E.M`R`K.P#`.X.e.k.P.P.3.3.J.3.J.3.J.3.J.3.3`B.k`O.P.E##`m.3#``#`#.3`K`5`P.S.P`O.k`B.3.J.3.J.3.3.3.3.J.3`B.P.P.k`m`R#e`B#a.E.s`5",
"#a.I.u.3#e`0`..e.P.P.k#``5`d`R`R`d#i`m#`.J.J.k.P`O.P.c`v`m`B#``#`#`B`K`5`P`5.P.H.P`B.J.e`m.S`d`R#a`R`d`5.e.k.P.P`K#i#e.k.e.u`P#`",
"#i`d.e`m#e.3#a#`.e.e`d.c`v##`7.i.M.M`P.I#a#i#`.J#e.P`v.s#`.3#``#`#.3`0.S##`5.k#e`K.S#i#a.I`P`g`z.1.M##`v`.#``K.J#``5#e#v.S.3`..e",
"#i`m.J#`#e.u`d`B.P.k.3`K`K.e.S.S.S`m.3`0.e`0.3`B.H.k##.X#``B`m`#`#`B`K`5`P#i.P.H`B.e.e`K.J.J.S.E.E.S.J#``K`B.k.k`B.S#e`B.S`B`d.e",
"#i#`.J`m.P.J.E.e.k.k.J`m#`#``R`.#a.S.3#``K`K.e`B#e.P`P`v#``B#``#`#.3`0.S.c`5#e#e.3.e`K`K.e.e`5.c.c`5.e.S#``B.k.k`K`5.P.3.S`B`R.e",
"`5#`.e.S.P.e.E`K.J.e.S.E.E`d.X.M#f`.#`#a#i`d.S.e#e.k.c##`K`B#``#`#.3`0#`.I`5`B#e`K#i`d`d`5.S.I.M`7.I#i`.#a`K.e.J#``5#e.3`5.k`d.e",
"`5`K.e#i.P.e.E.J.k`B.3#``K.3#``m#``0.k.e`K.e.J.k#e.P.I`P`K`B#``#`#.3`K#`.c.S.P`O`B.e.e.e.J.3#``R#i#`.u`K.e`B`B`B`K#i.P`B`5`B`d.e",
"#i`K`K#i.P.e`..3.P#e`B`K.S`K`R`.`d`m`B.J.J.e.3.P#e.P.S.S`B#e`K`#`#`j`B.3`5#`.k`O.k.J.J.J.3.u`5.I.E.S`K#`.e.k#e.k.e`d#e.3`5`B#i.e",
"#i.e`K`R.P.e.I`K.3.e#``d#a#i.X.i.s`.#`.S`5.S`m.3.P.P.3`B#e`O.k`#`#`O#e`j.J`B.k#e.e.S.S#i`m.S`P.M`W`.`5.E#i`0.e.u.e#i.P.3`R.3#i.e",
"#i`0.e#a.P.e`v#`.P.P`B.J.e.J`K`m`K.e.3.e.3.J`B.P#e`B.I.I`m.3`K`#`#`B.e`K#a.S.3`O.P.J.J.J.3.e#``5`5.e.J.e.3.k.k.k`K#i.P.3`d`B#i.e",
"#i.e.J.E.k#`##`K`B.3#``5`R.c`v.s`P`P`..E#a#i#`.3#e.P.S`K`B.P#``#`#`B.k.k`m.e.P#e.J.S`R.I.I.I.c.s`W`P.I`5.S.J.3`B.J#i.k.J`R.k`d.J",
"`d`K`m.I#v`m`P.3.P.k`K`m`d`v`7.i`W.X.I.E`d`5`K.k#e.P`m.3.P#e`K`#`#`B.k.P#`.e.k`O.3`m`d.E.I`.`..c`v`P#a#``K.3.k#e`B#i#v.e`..J`d.e",
"#i#`.S`P.k`m`P`B#e.P`B`B.k.3.3.J.3.3.3.3.3.3#v.P.k.k`R#i.e`B`0`#`#`B`K`0`R`5.k#e.P`B.3.3.u.3.3.3.u.3.3`B`B`B.P`O`B`5`B.e`..e`d.e",
".S`K#i#a`B#``P.u.J.e.e#`#``K`K.e.J.J.u.J.u.J.P.P.P.k`.#a#``B.e`#`#`B.e#``.`5.P.P.P`B.J.J.3.J.3.J.e.e`K.e.e.e.J`B.3.S.k.J`..e`5.e",
"#`.S`d`m.k`K`P.S.E`v.X.s.s.s.X.I#i#i.S#`#``K.k.e.3.k`..c`K`B`K`#`#`B`K#``..S.k.e.k.e.S`R#a`..I`P`W`7##.E`d.S#`#`.e`m`B.J`R.S#i.u",
"#``5`R#``B#`##`K#`.J#e.P.P.P.3#v.P#e.P#e`B.k.P#i#``B.I##`K`B.e`#`#`B`0#`.c`5.3`5.e`B`B.k.k.k`B.3`K.e.3`B.P#e`K.e.e.S.k.J`d#i`5.3",
".S`5`d`m`B.S`v.J#`.J.P.k.k.k`B.k.k.k`B.P.3.J`B.X#i.k.I`P`K.3.e`#`#`B.e.S.I`5.J.I`R.3.J`B.P.k.k.k.k`B.P.k`B`O#`.J.J`5`B.J`5#i#i`K",
".c.E#a#``K`5.X.3`m.e.k.P.P.P.P.P.P.P.P#e#``d.e.M#a.P.c`P`K`B.e`#`#`B`K`m.I.S`b`W.I.S`R.k.P.P.P.P.P.P.k.P.P.P`K.3.e#i.3.e#i#a.I#i",
"`K.J.e.3.k.S.s.3`m.e#e`O.H.P#e`O#e#e.k.P`R.s.S#g.I.P.c`P`K.3.e`#`#`B.e`m.c.S.3.i###a`7.J#e.k`O#e`O#e`O.H#e#e#`.3`K`5.k`B.e.J.e`0",
".S`K`K`K`B#i`7`B`m`K#``5.3`d.E.S`.#``R`K##`7.S`X`.#e`P.I`K`B.e`#`#`B`K`m.I.S.J.M`P.E.1.S#i`5.e.E`K.E.e.e`5`B`m`B.e#i`B.J#``K#``m",
"`5.e`K#`.k#i`7`B.S#``5`R.3`P`W.I`7#a.s`m`v`P.J#.#a.P`v`P`K.3`0`#`#`B.e`m.c.S.J#f`P.S#f#a.E.c`5#f#i.s`m`0`d.3#`.3.J#i`B.J#`.e`m`m",
"`d`m#``K.k`5`7.3.S`K`K`K`O.e`K.J.S.k.S.3.X`.#``W#i.k`v`P`K`B.e`#`#`B`K#`.c.S`b.I#a.S.I.S`K`m.k#i.k.S.P.k#``B#`.3.J#i`B`B`m#``5.S",
"`R#i.S.e.k`m.s.3#``K#e#e``.P#e`O#e.H`B#e`d`m`K.c#`.P##`P`K.3.e`#`#`B`K`m.I.S`B`R`R`m`5.J#e.P``.P``.k.H`O#e#e#`.J.J`5.k.3`m`5`d`5",
".E`.`d#`#v.S##.u#`#``B`B.H.3.k.P`B#e.J.P#`.3.e#a`K#e##.c`K`B`0`#`#`B.e`m.c.S`B#i`d.J.e.J.k.J#e`B`O.3#t#e.J.P#`.3.e.S`B`B#i#i.E#i",
"`K.e`K.3.P#``v.3`K#`.P#e.b#e`O#e.P.H.P.k.e.J.3.S.3#e`v.c`K.3.e`#`#`B`K#`.I.S#t`K#`.e.J.3.k.P.H.P.H`O#e#e#e.P`K.J.e`5.k.k.e.J.e.e",
"#`#`.S`K.P`m`P.J`m`m#e.H`O`O`O`O.P.P#e.P`B.k.k#`.k`O`P.I`K`B.e`#`#`B.e.S.c`m.H.e.3.3#v.k.P#e.P#e#e`O`O`O.H.k#`.J`K`m`B.k.S#``m.J",
"`5`K.S.e.P#`.E.J.S.S.P#e.k.k.k.P#e.k.P#e.P.k.P`K#e`O.I.I`K`B.e`#`#`B`K`m.I`m.H.u`B.3.k.P.P.P.P.P.P.k.P.P#e`B`m.e`K`m`B.k.S`K`m.J",
"#i.3.e.e.P.S#a.e.S`5.S.S`m#`#``K.e.J.3.J.J`K.k.J#e`O`P.I`K.3.e`#`#`B.e`m.c.S#e.k.k.J`K.3.e.e.e#`#``m#`#i#i.S.S#``K#``B`B.e.J`K.3",
"`d.P.3.u.P#``R`0`K`K`d`P`7.M.M#f.c#a`R`5#i`R.e.J`B.P.c`.`K`B`0`#`#`B`K`m.I.S#t.J.k`5.S.S`5.S#a.I.X.s#f`v.I`d`K`K`K#`.k`B.J`B.e.3",
"`..3.e#`.P.e`R.e.3.3.e`K.S`5`5`m.e.3.3.3.J.J.3.k.J.P`.`.#``B.e`#`#`B.e`m.I`5.k`B#e.e.e.u.3.3.J`K.S.S.S`m.e.J`B.J`K#`.P.3.S.J`K.J",
".E.3.3`m.P`K`.`B`B.3.e.e#``m#`#`.e.J.3.J.e.e`K`B.P`O.E`.`K.3.e`#`#`B`K`m.I.S.H`B.e`K`K.e.e.J.e`K.S`m#``0.J.e.3.k`K#`.P`B.S`B#`.J",
"#a.k#v#`.P.e.X.3.3.e`d`.`P#f.s.X`P`.`R#i`d#i.S.e.J#e`..E#``B.e`#`#`B.e`m.c.S#e.u.e#`#``m#`.S.S`R.I`.`R#i.S`m.3.k#``m#e.3.S.P.e.J",
"`d.k.k`m#e.e`.`B`O#e`B.3.e`K`K#``K.3`B.k`B.P.k`O#e.H.E.E`K.3.e`#`#`B`K`m.I`m``#e#e.k.P.P.P`B.u`K.S`K.e.J`B.k`O`O`K`m#e.J`m.P.e.e",
"#i#v`B`m#e.e#a`B#e.3.S`5`K#a##.i`P`d`K`K#``K`K`B.k`O#a#a`K`B.e`#`#`B.e`m.I`m`O.k.J`K`K#``K`m.E`P`W.I`5#``5#`.P.P#``m#e.3.S.k`K.J",
"#i`B.k.S.P.J`d.k#e#e.3.e.J#``d`P`d`m.3.J`B`B.k.P.P``.e.e`B.k`0`#`#`B`B.3`K.k``.k.P.k.3.3`B.e`5`R`.`5.e.J.J.k#e`O`K`m.P`B`5`B.e.e",
"#i`B.e`m#e.3`d.3.k.J#``d`K#a.I.M.I#a#``d.S.S#`.J`B.H#i#i.e.3.e`#`#`B.e`K`R`K`O`B.e`m.S#i.S`5`.`v#f.c#i`m`5`K`B.P#``m#e`B`d.3.e.e",
"`R.3#``m#e.e`5.k#t.k.J`K.3#``5.E.S`m.3`K`K.e.e.k.k`O#a.E`K`B.e`#`#`B`K#`.I.S.H.k.3.e`0`K.J.e.S`R#a.S`K.J.e.J.k#e.e#`.P`B`R#``K.J",
"#a.J.S.S.P.J.S.k`O#e.3.J.P#`#i#a`m`K.P.3.k.k.k.P`O.H.J.e.P.k`K`#`#`B.k`B`K`B``#e#t.k.k`B.k`B.S#a.E`5.3.k.J.k`O.H.e`m#e.3#a#`.e.e",
"`R.J`m`5#e.J#i.J`B.3.S#i.e#a.c.X`.`R#`.S`5.S`m.J`B`O#`#``B.k.e`#`#`B.u.3.S.e`O.3.e`m.S`5#`.S.c`W#f.c#i#`#i#`.3`B#``m#e`B#a#``K.e",
"`d.3.S.S.P.3#i.3.P#e`B`B`B.3.e.e.J.3.P`B.3`B.k#e#e`O.I`.`K`B.J`#`##v.e`m.I.S``#e.P`B.3.3.k`B.J#``m.e`B`B.3.P#e.P`m`m#e`B.E#``K.J",
"`5`B.S`m.P.3`5.J.P.3`K.E`v`v.X#f.c`R`5#``K.J`K`B.k#e.I.E`K`B.J`#`#`B.e.S.c`m`O.k.3`K`K`K#`.S`d.I.I`d`d.S`m.e`B.k#``m#e`B`R#`.J.J",
"`5.J#a#`.P.3`5.3.J`K#i##`W`W.X.s##.I.E`R#i.S.S.3.J`O`.`.`K.k.e`#`##v.e`m.I.S#e.J.e`5`R`.`..c.I.c`P.I`.#a#i`m`0.3#`#`.P`B#a#i.e.J",
".S.S`P`m#e`B.S.3`B.k.J.e.e.e.e`K.e`K.e`K.e`K.J.k`B.H.I`.#``B.J`#`#`B.e`m`P.S`O.k`B.e.e`K`K.e`0`K.e`K.e.e`K`B`B.P#`#`#e`B.E.c#`.3",
"`5`R`.#`#e`B.S.3.k`B.3.e.J.e.J.3.J.3.J.3.3.J`B.k.P`O.E`..e.3.J`#`##v.e.S`P`5`O#e.k.J.3.3.3.J.3.J.J.J.J.e.J.3.k.k`K`K`O`B.E`v`d.3",
"`m#i.E`0#e`B`5`d.e.3.e`K`K.J.J.J.J`B`B`B`B`B`B.P.k#e`R.I#``B.3`#`#.k`K`5`P`K#e.P.k`B`B.3`B`B`B.3.3.3.e.e.J`B`B.J`5#`#e.k`5`..S.3",
"#`.S#i.J#e.k`m`..c`P.c##.X`v.I.I.I.E`.`R`5.S#`.J.3#e`.`.`K`B`K`#`#`B.e`5`P.S#t.3.e#``m`m#i.E.E.I.c.E#a#a#i`m#`#i`d#``O.k`K.S.S.3",
".e`m`m.3#e.P#`.S`d#a#a.E.I.I`..E`..E.E`R`d#i.S.J.3#e`.#a.e`B.3`#`##v.e#`.c.S.P.3`m`5`d`R`..X.X.s#f`v.c.I`R`5`5.S.S.e`O.k.e.S`m`B",
"`B.J`K.3`O.H.k`B`B.k`B`B.3`B.3.J.J.e.J.e.J.J.3.P.k.P#a`R#``B.3`#`#.P`K#``..S#t.k`B.e.e`K`K.e#``K.e.J.3.3`B`B.k.3.k.P``.P#``K.3`B",
".J.3.e.e#e`O`B.3.3.3.3.3.3`B.3.J.e.e`K`K`K.e#`.3.3#e`R`R`K.k.u`#`#.P`K#`.E`K.k`B.J#``K.e#`.e.e.e.J.3`B.3.3.3.3.3.3.k.H.k`K.J.e.J",
".3.J.e`K.e.3.u.k.k`B`B`B`B`B`B`B.k`B`B.k.3.3.3`B`B.P.J.e`B.P`O`#`#.b.3.3.e`B.P.k.3`B`B.3`B`B.k`B`B`B`B`B`B`B`B.P`B.J`B`K.e.J.J.3",
"`K.S.E##.X.c#i.e`B.S#i#a.E`R.S#`.u`B.S.I.I#a`m.e`B#``d#a#i#`.k`#`#`B`m`d`R.S.J`B`K`5`R#a`d.e`B.e#`.S#i.E`R`5#``B#`#i`d`R`d`5#`.e",
".e`m.I####`P`R.e.J#i.I.X.s##`d`m.J.3`5.I`.#a.S.e`B#``d#a`R`5`B`#`#.u.S`P.c`d.e`B#``R.I.E`R#``B#`.S`d#a.c.E`R`5`B#``R#a.E#a`R#`.J",
"#v`0`0`K.J.J`0.3.3.J.e`K`K.e.3.3`B.k.3.3.J.J.u`B#e.k.3.3.3`B`O`#`#`j.3.J.e`B.P#e.3.u.J.3#v.k.P`B`B.3.J.e.J.3.3.P.J.3`B.J.e`0.u.P",
".x`A.2`r`O`a#h.7`M#t`Z#r.7#j#t.W.Q#w#t#t.W.2`r`u#w#p#p.k#t#v`L`#`##q.k`O.u.d.C#q#t.d`Z`L`O`L#w#w`L`u.V.Y`Z`1`L#n#u#u#m`O.V.Y`Z`x",
".4#l`I`x.d.f.G.o`E.7`F#k`I#q.y#l#c#u.W.w`h#c#u#o`G#k`t.Z.L.U.2`#`##b`p`k`0`Q`G`c`a#h.O.G.m#n#d.j.F`E.Q.N`3.O`E.#.a.F`l#j`M..`Q.A",
".#`y.g.P`2.z.q`M`L#r`6`l`N`q`l.z.t.g.7.l.l`8`q`y`o#o`1.W.q#s`H`#`#`J#s`n`N`a#d`6.h`N#o.K#d#p`8.z.5.l#j.h.5`U.d#v#r#d.l.d#e#n`I`A",
"`E.g`O`x.`.8.d#t#j#o`C`q#t.d`J.t`L.g`f.`#n.r`a`2`f`1.k#p.0`A.V`#`#`a.8`A.D`L`8`y.h`e#m`w`y.Q#m`q#o#o#j#t.t`l`w`j.B`Y`J`H.P#t.V.W",
"`O`O`O`j.g#q#e`O`e`N`N.b.r`L`N#m.b#e`1`e.b.H`e`1`V.b`O.g`1.g#t`#`#`L.g`1`L`O.b`e`q.r```O`1.g`O.b.g`N`L.b.r#j`N#m.H#t#j#q`O#e`u#e"
};
