/* XPM */
static char *door_17_xpm[] = {
/* width height num_colors chars_per_pixel */
"    64    64      256            2",
/* colors */
"`` c #6e6e6e",
"`. c #696969",
"`# c #636363",
"`a c #5f5f5f",
"`b c #5a5a5a",
"`c c #505050",
"`d c #4d4d4d",
"`e c #474747",
"`f c #2a2a2a",
"`g c #393939",
"`h c #3a3a3a",
"`i c #303030",
"`j c #363636",
"`k c #ff00d2",
"`l c #2d2d2d",
"`m c #353535",
"`n c #2c2c2c",
"`o c #414141",
"`p c #4a4a4a",
"`q c #585858",
"`r c #686868",
"`s c #6d6d6d",
"`t c #a5a5a5",
"`u c #a2a2a2",
"`v c #939393",
"`w c #7f7f7f",
"`x c #747474",
"`y c #6c6c6c",
"`z c #616161",
"`A c #5d5d5d",
"`B c #595959",
"`C c #454545",
"`D c #4c4c4c",
"`E c #525252",
"`F c #4e4e4e",
"`G c #555555",
"`H c #535353",
"`I c #484848",
"`J c #666666",
"`K c #707070",
"`L c #767676",
"`M c #7b7b7b",
"`N c #777777",
"`O c #1e1e1e",
"`P c #202020",
"`Q c #1c1c1c",
"`R c #1a1a1a",
"`S c #141414",
"`T c #222222",
"`U c #282828",
"`V c #161616",
"`W c #3d3d3d",
"`X c #373737",
"`Y c #3f3f3f",
"`Z c #3c3c3c",
"`0 c #232323",
"`1 c #333333",
"`2 c #252525",
"`3 c #323232",
"`4 c #181818",
"`5 c #4b4b4b",
"`6 c #5c5c5c",
"`7 c #5b5b5b",
"`8 c #606060",
".` c #272727",
".. c #727272",
".# c #808080",
".a c #0f0f0f",
".b c #656565",
".c c #3e3e3e",
".d c #0c0c0c",
".e c #676767",
".f c #424242",
".g c #121212",
".h c #646464",
".i c #898989",
".j c #8b8b8b",
".k c #5e5e5e",
".l c #434343",
".m c #515151",
".n c #888888",
".o c #9e9e9e",
".p c #2f2f2f",
".q c #464646",
".r c #545454",
".s c #757575",
".t c #878787",
".u c #565656",
".v c #6f6f6f",
".w c #8a8a8a",
".x c #7a7a7a",
".y c #afafaf",
".z c #8c8c8c",
".A c #6b6b6b",
".B c #818181",
".C c #ababab",
".D c #9a9a9a",
".E c #7d7d7d",
".F c #717171",
".G c #797979",
".H c #6a6a6a",
".I c #090909",
".J c #252323",
".K c #2c2a2a",
".L c #2d2a28",
".M c #282727",
".N c #2a2727",
".O c #2a2a28",
".P c #222020",
".Q c #563525",
".R c #432d23",
".S c #1c1614",
".T c #3f2a1c",
".U c #6c3e27",
".V c #3e281c",
".W c #1c140f",
".X c #422c20",
".Y c #4d2f1c",
".Z c #462d20",
".0 c #181616",
".1 c #251e1c",
".2 c #271a14",
".3 c #28201a",
".4 c #221e1c",
".5 c #161414",
".6 c #2a2722",
".7 c #4e2f1e",
".8 c #482c1c",
"#` c #281c16",
"#. c #1a140f",
"## c #4b2f1e",
"#a c #52301e",
"#b c #120f0f",
"#c c #231a14",
"#d c #432d20",
"#e c #482f20",
"#f c #bb6333",
"#g c #58331e",
"#h c #3e2a20",
"#i c #a05630",
"#j c #f17837",
"#k c #be6537",
"#l c #55301e",
"#m c #723d1e",
"#n c #e56e2f",
"#o c #da6932",
"#p c #7a4a2f",
"#q c #2c2320",
"#r c #5d4133",
"#s c #965b37",
"#t c #6d3e2a",
"#u c #854e30",
"#v c #90593a",
"#w c #4a3a30",
"#x c #392a23",
"#y c #b66336",
"#z c #e26e2f",
"#A c #b25827",
"#B c #4e2d18",
"#C c #683c27",
"#D c #d06b36",
"#E c #d1682f",
"#F c #70452d",
"#G c #43281c",
"#H c #9b522d",
"#I c #fa8242",
"#J c #61321a",
"#K c #2f1c14",
"#L c #5a3522",
"#M c #984b23",
"#N c #934b23",
"#O c #472716",
"#P c #392012",
"#Q c #7d3e1c",
"#R c #a34e20",
"#S c #753e22",
"#T c #322016",
"#U c #3e2c22",
"#V c #874825",
"#W c #a15228",
"#X c #5a351e",
"#Y c #774225",
"#Z c #a75427",
"#0 c #724128",
"#1 c #2f231a",
"#2 c #4c2c1a",
"#3 c #a05227",
"#4 c #af5322",
"#5 c #6a371c",
"#6 c #372014",
"#7 c #703c22",
"#8 c #b65928",
"a` c #9e5128",
"a. c #4c3023",
"a# c #432514",
"aa c #9f4e25",
"ab c #271812",
"ac c #281e1c",
"ad c #6b391e",
"ae c #773e20",
"af c #43271a",
"ag c #482818",
"ah c #783d1e",
"ai c #6a371e",
"aj c #321e14",
"ak c #221c1a",
"al c #4e2f20",
"am c #793f22",
"an c #703e23",
"ao c #3d2518",
"ap c #4c2d1e",
"aq c #7b4223",
"ar c #713d20",
"as c #35251e",
"at c #221a16",
"au c #452518",
"av c #783e1e",
"aw c #70391c",
"ax c #2c1a14",
"ay c #231812",
"az c #5a301c",
"aA c #7e411e",
"aB c #563320",
"aC c #201816",
"aD c #3a2014",
"aE c #140f0c",
"aF c #281a12",
"aG c #20160f",
"aH c #140f0f",
"aI c #271c16",
"aJ c #332016",
"aK c #281e18",
"aL c #2a1e1a",
"aM c #201814",
"aN c #160f0c",
"aO c #2c1c14",
"aP c #1e160f",
"aQ c #18120c",
"aR c #2c1e16",
"aS c #141212",
"aT c #000000",
"aU c #000000",
"aV c #000000",
"aW c #000000",
"aX c #000000",
"aY c #000000",
"aZ c #000000",
"a0 c #000000",
"a1 c #000000",
"a2 c #000000",
"a3 c #000000",
"a4 c #000000",
"a5 c #000000",
"a6 c #000000",
"a7 c #000000",
"a8 c #000000",
/* pixels */
"`````.`#`a`b`c`d`e`f`g`h`h`i`j`k`k`k`k`k`k`k`k`k`k`k`k`k`k`k`k`k`k`k`k`k`k`k`k`k`k`k`k`k`k`k`k`k`k`l`g`h`h`m`n`o`p`c`q`#`r`s```s",
"`t`u`v`w`x`y`z`A`B`C`D`p`E`F`z`k`k`k`k`k`k`k`k`k`k`k`k`k`k`k`k`k`k`k`k`k`k`k`k`k`k`k`k`k`k`k`k`k`k`G`H`d`I`p`o`H`b`z`J`K`L`M`M`N",
"`O`P`P`O`O`O`Q`Q`R`S`T`P`O`O`U`k`k`k`k`k`k`k`k`k`k`k`k`k`k`k`k`k`k`k`k`k`k`k`k`k`k`k`k`k`k`k`k`k`k`P`T`Q`P`Q`V`R`Q`O`O`O`O`O`O`R",
"`F`F`C`W`X`n`U`f`n`V`Y`Z`0`P`1`k`k`k`k`k`k`k`k`k`k`k`k`k`k`k`k`k`k`k`k`k`k`k`k`k`k`k`k`k`k`k`k`k`k`T`f`2`Y`3`4`l`f`f`m`e`d`5`5`F",
"`6`q`d`C`Y`m`3`3`m`O`7`8`m`0`j`k`k`k`k`k`k`k`k`k`k`k`k`k`k`k`k`k`k`k`k`k`k`k`k`k`k`k`k`k`k`k`k`k`k`2`i`h`8`o.``1`m`X`5`s`N.....#",
"`4`4`4`4`4`4`V`S.a`R`q.b`h`0`j`k`k`k`k`k`k`k`k`k`k`k`k`k`k`k`k`k`k`k`k`k`k`k`k`k`k`k`k`k`k`k`k`k`k`2`3`o`8.c`R.d`S`4`R`Q`Q`R`R`R",
"`U`U`U`U`U.``T`Q`S`4`q.e`Z`0`j`k`k`k`k`k`k`k`k`k`k`k`k`k`k`k`k`k`k`k`k`k`k`k`k`k`k`k`k`k`k`k`k`k`k`2`3.f`#`W`R.g`O`0`U`U`U`U`U`U",
"`p`C`Z`j`f`U`O`4.g`R.h`K`h`0`j`k`k`k`k`k`k`k`k`k`k`k`k`k`k`k`k`k`k`k`k`k`k`k`k`k`k`k`k`k`k`k`k`k`k`2`i.f.e`Y`Q.a`R`T`f`l`h`W`e`d",
".i.j.b.k`c`e`j`f`4`R`y`x`X`0`j`k`k`k`k`k`k`k`k`k`k`k`k`k`k`k`k`k`k`k`k`k`k`k`k`k`k`k`k`k`k`k`k`k`k`2`i.f.e.l`O`V`i`Z`I.m.k`J.n.o",
"`W`h`2.p`i.p`U`P.g`Q`y..`X`0`j`k`k`k`k`k`k`k`k`k`k`k`k`k`k`k`k`k`k`k`k`k`k`k`k`k`k`k`k`k`k`k`k`k`k`2`i`o.e.q`R.a`T`n.p`i`f`f`Y.r",
".m.c`U`m`3`3`n`T`S`R.e`s`m`0`j`k`k`k`k`k`k`k`k`k`k`k`k`k`k`k`k`k`k`k`k`k`k`k`k`k`k`k`k`k`k`k`k`k`k`2`i`W`#.l`4.g`2`i`3`1.p`l.f`z",
"`w`q`X`F`I`I.c`l`4`Q`8`.`1`0`j`k`k`k`k`k`k`k`k`k`k`k`k`k`k`k`k`k`k`k`k`k`k`k`k`k`k`k`k`k`k`k`k`k`k`2`i`X`8`o`P`4`1`C`I`5.l`Y.k.j",
"`X`i`P.p`i`i`U`O`S`R.k.b`1`0`j`k`k`k`k`k`k`k`k`k`k`k`k`k`k`k`k`k`k`k`k`k`k`k`k`k`k`k`k`k`k`k`k`k`k`2`i`X`a`o`R.g`T`l`i`i.``2`j`D",
"`D`h`T`f`f`n.``Q`S`Q.c`W`0`4.p`k`k`k`k`k`k`k`k`k`k`k`k`k`k`k`k`k`k`k`k`k`k`k`k`k`k`k`k`k`k`k`k`k`k`Q`T.`.f`1`P.g`O`f`f`f`2`U.f.k",
".s`b`X`o`o`o`j`U`4`R`U`0`V.a`O`k`k`k`k`k`k`k`k`k`k`k`k`k`k`k`k`k`k`k`k`k`k`k`k`k`k`k`k`k`k`k`k`k`k.g`V`4`f`T`P`V`n`Z`o.f`h.f.h.t",
"`1`i`2`f`U`f`0`R`V`0`6`A`h`2`1`k`k`k`k`k`k`k`k`k`k`k`k`k`k`k`k`k`k`k`k`k`k`k`k`k`k`k`k`k`k`k`k`k`k`T.p`3`H.c`T.g`Q`U`f`f`U`f`j`C",
".e`#`7.u`c.q`X.``V`4`Y`1`P`R`j`k`k`k`k`k`k`k`k`k`k`k`k`k`k`k`k`k`k`k`k`k`k`k`k`k`k`k`k`k`k`k`k`k`k`0`Q`O`g`n`R`S`n`o`c`6.k`A`8`L",
"`M`K`a.u`p`o`3`O`V`Q`X`U`R`R`3`k`k`k`k`k`k`k`k`k`k`k`k`k`k`k`k`k`k`k`k`k`k`k`k`k`k`k`k`k`k`k`k`k`k`0`O`Q`m.p`O.g`2`h`I`q`A`6`6`#",
".`.``2`2`2`2`P`4`O`O`F`C`l`0.p`k`k`k`k`k`k`k`k`k`k`k`k`k`k`k`k`k`k`k`k`k`k`k`k`k`k`k`k`k`k`k`k`k`k`0`i`i`d`o`O`4`R`T`2`2.``2`2`2",
"`U`f`U`f`U`U`Q`R`Q`Q.u.u`m`0`i`k`k`k`k`k`k`k`k`k`k`k`k`k`k`k`k`k`k`k`k`k`k`k`k`k`k`k`k`k`k`k`k`k`k`0`i`j`B.f`R`R`R`0`f`f`U`U`U`U",
".q`e`Z`X`j`1`O`i`2`O`6`8`1`0`i`k`k`k`k`k`k`k`k`k`k`k`k`k`k`k`k`k`k`k`k`k`k`k`k`k`k`k`k`k`k`k`k`k`k`0`i`j`b`o`O`n`T`n.f`p`H`B.k.e",
"`4`4`4`V`P`O`4.q`m`T.k`.`1`0.p`k`k`k`k`k`k`k`k`k`k`k`k`k`k`k`k`k`k`k`k`k`k`k`k`k`k`k`k`k`k`k`k`k`k`0`i`g`a.f`U`o.p`P`T`O`O`O`P`2",
"`O`O`T`R.``f`0.v`C`O`a`r`1`0.p`k`k`k`k`k`k`k`k`k`k`k`k`k`k`k`k`k`k`k`k`k`k`k`k`k`k`k`k`k`k`k`k`k`k`0`i`h`8`o`f`8`p`U`f`T`R`P`O`O",
"`R`R`Q`S`X`I`i.w.m`R`8`J`1`0.p`k`k`k`k`k`k`k`k`k`k`k`k`k`k`k`k`k`k`k`k`k`k`k`k`k`k`k`k`k`k`k`k`k`k`0`i`h`8.c`U.x.k`Z`D`O`4`R`4`R",
"`V`V`Q`R`c`L`Y.y`A`R.h.h`1`0.p`k`k`k`k`k`k`k`k`k`k`k`k`k`k`k`k`k`k`k`k`k`k`k`k`k`k`k`k`k`k`k`k`k`k`0`i`h`8.c`U.z.A`H.B`f`4`O.g`V",
"`B`j`c`3.A`w`Z.C`q`R`J`a`1`0.p`k`k`k`k`k`k`k`k`k`k`k`k`k`k`k`k`k`k`k`k`k`k`k`k`k`k`k`k`k`k`k`k`k`k`0`i`h`8.c`U.i`r.u`u`Y.l`o.p.r",
".#.m`N`h``.b`l.D`E`R`y.b`1`0.p`k`k`k`k`k`k`k`k`k`k`k`k`k`k`k`k`k`k`k`k`k`k`k`k`k`k`k`k`k`k`k`k`k`k`0`i`h`8.c`f.E.b`Z`w.m`B`#.f.E",
".c`O.c`2.F`B`m.G.q`Q`s.e`1`0.p`k`k`k`k`k`k`k`k`k`k`k`k`k`k`k`k`k`k`k`k`k`k`k`k`k`k`k`k`k`k`k`k`k`k`0`i`h`8.c`f`A.r.c`A`W`i`h`Q.q",
"`4.d`P`V`p`Z`1`#`X`R`y.h`1`0.p`k`k`k`k`k`k`k`k`k`k`k`k`k`k`k`k`k`k`k`k`k`k`k`k`k`k`k`k`k`k`k`k`k`k`0`i`h`8.c`T`c`D`Z`Y`n`V`Q.d`4",
"`0`V`n`Q`m`U`n.r`3`4.H`z`1`0.p`k`k`k`k`k`k`k`k`k`k`k`k`k`k`k`k`k`k`k`k`k`k`k`k`k`k`k`k`k`k`k`k`k`k`0`i`h`8.c`T`C`e`n`l`f`O`f`V`0",
"`R.a`R`O`l.`.``Y`2`V`s`z`1`0.p`k`k`k`k`k`k`k`k`k`k`k`k`k`k`k`k`k`k`k`k`k`k`k`k`k`k`k`k`k`k`k`k`k`k`0`i`h`a`Z`4`1`m`l`f.``Q`R.a`R",
"`R`R`V`R`T`O`O`m`Q`S.h.k`1`0.p`k`k`k`k`k`k`k`k`k`k`k`k`k`k`k`k`k`k`k`k`k`k`k`k`k`k`k`k`k`k`k`k`k`k`T`i`h`8`h.g`f.`.``P`P`R`V`R`4",
"`R`R`Q`4`4`O`Q`i`V.g.k`A`1`0.p`k`k`k`k`k`k`k`k`k`k`k`k`k`k`k`k`k`k`k`k`k`k`k`k`k`k`k`k`k`k`k`k`k`k`0`i`h`8`h.a.``T`U`R`4`R`R`R`R",
"`n`f`U`U`n`1`Q`U`4`S.h.k`1`0.p`k`k`k`k`k`k`k`k`k`k`k`k`k`k`k`k`k`k`k`k`k`k`k`k`k`k`k`k`k`k`k`k`k`k`0`i`h`8`Z`S`P`Q`f`3`U`l`n`i`1",
"`z`H`5.f.q`D.p`n`0`4`z`A`1`0.p`k`k`k`k`k`k`k`k`k`k`k`k`k`k`k`k`k`k`k`k`k`k`k`k`k`k`k`k`k`k`k`k`k`k`0`i`h`8.c`4`f`O`o`o.c`Y.f`E.k",
".p`2`2`2`f`n`2`Q`U`R`7`7`1`0.p`k`k`k`k`k`k`k`k`k`k`k`k`k`k`k`k`k`k`k`k`k`k`k`k`k`k`k`k`k`k`k`k`k`k`0`i`h`8`Y`Q`0`4`l`n.``2`2`U`1",
"`i`f`U`U`l.p.p`0`Q`S`q`b`1`0.p`k`k`k`k`k`k`k`k`k`k`k`k`k`k`k`k`k`k`k`k`k`k`k`k`k`k`k`k`k`k`k`k`k`k`0`i`h`8`Y.a`T`l`3`i.p`n`n`l`1",
"`J`B`d`C`e`e`Y.p`U`S`7`q`1`0.p`k`k`k`k`k`k`k`k`k`k`k`k`k`k`k`k`k`k`k`k`k`k`k`k`k`k`k`k`k`k`k`k`k`k`0`i`h`8`W`S.`.p`X`X`X`j`W`Y`D",
".p`U`O`P`P`O`Q`S`V.a`G.u`1`0.p`k`k`k`k`k`k`k`k`k`k`k`k`k`k`k`k`k`k`k`k`k`k`k`k`k`k`k`k`k`k`k`k`k`k`0`i`h`8`g.d`S`V`Q`Q`Q`Q`P`U`3",
".b`I`3`X`m`3`i`0`O.g`c`H`3`0.p`k`k`k`k`k`k`k`k`k`k`k`k`k`k`k`k`k`k`k`k`k`k`k`k`k`k`k`k`k`k`k`k`k`k`T`i`g`6`h.g`O`U`3`1`X`i`Z`H.e",
"`p`W`2`U`0`0`P`4`R.d`l.p`T`O.p`k`k`k`k`k`k`k`k`k`k`k`k`k`k`k`k`k`k`k`k`k`k`k`k`k`k`k`k`k`k`k`k`k`k`0`T`2`1`T.I`Q`R`P`0`2`0.p.f`c",
"`8`H`X`p`o`Z`X`f`0.a.l.q`l`0.p`k`k`k`k`k`k`k`k`k`k`k`k`k`k`k`k`k`k`k`k`k`k`k`k`k`k`k`k`k`k`k`k`k`k`0`l`3`d`3.g`0.p`h`W`e`W.f`7`K",
"`Y`g.``1`i.p`n`P`Q.g`E.r`1`0.p`k`k`k`k`k`k`k`k`k`k`k`k`k`k`k`k`k`k`k`k`k`k`k`k`k`k`k`k`k`k`k`k`k`k`0`i`h.k`Z.g`Q`2`l`i`1`f.p.c`d",
"`Z`i`Q`0`P`O`Q`V`S.d`n`l`R`O.p`k`k`k`k`k`k`k`k`k`k`k`k`k`k`k`k`k`k`k`k`k`k`k`k`k`k`k`k`k`k`k`k`k`k`0`P`O`1`T.I`S`4`O`O`T`O`T`Z`c",
"`b.m`m`Y.c`W`g`f`2.g`g`j`T`P.p`k`k`k`k`k`k`k`k`k`k`k`k`k`k`k`k`k`k`k`k`k`k`k`k`k`k`k`k`k`k`k`k`k`k`0.``2`Z`n.g`2`i`h.c.f`j.c`a`M",
"`U.``R`T`2`0`P`4`V.g`a.u`1`T`f`k`k`k`k`k`k`k`k`k`k`k`k`k`k`k`k`k`k`k`k`k`k`k`k`k`k`k`k`k`k`k`k`k`k`P`i`h`8`W.d`V`R`T`2`2`Q`P`n`g",
".h`F`o`X`i`n`i`P`P.g.k.u`1`T`f`k`k`k`k`k`k`k`k`k`k`k`k`k`k`k`k`k`k`k`k`k`k`k`k`k`k`k`k`k`k`k`k`k`k`P`i`h`8`Z.g`O`2`1`i`m`j.c`I`A",
".A`a.u`d.q`Y`Z`U`U.g`6`B`1`T`f`k`k`k`k`k`k`k`k`k`k`k`k`k`k`k`k`k`k`k`k`k`k`k`k`k`k`k`k`k`k`k`k`k`k`P`i`h`8`Z`S`U.p.f`d`7`7`8`8.b",
".p.p.p.p.p.p`n`O`P.g`7`b`1`T`f`k`k`k`k`k`k`k`k`k`k`k`k`k`k`k`k`k`k`k`k`k`k`k`k`k`k`k`k`k`k`k`k`k`k`P`i`h.h`Y.g`O`0.p`i`3`3`i.p.p",
"`f`U.`.`.``U`0`Q`R.g`B`b`1`T`f`k`k`k`k`k`k`k`k`k`k`k`k`k`k`k`k`k`k`k`k`k`k`k`k`k`k`k`k`k`k`k`k`k`k`P`i`Z.b`Y.g`4`O.``U.`.``U`U`U",
"`U`0`T`T`0`0`T`Q`Q`S`c`7`1`T`f`k`k`k`k`k`k`k`k`k`k`k`k`k`k`k`k`k`k`k`k`k`k`k`k`k`k`k`k`k`k`k`k`k`k`O`i`o.e`1`V`R`Q`T`0`T`T`T`0`U",
".k`G`B`F.l.c`m`f`2`V`q`b`1`T`i`k`k`k`k`k`k`k`k`k`k`k`k`k`k`k`k`k`k`k`k`k`k`k`k`k`k`k`k`k`k`k`k`k`k`T`i`Y`r`Z`4`2.p`j`h`h`C`G.r`a",
"`q`q`G`c`p`C`W`n.``4`q.r`3`T`U`k`k`k`k`k`k`k`k`k`k`k`k`k`k`k`k`k`k`k`k`k`k`k`k`k`k`k`k`k`k`k`k`k`k`O`i`X`#`Y`R.``j`C`p`c`7..`x.s",
"`l`l`n`n`f`f`2`Q`Q`4.r`c`3`T.``k`k`k`k`k`k`k`k`k`k`k`k`k`k`k`k`k`k`k`k`k`k`k`k`k`k`k`k`k`k`k`k`k`k`Q`i`j`q`Z`4`Q`T`l.p`3`3`3`1`1",
"`l`l`i`3`3`3`1`2.``V`d`d`3`P`2`k`k`k`k`k`k`k`k`k`k`k`k`k`k`k`k`k`k`k`k`k`k`k`k`k`k`k`k`k`k`k`k`k`k`Q`3`X`G`1`O`T`n`m`3`3`3.p`l`l",
"`P`P`0`0`2`0.``P`T`4`f`l`0`4.g`k`k`k`k`k`k`k`k`k`k`k`k`k`k`k`k`k`k`k`k`k`k`k`k`k`k`k`k`k`k`k`k`k`k.a`2`2`l`0`R`P`2`0`0`0`T`0`O`T",
".``0`Y`A`A.m`W`l`0`j`p`H.q`g`Q`k`k`k`k`k`k`k`k`k`k`k`k`k`k`k`k`k`k`k`k`k`k`k`k`k`k`k`k`k`k`k`k`k`k`0`g`p`d`W`f`0`1.f`E.m`5`i`P.p",
"`f.``o`7`6`c.c.p`0`X`p`H`d`o`P`k`k`k`k`k`k`k`k`k`k`k`k`k`k`k`k`k`k`k`k`k`k`k`k`k`k`k`k`k`k`k`k`k`k`U.l.h.h`5`n`0`X`p`6.u`d`m`0`1",
"`P`O.J`2.K.L.M`T`V`O`2`U`2`T`S`k`k`k`k`k`k`k`k`k`k`k`k`k`k`k`k`k`k`k`k`k`k`k`k`k`k`k`k`k`k`k`k`k`k`4`0`f`n`T`R`R.J.N.O`2`P`P`R.P",
".Q.R.S.S.T.U.V.W.X.Y.Z`Q.0.1.2`k`k`k`k`k`k`k`k`k`k`k`k`k`k`k`k`k`k`k`k`k`k`k`k`k`k`k`k`k`k`k`k`k`k.3.4.5.6.7.8#`#.###a.2#b#c#d#e",
"#f#g#h#i#j#k#l#m#n#o#p#q#r#s#t`k`k`k`k`k`k`k`k`k`k`k`k`k`k`k`k`k`k`k`k`k`k`k`k`k`k`k`k`k`k`k`k`k`k#u#v#w#x#y#z#A#B#C#D#E#F#G#H#I",
"#J#K#L#M#N#O#P#Q#R#S#T#U#V#W#X`k`k`k`k`k`k`k`k`k`k`k`k`k`k`k`k`k`k`k`k`k`k`k`k`k`k`k`k`k`k`k`k`k`k#Y#Z#0#1#2#3#4#5#6#7#8a`a.a#aa",
"abacadaeaf.Wagahaiajakalamanao`k`k`k`k`k`k`k`k`k`k`k`k`k`k`k`k`k`k`k`k`k`k`k`k`k`k`k`k`k`k`k`k`k`kapaqarasatauavawaxayazaAaBaCaD",
".a.0ajabaE.aaF#6aGaH`SaIaJaK.S`k`k`k`k`k`k`k`k`k`k`k`k`k`k`k`k`k`k`k`k`k`k`k`k`k`k`k`k`k`k`k`k`k`k#caL#TaM.gaNaO#6aP.daQ#KaRaSaH"
};
