/* XPM */
static char *door_2_xpm[] = {
/* width height num_colors chars_per_pixel */
"    64    64      256            2",
/* colors */
"`` c #0c0a0c",
"`. c #5c5a5c",
"`# c #fc02d4",
"`a c #4c2a1c",
"`b c #2c2a24",
"`c c #b45a24",
"`d c #4c4a4c",
"`e c #2c1a14",
"`f c #6c361c",
"`g c #848684",
"`h c #f47a34",
"`i c #d46a2c",
"`j c #1c1a14",
"`k c #4c3a34",
"`l c #3c3a3c",
"`m c #8c4624",
"`n c #744224",
"`o c #945a34",
"`p c #3c2214",
"`q c #a44e24",
"`r c #3c2a1c",
"`s c #bc6634",
"`t c #1c120c",
"`u c #6c6e6c",
"`v c #5c321c",
"`w c #2c221c",
"`x c #7c3e1c",
"`y c #9c9e9c",
"`z c #7c4a2c",
"`A c #6c3e24",
"`B c #242224",
"`C c #4c3224",
"`D c #c4622c",
"`E c #e46e2c",
"`F c #5c361c",
"`G c #944e24",
"`H c #844224",
"`I c #a45624",
"`J c #343234",
"`K c #241a14",
"`L c #7c421c",
"`M c #442a1c",
"`N c #342214",
"`O c #141214",
"`P c #646664",
"`Q c #b46234",
"`R c #4c4e4c",
"`S c #949294",
"`T c #dc6a2c",
"`U c #cc662c",
"`V c #24160c",
"`W c #7c7a7c",
"`X c #acaaac",
"`Y c #643624",
"`Z c #542e1c",
"`0 c #342e2c",
"`1 c #341e14",
"`2 c #743a1c",
"`3 c #fc8e3c",
"`4 c #444244",
"`5 c #9c4a24",
"`6 c #848284",
"`7 c #442614",
"`8 c #ac5224",
".` c #743e1c",
".. c #cc6e3c",
".# c #140e0c",
".a c #646264",
".b c #4c2e1c",
".c c #2c2e2c",
".d c #bc5e2c",
".e c #2c1e14",
".f c #6c3a1c",
".g c #8c8e8c",
".h c #fc8244",
".i c #1c1e1c",
".j c #944a24",
".k c #74462c",
".l c #a45a34",
".m c #a45224",
".n c #3c2e24",
".o c #1c160c",
".p c #747674",
".q c #64321c",
".r c #2c2624",
".s c #a4a6a4",
".t c #844a24",
".u c #54321c",
".v c #5c3a1c",
".w c #9c4e24",
".x c #ac562c",
".y c #241e14",
".z c #7c462c",
".A c #442e1c",
".B c #34261c",
".C c #545654",
".D c #dc6e34",
".E c #cc6a34",
".F c #0c0e0c",
".G c #5c5e5c",
".H c #2c2a2c",
".I c #b45a2c",
".J c #5c4234",
".K c #8c8a8c",
".L c #f47a3c",
".M c #d46a34",
".N c #1c1a1c",
".O c #543624",
".P c #3c3e3c",
".Q c #8c4a2c",
".R c #74422c",
".S c #945a3c",
".T c #3c261c",
".U c #3c2a24",
".V c #747274",
".W c #5c3224",
".X c #2c2224",
".Y c #7c3e24",
".Z c #a4a2a4",
".0 c #6c3e2c",
".1 c #242624",
".2 c #cc622c",
".3 c #e47234",
".4 c #5c3624",
".5 c #a45634",
".6 c #343634",
".7 c #7c4224",
".8 c #34221c",
"#` c #141614",
"#. c #9c9a9c",
"## c #6c6a6c",
"#a c #545254",
"#b c #844e34",
"#c c #bc6234",
"#d c #9c522c",
"#e c #7c7e7c",
"#f c #acaeac",
"#g c #643a24",
"#h c #444644",
"#i c #dc6a34",
"#j c #cc6634",
"#k c #241614",
"#l c #44261c",
"#m c #743e24",
"#n c #4c2e24",
"#o c #2c1e1c",
"#p c #6c3a24",
"#q c #a4522c",
"#r c #1c1614",
"#s c #543224",
"#t c #241e1c",
"#u c #442e24",
"#v c #000000",
"#w c #000000",
"#x c #000000",
"#y c #000000",
"#z c #000000",
"#A c #000000",
"#B c #000000",
"#C c #000000",
"#D c #000000",
"#E c #000000",
"#F c #000000",
"#G c #000000",
"#H c #000000",
"#I c #000000",
"#J c #000000",
"#K c #000000",
"#L c #000000",
"#M c #000000",
"#N c #000000",
"#O c #000000",
"#P c #000000",
"#Q c #000000",
"#R c #000000",
"#S c #000000",
"#T c #000000",
"#U c #000000",
"#V c #000000",
"#W c #000000",
"#X c #000000",
"#Y c #000000",
"#Z c #000000",
"#0 c #000000",
"#1 c #000000",
"#2 c #000000",
"#3 c #000000",
"#4 c #000000",
"#5 c #000000",
"#6 c #000000",
"#7 c #000000",
"#8 c #000000",
"a` c #000000",
"a. c #000000",
"a# c #000000",
"aa c #000000",
"ab c #000000",
"ac c #000000",
"ad c #000000",
"ae c #000000",
"af c #000000",
"ag c #000000",
"ah c #000000",
"ai c #000000",
"aj c #000000",
"ak c #000000",
"al c #000000",
"am c #000000",
"an c #000000",
"ao c #000000",
"ap c #000000",
"aq c #000000",
"ar c #000000",
"as c #000000",
"at c #000000",
"au c #000000",
"av c #000000",
"aw c #000000",
"ax c #000000",
"ay c #000000",
"az c #000000",
"aA c #000000",
"aB c #000000",
"aC c #000000",
"aD c #000000",
"aE c #000000",
"aF c #000000",
"aG c #000000",
"aH c #000000",
"aI c #000000",
"aJ c #000000",
"aK c #000000",
"aL c #000000",
"aM c #000000",
"aN c #000000",
"aO c #000000",
"aP c #000000",
"aQ c #000000",
"aR c #000000",
"aS c #000000",
"aT c #000000",
"aU c #000000",
"aV c #000000",
"aW c #000000",
"aX c #000000",
"aY c #000000",
"aZ c #000000",
"a0 c #000000",
"a1 c #000000",
"a2 c #000000",
"a3 c #000000",
"a4 c #000000",
"a5 c #000000",
"a6 c #000000",
"a7 c #000000",
"a8 c #000000",
/* pixels */
"`l.P`4.P`4#a#a.C.G.V.V`u##`u.V`u`u##.a.G`.#a`R#h.H`l`l`l.c.6`#`#`#`#.c`l`l`l.6.c`4`d`R`..a`P`u`u`u`u####`P.G.C`R`d#h`4`J`4.P.P.6",
"`R`..G.a.G.a.G.a.V.K.g.K.g#.`y.s.Z`S#e.p##.a`.`.#h`d#h.C`R.a`#`#`#`##a#a`R#h`d`4#a`..G`P.V.p`W`W`W.p.p.p.p####`.`..C`.#a.G.G.C`d",
"#`#r.i.i#`#`.N#`#`#`.N.N#`.N.N.i`B.i#t.i.i.i.N.N#``B.i#t.i.r`#`#`#`#`B`B.i#t.i#`#`.i.i#t.i.i#t.i.N#`.N.N#r#`.N#`#`.N#`#``B.i#r.N",
".H.i.i.N#`.H#h`R`.`u.G.C#a`R#a`R`R#h.P`l.H.1.H.c#`.P.P.1.i`J`#`#`#`#`B`b.1.P`J#`.c.H.H.6#h`R`d`d`R`d.P.P`l.P.6`l`l.H.i`O.i.N.1.H",
".P.P.1.N.1.a.K`6.V`6.p##`..G.G`.`.`R`4.P.6`J`J.6.i`..a.6`B.6`#`#`#`#`B.c`l.G`4.1.6.6.6`d`u`W.V.V#e`6.p.p.p.a#a#a.G.C`l`O.i.c#h`4",
"`u#a.c#`.H`P.P.1#`.N.i.N#`.N#`.N#`.N#`.N#r#`#`.F.N.C`P`l`B.6`#`#`#`#.1`J`4.G.P.N``#`#r.N.i.N#`.i.N.N.N.N.i.i#`.i.1`4`4#`.N#h.V.V",
".K`R.6.N`J.V`0.i.N.N.1.H.1.H.1.H.1.H.1.H.1`B.N#`#r.C##`l.1.6`#`#`#`#.1`J`4`P.P.N`O.i`B.1.H.1.H.1.1.1.1.H.1`B.N.N.i`l`R#``B#a.C.p",
".G.r.r#`.c`..c.N.N.i.6`4`d`R`R`d#h`l.6.H.1.i.N`O.N`P`u`l`B.6`#`#`#`#`B`0`4`P`4.N.F.N`B.H.c`l.P`d`R#a`R`d`4.c.i.N.N`J#h#`.i.c.r`P",
"`R.c.6#`.1#a.6.c.c`R.G`u##`6.g.K.K`P.G#a#h`l.1#`.N`u.V.6.1.6`#`#`#`#.1`J.P##`4.i#``J.P#h#a.G`P`g`y.Z.K##`u`..6`J.H.6`4#`#t.P.1`.",
"`l.H.6#r.1`R`B.N.i.r.6`J.c`l.P.P`l.1`0.c`0.1`B`O.i##.V.6`B`l`#`#`#`#`B`0`4`P#h.N.F`B.c.c`J.H.H.P.C.C.P.H.6`J`B.i.i`B.P#``B.P`B`R",
".6.H`l.N.H#a.c.i.i.1`l`l.6`R`.#a.P.1.6`J`J.c`B#`.N`P`u.6`B.6`#`#`#`#.1`0.P.a`4#`#`.1.c`J`J.c.c`4.a.a`4.c.P.6`B.i.i`J`4.N.1.P`B`d",
".6.c.P.N.c`.`J.r.c`4.C#a`d.V.K#e`..6#a#h`d.P.c#`.i.a##`J`B.6`#`#`#`#.1`J.6.G`4`B#``J#h`d`d`4.P.G.K`6.G#h`.#a`J.c.H.6`4#`.1`4.i`d",
"`J.c#h.N.c.C.H.i`B.1.6`J.1.6`l.6`0.i.c`0.c.H.i`O.N.G.a.6`B.6`#`#`#`#.y`J.6.a.P.N`O`B.c.c.c.H.1.6`R#h.6.r`J.c`B`B`B`J#h.N`B`4`B`d",
"`J`J#h.N.c`..1.N#``B`J.P`J`R.C`R`l`B.H.H.c.1.N#`.N.P.P`B#``J`#`#`#`#.i`B.1`4.6.i`O.i.H.H.H.1.r`4.G.C.P`J.6.c.i#`.i.c`d#`.1`4`B#h",
".c`J`R.N.c.a.c.1.c.6`d#a#h.V`S.p`..6`4.P`4.6.H#`.N.H`B#`.F.i`#`#`#`#.##``j`b`B.i#`.c.P.P#h`l.P`P.K`W`.`4.C#h`0.c.r.c#h.N.1`R.1#h",
"`J.H#a.N.c`u.6.i.N`B.H.c.H`J.6`J.c.1.H.1.c`B.N#``B.G.G`l.1`J`#`#`#`#`B.c`J#a.P.1`O.N.H.H.H.1.c.6`4`4.c.H.c.1.i.i.i`J#h.N.1`d`B#h",
".c.H.C.i.6##`J#t.1.6`4`R.a`u.p##.a.G.C#a#h.6.1#`.N.P`J.i.N.6`#`#`#`#.y.i.i`l.c.N#`.H.P`R.G.G.G.a.p`W`P.G`4.P.H.1`B.H#h.i.H`R.i`d",
"`J.6.G`B`l`P.1.N.i`J`l`d`u`6.g`W`u.a.C`d`4`J.i#r.N.6.H.N.N`J`#`#`#`#`B.i.i.6.c.i`O.1`l`d.C.G`.`..a`u`P#a.6`J.1.i#``B#h#t.c`..H`d",
".6`4`P.i`l`P`B#`.N`B`B.i.1.1.r.1.1.1.1`B.1#t.N.i.i`R#h.c`B.c`#`#`#`#`B`J`0`R`4.i#`.N`B.1.1.r.1.1.1.r.1.1`B`B`B.N`O`B`4`B.c`..c`d",
"`J#h#a.i`l`P.1.H.c.c.6.6`J`J.c.H.H.H.H.1.H.N.N.i.N.C.C.6`B`J`#`#`#`#.y.c.6`.`4.N.N.N`B.H.H.1.H.1.H.c.c`J.c.c.c.H`B.1.P.i.H`..c`4",
".P#h`l`B.c##.P#a`u.V.p`W.p.V.G#h#h.P.6.6`J.i.c.1.i.G.a`J`B.c`#`#`#`#.1`J.6`..P.i.c.i.c.P`R#a`..G`P`W`6##.C`d.P.6.6.c`l`B.H`R.P#h",
"`4#a.6`B.6##`J.6.H#`.N.N.N.1.i.N#`.N#``B.i.N#h.6`B.G##`J.1`0`#`#`#`#`B`0.6.a`4.1`4.c`B`B.i.i.i`B.1`J.c.1`B.N#``J.c.c.P.i.H`d#h`4",
"`4`d.6`B.P##.H.6.c.N.i.i.i`B.i.i.i`B.N.1.H`B`u#h`B.G`P`J`B.c`#`#`#`#`B.c.P.G`4.H.G`R.1.H`B.N.i.i.i.i`B.N.i`B`O.6.H.H`4`B.H`4`4#h",
".C#a`l.c#h.V.1`l.c.N.N.N.N.N.N.N.N.i`O.6`d.c.K#a.N.G##`J`B.c`#`#`#`#`B`J`l.G.P.H`W.G.P`R.i.N.N.N.N.N.N.i.N.N.N`J.1.c#h.1.c#h#a.G",
".H.c.1.i.P.p.1`l.c#``O.F#`#`#`#`#`.N.N`R.p`4#f.G.N.a.a`J.1.c`#`#`#`#.y.c`l.a.P.1.g###a`6.H#`.i`O#``O#``O.F#`#`.6.1`J`4.i`B.c.H.c",
"`J`J`J`B#h`6`B`l`J.6`4.1`d.C.P`..6#a`J`u#e`l`X`.#``P.G.6`B.c`#`#`#`#.1`J`l.G.P.H.K`P.C.Z.P`4`4.c.C`J.C.c.c`4`B`l`B.c#h`B.H.6.c`l",
"`J.c.6.i`d`6`B.P.6`4`R.H`P`W.G`6`R.p`l`u`P.c#.#a.N`u`P`J`B`0`#`#`#`#`B.c`l.a.P`b#e`P`l#e#a.C`P`4#e#h.p`l`0`d.1.6.1.H#h`B.H.6`J.6",
"`l`l.c.i`4#e.1.P`J`J.c`O.c`J.H.P#t.P.1.V`..6`W#h.N`u##`J`B.c`#`#`#`#`B`J.6.a.P.H.G#a.P.G.P`J`l.N#h.i.P.N.i.6`B.6.1.H#h`B`B`l.6`4",
"#h.P`J.i`l.p.1`l`J#`#```.N#``O#`.F`B#``d`l`J.a.6.N##.a`J.1.c`#`#`#`#.y`J`l.G.P`B`R`R.P`4.H#`.i``.N``.i.F`O#`#`.6.H.H`4.i.1`l.P`R",
"`.`d.6.i`l`u.r`J.6`B`B.F.1.i.N`B#`.H.N.6.1.c#a`J#``u.G.6`B.c`#`#`#`#`B.c.P.a.P`B#h`d.H.H.H.i.H#``B`O.1#r#`.H.N.6.1.c.P`B`B#h`d.C",
".c`J.1.N.6##.1.6.6.N#``O#``O#`.N.F.N.i.c.H.1.P.1#``u.a`J`B.c`#`#`#`#`B`J.6.G.P#r`J.6.c.H.1.i.N.F.N.F`O#`#`#`.N`J.H.c`4.i.i.c.H.c",
".6.P`J.N`l`P.H`l`l#`.F`O`O`O`O.N.N#`.N`B.i.i`l.N#`.a.G`J.1.c`#`#`#`#.y.c.P.a`l.F.H.1.1`B.i.N#`.N#`#``O`O`O.F.i.6.H`J`l`B.i`l`l.6",
"`J.P.c.N`l.C.H.P.P.N#`.i.N.i.N#`.i.i#`.N.i.N.c#``O.G.G`J`B`0`#`#`#`#.1`J`l.G`l.F.H`B.1.N.N.N.N.N.N.i.N.i.N#``B`l.c`J`l`B`B`l`J`l",
".1.c.c.N`l`R.c.P`4.P.P.6.6.6.6.c.H.1.H.H`J.i.H.N`O`P.G`J.1.c`#`#`#`#`B.c`l.a.P#`.i.i.H`J.1.c.c.c`J.6`l.6#h#h`l.P.6`J.6`B.i.c.H.6",
".N.r.1.N`l`R`J`J`J`d`P`6.K.K#e.a#a`d`4#h`R.c.H`B#`.a.G`J`B.c`#`#`#`#`B`J`l.G.P#r.H.i`4.P.P`4.P#a.G.V.p#e`u.G`d`J`J`J.6.i.1.H`B.c",
".1.c`l.N.c`d.c.1.1.H`J.P#h`4`l.c.1.1.1.H.H.1.i.1.N`.`.`J.1`0`#`#`#`#`B.c`l.G`4.N.1#`.c.c.r.1.1.H`J.P.P.P`l.c.H.1.H`J.6.N.1.P.H`J",
".1.1`l#``J.G`B`B.1.c`J.6`l.6.6.c.H.1.H.c.c`J`B.i#``.`.`J`B.c`#`#`#`#`B`0`l.G.P.F`B.c`J`J.c.c.H.c`J.P`l.6`0.H.c`B.i.c`l#`.1.P`B.6",
".i#t.6.N`J`u.1.1.c`d.C##`W.p.V`P`.`R#h#h`d.P.c.H`O`..C.6`B.c`#`#`#`#`B.c.P.a.P#`.r.c.6.6`l.6.P.P`R.G`.`R#h.P`l.1#t.6`l.N.1`l.N`J",
".i.i`l#`.c.G`B`O#`.1.1.c`J`J.6`0.H.i`B.i.i.N`O#`.F.C.C`J.1.c`#`#`#`#`B`0`l.G`l.F#`#`.i.N.N.N`B.r`J.P`J.c.H`B.i`O#``J`l#`.1.P.N.c",
".i`B`l#`.c#a`B#`.1.P`4`J#a`P`S`P#h`J.6.6`J`J`B.i`O#a#a`J`B.c`#`#`#`#.y.c.P.G`l`O.i.r`J`J.6`J`l.C`P`W.G`4.6`4.6.N.N.6`l#`.1.P.i`0",
"`B`B.6.N.H`d.i#`#``B.c.1`l#h##`d.P.1.H`B`B.i.N.N``.c.c`B.i`0`#`#`#`#.1`B.1`J.i``.i.N.i.1.1`B.c`4`R`.`4.c.H.H.i#``O`J`l.N`B`4`B.c",
"`B.c`l#`.1`d.1.i.r.6`d.6#a.a`g.G#a.6`d.P.P.6.H`B.F`4#h.c`B.c`#`#`#`#`B.c`J`R`J`O`B.c`l.P#h.P`4`.`u#e.a#h`l`4`J`B#`.6.P#``B`R.1`J",
".1.6`l.N.c`4.i.N.i.c`J.1.6`4.C.P`l.1`J`J.c.c`B.N`O#a.C`J`B`0`#`#`#`#`B`J.6.G.P.F.i.1.c`0`J.H.c.P`R#a.P`0.H.c.H.i#`.c`l#``B#a`J.c",
".H.P.P#`.c.P.i.F#``B.H.N`J#h#a.P`0.i`B.i`B.N#`#`.F.H.c.N.i.c`#`#`#`#`B.i`B`J`B``#`#r.i.i`B.i`B.P#a.C`4.1.i.H.i`O.F`J.6#``B#a.6`J",
".H`l`4#`.r#h.H`B.H.P#h.c#a`P.V`.#a.6.P.P.P`l.1.1`O.6.6`B`B.c`#`#`#`#`B.r.1.P.c`O.1.c`l.P`4.6.P.a`W#e`P`4.6#h.6.1`B.6`l#`.1#a.6`J",
".1.P.P.N.1#h.r#`#``B`B.1.1.H.c.1.1.N`B.1`B.i.N#``O.G`.`J.i.c`#`#`#`#.y.c`l.G.P``#`.N`B.1.1.i#t.H.6`l.H.1`B.1.i#`.N`l`l#``B#a.6.c",
"`B.P.P#r.1`4.H.i.1`J.C`u`u.V#e`P`R`4.6`J.H`J.i`B`O.G.C.6`B.H`#`#`#`#`B.c.P.a`l`O.i.1`J`J`J.6.P`d.G.G`R`d.P`l.c`B.i.6`l#``B#a`J.c",
".c#a`l#`.H.P.H.H`J#h##`W`W.V.p##.a.C`R#h.P.P.H.1`O.G`.`J`B.H`#`#`#`#.y.c`l.G.P#``b.c`4`R`..G.a.G`P.a.G`.#a#h`l`0.1.6.6.N.i#a#h`J",
"`l.a`l#``B.P.1`B.i.H.c.c.c.c`0.c.c`J.c`J.c.H.i`B`O`..C.6.i.H`#`#`#`#`B.c`l`P.P`O.i`B.c.c`J`J.c`0.c`J.c.c.c`J`B`B.N.6.6#``B`..G.6",
"`R.G.6#``B.P.1.i`B.1.c.H.H.H.H.H.1.1.H`B.H`B.N.N.F`.`..6`B.H`#`#`#`##t.c.P`P`4`O#`.i.H.1.1.1.H.H.1.H.H.c.c.H.1.i.i`J`J#``B#a`u`d",
"#h#a`0#``B`4#h.c.1.H`J`J.H.H.1.H`B`B`B`B`B`B.i.N#``R.G`J.i.H`#`#`#`#.i`J`4`P`J#`.N.i`B`B.1`B.i.1.1.H.1.c.c.H`B`B.H`4.6`O.i`4`..P",
".P`d.1#`.i.P`.`P##.a`P.p`u.G.G.G.C.C`R`4.P.6.H.1#``.`.`J.1.c`#`#`#`#`B.c`4`P.P#r.1.c.6`l`l#h.C#a.a.a#a#a#a#h`l.6#h`d.6`O.i.c`4.P",
".6`l.H#`.N.6.P`d`R#a.C.a.G`..C`..C.C#a`d#h.P.H.1.N.C.C.c`B.H`#`#`#`#.y.c.6.a.P.N.1`l`4`d`R`..V.p.V#e`u.a.G`R`4`4.P.P.c`O.i`J.P.6",
".H`J.1.F.#.i`B`B`B`B`B`B`B.1.H.c.c.H.H.H.H.1.i.N#`.C#a`J`B.1`#`#`#`#`j`J.6`..P#r.i`B.c.c`J`J`J`J`J.c.H.1.1`B`B.i.1.i.N``.N`J.6.1",
".1.c.c#r#``B`B.1`B.1.1.1`B.1.H.c.H`J`J`J.c`J.1.1.N`d`R`J.i.1`#`#`#`#`j`J.6.C`J.i`B.H.6`J`J.c.c.c.c.H.1`B.1.1.1.1.1.1.i.F`B.c.H.c",
".H.c`J.c.1.1`B.N`B.i`B`B`B`B`B`B.i`B`B.1.1.1`B`B#`.H.c`B#``O`#`#`#`#.#.1.1.c`B.N.i.1`B`B.1.1.1.i`B`B`B`B`B`B`B`B.N`B.H`B.c`J.H.H",
".P.C##.V.a`d.1.1.P#h.C.C`R.P.6.1`B`4.G.G#a.P.H`B.6`d#a#h`l.i`#`#`#`#`B`l`d`R.P.H`B`J`4`R#a`d.c`B.c.6.P#h.C`R`4.6`B.6#h`d`R`d.P`l",
".P.G##`P`P`R.c.H#h.G.V.p##`d`l.H.1`4`.`.`R.P.c.1.6`d#a`R`4.i`#`#`#`#.r.P`P.a`d.c`B.6`R.G.C`R.6`B`J.P`d#a.G`.`d`4`B.6`R#a.C#a`R.6",
"`0`0`J.c.r`J.1.1.H.H`J`J.c.1.1`B.i`B.1.H.H.H`B#`.i.1.1.1`B`O`#`#`#`#`j.1.H.c`B.N#`.1.r.H.1.i`B.N`B`B.1.H.c.c.1.1.N.H.1`B.H.c`0.r",
"#m.0`r`O`a#g.4`M#r#n`A.4.8#r.U.O#u#r#r.U.0.T#r`M#n#n.i#r#t`K`#`#`#`#.e.i`O.r.b.A.e#r.b`C`e.#`K.n#u`K`t.U.W`Z`1#r`M`Z#s#k`O.T.W`Z",
".E`G`w.b.d.E.5`C.4`D`T`G#o.v#j#c#s.U.5`h`s`Z#m`E#i`z.X.J.S.0`#`#`#`##b`o`k.B`Q`E.I`a#g.M.E.k#l#d.h.D`C#s.L`3.M`C.z...D`m.8.A.x`Q",
"`x`e.N`2.w.t`M`K#p`8`m`p.8.j`5.q.e`F.j.j`7`p`x`q#m`1.n`H`I.W`#`#`#`#`L.m`n.B.b#d`8.f`N`2.I#d#n`7.w.2.j.8.f.2`U.b#t#p#d.j.b#r`7`G",
".e#``w.`.7`a#r.8#m`H`p#r.b`x`Y`V#o.f#m#l.o`a`2`f`1.i#n.7`A.T`#`#`#`#`a.7`A.B`K`7`x`2`e`K`v`x.u`K`p`2#m.B#r`v`m`v`K.y`Y`L`F.N`t.U",
"`O`O#r#o`w`O`O`e`N`1.#.o`K`N`V.F#r`1#k.#.F`e`N#r.##``e`N#o.o`#`#`#`#`K.e`1`K`O.#.e`1.o```O`1.e`O.#.e`N`K.#.o`N`N#k.F#r.8#o#``O#`"
};
