/* XPM */
static char *door_23_xpm[] = {
/* width height num_colors chars_per_pixel */
"    64    64      256            2",
/* colors */
"`` c #505050",
"`. c #4d4d4d",
"`# c #474747",
"`a c #2a2a2a",
"`b c #393939",
"`c c #3a3a3a",
"`d c #303030",
"`e c #363636",
"`f c #ff00d2",
"`g c #2d2d2d",
"`h c #353535",
"`i c #2c2c2c",
"`j c #414141",
"`k c #4a4a4a",
"`l c #616161",
"`m c #5d5d5d",
"`n c #595959",
"`o c #454545",
"`p c #4c4c4c",
"`q c #525252",
"`r c #4e4e4e",
"`s c #555555",
"`t c #535353",
"`u c #484848",
"`v c #5a5a5a",
"`w c #1c1c1c",
"`x c #1a1a1a",
"`y c #141414",
"`z c #222222",
"`A c #202020",
"`B c #1e1e1e",
"`C c #282828",
"`D c #161616",
"`E c #3f3f3f",
"`F c #3c3c3c",
"`G c #232323",
"`H c #333333",
"`I c #252525",
"`J c #323232",
"`K c #181818",
"`L c #5b5b5b",
"`M c #606060",
"`N c #272727",
"`O c #373737",
"`P c #0f0f0f",
"`Q c #585858",
"`R c #656565",
"`S c #3e3e3e",
"`T c #0c0c0c",
"`U c #676767",
"`V c #424242",
"`W c #636363",
"`X c #3d3d3d",
"`Y c #121212",
"`Z c #646464",
"`0 c #707070",
"`1 c #6c6c6c",
"`2 c #747474",
"`3 c #434343",
"`4 c #727272",
"`5 c #464646",
"`6 c #6d6d6d",
"`7 c #696969",
"`8 c #5e5e5e",
".` c #5f5f5f",
".. c #2f2f2f",
".# c #5c5c5c",
".a c #565656",
".b c #6f6f6f",
".c c #686868",
".d c #8a8a8a",
".e c #515151",
".f c #666666",
".g c #7a7a7a",
".h c #afafaf",
".i c #8c8c8c",
".j c #6b6b6b",
".k c #ababab",
".l c #898989",
".m c #9a9a9a",
".n c #7d7d7d",
".o c #797979",
".p c #545454",
".q c #6a6a6a",
".r c #090909",
".s c #4b4b4b",
".t c #282727",
".u c #252323",
".v c #2a2727",
".w c #3e281c",
".x c #1c140f",
".y c #422c20",
".z c #4d2f1c",
".A c #462d20",
".B c #181616",
".C c #251e1c",
".D c #271a14",
".E c #28201a",
".F c #221e1c",
".G c #161414",
".H c #2a2722",
".I c #4e2f1e",
".J c #482c1c",
".K c #281c16",
".L c #1a140f",
".M c #4b2f1e",
".N c #55301e",
".O c #723d1e",
".P c #e56e2f",
".Q c #da6932",
".R c #7a4a2f",
".S c #2c2320",
".T c #5d4133",
".U c #965b37",
".V c #6d3e2a",
".W c #854e30",
".X c #90593a",
".Y c #4a3a30",
".Z c #392a23",
".0 c #b66336",
".1 c #e26e2f",
".2 c #b25827",
".3 c #4e2d18",
".4 c #683c27",
".5 c #392012",
".6 c #7d3e1c",
".7 c #a34e20",
".8 c #753e22",
"#` c #322016",
"#. c #3e2c22",
"## c #874825",
"#a c #a15228",
"#b c #5a351e",
"#c c #774225",
"#d c #a75427",
"#e c #724128",
"#f c #2f231a",
"#g c #4c2c1a",
"#h c #a05227",
"#i c #af5322",
"#j c #6a371c",
"#k c #372014",
"#l c #482818",
"#m c #783d1e",
"#n c #6a371e",
"#o c #321e14",
"#p c #221c1a",
"#q c #4e2f20",
"#r c #793f22",
"#s c #703e23",
"#t c #3d2518",
"#u c #4c2d1e",
"#v c #7b4223",
"#w c #713d20",
"#x c #35251e",
"#y c #221a16",
"#z c #452518",
"#A c #783e1e",
"#B c #70391c",
"#C c #2c1a14",
"#D c #281a12",
"#E c #20160f",
"#F c #140f0f",
"#G c #271c16",
"#H c #332016",
"#I c #281e18",
"#J c #1c1614",
"#K c #231a14",
"#L c #2a1e1a",
"#M c #201814",
"#N c #160f0c",
"#O c #2c1c14",
"#P c #1e160f",
"#Q c #000000",
"#R c #000000",
"#S c #000000",
"#T c #000000",
"#U c #000000",
"#V c #000000",
"#W c #000000",
"#X c #000000",
"#Y c #000000",
"#Z c #000000",
"#0 c #000000",
"#1 c #000000",
"#2 c #000000",
"#3 c #000000",
"#4 c #000000",
"#5 c #000000",
"#6 c #000000",
"#7 c #000000",
"#8 c #000000",
"a` c #000000",
"a. c #000000",
"a# c #000000",
"aa c #000000",
"ab c #000000",
"ac c #000000",
"ad c #000000",
"ae c #000000",
"af c #000000",
"ag c #000000",
"ah c #000000",
"ai c #000000",
"aj c #000000",
"ak c #000000",
"al c #000000",
"am c #000000",
"an c #000000",
"ao c #000000",
"ap c #000000",
"aq c #000000",
"ar c #000000",
"as c #000000",
"at c #000000",
"au c #000000",
"av c #000000",
"aw c #000000",
"ax c #000000",
"ay c #000000",
"az c #000000",
"aA c #000000",
"aB c #000000",
"aC c #000000",
"aD c #000000",
"aE c #000000",
"aF c #000000",
"aG c #000000",
"aH c #000000",
"aI c #000000",
"aJ c #000000",
"aK c #000000",
"aL c #000000",
"aM c #000000",
"aN c #000000",
"aO c #000000",
"aP c #000000",
"aQ c #000000",
"aR c #000000",
"aS c #000000",
"aT c #000000",
"aU c #000000",
"aV c #000000",
"aW c #000000",
"aX c #000000",
"aY c #000000",
"aZ c #000000",
"a0 c #000000",
"a1 c #000000",
"a2 c #000000",
"a3 c #000000",
"a4 c #000000",
"a5 c #000000",
"a6 c #000000",
"a7 c #000000",
"a8 c #000000",
/* pixels */
"```.`#`a`b`c`c`d`e`f`f`f`f`f`f`f`f`f`f`f`f`f`f`f`f`f`f`f`f`f`f`f`f`f`f`f`f`f`f`f`f`f`f`f`f`f`f`f`f`f`f`f`f`f`f`g`b`c`c`h`i`j`k``",
"`l`m`n`o`p`k`q`r`l`f`f`f`f`f`f`f`f`f`f`f`f`f`f`f`f`f`f`f`f`f`f`f`f`f`f`f`f`f`f`f`f`f`f`f`f`f`f`f`f`f`f`f`f`f`f`s`t`.`u`k`j`t`v`l",
"`w`w`x`y`z`A`B`B`C`f`f`f`f`f`f`f`f`f`f`f`f`f`f`f`f`f`f`f`f`f`f`f`f`f`f`f`f`f`f`f`f`f`f`f`f`f`f`f`f`f`f`f`f`f`f`A`z`w`A`w`D`x`w`B",
"`C`a`i`D`E`F`G`A`H`f`f`f`f`f`f`f`f`f`f`f`f`f`f`f`f`f`f`f`f`f`f`f`f`f`f`f`f`f`f`f`f`f`f`f`f`f`f`f`f`f`f`f`f`f`f`z`a`I`E`J`K`g`a`a",
"`J`J`h`B`L`M`h`G`e`f`f`f`f`f`f`f`f`f`f`f`f`f`f`f`f`f`f`f`f`f`f`f`f`f`f`f`f`f`f`f`f`f`f`f`f`f`f`f`f`f`f`f`f`f`f`I`d`c`M`j`N`H`h`O",
"`D`y`P`x`Q`R`c`G`e`f`f`f`f`f`f`f`f`f`f`f`f`f`f`f`f`f`f`f`f`f`f`f`f`f`f`f`f`f`f`f`f`f`f`f`f`f`f`f`f`f`f`f`f`f`f`I`J`j`M`S`x`T`y`K",
"`z`w`y`K`Q`U`F`G`e`f`f`f`f`f`f`f`f`f`f`f`f`f`f`f`f`f`f`f`f`f`f`f`f`f`f`f`f`f`f`f`f`f`f`f`f`f`f`f`f`f`f`f`f`f`f`I`J`V`W`X`x`Y`B`G",
"`B`K`Y`x`Z`0`c`G`e`f`f`f`f`f`f`f`f`f`f`f`f`f`f`f`f`f`f`f`f`f`f`f`f`f`f`f`f`f`f`f`f`f`f`f`f`f`f`f`f`f`f`f`f`f`f`I`d`V`U`E`w`P`x`z",
"`e`a`K`x`1`2`O`G`e`f`f`f`f`f`f`f`f`f`f`f`f`f`f`f`f`f`f`f`f`f`f`f`f`f`f`f`f`f`f`f`f`f`f`f`f`f`f`f`f`f`f`f`f`f`f`I`d`V`U`3`B`D`d`F",
"`C`A`Y`w`1`4`O`G`e`f`f`f`f`f`f`f`f`f`f`f`f`f`f`f`f`f`f`f`f`f`f`f`f`f`f`f`f`f`f`f`f`f`f`f`f`f`f`f`f`f`f`f`f`f`f`I`d`j`U`5`x`P`z`i",
"`i`z`y`x`U`6`h`G`e`f`f`f`f`f`f`f`f`f`f`f`f`f`f`f`f`f`f`f`f`f`f`f`f`f`f`f`f`f`f`f`f`f`f`f`f`f`f`f`f`f`f`f`f`f`f`I`d`X`W`3`K`Y`I`d",
"`S`g`K`w`M`7`H`G`e`f`f`f`f`f`f`f`f`f`f`f`f`f`f`f`f`f`f`f`f`f`f`f`f`f`f`f`f`f`f`f`f`f`f`f`f`f`f`f`f`f`f`f`f`f`f`I`d`O`M`j`A`K`H`o",
"`C`B`y`x`8`R`H`G`e`f`f`f`f`f`f`f`f`f`f`f`f`f`f`f`f`f`f`f`f`f`f`f`f`f`f`f`f`f`f`f`f`f`f`f`f`f`f`f`f`f`f`f`f`f`f`I`d`O.``j`x`Y`z`g",
"`N`w`y`w`S`X`G`K..`f`f`f`f`f`f`f`f`f`f`f`f`f`f`f`f`f`f`f`f`f`f`f`f`f`f`f`f`f`f`f`f`f`f`f`f`f`f`f`f`f`f`f`f`f`f`w`z`N`V`H`A`Y`B`a",
"`e`C`K`x`C`G`D`P`B`f`f`f`f`f`f`f`f`f`f`f`f`f`f`f`f`f`f`f`f`f`f`f`f`f`f`f`f`f`f`f`f`f`f`f`f`f`f`f`f`f`f`f`f`f`f`Y`D`K`a`z`A`D`i`F",
"`G`x`D`G.#`m`c`I`H`f`f`f`f`f`f`f`f`f`f`f`f`f`f`f`f`f`f`f`f`f`f`f`f`f`f`f`f`f`f`f`f`f`f`f`f`f`f`f`f`f`f`f`f`f`f`z..`J`t`S`z`Y`w`C",
"`O`N`D`K`E`H`A`x`e`f`f`f`f`f`f`f`f`f`f`f`f`f`f`f`f`f`f`f`f`f`f`f`f`f`f`f`f`f`f`f`f`f`f`f`f`f`f`f`f`f`f`f`f`f`f`G`w`B`b`i`x`y`i`j",
"`J`B`D`w`O`C`x`x`J`f`f`f`f`f`f`f`f`f`f`f`f`f`f`f`f`f`f`f`f`f`f`f`f`f`f`f`f`f`f`f`f`f`f`f`f`f`f`f`f`f`f`f`f`f`f`G`B`w`h..`B`Y`I`c",
"`A`K`B`B`r`o`g`G..`f`f`f`f`f`f`f`f`f`f`f`f`f`f`f`f`f`f`f`f`f`f`f`f`f`f`f`f`f`f`f`f`f`f`f`f`f`f`f`f`f`f`f`f`f`f`G`d`d`.`j`B`K`x`z",
"`w`x`w`w.a.a`h`G`d`f`f`f`f`f`f`f`f`f`f`f`f`f`f`f`f`f`f`f`f`f`f`f`f`f`f`f`f`f`f`f`f`f`f`f`f`f`f`f`f`f`f`f`f`f`f`G`d`e`n`V`x`x`x`G",
"`B`d`I`B.#`M`H`G`d`f`f`f`f`f`f`f`f`f`f`f`f`f`f`f`f`f`f`f`f`f`f`f`f`f`f`f`f`f`f`f`f`f`f`f`f`f`f`f`f`f`f`f`f`f`f`G`d`e`v`j`B`i`z`i",
"`K`5`h`z`8`7`H`G..`f`f`f`f`f`f`f`f`f`f`f`f`f`f`f`f`f`f`f`f`f`f`f`f`f`f`f`f`f`f`f`f`f`f`f`f`f`f`f`f`f`f`f`f`f`f`G`d`b.``V`C`j..`A",
"`G.b`o`B.`.c`H`G..`f`f`f`f`f`f`f`f`f`f`f`f`f`f`f`f`f`f`f`f`f`f`f`f`f`f`f`f`f`f`f`f`f`f`f`f`f`f`f`f`f`f`f`f`f`f`G`d`c`M`j`a`M`k`C",
"`d.d.e`x`M.f`H`G..`f`f`f`f`f`f`f`f`f`f`f`f`f`f`f`f`f`f`f`f`f`f`f`f`f`f`f`f`f`f`f`f`f`f`f`f`f`f`f`f`f`f`f`f`f`f`G`d`c`M`S`C.g`8`F",
"`E.h`m`x`Z`Z`H`G..`f`f`f`f`f`f`f`f`f`f`f`f`f`f`f`f`f`f`f`f`f`f`f`f`f`f`f`f`f`f`f`f`f`f`f`f`f`f`f`f`f`f`f`f`f`f`G`d`c`M`S`C.i.j`t",
"`F.k`Q`x.f.``H`G..`f`f`f`f`f`f`f`f`f`f`f`f`f`f`f`f`f`f`f`f`f`f`f`f`f`f`f`f`f`f`f`f`f`f`f`f`f`f`f`f`f`f`f`f`f`f`G`d`c`M`S`C.l.c.a",
"`g.m`q`x`1`R`H`G..`f`f`f`f`f`f`f`f`f`f`f`f`f`f`f`f`f`f`f`f`f`f`f`f`f`f`f`f`f`f`f`f`f`f`f`f`f`f`f`f`f`f`f`f`f`f`G`d`c`M`S`a.n`R`F",
"`h.o`5`w`6`U`H`G..`f`f`f`f`f`f`f`f`f`f`f`f`f`f`f`f`f`f`f`f`f`f`f`f`f`f`f`f`f`f`f`f`f`f`f`f`f`f`f`f`f`f`f`f`f`f`G`d`c`M`S`a`m.p`S",
"`H`W`O`x`1`Z`H`G..`f`f`f`f`f`f`f`f`f`f`f`f`f`f`f`f`f`f`f`f`f`f`f`f`f`f`f`f`f`f`f`f`f`f`f`f`f`f`f`f`f`f`f`f`f`f`G`d`c`M`S`z```p`F",
"`i.p`J`K.q`l`H`G..`f`f`f`f`f`f`f`f`f`f`f`f`f`f`f`f`f`f`f`f`f`f`f`f`f`f`f`f`f`f`f`f`f`f`f`f`f`f`f`f`f`f`f`f`f`f`G`d`c`M`S`z`o`#`i",
"`N`E`I`D`6`l`H`G..`f`f`f`f`f`f`f`f`f`f`f`f`f`f`f`f`f`f`f`f`f`f`f`f`f`f`f`f`f`f`f`f`f`f`f`f`f`f`f`f`f`f`f`f`f`f`G`d`c.``F`K`H`h`g",
"`B`h`w`y`Z`8`H`G..`f`f`f`f`f`f`f`f`f`f`f`f`f`f`f`f`f`f`f`f`f`f`f`f`f`f`f`f`f`f`f`f`f`f`f`f`f`f`f`f`f`f`f`f`f`f`z`d`c`M`c`Y`a`N`N",
"`w`d`D`Y`8`m`H`G..`f`f`f`f`f`f`f`f`f`f`f`f`f`f`f`f`f`f`f`f`f`f`f`f`f`f`f`f`f`f`f`f`f`f`f`f`f`f`f`f`f`f`f`f`f`f`G`d`c`M`c`P`N`z`C",
"`w`C`K`y`Z`8`H`G..`f`f`f`f`f`f`f`f`f`f`f`f`f`f`f`f`f`f`f`f`f`f`f`f`f`f`f`f`f`f`f`f`f`f`f`f`f`f`f`f`f`f`f`f`f`f`G`d`c`M`F`y`A`w`a",
"..`i`G`K`l`m`H`G..`f`f`f`f`f`f`f`f`f`f`f`f`f`f`f`f`f`f`f`f`f`f`f`f`f`f`f`f`f`f`f`f`f`f`f`f`f`f`f`f`f`f`f`f`f`f`G`d`c`M`S`K`a`B`j",
"`I`w`C`x`L`L`H`G..`f`f`f`f`f`f`f`f`f`f`f`f`f`f`f`f`f`f`f`f`f`f`f`f`f`f`f`f`f`f`f`f`f`f`f`f`f`f`f`f`f`f`f`f`f`f`G`d`c`M`E`w`G`K`g",
"..`G`w`y`Q`v`H`G..`f`f`f`f`f`f`f`f`f`f`f`f`f`f`f`f`f`f`f`f`f`f`f`f`f`f`f`f`f`f`f`f`f`f`f`f`f`f`f`f`f`f`f`f`f`f`G`d`c`M`E`P`z`g`J",
"`E..`C`y`L`Q`H`G..`f`f`f`f`f`f`f`f`f`f`f`f`f`f`f`f`f`f`f`f`f`f`f`f`f`f`f`f`f`f`f`f`f`f`f`f`f`f`f`f`f`f`f`f`f`f`G`d`c`M`X`y`N..`O",
"`w`y`D`P`s.a`H`G..`f`f`f`f`f`f`f`f`f`f`f`f`f`f`f`f`f`f`f`f`f`f`f`f`f`f`f`f`f`f`f`f`f`f`f`f`f`f`f`f`f`f`f`f`f`f`G`d`c`M`b`T`y`D`w",
"`d`G`B`Y```t`J`G..`f`f`f`f`f`f`f`f`f`f`f`f`f`f`f`f`f`f`f`f`f`f`f`f`f`f`f`f`f`f`f`f`f`f`f`f`f`f`f`f`f`f`f`f`f`f`z`d`b.#`c`Y`B`C`J",
"`A`K`x`T`g..`z`B..`f`f`f`f`f`f`f`f`f`f`f`f`f`f`f`f`f`f`f`f`f`f`f`f`f`f`f`f`f`f`f`f`f`f`f`f`f`f`f`f`f`f`f`f`f`f`G`z`I`H`z.r`w`x`A",
"`O`a`G`P`3`5`g`G..`f`f`f`f`f`f`f`f`f`f`f`f`f`f`f`f`f`f`f`f`f`f`f`f`f`f`f`f`f`f`f`f`f`f`f`f`f`f`f`f`f`f`f`f`f`f`G`g`J`.`J`Y`G..`c",
"`i`A`w`Y`q.p`H`G..`f`f`f`f`f`f`f`f`f`f`f`f`f`f`f`f`f`f`f`f`f`f`f`f`f`f`f`f`f`f`f`f`f`f`f`f`f`f`f`f`f`f`f`f`f`f`G`d`c`8`F`Y`w`I`g",
"`w`D`y`T`i`g`x`B..`f`f`f`f`f`f`f`f`f`f`f`f`f`f`f`f`f`f`f`f`f`f`f`f`f`f`f`f`f`f`f`f`f`f`f`f`f`f`f`f`f`f`f`f`f`f`G`A`B`H`z.r`y`K`B",
"`b`a`I`Y`b`e`z`A..`f`f`f`f`f`f`f`f`f`f`f`f`f`f`f`f`f`f`f`f`f`f`f`f`f`f`f`f`f`f`f`f`f`f`f`f`f`f`f`f`f`f`f`f`f`f`G`N`I`F`i`Y`I`d`c",
"`A`K`D`Y.`.a`H`z`a`f`f`f`f`f`f`f`f`f`f`f`f`f`f`f`f`f`f`f`f`f`f`f`f`f`f`f`f`f`f`f`f`f`f`f`f`f`f`f`f`f`f`f`f`f`f`A`d`c`M`X`T`D`x`z",
"`d`A`A`Y`8.a`H`z`a`f`f`f`f`f`f`f`f`f`f`f`f`f`f`f`f`f`f`f`f`f`f`f`f`f`f`f`f`f`f`f`f`f`f`f`f`f`f`f`f`f`f`f`f`f`f`A`d`c`M`F`Y`B`I`H",
"`F`C`C`Y.#`n`H`z`a`f`f`f`f`f`f`f`f`f`f`f`f`f`f`f`f`f`f`f`f`f`f`f`f`f`f`f`f`f`f`f`f`f`f`f`f`f`f`f`f`f`f`f`f`f`f`A`d`c`M`F`y`C..`V",
"`i`B`A`Y`L`v`H`z`a`f`f`f`f`f`f`f`f`f`f`f`f`f`f`f`f`f`f`f`f`f`f`f`f`f`f`f`f`f`f`f`f`f`f`f`f`f`f`f`f`f`f`f`f`f`f`A`d`c`Z`E`Y`B`G..",
"`G`w`x`Y`n`v`H`z`a`f`f`f`f`f`f`f`f`f`f`f`f`f`f`f`f`f`f`f`f`f`f`f`f`f`f`f`f`f`f`f`f`f`f`f`f`f`f`f`f`f`f`f`f`f`f`A`d`F`R`E`Y`K`B`N",
"`z`w`w`y```L`H`z`a`f`f`f`f`f`f`f`f`f`f`f`f`f`f`f`f`f`f`f`f`f`f`f`f`f`f`f`f`f`f`f`f`f`f`f`f`f`f`f`f`f`f`f`f`f`f`B`d`j`U`H`D`x`w`z",
"`h`a`I`D`Q`v`H`z`d`f`f`f`f`f`f`f`f`f`f`f`f`f`f`f`f`f`f`f`f`f`f`f`f`f`f`f`f`f`f`f`f`f`f`f`f`f`f`f`f`f`f`f`f`f`f`z`d`E.c`F`K`I..`e",
"`X`i`N`K`Q.p`J`z`C`f`f`f`f`f`f`f`f`f`f`f`f`f`f`f`f`f`f`f`f`f`f`f`f`f`f`f`f`f`f`f`f`f`f`f`f`f`f`f`f`f`f`f`f`f`f`B`d`O`W`E`x`N`e`o",
"`I`w`w`K.p```J`z`N`f`f`f`f`f`f`f`f`f`f`f`f`f`f`f`f`f`f`f`f`f`f`f`f`f`f`f`f`f`f`f`f`f`f`f`f`f`f`f`f`f`f`f`f`f`f`w`d`e`Q`F`K`w`z`g",
"`H`I`N`D`.`.`J`A`I`f`f`f`f`f`f`f`f`f`f`f`f`f`f`f`f`f`f`f`f`f`f`f`f`f`f`f`f`f`f`f`f`f`f`f`f`f`f`f`f`f`f`f`f`f`f`w`J`O`s`H`B`z`i`h",
"`N`A`z`K`a`g`G`K`Y`f`f`f`f`f`f`f`f`f`f`f`f`f`f`f`f`f`f`f`f`f`f`f`f`f`f`f`f`f`f`f`f`f`f`f`f`f`f`f`f`f`f`f`f`f`f`P`I`I`g`G`x`A`I`G",
"`X`g`G`e`k`t`5`b`w`f`f`f`f`f`f`f`f`f`f`f`f`f`f`f`f`f`f`f`f`f`f`f`f`f`f`f`f`f`f`f`f`f`f`f`f`f`f`f`f`f`f`f`f`f`f`G`b`k`.`X`a`G`H`V",
"`S..`G`O`k`t`.`j`A`f`f`f`f`f`f`f`f`f`f`f`f`f`f`f`f`f`f`f`f`f`f`f`f`f`f`f`f`f`f`f`f`f`f`f`f`f`f`f`f`f`f`f`f`f`f`C`3`Z`Z.s`i`G`O`k",
".t`z`D`B`I`C`I`z`y`f`f`f`f`f`f`f`f`f`f`f`f`f`f`f`f`f`f`f`f`f`f`f`f`f`f`f`f`f`f`f`f`f`f`f`f`f`f`f`f`f`f`f`f`f`f`K`G`a`i`z`x`x.u.v",
".w.x.y.z.A`w.B.C.D`f`f`f`f`f`f`f`f`f`f`f`f`f`f`f`f`f`f`f`f`f`f`f`f`f`f`f`f`f`f`f`f`f`f`f`f`f`f`f`f`f`f`f`f`f`f.E.F.G.H.I.J.K.L.M",
".N.O.P.Q.R.S.T.U.V`f`f`f`f`f`f`f`f`f`f`f`f`f`f`f`f`f`f`f`f`f`f`f`f`f`f`f`f`f`f`f`f`f`f`f`f`f`f`f`f`f`f`f`f`f`f.W.X.Y.Z.0.1.2.3.4",
".5.6.7.8#`#.###a#b`f`f`f`f`f`f`f`f`f`f`f`f`f`f`f`f`f`f`f`f`f`f`f`f`f`f`f`f`f`f`f`f`f`f`f`f`f`f`f`f`f`f`f`f`f`f#c#d#e#f#g#h#i#j#k",
"#l#m#n#o#p#q#r#s#t`f`f`f`f`f`f`f`f`f`f`f`f`f`f`f`f`f`f`f`f`f`f`f`f`f`f`f`f`f`f`f`f`f`f`f`f`f`f`f`f`f`f`f`f`f`f#u#v#w#x#y#z#A#B#C",
"#D#k#E#F`y#G#H#I#J`f`f`f`f`f`f`f`f`f`f`f`f`f`f`f`f`f`f`f`f`f`f`f`f`f`f`f`f`f`f`f`f`f`f`f`f`f`f`f`f`f`f`f`f`f`f#K#L#`#M`Y#N#O#k#P"
};
