/* XPM */
static char *door_3_xpm[] = {
/* width height num_colors chars_per_pixel */
"    64    64      256            2",
/* colors */
"`` c #0c0a0c",
"`. c #5c5a5c",
"`# c #fc02d4",
"`a c #4c2a1c",
"`b c #2c2a24",
"`c c #b45a24",
"`d c #4c4a4c",
"`e c #2c1a14",
"`f c #6c361c",
"`g c #848684",
"`h c #f47a34",
"`i c #d46a2c",
"`j c #1c1a14",
"`k c #4c3a34",
"`l c #3c3a3c",
"`m c #8c4624",
"`n c #744224",
"`o c #945a34",
"`p c #3c2214",
"`q c #a44e24",
"`r c #3c2a1c",
"`s c #bc6634",
"`t c #1c120c",
"`u c #6c6e6c",
"`v c #2c221c",
"`w c #7c3e1c",
"`x c #9c9e9c",
"`y c #7c4a2c",
"`z c #5c321c",
"`A c #6c3e24",
"`B c #242224",
"`C c #c4622c",
"`D c #e46e2c",
"`E c #5c361c",
"`F c #944e24",
"`G c #844224",
"`H c #a45624",
"`I c #4c3224",
"`J c #343234",
"`K c #241a14",
"`L c #7c421c",
"`M c #442a1c",
"`N c #342214",
"`O c #141214",
"`P c #646664",
"`Q c #b46234",
"`R c #4c4e4c",
"`S c #949294",
"`T c #dc6a2c",
"`U c #cc662c",
"`V c #24160c",
"`W c #7c7a7c",
"`X c #acaaac",
"`Y c #643624",
"`Z c #342e2c",
"`0 c #341e14",
"`1 c #743a1c",
"`2 c #fc8e3c",
"`3 c #444244",
"`4 c #9c4a24",
"`5 c #848284",
"`6 c #442614",
"`7 c #ac5224",
"`8 c #743e1c",
".` c #cc6e3c",
".. c #140e0c",
".# c #646264",
".a c #4c2e1c",
".b c #2c2e2c",
".c c #bc5e2c",
".d c #2c1e14",
".e c #6c3a1c",
".f c #8c8e8c",
".g c #fc8244",
".h c #1c1e1c",
".i c #944a24",
".j c #74462c",
".k c #a45a34",
".l c #a45224",
".m c #3c2e24",
".n c #1c160c",
".o c #747674",
".p c #2c2624",
".q c #a4a6a4",
".r c #844a24",
".s c #64321c",
".t c #5c3a1c",
".u c #9c4e24",
".v c #ac562c",
".w c #54321c",
".x c #241e14",
".y c #7c462c",
".z c #442e1c",
".A c #34261c",
".B c #545654",
".C c #dc6e34",
".D c #cc6a34",
".E c #0c0e0c",
".F c #5c5e5c",
".G c #2c2a2c",
".H c #b45a2c",
".I c #5c4234",
".J c #8c8a8c",
".K c #f47a3c",
".L c #d46a34",
".M c #1c1a1c",
".N c #543624",
".O c #3c3e3c",
".P c #8c4a2c",
".Q c #74422c",
".R c #945a3c",
".S c #3c261c",
".T c #3c2a24",
".U c #747274",
".V c #2c2224",
".W c #7c3e24",
".X c #a4a2a4",
".Y c #5c3224",
".Z c #6c3e2c",
".0 c #242624",
".1 c #cc622c",
".2 c #e47234",
".3 c #5c3624",
".4 c #a45634",
".5 c #343634",
".6 c #7c4224",
".7 c #34221c",
".8 c #141614",
"#` c #6c6a6c",
"#. c #9c9a9c",
"## c #545254",
"#a c #844e34",
"#b c #bc6234",
"#c c #9c522c",
"#d c #7c7e7c",
"#e c #acaeac",
"#f c #643a24",
"#g c #444644",
"#h c #dc6a34",
"#i c #cc6634",
"#j c #241614",
"#k c #44261c",
"#l c #743e24",
"#m c #4c2e24",
"#n c #2c1e1c",
"#o c #6c3a24",
"#p c #a4522c",
"#q c #1c1614",
"#r c #543224",
"#s c #241e1c",
"#t c #442e24",
"#u c #000000",
"#v c #000000",
"#w c #000000",
"#x c #000000",
"#y c #000000",
"#z c #000000",
"#A c #000000",
"#B c #000000",
"#C c #000000",
"#D c #000000",
"#E c #000000",
"#F c #000000",
"#G c #000000",
"#H c #000000",
"#I c #000000",
"#J c #000000",
"#K c #000000",
"#L c #000000",
"#M c #000000",
"#N c #000000",
"#O c #000000",
"#P c #000000",
"#Q c #000000",
"#R c #000000",
"#S c #000000",
"#T c #000000",
"#U c #000000",
"#V c #000000",
"#W c #000000",
"#X c #000000",
"#Y c #000000",
"#Z c #000000",
"#0 c #000000",
"#1 c #000000",
"#2 c #000000",
"#3 c #000000",
"#4 c #000000",
"#5 c #000000",
"#6 c #000000",
"#7 c #000000",
"#8 c #000000",
"a` c #000000",
"a. c #000000",
"a# c #000000",
"aa c #000000",
"ab c #000000",
"ac c #000000",
"ad c #000000",
"ae c #000000",
"af c #000000",
"ag c #000000",
"ah c #000000",
"ai c #000000",
"aj c #000000",
"ak c #000000",
"al c #000000",
"am c #000000",
"an c #000000",
"ao c #000000",
"ap c #000000",
"aq c #000000",
"ar c #000000",
"as c #000000",
"at c #000000",
"au c #000000",
"av c #000000",
"aw c #000000",
"ax c #000000",
"ay c #000000",
"az c #000000",
"aA c #000000",
"aB c #000000",
"aC c #000000",
"aD c #000000",
"aE c #000000",
"aF c #000000",
"aG c #000000",
"aH c #000000",
"aI c #000000",
"aJ c #000000",
"aK c #000000",
"aL c #000000",
"aM c #000000",
"aN c #000000",
"aO c #000000",
"aP c #000000",
"aQ c #000000",
"aR c #000000",
"aS c #000000",
"aT c #000000",
"aU c #000000",
"aV c #000000",
"aW c #000000",
"aX c #000000",
"aY c #000000",
"aZ c #000000",
"a0 c #000000",
"a1 c #000000",
"a2 c #000000",
"a3 c #000000",
"a4 c #000000",
"a5 c #000000",
"a6 c #000000",
"a7 c #000000",
"a8 c #000000",
/* pixels */
".O`3.O`3####.B.F.U.U`u#``u.U`u`u#`.#.F`.##`R#g.G`l`l`l.b.5`#`#`#`#`#`#.b`l`l`l.5.b`3`d`R`..#`P`u`u`u`u#`#``P.F.B`R`d#g`3`J`3.O.O",
"`..F.#.F.#.F.#.U.J.f.J.f#.`x.q.X`S#d.o#`.#`.`.#g`d#g.B`R.#`#`#`#`#`#`#####`R#g`d`3##`..F`P.U.o`W`W`W.o.o.o.o#`#``.`..B`.##.F.F.B",
".8.h.h.M.8.8.8.8.8.M.M.8.M.M.h`B.h#s.h.h.h.M.M.8`B.h#s.h.p`#`#`#`#`#`#`B`B.h#s.h.8.8.h.h#s.h.h#s.h.M.8.M.M#q.8.M.8.8.M.8.8`B.h#q",
"`B.h.M.8.G#g`R`.`u.F.B##`R##`R`R#g.O`l.G.0.G.b.8.O.O.0.h`J`#`#`#`#`#`#`B`b.0.O`J.8.b.G.G.5#g`R`d`d`R`d.O.O`l.O.5`l`l.G.h`O.h.M.0",
"`l.0.M.0.#.J`5.o`5.U#`.F`..F.F`.`d#g.O.5`J`J.5.h`..#.5`B.5`#`#`#`#`#`#`B.b`l.F`3.0.5.5.5`d`u`W.U.U#d`5.o.o.o.#####.F.B`l`O.h.b#g",
".B.G.8.G`P.O.0#q.M.h.M.8.M.8.M.8.M.8.M#q.8.8.E.M.B`P`l`B.5`#`#`#`#`#`#.0`J`3.F.O.M``.8#q.M.h.M.8.h.M.M.M.M.h.h.8.h.0`3`3.8.M#g.U",
"`R.5.M.5.U.b.h.M.M.0.0.G.0.G.0.G.0.G.0.0`B.h`O.M.B#``l.0.5`#`#`#`#`#`#.0`J`3`P.O.M`O.h`B.0.G.0.G.0.0.0.0.G.0`B.M.M.h`l`R.8`B##.B",
".p.0.8`Z`..b.M.M.h.5`3`R`R`R`d#g`l.5.G.G.h.M`O.M.#`u`l`B.5`#`#`#`#`#`#.x`J`3`P`3.M.E.M`B.G.b`l.O`d`R##`R`d`3.b.h.M.M`J#g.8.h.b.p",
".b.5#q.0##.5.b.b`R.#`u#``5.f.J.J`P.F###g.5.G.8.M`u.o.5.0.5`#`#`#`#`#`#.0`Z.O#``3.h.8`J.O#g##.F`P`g`x.X.J#``u`..5`J.G.5`3.8#s.O.0",
".G.5.8.0`d`B.M.h.0`J`J.G.O.O.O`l.0`Z.b`Z.0`B.E.h#`.U.5`B`l`#`#`#`#`#`#.0`J`3`P#g.M.E`B.b.b`J.G.G.O.B.B.O.G.5`J`B.h.h`B.O.8`B.O`B",
".G`l.M.G.B.b.h#s.0`l.5.5`R`.##.O.0.5`J`J.b`B.8.M`P`u.5`B.5`#`#`#`#`#`#.x`J.O.##g.8`O.0.b`J`J.b.b`3.#.#`3.b.O.5`B.h.h`J`3.M.0.O`B",
".b.O.M.b.B`J.G.b.O.B.B`d.U.J#d`..5###g`d.O.b.8.h.##``J`B.5`#`#`#`#`#`#.0`J.5.F`3`B.8`J#g`d`d`3.O.F.J`5.F#g`.##`J.b.G.5`3.8.0`3.h",
".b#g.M.b`..G.h#s.G.5`J.0.5`l.5`J.h.b`J.b.G.h.8.M.F`P`J`B.5`#`#`#`#`#`#.0`Z.5.#.O`j`O`B.b.b.b.G.0.5`R#g.5.p`J.b`B`B`B`J#g.M`B`3`B",
"`J#g.M.b`..0.8.M`B.b.O`J`R`.`R`l`B.G.G.G.0.h`O.M.O.O`B.8`J`#`#`#`#`#`#`j`B.0`3.5.h`O.h.G.G.G.0.p`3.F.B.O`J.5.b.h.8.h.b`d.8.0`3`B",
"`J`R.M.b.F`J.0.b.5`R###g.U.f.o`..5.O`3.O`l.0.M.M.0`B.8`O.h`#`#`#`#`#`#...8`j`b`B.h.8.b`l.O#g`l.O`P.J`W`.`3.B#g`Z.b.p.b#g.M.0`R.0",
".G##.M`J#`.5.h.M`B.G.b.G`J`l`J.b.0.G.0.b`B.M.8`B.F.F`l.0`J`#`#`#`#`#`#.x.b.5##.O`B`O.h.G.G.G.0.b.5`3`3.b.G.b.0.h.h.h`J#g.M.0`d`B",
".G.B.h.5#``J`B.0.5`3`d.#`u.o`P`P`..B###g.5.0.8.M.O`J`B.M.5`#`#`#`#`#`#.0.h.h`l.G.M.8.G.O`R.F.F.F.#.o`W`P.F`3.O.G.0`B.G#g.h.G`R.h",
"`l.F.h`l`P.0.8.h`J`l`d`u`5.f#d.U.F.B`d`3`J.h.8.M`l.0.M.8`J`#`#`#`#`#`#.x.h.M.5.b.h`O.0`l`d.B.F`.`..#`u`P##.5`J.0.h.8`B#g#s.b`..G",
".O`P`B.5`P`B.8.h`B`B.0.0.0.p.0.0.0.0.0.0#s.M.h.h`R#g.b`B`Z`#`#`#`#`#`#`B`J`J`R`3.h.8.M`B.0.0.p.0.0.0.p.0.0`B`B`B.M`O`B`3`B.b`..b",
"#g##.h`l`P.p.G.G.b.5`J`J.b`J.0.G.G.G.p.0.h.M.M.h`.##.5`B.b`#`#`#`#`#`#.x.b.5`.`3.M.M.M`B.G.G.0.G.0.G.b.b`J.b.b.b.G`B.0.O.h.G`..b",
"#g`l`B`J`P.O.B`u.U.o.o.o.o.F#g`d`l.5.5`J.h.b.0.h`..#`J`B`J`#`#`#`#`#`#.0`J.5`..O.h.b.h.b.O`R##`..F`P`W`5#`.B`d.O.5.5.b`l`B.G`R.O",
"##.5`B.5#``J.5.G.8.M.M.M.0`B.8.8.M.8`B.h.M#g.5`B.F#``J`B.b`#`#`#`#`#`#.x`J.5.#`3.0`3.b`B`B.h.h.h`B.0`J.b.0#s.h.8`J.b.b.O.h.G#g`d",
"`d.5`B.O`u.G.5.G.M.h.h.h`B.h.h#s`B.M.0.G`B`u#g#s.F`P`J.0.b`#`#`#`#`#`#`B.b`l.F`3.G.F`R.0.G`B.M.h.h.h.h#s.h.h`B`O`J.G.G`3`B.G#g`3",
"##`l.b#g.U.0`l.b.h.M.M.M.M.M.M.M.M.8.5`d.b.J##.M.F#``J`B.b`#`#`#`#`#`#.x`J`l.F.O`b`W.F.O`R.h.M.M.M.M.M.M.h.M.M.M.5`B.b#g.0.b#g##",
".b.0.h.O.o`B`l.b.8`O.E.8.8`O.8.8.h.M`R.o`3#e.F.M.#`P`J`B.b`#`#`#`#`#`#.0.b.O.#.O.0.f#`##`5.G.8.h`O.8`O.8`O.E.8.8.5.0`J`3.h`B.b.G",
"`J`J`B#g`5`B`l`J.5`3.0`d.B.O`..5`R`J#`#d`l`X`..M`P.F`J.0.b`#`#`#`#`#`#.x`J`l.F.O.G.J`P.B.X.O`3`3.b.B`J.B.b.b`3`B`l.0.G#g`B.G.5`Z",
"`J.5.h#g`5.0.O.5#g`d.G`P`W.F`5##.o`l`u`P.b#.`R.M`u`P`J`B`Z`#`#`#`#`#`#`B.b`l.#.O.G#d`P`l#d##.B`P`3#d#g.o`l`J`d.0.5.0.b#g`B.G.5`J",
"`l.b.h`3`5.0.O`J`J.b`O.b`J.G.O.h.O.0.U`..5`W#g.h`u`P`J`B.b`#`#`#`#`#`#.x`J.5.#.O`b.F##.O.F.O`J`l.M#g.h.O.M.M.5`B.5.0.G#g`B`B`l.5",
".O`Z.h`l.o.0.5`J.8.8``.M.8`O.8.E`B.8`d`l`J.#.5.M#``P`J.0.b`#`#`#`#`#`#.0`J`l.F.O`B`R`R.O`3.G.8.h``.M``.h.E`O.8.8.5.G.G`3.h.0`l`3",
"`d.5.h.O#`.p.5.5`B`B.E.0.h.8.0.8.G.M.5.0.b.B`J.M#`.#`J`B.b`#`#`#`#`#`#.x.b.O.#.O`B#g`d.G.G.G.h.G.8`B`O.0#q.M.0.h`J.0.b.O`B`B#g#g",
"`J.0.M.5`u.0`J.5.M.8`O.8`O.8.M...M.h.b.G.0.O.0.8`u.F`J.0.b`#`#`#`#`#`#.0`J.5.F.O#q`J.5.b.G.0.h.M.E.M.E`O.8`O.8.h`J.G`J.O`B.M.b.G",
".O`J.M`l.#.G`l`l.8.E`O`O`O.8.M.M.8.M`B.h.h`l.M`O`P.F`J`B`Z`#`#`#`#`#`#.x.b.O.#`l.E.G.0.0`B.h.M.8.M.8.8`O.E.8.E.M`l.G.b`l.h`B`l.5",
".O.b.M.5.B.b`l.O.M.8.h.h.h.M.8.M.h.8.M.h.M.b.8`O.F.F`J.0.b`#`#`#`#`#`#`B`J`l.F`l.E.G`B.0.M.M.M.M.M.M.h.M.h.M.M`B.5`J.b.O`B.h.O`J",
".b.b.M.O##.b.O`3.O.O`l.5.5`J.b.G.0.G.G`J.h.G.M`O`P.F`J`B.b`#`#`#`#`#`#.x.b`l.#.O`O.h.h.G`J.0.b.b.b`J.5`l`l#g`3.O.O.5`J`l`B`B.b.G",
".p.0.M`l`d.b`J`J`d`P`5.J.J#d.###`R`3#g`R.b.G`B.8.#.F`J`B`Z`#`#`#`#`#`#.0`J`l.F.O.M.G.h`3.O.O`3.O##.F.U.o`W`u.F#g.5`J`J.5.h`B.G`B",
".b`l.8.b`R`Z.0.0.b`J.O#g`3`l.b.0.0.0.G.G.0.h.G.M`.`.`J.0.b`#`#`#`#`#`#.x.b`l.F`3.M`B.8.b.b.p.0.0.G`J.O.O.O.5`Z.b`B.G`J.5.M.0.O.G",
".0`l.M`J`..0`B.0.b`Z.5`l.5.5`Z.G.0.G.b.b.b`B.M.8.B`.`J`B.b`#`#`#`#`#`#.0`J`l.F.O.E.0.b`J`J.b.b.G.b`J.O`l`l.b.b.G.0.h.b`l.8.0.O`B",
".h`l.8`J`u.0`B.b`d.B#``W.o.U`P`.`R#g#g`d.O`J.0.8`..B.5`B.b`#`#`#`#`#`#.x.b.O.#.O.8.p.b.5.5`l.5.O.O`R.F`.`R#g.O`l.0`B.5`l.M.0`l.M",
".h.5.M.b`.`B`O.8.0.0.b`J.5.5.b.G.h`B.h.h.M`O.8`O.B.B`J.0.b`#`#`#`#`#`#.0`J`l.F`l``.8.8.h.M.M.M`B.p`J.O`J.b.p`B.h`O`O`J`l.8.0.O.M",
"`B`l.8.b`R.0.M`B.O`3`J##`P`S`P#g`J.5.5`J`J`B.h`O`R.B`J`B`Z`#`#`#`#`#`#.x.b`l`.`l`O.h.p`J`J.5`J`l.B`P`W.F`3.5`3.5.h.M.5`l.8.0.O.h",
"`B`l.8.G`R.M.8.8.0.b.0`l#g#``d.O.0.G`B`B.h.M.M``.b`J`B.h.b`#`#`#`#`#`#`B`B.0`J.h``.h.M.h.0.0`B.b`3`R`.`3.b.G.G.h`O`O`J`l.M`B`3`B",
".b`l.8.G`d.0.h.p.5`d.5##.#`g.F##.5`d.O.O.5.G`B.E`3#g.G`B.b`#`#`#`#`#`#.x.b`J`R.5`O`B.b`l.O#g.O`3`.`u#d.##g`l`3`J`B.M.5`l.8`B`d.0",
".5`l.8.b`3.h#q`B.b`J.0.5`3.B`3`l.0`J`J.b.b.h.h`O##.B`J.0.b`#`#`#`#`#`#.0`J.5.F.O.E.h.0.b`Z`J.G.b.O`R##.O`Z.G.b.G.h.8.b.5.M`B`R.5",
".O.O.M.G.O.h.E.8`B.G.M`J#g##`l.b.h`B`B.h.M.M`O.E.G.b.M.h`Z`#`#`#`#`#`#.x.h`B`J`B``.8#q.h.h`B.h`B.O##.B`3.0.h.G.h`O.E.b`l.8.0##.5",
"`l`3.8.0`d.p`B.G.O#g.b##`P`u`.##.5.O.O.O`l.G.0`O.5.5`B`B.b`#`#`#`#`#`#.0.p.0`l.b`O.0.b`l.O`3.5.O.#`W#d`P`3.5#g.5.0`B.5`l.8`B##.5",
".O.O.M.G#g.0.M.8.h.0`B.0.G`J.0.0.M`B.0`B.h.M.8`O.F.B`J`B.G`#`#`#`#`#`#.x.b`l.F.O``.8.M`B.0.0.h#s.G.5`l.G.0`B.0.h.8.M`l`l.8`B.B.5",
".O`l.8.0`3.0.h`B.5.B`u`u.U#d`P##.O`l.b.b`J.h.h`O.F`.`J.h.G`#`#`#`#`#`#`B.b.O.#`l`O.h.0`J`J`J.5.O`d.F.F`R`d.O`l.b`B.h.5`l.8`B`R.5",
"##`l.M.0`3.G.G`J#g#``W`W.U.o#`.F.B`R`d.O`l.G.G`O`.`.`J.0.G`#`#`#`#`#`#.x.b`l.F.O.8.p.b`3`R`..F.#.F`P.#.F`.###g`l`J.0.5.5.M`B###g",
".#`l.8`B.O.0`B.h.G.b.b.b.b.b`J.b`J.b.b`J.G.h.h`O`..B.5.h.G`#`#`#`#`#`#`B.b`l`P.O`O.h`B.b.b`J`J.b`J.b`J.b.b.b`J`B`B.M.5.5.8`B.B.#",
".F.5.8`B.O.0.h`B.0.G.G.G.G.G.G.0.0.G.0.G`B.M.M`O`.`..5`B.G`#`#`#`#`#`#.x.b.O`P`3`O.8.h.G.0.0.0.G.0.G.G.G.b.G.b`B.h.M`J`J`O.h.B`u",
"##.b.8`B`3#g.b.0.G`J`J.b.G.0.G`B`B`B`B`B.h.h.h`O`R.F`J.h.G`#`#`#`#`#`#.h`J`3`P`J.8.M.h`B`B.0`B`B`B.0.0.G.G.b.G`B.h.b`3.5.8`B`3`.",
"`d.G.8.h.O`.`P#`.#`P.o#`.F.F.F.B`.`R`3.O.5.G.0.8`.`.`J.0.b`#`#`#`#`#`#.x.b`3`P.O#q.0.b.5`l`l#g.B.B.#.########g`l`l`3#g.5`O.h.b`3",
"`l.0.8.M.5`3#g####.B.#.F`..B`..B##`R`d#g.O.G.0.M.B.B.b`B.G`#`#`#`#`#`#.x.b.5`P.O.M.0`l#g`d`R`..U.U.o`W`u`P.F`R.O`3.O.O.b`O.h`J`l",
".5.p.E...M`B`B.h`B`B.0`B.0.G.b.b.b.b.G.G.0.M.h.M##`R.5`B.0`#`#`#`#`#`#.h`J.5`.`l.M.M`B.b.b`J`J.b.5`J.b.0.0.0`B`B`B.0`B.M``.M.5.5",
".b.b.8.8`B.0.0.0.0.0.0`B.0.G.b.G`J`J`J.b.5.0.G`O`R`R`J.h.0`#`#`#`#`#`#`j`J.5.B`J.h`B.G.5`J.b.5.b.b.b.G.0`B.0.0.0.0.0`B.h.E.h`J.G",
".b`J.b.0.0#s.M`B.h`B`B`B`B`B.h`B`B.h.0.0.G.h`B.8.G.b`B.M`O`#`#`#`#`#`#...0.0.b`B.M.h.0`B.0`B`B.0.h`B`B`B`B`B`B`B`B.M`B.0.0`J.b.G",
".B#`.U.#`d.0.0`l#g.B.B`R.O.5.p`B.O.F.F##`l.b`B.5`d###g`l.M`#`#`#`#`#`#.x`l`d`R.O.G.0`J`3`R##`d.b`B.b.5.O`d.B`R`3.5.h.5`d`d`R`d`3",
".F#``P`P`R.b.b#g.F.U.o#``d`l.G.0`3`..F`R.O`J`B.5`d.B`R.O`B`#`#`#`#`#`#`b.O`P.#`d.b`B.5`d.F.B`R.5`B`J`3#g##.F`.`R`3.0.5`R##.B##`R",
"`Z`J.b.p`Z.0.0.G.G`J`J.b.0.0`B.h`B.0.G.G.p`B.8.h.0.G`B`B.8`#`#`#`#`#`#.n.0.G.b`B`j.8.0.p.G.0`B.h.M`B`B.0.G.b.G.0.0.M.G.0`B.G.b`Z",
"`A.T`O.a#f.3`M#j#m`A.3`p#q.T.N#t#q#q`M.Z.T`t#t#m#t.M.8#s`e`#`#`#`#`#`#.d.h`O.p.a.z#n#q.a#r`K..`K#t#t`K`t.T.Y.w`0#j`M#r#r#j`O.S`z",
"`F`v.a.c.D.4`I.3`C`T.i`v.3#i#b#r.T.4.K#b#r`8`D#h`y.V.I.R.Z`#`#`#`#`#`#.r.R`k.A`Q`D.H.a#f.L.D.j#k#c.g.C`I#r.K`2.D`I.y.`.C`m.7`M.v",
".d.M`1.u.r`M`K#o`7`m`N.7`m.u.s.d.3.i.i`6`p`w`q#l`0.m`m#p`E`#`#`#`#`#`#`L`H.Q.A.a#c`7`f`N`1.H#c#m`6.u.1.i.A.e.1`i`a.x#o#c.i`a.8`a",
"`O`v`8.6.a#q.7#l`G`p#q.a`L.s`K#n`f`8#k.n#k`w`Y`0`K#m.6`A.S`#`#`#`#`#`#.a.6`A.A`K`6`w.e`e`K`z`w.N#j`p#l#l.7.n`z`m`z`K`K`Y`L`E`j`t",
"`O`j#n#n.8`O`e`N`N..`t.d`N#j.E#q`0`K....`K`0`V...8.x`0.x#q`#`#`#`#`#`#`K.d`0#j`O...d`p.n```O`0.d`O...d`N`K...n.7`N#q.E#q.A#n.8`O"
};
