/* XPM */
static char *door_12_xpm[] = {
/* width height num_colors chars_per_pixel */
"    64    64      256            2",
/* colors */
"`` c #0c0a0c",
"`. c #5c5a5c",
"`# c #fc02d4",
"`a c #4c2a1c",
"`b c #2c2a2c",
"`c c #b45a24",
"`d c #4c4a4c",
"`e c #2c1a14",
"`f c #848684",
"`g c #6c361c",
"`h c #f47a34",
"`i c #1c1a1c",
"`j c #4c3a34",
"`k c #d46a2c",
"`l c #3c2214",
"`m c #747274",
"`n c #8c4624",
"`o c #3c3a3c",
"`p c #744224",
"`q c #a44e24",
"`r c #1c120c",
"`s c #2c221c",
"`t c #9c9e9c",
"`u c #5c321c",
"`v c #3c2a1c",
"`w c #7c3e1c",
"`x c #945a34",
"`y c #c4622c",
"`z c #7c4a2c",
"`A c #6c3e24",
"`B c #242224",
"`C c #646664",
"`D c #4c3224",
"`E c #e46e2c",
"`F c #944e24",
"`G c #a45624",
"`H c #342214",
"`I c #141214",
"`J c #b46234",
"`K c #4c4e4c",
"`L c #949294",
"`M c #241a14",
"`N c #5c361c",
"`O c #7c7e7c",
"`P c #7c421c",
"`Q c #24160c",
"`R c #acaaac",
"`S c #442a1c",
"`T c #343234",
"`U c #341e14",
"`V c #fc8e3c",
"`W c #dc6a2c",
"`X c #442614",
"`Y c #444244",
"`Z c #ac5224",
"`0 c #743e1c",
"`1 c #140e0c",
"`2 c #646264",
"`3 c #4c2e1c",
"`4 c #2c1e14",
"`5 c #8c8e8c",
"`6 c #743a1c",
"`7 c #fc8244",
"`8 c #7c7a7c",
".` c #9c4a24",
".. c #74462c",
".# c #a45224",
".a c #1c160c",
".b c #2c2624",
".c c #a4a6a4",
".d c #64321c",
".e c #3c2e24",
".f c #cc622c",
".g c #844a24",
".h c #6c6e6c",
".i c #54321c",
".j c #9c4e24",
".k c #34261c",
".l c #bc6234",
".m c #545654",
".n c #241e14",
".o c #5c3a1c",
".p c #0c0e0c",
".q c #5c5e5c",
".r c #2c2e2c",
".s c #b45a2c",
".t c #5c4234",
".u c #8c8a8c",
".v c #6c3a1c",
".w c #f47a3c",
".x c #1c1e1c",
".y c #543624",
".z c #d46a34",
".A c #3c261c",
".B c #747674",
".C c #944a24",
".D c #3c3e3c",
".E c #74422c",
".F c #2c2224",
".G c #a4a2a4",
".H c #5c3224",
".I c #3c2a24",
".J c #7c3e24",
".K c #945a3c",
".L c #6c3e2c",
".M c #242624",
".N c #6c6a6c",
".O c #e47234",
".P c #a45634",
".Q c #34221c",
".R c #141614",
".S c #545254",
".T c #9c9a9c",
".U c #5c3624",
".V c #848284",
".W c #7c4224",
".X c #241614",
".Y c #acaeac",
".Z c #442e24",
".0 c #343634",
".1 c #dc6a34",
".2 c #44261c",
".3 c #444644",
".4 c #743e24",
".5 c #4c2e24",
".6 c #2c1e1c",
".7 c #a4522c",
".8 c #1c1614",
"#` c #cc6634",
"#. c #844e34",
"## c #9c522c",
"#a c #bc6634",
"#b c #543224",
"#c c #241e1c",
"#d c #000000",
"#e c #000000",
"#f c #000000",
"#g c #000000",
"#h c #000000",
"#i c #000000",
"#j c #000000",
"#k c #000000",
"#l c #000000",
"#m c #000000",
"#n c #000000",
"#o c #000000",
"#p c #000000",
"#q c #000000",
"#r c #000000",
"#s c #000000",
"#t c #000000",
"#u c #000000",
"#v c #000000",
"#w c #000000",
"#x c #000000",
"#y c #000000",
"#z c #000000",
"#A c #000000",
"#B c #000000",
"#C c #000000",
"#D c #000000",
"#E c #000000",
"#F c #000000",
"#G c #000000",
"#H c #000000",
"#I c #000000",
"#J c #000000",
"#K c #000000",
"#L c #000000",
"#M c #000000",
"#N c #000000",
"#O c #000000",
"#P c #000000",
"#Q c #000000",
"#R c #000000",
"#S c #000000",
"#T c #000000",
"#U c #000000",
"#V c #000000",
"#W c #000000",
"#X c #000000",
"#Y c #000000",
"#Z c #000000",
"#0 c #000000",
"#1 c #000000",
"#2 c #000000",
"#3 c #000000",
"#4 c #000000",
"#5 c #000000",
"#6 c #000000",
"#7 c #000000",
"#8 c #000000",
"a` c #000000",
"a. c #000000",
"a# c #000000",
"aa c #000000",
"ab c #000000",
"ac c #000000",
"ad c #000000",
"ae c #000000",
"af c #000000",
"ag c #000000",
"ah c #000000",
"ai c #000000",
"aj c #000000",
"ak c #000000",
"al c #000000",
"am c #000000",
"an c #000000",
"ao c #000000",
"ap c #000000",
"aq c #000000",
"ar c #000000",
"as c #000000",
"at c #000000",
"au c #000000",
"av c #000000",
"aw c #000000",
"ax c #000000",
"ay c #000000",
"az c #000000",
"aA c #000000",
"aB c #000000",
"aC c #000000",
"aD c #000000",
"aE c #000000",
"aF c #000000",
"aG c #000000",
"aH c #000000",
"aI c #000000",
"aJ c #000000",
"aK c #000000",
"aL c #000000",
"aM c #000000",
"aN c #000000",
"aO c #000000",
"aP c #000000",
"aQ c #000000",
"aR c #000000",
"aS c #000000",
"aT c #000000",
"aU c #000000",
"aV c #000000",
"aW c #000000",
"aX c #000000",
"aY c #000000",
"aZ c #000000",
"a0 c #000000",
"a1 c #000000",
"a2 c #000000",
"a3 c #000000",
"a4 c #000000",
"a5 c #000000",
"a6 c #000000",
"a7 c #000000",
"a8 c #000000",
/* pixels */
"`m.h.N.h`m.h.h.N`2.q`..S`K.3`b`o`o`o.r.0`#`#`#`#`#`#`#`#`#`#`#`#`#`#`#`#`#`#`#`#`#`#`#`#.r`o`o`o.0.r`Y`d`K`.`2`C.h.h.h.h.N.N`C.q",
"`5.u`5.T`t.c.G`L`O.B.N`2`.`..3`d.3.m`K`2`#`#`#`#`#`#`#`#`#`#`#`#`#`#`#`#`#`#`#`#`#`#`#`#.S.S`K.3`d`Y.S`..q`C`m.B`8`8`8.B.B.B.B.N",
"`i`i`i.R`i.x`B.x#c.x.x.x`i`i.R`B.x#c.x.b`#`#`#`#`#`#`#`#`#`#`#`#`#`#`#`#`#`#`#`#`#`#`#`#`B`B.x#c.x.R.R.x.x#c.x.x#c.x`i.R`i`i.8.R",
".q.m.S`K.S`K`K.3.D`o`b.M`b.r.R.D.D.M.x`T`#`#`#`#`#`#`#`#`#`#`#`#`#`#`#`#`#`#`#`#`#`#`#`#`B`b.M.D`T.R.r`b`b.0.3`K`d`d`K`d.D.D`o.D",
"`m`C.q`..q.q`.`d.3.D.0`T`T.0.x`.`2.0`B.0`#`#`#`#`#`#`#`#`#`#`#`#`#`#`#`#`#`#`#`#`#`#`#`#`B.r`o.q`Y.M.0.0.0`d.h`8`m`m`O.V.B.B.B`2",
".x`i`i`i`i.R.8.R`i.8.R.R.R.p`i.m`C`o`B.0`#`#`#`#`#`#`#`#`#`#`#`#`#`#`#`#`#`#`#`#`#`#`#`#.M`T`Y.q.D`i``.R.8`i.x`i.R.x`i`i`i`i.x.x",
"`b.M`b.M.M`b.M`b.M`b.M`B.x`I`i`.`C`o.M.0`#`#`#`#`#`#`#`#`#`#`#`#`#`#`#`#`#`#`#`#`#`#`#`#.M`T`Y`C.D`i`I.x`B.M`b.M`b.M.M.M.M`b.M`B",
"`T`Y`d`K`K`d.3.D.0`b`b.x`i`I.R`C`m`o`B.0`#`#`#`#`#`#`#`#`#`#`#`#`#`#`#`#`#`#`#`#`#`#`#`#.n`T`Y`C`Y`i.p`i`B`b.r`o.D`d`K.S`K`d`Y.r",
".q.h.N`f`5.u.u`C.q.S.3.0`b.R`i.N`m.0`B.0`#`#`#`#`#`#`#`#`#`#`#`#`#`#`#`#`#`#`#`#`#`#`#`#.M`T.D.N`Y.x.R`T.D.3.S.q`C`f`t.G.u.N.h.q",
".0`T.r`o.D.D`o.M`T.r`T.M`B`I.x.h`m.0.M.0`#`#`#`#`#`#`#`#`#`#`#`#`#`#`#`#`#`#`#`#`#`#`#`#.M.e.D`C.3`i.p`B.r.r`T`b`b.D.m.m.D`b.0`T",
"`o`o.0`K`..S.D.M`T`T`T`b.x.R`i`C.h.0`B`o`#`#`#`#`#`#`#`#`#`#`#`#`#`#`#`#`#`#`#`#`#`#`#`#.M.r.D`C`Y`i`I.M.r`T`T.r.r`Y`2`2`Y.r.D.0",
".m.S`d`m.u`O`..0`K`d.3.D.r`i`i.q.N`T`B.0`#`#`#`#`#`#`#`#`#`#`#`#`#`#`#`#`#`#`#`#`#`#`#`#.M`T.0`2.D.x.R.0.3`d`d`Y.D.q.u.V.q.3`..S",
".0`T.M.0`o.0`T.x`T.r`T`b.x`I`i.q`C`T`B.0`#`#`#`#`#`#`#`#`#`#`#`#`#`#`#`#`#`#`#`#`#`#`#`#.n`T.0`2`Y`i`I`B.r.r.r`b.M.0`K.3.0.b`T.r",
"`T.D`T`K.m`K`o`B`b`b`b.M.x.R.x.D.D`B.R`T`#`#`#`#`#`#`#`#`#`#`#`#`#`#`#`#`#`#`#`#`#`#`#`#.x`B.M`Y`T.x`I.x`b`b`b.M.b`Y.q.m.D`T`o.r",
"`d.S.3`m`L.B`..0.D`Y.D.0`b.R`i.b`B.R`I.x`#`#`#`#`#`#`#`#`#`#`#`#`#`#`#`#`#`#`#`#`#`#`#`#`1.R`i.M.M.x.R.r`o.D`Y`o.D`C.u`8`.`Y.m.3",
"`b.r`b`T.0`T.r.M`b.M.r`B`i.R`B.q.q`o.M`T`#`#`#`#`#`#`#`#`#`#`#`#`#`#`#`#`#`#`#`#`#`#`#`#.n.r.0.S.D`B`I.x`b`b`b.M.r.0`Y`Y.r`b.r.M",
"`Y`K`2.h.B.N`2.q.m.S.3.0.b.R.R`Y`T.x`i.0`#`#`#`#`#`#`#`#`#`#`#`#`#`#`#`#`#`#`#`#`#`#`#`#.M.x.x`o.r`i.R`b.D`K.q.q.q`2.B`8`C.q`Y.D",
"`o`d.h.V`5`8.h`2.m`d`Y`T.x.R.x.0.b`i`i`T`#`#`#`#`#`#`#`#`#`#`#`#`#`#`#`#`#`#`#`#`#`#`#`#.n.x`i.0.r.x`I.M`o`d.m.q`.`.`2.h`C.S.0`T",
"`B`B.M.M.M`b.M.M`B.M.M.x`i.x#c`K.3.r`B.r`#`#`#`#`#`#`#`#`#`#`#`#`#`#`#`#`#`#`#`#`#`#`#`#`B`T`T`K`Y.x.8`i`B.M.M.b.M.M.M.b.M.M`B`B",
".0`T`T.r`T.M`b`b`b.M`b`i`i`i.x.m.m.0`B`T`#`#`#`#`#`#`#`#`#`#`#`#`#`#`#`#`#`#`#`#`#`#`#`#.n.r.0`.`Y`i.R.x`B`b`b.M`b.M`b.r.r`T.r`T",
".B.B.B.B`..3.3.D.0.0`T.x.r.M.x`.`2`T`B.r`#`#`#`#`#`#`#`#`#`#`#`#`#`#`#`#`#`#`#`#`#`#`#`#.M`T.0`..D.x.r`B`b.D`K.S`..q`C`O.V.N.m.3",
"`i`i`i.M`B.R`i.R.8.x.x`i.3.0`B.q.N`T`B.r`#`#`#`#`#`#`#`#`#`#`#`#`#`#`#`#`#`#`#`#`#`#`#`#.n`T.0`2`Y`b.D.r`B`B.x.x.x`B.M`T`b.M#c.x",
".x.x.x`B.x.x.x`B`i.M`b`B`m.3.x`2`C`T.M.r`#`#`#`#`#`#`#`#`#`#`#`#`#`#`#`#`#`#`#`#`#`#`#`#`B.r`o.q`Y.M`2`d.M.r`B`i.x.x.x.x`B.x.x`B",
"`i`i`i`i`i`i`i.x.R.0`d.r.u.S`i.q`C`T`B.r`#`#`#`#`#`#`#`#`#`#`#`#`#`#`#`#`#`#`#`#`#`#`#`#.n`T`o.q.D`b`8.q.D`d.x.R.x.8`i`i`i`i`i`i",
"`I.p.R.R.R.R.R`i`i`K.B`Y.Y.q`i`2`C`T.M.r`#`#`#`#`#`#`#`#`#`#`#`#`#`#`#`#`#`#`#`#`#`#`#`#.M.r.D`2.D.M`5.N.S.V`b`i.x`I.R.R.R`I.p.R",
"`Y.M`d.m.D`..0.S`T.h`O`o`R.m`i`C.q`T`B.r`#`#`#`#`#`#`#`#`#`#`#`#`#`#`#`#`#`#`#`#`#`#`#`#.n`T`o.q.D`b.u`C.m.G.D`Y.D.r.m`T.m.r.r`Y",
"`K`b`C`8.q.V`K.B`o.h`C.r.T.S`i.h`C`T.M`T`#`#`#`#`#`#`#`#`#`#`#`#`#`#`#`#`#`#`#`#`#`#`#`#`B.r`o`2.D`b`O`C.D`O.S`.`C`Y`O.3`8.0`T`d",
"`T.p.r`T`b.D#c.D.M`m`..0`8.3`i.h`C`T`B.r`#`#`#`#`#`#`#`#`#`#`#`#`#`#`#`#`#`#`#`#`#`#`#`#.n`T.0`2.D`b.q.S.D.q.D.r`o.x.3.x`o.x`i.0",
".R```i.R`I.R.p#c.R`d`o`T`2.0`i.h`2.0`B.r`#`#`#`#`#`#`#`#`#`#`#`#`#`#`#`#`#`#`#`#`#`#`#`#.M`T`o.q.D`B`K`K`o`Y`b.R.x``.8.p`i`1.p`i",
"`B.p.M.x`i`B.R.r`i.0.M.r.m`T.R.N`2`T`B`T`#`#`#`#`#`#`#`#`#`#`#`#`#`#`#`#`#`#`#`#`#`#`#`#.n.r.D`2.D`B.3`d`b.r`b.x`b.R`B`I.M`i.R.M",
".R`I.R`I.R`i.p`i.x.r.b.M.D.M.R.h`2`T`B.r`#`#`#`#`#`#`#`#`#`#`#`#`#`#`#`#`#`#`#`#`#`#`#`#.M`T.0.q.D.8`T.0.r`b.M.x`i.p`i.p`I.R.R.R",
".p`I`I`I`I`i`i.R`i`B.x.x.0.x`I`C.q`T.M.r`#`#`#`#`#`#`#`#`#`#`#`#`#`#`#`#`#`#`#`#`#`#`#`#.n.r.D`2`o.p.r.M.M#c.x`i.R`i.R.R`I`I`I.p",
".R.x`i.x`i.R.x.x.R`i.x.x`T.R`I.q.q`T`B.r`#`#`#`#`#`#`#`#`#`#`#`#`#`#`#`#`#`#`#`#`#`#`#`#`B`T`o.q`o.p.b`B.M.x`i`i`i`i`i`i.x`i`i.R",
".D`o.0.0.0.r`b.M`b`b`T`i.M`i`I`2.q`T.M.r`#`#`#`#`#`#`#`#`#`#`#`#`#`#`#`#`#`#`#`#`#`#`#`#.n.r`o`2.D.R.x.x`b`T.M.r.r.r.0.0`o.0.3.3",
"`C.V.u.u`O`2.S`d`Y.3`K.r.r`B`i`2.q`T`B`T`#`#`#`#`#`#`#`#`#`#`#`#`#`#`#`#`#`#`#`#`#`#`#`#.M`T`o.q.D.8`b.x`Y.D.D`Y`Y.S.q`m.B`O.h.q",
"`T.D.3`Y`o.r.M.M.M`b`b.M`i`b.R`.`.`T`B.r`#`#`#`#`#`#`#`#`#`#`#`#`#`#`#`#`#`#`#`#`#`#`#`#.n.r`o.q`Y.x`B.R.r.r.b.M`B.M`T.D.D`Y.0`T",
".r.0`o.0.0`T`b.M`b.r.r`T`B.x.R.m`..0`B.r`#`#`#`#`#`#`#`#`#`#`#`#`#`#`#`#`#`#`#`#`#`#`#`#.M`T`o.q.D.p`B.r`T`T.r.r.r.r`T.D`o.0`T`b",
"`..N`8.B`m`C`.`K`Y.3`d.D.r.b.R`..m.0`B.r`#`#`#`#`#`#`#`#`#`#`#`#`#`#`#`#`#`#`#`#`#`#`#`#.n.r.D`2.D.R.b.r.0.0`o.0`o.D`K.q`.`K.3.D",
".M.r`T.0.0.r.b.x`B.x.x`i.R.R.p.m.m`T.M.r`#`#`#`#`#`#`#`#`#`#`#`#`#`#`#`#`#`#`#`#`#`#`#`#.M`T`o.q`o``.R.R.x`i`i.x`B.M`T.D`T.r.b`B",
"`Y`T`K.N`5`C`d.r.0.0`T`T`B.x`I.S.S`T`B`T`#`#`#`#`#`#`#`#`#`#`#`#`#`#`#`#`#`#`#`#`#`#`#`#.n.r`o`.`o`I.x`b`T`T.0`T`o.m`C`8.q`Y.0`Y",
".r.M`o.3.N`d.D.M`b`B`B.x`i`i.p.r.r`B.x.r`#`#`#`#`#`#`#`#`#`#`#`#`#`#`#`#`#`#`#`#`#`#`#`#`B`B.M`T.x``.x`i.x.M.M`B.r`Y.S.m.3`T.M`b",
"`d.0.S`2`f.q.S`o`d.D.D.0`b`B.p`Y.3.r`B`T`#`#`#`#`#`#`#`#`#`#`#`#`#`#`#`#`#`#`#`#`#`#`#`#.n.r`T`K.0`I`B.r`o.D.3.D`Y`..h`O`2`Y.D`Y",
"`T.M.0`Y.m`Y.0.M.0`T.r.r`B.x`I.S.m`T`B.r`#`#`#`#`#`#`#`#`#`#`#`#`#`#`#`#`#`#`#`#`#`#`#`#.M`T.0.q.D.p.x.M.r`T`T`b.r.D`K.S`Y.r`b`T",
".M.x`T.3.S`o`T.x`B.x#c`i.R`I.p`b.r`i.x`T`#`#`#`#`#`#`#`#`#`#`#`#`#`#`#`#`#`#`#`#`#`#`#`#.n.x`B`T`B``.R.8.x.x`B.x`B.D.S.S`Y.M.x`b",
".3`T.S`2`m.m.S.0.D.D.D`o.M.M`I.0.0`B.x.r`#`#`#`#`#`#`#`#`#`#`#`#`#`#`#`#`#`#`#`#`#`#`#`#.M.b.M`o.r`I.M.r`o.D`Y.0.D`2`8`O`C`Y.0.3",
".M`B.M`b.r`b.M`i`B.M`B.x`i.R`I.q`.`T`B`b`#`#`#`#`#`#`#`#`#`#`#`#`#`#`#`#`#`#`#`#`#`#`#`#.n.r`o.q.D``.R`i`B.M.M`i#c`b.0`o`b.M`B.M",
".m.N.h.h.V`C`K`Y.0`T`b`T.x`B`I.q.m`T`B`b`#`#`#`#`#`#`#`#`#`#`#`#`#`#`#`#`#`#`#`#`#`#`#`#`B.r.D`2`o`I.x.M`T`T`T.0.D`d.q.q`K`d.D`o",
".N`8`8`m.B.N.q.m`K.3.D.D`b.M`I.q`.`T.x.r`#`#`#`#`#`#`#`#`#`#`#`#`#`#`#`#`#`#`#`#`#`#`#`#.n.r`o.q.D.R.b.r`Y`K`..q`2.q`C`2.q`..S.3",
".r.r.r.r`T.r`T.r`T.r`T`b.x`B`I`..m.0`B`b`#`#`#`#`#`#`#`#`#`#`#`#`#`#`#`#`#`#`#`#`#`#`#`#`B.r`o`C.D`I.x`B.r.r`T`T.r`T.r`T.r.r.r`T",
".r`b.r`b.M`b.M.b.M.M`b`B.x.R`I.m.q`T`B`b`#`#`#`#`#`#`#`#`#`#`#`#`#`#`#`#`#`#`#`#`#`#`#`#.n.r.D`C`Y`I.R.x`b.M.M.M`b.M.b`b`b.r`b.r",
".r`T`b`b`b`b`B`B`B`B`B.x.x.x.R.S`.`T.x.r`#`#`#`#`#`#`#`#`#`#`#`#`#`#`#`#`#`#`#`#`#`#`#`#.x`T`Y`C`T.R`i.x`B`B.M`B`B`B.M.M`b`b.r`b",
".N.B.N.q.q.q.m.m`K.3.D.0`b.M.R`..m.0`B.r`#`#`#`#`#`#`#`#`#`#`#`#`#`#`#`#`#`#`#`#`#`#`#`#.n.r`Y`C.D.8.M.r.0`o`o.3.m.m`2`2.S.S.S.3",
".m.q`2.m.m`..m`.`K`d.3.D`b.b.R`..S`T`B`b`#`#`#`#`#`#`#`#`#`#`#`#`#`#`#`#`#`#`#`#`#`#`#`#.n.r.0`C.D`i.M`o.3`d`K`.`m`m.B`O.h`C.q`K",
"`B.M`B.M`b.r.r`b.r`b`b.M`i.x.R.m`K`T.x.M`#`#`#`#`#`#`#`#`#`#`#`#`#`#`#`#`#`#`#`#`#`#`#`#.x`T.0`.`o`i`i`B.r.r`T`T.r.0`T.r.M.M.b`B",
".M.M`B.M.r.r`b`T`T`T`T`T.M.M`i`d`K`T`B.M`#`#`#`#`#`#`#`#`#`#`#`#`#`#`#`#`#`#`#`#`#`#`#`#`i`T.0.m`T.x`B`b.0`T.r.0.r.r.r`b.M`B.M.M",
"`B`B`B`B`B#c.x`B`B.M`B.M`B`B.R`b.r.M.R`I`#`#`#`#`#`#`#`#`#`#`#`#`#`#`#`#`#`#`#`#`#`#`#`#`1.M.M.r`B`i.x.M`B.M`B`B.M.x`B`B`B`B`B`B",
".m.m`K.D.0.M.M.D.q.q.S.D.r`B.0`d.S.3`o.x`#`#`#`#`#`#`#`#`#`#`#`#`#`#`#`#`#`#`#`#`#`#`#`#.n`o`d`K.D`b.M`T`Y`K.S`d.r`B.r.0.D.3.m`K",
"`m.B.N`d`o`b.M`Y`..q`K.D.r`B.0`d.m`K`Y.x`#`#`#`#`#`#`#`#`#`#`#`#`#`#`#`#`#`#`#`#`#`#`#`#.b.3`2`2`d.r`B.0`d.q.m`K.0`B`T.D`d.S.q`.",
"`T`T.r`b.M`B.x`B.M`b`b.b`B.R.x.M.b.M`B`I`#`#`#`#`#`#`#`#`#`#`#`#`#`#`#`#`#`#`#`#`#`#`#`#.R`B`b.r`B`i.R.M.b`b.M`B.x`i`B`B.M`b`T`b",
"`A.U`H`r.I#b.Z.8.8`v.L`v.8.Z.5.Z`i.R#c`e`#`#`#`#`#`#`#`#`#`#`#`#`#`#`#`#`#`#`#`#`#`#`#`#`4.n.R.b`3.Z`4.a.5.i`M`1`M.Z.Z`M.8.A#b.i",
"`W`F.6.o#`.l.i.I.P`h#a.i`6`E.1`z.F.t.K.L`#`#`#`#`#`#`#`#`#`#`#`#`#`#`#`#`#`#`#`#`#`#`#`#.g.K`j.k`J`E`c`3.o.z.z...2##`7.O.5.y`h`V",
"`n`l.Q`n.j.d`4`N.C.C`a`l`w`q.4`U.e`n.7`N`#`#`#`#`#`#`#`#`#`#`#`#`#`#`#`#`#`#`#`#`#`#`#`#`P`G`p.b`3.#`Z`g`l.v.s##.5`X.j`y.C.Q.v.f",
"`l.8`3`P.d`M.6`g.J`X`r.2`w`g`U#c.5.J`A.A`#`#`#`#`#`#`#`#`#`#`#`#`#`#`#`#`#`#`#`#`#`#`#`#`3.W`A`H`M`X`0`6`e`M`u`w.y.8`l`w.4.Q.8.d",
"`1.a`M`H`Q`1.R`U`M`1.p`e`U.a`1`I.n`H.n.8`#`#`#`#`#`#`#`#`#`#`#`#`#`#`#`#`#`#`#`#`#`#`#`#`M`4`U`M`I`1`4`U.8```I`U`4`I`1`4`H`M`1.a"
};
