/* XPM */
static char *door_7_xpm[] = {
/* width height num_colors chars_per_pixel */
"    64    64      256            2",
/* colors */
"`` c #0c0a0c",
"`. c #5c5a5c",
"`# c #fc02d4",
"`a c #4c2a1c",
"`b c #2c2a24",
"`c c #b45a24",
"`d c #4c4a4c",
"`e c #2c1a14",
"`f c #6c361c",
"`g c #848684",
"`h c #f47a34",
"`i c #d46a2c",
"`j c #1c1a1c",
"`k c #4c3a34",
"`l c #3c3a3c",
"`m c #744224",
"`n c #945a34",
"`o c #8c4624",
"`p c #3c2214",
"`q c #a44e24",
"`r c #3c2a1c",
"`s c #bc6634",
"`t c #1c120c",
"`u c #6c6e6c",
"`v c #2c221c",
"`w c #7c3e1c",
"`x c #9c9e9c",
"`y c #7c4a2c",
"`z c #5c321c",
"`A c #6c3e24",
"`B c #e46e2c",
"`C c #242224",
"`D c #5c361c",
"`E c #844224",
"`F c #944e24",
"`G c #4c3224",
"`H c #343234",
"`I c #c4622c",
"`J c #7c421c",
"`K c #a45624",
"`L c #342214",
"`M c #141214",
"`N c #646664",
"`O c #4c4e4c",
"`P c #949294",
"`Q c #dc6a2c",
"`R c #241a14",
"`S c #442a1c",
"`T c #cc662c",
"`U c #24160c",
"`V c #7c7a7c",
"`W c #acaaac",
"`X c #643624",
"`Y c #342e2c",
"`Z c #b46234",
"`0 c #341e14",
"`1 c #743a1c",
"`2 c #fc8e3c",
"`3 c #444244",
"`4 c #848284",
"`5 c #9c4a24",
"`6 c #442614",
"`7 c #ac5224",
"`8 c #743e1c",
".` c #cc6e3c",
".. c #140e0c",
".# c #646264",
".a c #4c2e1c",
".b c #2c2e2c",
".c c #2c1e14",
".d c #6c3a1c",
".e c #8c8e8c",
".f c #fc8244",
".g c #74462c",
".h c #a45a34",
".i c #944a24",
".j c #a45224",
".k c #3c2e24",
".l c #1c160c",
".m c #747674",
".n c #2c2624",
".o c #a4a6a4",
".p c #844a24",
".q c #64321c",
".r c #5c3a1c",
".s c #9c4e24",
".t c #54321c",
".u c #7c462c",
".v c #34261c",
".w c #545654",
".x c #dc6e34",
".y c #241e14",
".z c #cc6a34",
".A c #0c0e0c",
".B c #5c5e5c",
".C c #2c2a2c",
".D c #b45a2c",
".E c #5c4234",
".F c #8c8a8c",
".G c #f47a3c",
".H c #d46a34",
".I c #1c1e1c",
".J c #543624",
".K c #3c3e3c",
".L c #74422c",
".M c #945a3c",
".N c #8c4a2c",
".O c #3c261c",
".P c #3c2a24",
".Q c #747274",
".R c #2c2224",
".S c #7c3e24",
".T c #a4a2a4",
".U c #5c3224",
".V c #6c3e2c",
".W c #e47234",
".X c #242624",
".Y c #5c3624",
".Z c #343634",
".0 c #cc622c",
".1 c #7c4224",
".2 c #a45634",
".3 c #34221c",
".4 c #141614",
".5 c #6c6a6c",
".6 c #545254",
".7 c #9c9a9c",
".8 c #dc6a34",
"#` c #442e24",
"#. c #844e34",
"## c #bc6234",
"#a c #9c522c",
"#b c #7c7e7c",
"#c c #acaeac",
"#d c #643a24",
"#e c #444644",
"#f c #cc6634",
"#g c #241614",
"#h c #44261c",
"#i c #743e24",
"#j c #4c2e24",
"#k c #2c1e1c",
"#l c #6c3a24",
"#m c #a4522c",
"#n c #1c1614",
"#o c #543224",
"#p c #241e1c",
"#q c #000000",
"#r c #000000",
"#s c #000000",
"#t c #000000",
"#u c #000000",
"#v c #000000",
"#w c #000000",
"#x c #000000",
"#y c #000000",
"#z c #000000",
"#A c #000000",
"#B c #000000",
"#C c #000000",
"#D c #000000",
"#E c #000000",
"#F c #000000",
"#G c #000000",
"#H c #000000",
"#I c #000000",
"#J c #000000",
"#K c #000000",
"#L c #000000",
"#M c #000000",
"#N c #000000",
"#O c #000000",
"#P c #000000",
"#Q c #000000",
"#R c #000000",
"#S c #000000",
"#T c #000000",
"#U c #000000",
"#V c #000000",
"#W c #000000",
"#X c #000000",
"#Y c #000000",
"#Z c #000000",
"#0 c #000000",
"#1 c #000000",
"#2 c #000000",
"#3 c #000000",
"#4 c #000000",
"#5 c #000000",
"#6 c #000000",
"#7 c #000000",
"#8 c #000000",
"a` c #000000",
"a. c #000000",
"a# c #000000",
"aa c #000000",
"ab c #000000",
"ac c #000000",
"ad c #000000",
"ae c #000000",
"af c #000000",
"ag c #000000",
"ah c #000000",
"ai c #000000",
"aj c #000000",
"ak c #000000",
"al c #000000",
"am c #000000",
"an c #000000",
"ao c #000000",
"ap c #000000",
"aq c #000000",
"ar c #000000",
"as c #000000",
"at c #000000",
"au c #000000",
"av c #000000",
"aw c #000000",
"ax c #000000",
"ay c #000000",
"az c #000000",
"aA c #000000",
"aB c #000000",
"aC c #000000",
"aD c #000000",
"aE c #000000",
"aF c #000000",
"aG c #000000",
"aH c #000000",
"aI c #000000",
"aJ c #000000",
"aK c #000000",
"aL c #000000",
"aM c #000000",
"aN c #000000",
"aO c #000000",
"aP c #000000",
"aQ c #000000",
"aR c #000000",
"aS c #000000",
"aT c #000000",
"aU c #000000",
"aV c #000000",
"aW c #000000",
"aX c #000000",
"aY c #000000",
"aZ c #000000",
"a0 c #000000",
"a1 c #000000",
"a2 c #000000",
"a3 c #000000",
"a4 c #000000",
"a5 c #000000",
"a6 c #000000",
"a7 c #000000",
"a8 c #000000",
/* pixels */
".6.6.w.B.Q.Q`u.5`u.Q`u`u.5.#.B`..6`O#e.C`l`l`l.b.Z`#`#`#`#`#`#`#`#`#`#`#`#`#`#.b`l`l`l.Z.b`3`d`O`..#`N`u`u`u`u.5.5`N.B.w`O`d#e`3",
".#.B.#.Q.F.e.F.e.7`x.o.T`P#b.m.5.#`.`.#e`d#e.w`O.#`#`#`#`#`#`#`#`#`#`#`#`#`#`#.6.6`O#e`d`3.6`..B`N.Q.m`V`V`V.m.m.m.m.5.5`.`..w`.",
".4`j.4.4.4`j`j.4`j`j.I`C.I#p.I.I.I`j`j.4`C.I#p.I.n`#`#`#`#`#`#`#`#`#`#`#`#`#`#`C`C.I#p.I.4.4.I.I#p.I.I#p.I`j.4`j`j#n.4`j.4.4`j.4",
".C#e`O`.`u.B.w.6`O.6`O`O#e.K`l.C.X.C.b.4.K.K.X.I`H`#`#`#`#`#`#`#`#`#`#`#`#`#`#`C`b.X.K`H.4.b.C.C.Z#e`O`d`d`O`d.K.K`l.K.Z`l`l.C.I",
".#.F`4.Q`4.m.5`..B.B`.`.`O`3.K.Z`H`H.Z.I`..#.Z`C.Z`#`#`#`#`#`#`#`#`#`#`#`#`#`#`C.b`l.B`3.X.Z.Z.Z`d`u`V.Q.Q#b`4.m.m.m.#.6.6.B.w`l",
"`N.K.X.4`j.I`j.4`j.4`j.4`j.4`j#n.4.4.A`j.w`N`l`C.Z`#`#`#`#`#`#`#`#`#`#`#`#`#`#.X`H`3.B.K`j``.4#n`j.I`j.4.I`j`j`j`j.I.I.4.I.X`3`3",
".Q`Y.I`j`j.X.C.X.C.X.C.X.C.X.C.X`C`j.4#n.w.5`l.X.Z`#`#`#`#`#`#`#`#`#`#`#`#`#`#.X`Y`3`N.K`j`M.I`C.X.C.X.C.X.X.X.X.C.X`C`j`j.I`l`O",
"`..b`j`j.I.Z`3`d`O`O`d#e`l.Z.C.X.I`j`M`j`N`u`l`C.Z`#`#`#`#`#`#`#`#`#`#`#`#`#`#.X`Y`3`N`3`j.A`j`C.C.b`l.K`d`O.6`O`d`3.b.I`j`j`H#e",
".6.Z.b.b`O.B`u.5`4.e.F.F`N.B.6#e`l.X.4`j`u.Q.Z.X.Z`#`#`#`#`#`#`#`#`#`#`#`#`#`#.X`Y#e`N`3.I.4`H.K#e.6.B`N`g`x.T.F.5`u`..Z`H.b.Z`3",
"`d`C`j.I.n.Z`H.b`l.K.K`l.X`Y.b`Y.X`C`M.I.5.Q.Z`C`l`#`#`#`#`#`#`#`#`#`#`#`#`#`#.X.b`3`N#e`j.A`C.b.b`H.C.C.K.w.w.K.C.Z`H`C.I`j`C.K",
".w.b.I.I.X`l.Z.Z`O`..6.K.X.Z`H`H.b`C.4`j`N`u.Z`C.Z`#`#`#`#`#`#`#`#`#`#`#`#`#`#`v.b.K.#`3`j`M.X.b`H`H.b.b`3.#.#`3.b.K.Z`C.I.I.Z`3",
"`.`H.X`H.K.w.w`d.Q.F#b`..Z.6#e`d.K.b.4.I.#.5`H`C.Z`#`#`#`#`#`#`#`#`#`#`#`#`#`#.X`H.Z.#.K.I.4.Z#e`d`d`3.K.B.F`4.B#e`..6`H.b.C.Z`3",
".w.C.I#p.X.Z`H.C.Z`l.Z`Y.I.b`Y.b.C.I`M`j.B.#.Z`C.Z`#`#`#`#`#`#`#`#`#`#`#`#`#`#.X`Y.Z.#`3.I`M`C.C.b.b.C.X.Z`O#e.Z.n`H.b`C`C`C`H#e",
"`..X`j.4.X`H.K.b`O`.`d`l`C.C.C.b.X`j.4`j.K.K`C.4`H`#`#`#`#`#`#`#`#`#`#`#`#`#`#.l.X.X`3`H.I`M.I.C.C.C.X.n`3.B.w.K`H.Z.b.I.4.I.b`d",
".B`H.X.b.Z`d.6`d`u`P.m.w.Z`3.K`3.Z.C.4`j.C`C.4.A.I`#`#`#`#`#`#`#`#`#`#`#`#`#`#`M.4`j.X.X.I.4.b.K.K#e`l.K`N.F`V`.`3.w#e`Y.b.n.b#e",
"`u.Z`j`j`C.C.b.C`H.Z.Z`H.X.C.X.b`C`j.4`C.B.B`l.X`H`#`#`#`#`#`#`#`#`#`#`#`#`#`#.y.b`H.w.K`C`M`j.C.C.C.X.b.Z`3`3.b.C.b.X.I.I.I`H#e",
".5`H`C.X.Z`3`O.#`u.m.5.#`..w.6#e.Z.X.4`j.K`H.I`j.Z`#`#`#`#`#`#`#`#`#`#`#`#`#`#`C.I.I`l`b`j.4.C.K`O.B.B.B.#.m`V`N.B`3.K.C.X`C.C#e",
"`N.X.4.I`H`l`d`u`4.e`V`u.B.w`d.K.Z`C.4`j.Z.C`j`j`H`#`#`#`#`#`#`#`#`#`#`#`#`#`#.y.I.I.Z.b.I`M.X.K`d.w.B`.`..#`u`N.6.Z`H.X.I.4`C#e",
"`N`C#n.I`C`C`C.X.X.n.X.C.X.X.X.X`C.4.I#p`O#e.b`C.b`#`#`#`#`#`#`#`#`#`#`#`#`#`#.X`H`Y`O`3.I`j`j`C.X.X.n.X.X.X.n.X.X`C`C`C`j`M`C`3",
".5.X.C.b.b.Z`H`H.b.b.C.C.X.C.C.X`j`j.I`j.w.w.Z`C`H`#`#`#`#`#`#`#`#`#`#`#`#`#`#.y.b.Z`.`3`j.4`j`C.C.C.X.C.X.C.b.b`H.b.b.b.C`C.X.K",
"`N.K.6`u.Q.m.m.m.m.B#e#e.K.Z.Z`H.I`H.X.I.B.#`H`C.b`#`#`#`#`#`#`#`#`#`#`#`#`#`#.X`H.Z`..K.I.b`C.b.K`d.6`..B`N`V`4.5.w`d.K.Z.Z.b`l",
".5`H.Z.C.4`j`j`j.X`C#n`j.4`j#p.I`j#e`H`C.B.5`H.X`Y`#`#`#`#`#`#`#`#`#`#`#`#`#`#.y`H.Z.#`3.n.K.b`C`C.I.I.I`C.X`H.b.X#p.I.4`H.b.b.K",
"`u.C.Z.C`j.I.I.I`C.I.I.I`C`j.X.C`C`u#e.I.#`N`H`C.b`#`#`#`#`#`#`#`#`#`#`#`#`#`#`C.b`l.B`3.X`N`d.X.C`C`j.I.I.I.I#p.I.I`C`M`H.C.C`3",
".Q.X`l.b.I`j`j`j`j`j`j`j`j.4.Z`d.b.F.6`j.B`N.Z`C.b`#`#`#`#`#`#`#`#`#`#`#`#`#`#.y`H`l.B.K.C`V.B.K`O.I.4.I#n`j`j`j.I`j`j`j.Z`C.b#e",
".m.X`l.b.4`M.A`j.4`M.4.4.I`j`O.m`3#c.B`j.#`N`H`C`Y`#`#`#`#`#`#`#`#`#`#`#`#`#`#.X.b.K.#.K.X.e.5.6`4.C`j.I`M.4.4.4`M.A.4.4.Z.X`H#e",
"`4`C`l`H.Z`3.X`d.w.K`..Z`O`H.5#b.K`W.w`j`N.#`H`C.b`#`#`#`#`#`#`#`#`#`#`#`#`#`#.y`H`l.B.K.C.F`N.w.T.K`3.K.b.w`H.w.b.b`3`C`l.X.C#e",
"`4`C.K.Z`3`O.X`N`V.B`4.6.m`l`u`N.b.7.6`j.5`N`H`C.b`#`#`#`#`#`#`#`#`#`#`#`#`#`#`C.b`l.#.K.C#b`N`l#b.6`.`N`3#b#e`V.Z`H`d.X.Z.X.C#e",
"`4.X.K`H.b`H`M.b`H.C.K.I.K.X.Q`.`H`V#e.I`u`N`H.X.b`#`#`#`#`#`#`#`#`#`#`#`#`#`#.y`H.Z.#.K.C.B.6.K.B.K.b`l.I#e.I`l`j`j.Z`C.Z.X.b#e",
".m.X.Z`H.4.4```j.4`M.4.A`C.4`d`l`H.#.Z`j.5`N`H`C.b`#`#`#`#`#`#`#`#`#`#`#`#`#`#.X`H`l.B.K`C`O`O.K`3.C.4.I``#n.A.I`M.A`j.4`H.C.C`3",
"`u.n.Z.Z`C.X.A.X.I`j`C.4.C`j.Z.C.b.w`H.4.5.#`H.X.b`#`#`#`#`#`#`#`#`#`#`#`#`#`#.y.b.K.#.K`C#e`d.C.C.C.I.C.4`C`M.X.4`j.X`j.Z.X.b.K",
".5.X`H.Z`j.4...4`M.4`j.A`j.I.b.X.X.K.X.4`u.B.Z`C.b`#`#`#`#`#`#`#`#`#`#`#`#`#`#.X`H.Z.B.K#n`H.Z.b.C.X.I`j.A`j.A`M.4`M.4.I`H.C`H.K",
"`N.C`l`l.4..`M`M`M`M`j`j.4`j`C.I#p.Z`j.4.#.#`H`C.b`#`#`#`#`#`#`#`#`#`#`#`#`#`#.y.b.K.#`l.A.C.X.X`C.I`j.4`j.4.4`M`M`M.A`j`l.C.b`l",
".w.C.K.K`j.4.I`j.I.4.I`j.I.4`j.I`j`H.4`M.B.B`H`C.b`#`#`#`#`#`#`#`#`#`#`#`#`#`#`C`H`l.B`l.A.C`C.X`j`j`j`j`j`j.I`j.I`j`j`C`l.b`H`l",
".6.b.K`3.K.K.Z.Z.Z.Z.C.C.X.C.C`H.I.X`j`M.#.B`H.X.b`#`#`#`#`#`#`#`#`#`#`#`#`#`#.y.b`l.#.K`M.I.I.C`H.X.b.b.b`H.Z`l.Z#e#e`l.K.Z`H.Z",
"`O.b`H`H`d`N`4.e.F#b.#.6`O`3#e`O.b.C`C`j.#.B`H`C`Y`#`#`#`#`#`#`#`#`#`#`#`#`#`#.X`H`l.B.K`j.C.I`3.K.K`3`3.6.B.Q.m`V`u.B#e.Z`H`H.Z",
"`d`Y.X.X.b`H.K#e`3`l.b.X.X.X.C.C.X.I.C.4`.`.`H.X.b`#`#`#`#`#`#`#`#`#`#`#`#`#`#.y.b`l.B`3`j`C.4.b.b.n.X`C.X.Z.K.K`3.Z`H.C`C.C`H.Z",
".B`C`C.X.b.b.Z`l.Z.Z`Y.C.X.C.b.b`Y`C.I.4.w`.`H`C.b`#`#`#`#`#`#`#`#`#`#`#`#`#`#.X`H`l.B.K.A.X.b`H`H.b.b.b.b`H.K`l.Z`Y.C.b.X.I.b`l",
".Q.X`C.b`d`.`N#b.m.Q`N`.`O#e#e`d.K.b.C`M.B.w.Z`C.b`#`#`#`#`#`#`#`#`#`#`#`#`#`#.y.b.K.#.K.4.n.b.Z.Z`l.Z`l.K`O.B`.`O#e.K.Z.C.I.Z`l",
"`.`C`M.4`C.X.b`H`H.Z.b.C.I`C.I.I.I`M.4.A.w.w`H.X.b`#`#`#`#`#`#`#`#`#`#`#`#`#`#.X`H`l.B`l``.4.4.I`j`j.I`C.X`H.K`Y.b.C`C.I`M`M`H`l",
"`O.X`j`C.K`3`H.6.5.e`N`d.b.Z.Z`H`H`C.I`M.6.6`H`C`Y`#`#`#`#`#`#`#`#`#`#`#`#`#`#.y.b`l`.`l`M.I.n`H`H.Z`H`l.w`N`V.B`3.Z`3.Z.I`j.Z`l",
"`O`j.4.4.X.b.n.Z`d.5`d`l.X.C`C`C.I`j`j``.b.b`C.I.b`#`#`#`#`#`#`#`#`#`#`#`#`#`#`C`C.X`H.I``.I`j.I.X.X`C.b`3.6.w#e`H.X.C`C`M`M`H.Z",
"`d.X.I.n.Z`d.Z.6.B`g.B.w.Z`d`3`l.Z.C`C.A#e#e.b`C`H`#`#`#`#`#`#`#`#`#`#`#`#`#`#.y.b`H`O.Z`M`C.b`l.K#e.K`3`.`u#b.#`3.K`3`H`C.4.Z.K",
"`3.I#n.I.b`H.X.Z`3.w`3`l.X`H.b`H.b.I.I`M.6.6`H`C.b`#`#`#`#`#`#`#`#`#`#`#`#`#`#.X`H.Z.B.K.A.I.X.b`Y`H.C.b.K`O.6`3.b.C.b.X.I.4.b`l",
".K.I.A.4.X.n.I`H`d.6`l.b.I`C`C.I`j.4.4``.b.b`j.I`Y`#`#`#`#`#`#`#`#`#`#`#`#`#`#.y.I`C`H`C``.4#n.I.I`C.I`C.K.6.w`3.X.I.C`C`M.A`H.Z",
"`d.n.X.C.K#e.b.6.#`u`..6.Z.K.K.K`l.C.X`M.Z.Z`C`C.b`#`#`#`#`#`#`#`#`#`#`#`#`#`#.X.n.X`l.b`M.X.b`l.K`3.Z.K.#`V#b.##e.Z#e.Z.X`C.Z`l",
"#e.X.4.4`C`C`C.X.b.b.C.X`j`C.X`C.I`j.4`M.B`.`H.I.C`#`#`#`#`#`#`#`#`#`#`#`#`#`#.y.b`l.B.K``.4`j`C.X.X.I#p.C.Z`l.b`C`C.X`j.4`j`l`l",
"`3.C`j.X`H.w`u`u.Q#b.#`O`3.Z`H.C`H.I.I`M.B.w`H.X.C`#`#`#`#`#`#`#`#`#`#`#`#`#`#`C.b.K.#`l`M.I.X`H`H`H.Z.K`d.B.B`d`d.K`l.b`C.I.Z`l",
"`3.X.C`H#e.5`V.m.Q.m.5.B.w`O#e.K`l.C.C`M`.`.`H.I.C`#`#`#`#`#`#`#`#`#`#`#`#`#`#.y.b`l.B.K.4.n.b`3`O`..B.#.B`N`N.B`..6#e`l`Y.X.Z.Z",
".K.X`C.I.C.b`H.b`H.b`H.b`H.b`H.b.b.I.I`M`..w.Z`C.C`#`#`#`#`#`#`#`#`#`#`#`#`#`#`C.b`l`N.K`M.I`C.b.b`H`H.b`Y.b`H.b.b.b`H`C`C`j.Z.Z",
"`3.X.I`C.X.b.C.C.C.X.C.C.X.X.C.X`C.I`j`M.w.B`H`C.C`#`#`#`#`#`#`#`#`#`#`#`#`#`#.y.b.K`N`3`M.4.I.C.X.X.X.C.X.C.C.C.b.C.b`C.I.I`H`H",
"`3#e.b.X.b.b`H.b.C.C.X`C`C`C`C`C`C`j.I.4.6`.`H.I.b`#`#`#`#`#`#`#`#`#`#`#`#`#`#.I`H`3`N`H.4`j.I`C`C.X`C`C`C.X.X.C.C.b.C`C.I.b`3.Z",
".K`.`N.5.#.5.m.5.B.B.B.w`.`O`3.K.Z.C.X.4.w`..Z`C.b`#`#`#`#`#`#`#`#`#`#`#`#`#`#.y.b`3`N.K#n.X.b.Z`l`l#e.w.w.#.#.6.6.6#e`l`l`3#e`l",
".Z`3#e.6`O.w.B.B`..w`..w.w`O`d#e.K.C.X`j.w.w`H`C.C`#`#`#`#`#`#`#`#`#`#`#`#`#`#.y.b.Z`N.K`j.X`l#e`d`O`..Q.Q.m`V`u`N.B`O.K`3.K.K.b",
"`j`C`C`C`C`C.X`C.X.C.b.b.C.b.C.C.X`j.I.4.w.6.b`C.X`#`#`#`#`#`#`#`#`#`#`#`#`#`#.I`H.Z`.`l`j`j`C.b.b`H`H.b.Z`H.b.X.X.X`C`C`C.X`C.4",
"`C.X`C.X.X.X.X`C.X.C.b.b`H`H`H`H`H.X.X`j`d`O`H.I.X`#`#`#`#`#`#`#`#`#`#`#`#`#`#`j`H.Z.w`H.I`C.C.Z`H.b.Z.b.b.b.C.X`C.X.X.X.X.X.X.I",
".X`C`j`C.I`C`C`C`C`C.I`C`C`C.X`C.X`C`C.4.C.b`C`j`M`#`#`#`#`#`#`#`#`#`#`#`#`#`#...X.X.b`C`j.I.X`C.X`C`C.X.I`C`C`C`C`C`C`C`C`j`C.C",
"`d.X.X.K#e.w.w`O.K.Z.C`C.K.B`.`O.K.b`C.Z`d.6#e`l`j`#`#`#`#`#`#`#`#`#`#`#`#`#`#.y`l`d`O.K.C.X`H`3`O.6`d.b`C.b.Z.K`d.w`O`3.Z.I.Z#e",
"`O.b.C#e.B.Q.m.5`d`l.X.X`3`..B.6.K.b`C.Z`d.6`O.K`C`#`#`#`#`#`#`#`#`#`#`#`#`#`#`b.K`N.#`d.b`C.Z`d.B.w`O.Z`C`H`3#e.6.B`.`O`3`C`l`O",
"`Y.X.X.C.C`H`H.b.n.X`C.I`C.X.C.C.n`C.4.I.X.C.X`C`M`#`#`#`#`#`#`#`#`#`#`#`#`#`#.l.X.C.b`C`j.4.X.n.C.X`C.I`j`C`C.X.C.b.C.X.X`j.X.n",
"#d.Y`S#g.a`A.Y.3#n.P.J#`#n#n.P.V`r#n#`#j#``j.4#p`e`#`#`#`#`#`#`#`#`#`#`#`#`#`#.c.I`M.n.a#`.c.l#j.t`R..`R#`#``R`t.P.U.t`0#g`S#o#o",
".z.h`G.Y`I`Q.i`v`D#f##.U.P.2`h###o`1`B.8`y.R.E.M.V`#`#`#`#`#`#`#`#`#`#`#`#`#`#.p.M`k.v`Z`B`c.a#d.H.z.g#h#a.f.x`G#o`h`2.z`G.u.`.x",
".N`S`R.d`7`o`p.3.i`5`z.c.Y.i.i`6`p`w`q#i`L.P.N.j`D`#`#`#`#`#`#`#`#`#`#`#`#`#`#`J`K.L.v.a#a`7`f`L`1.D#a#j`6.s.0.i.v.d.0`i`a.y#l#a",
".a#n.3`A`E`p#n.a`w.q`e#p.d`8#h.l`a`1`f`0#p.a.S`A.O`#`#`#`#`#`#`#`#`#`#`#`#`#`#.a.1`A.v`R`6`w.d`e`R`z`w.J#g`p`8#i.3#n`z`o`z`R#p`X",
".4`M`e`L`L..`t.y`L#g.A#n`0#g...A`e`L`U...4`R`L.y#n`#`#`#`#`#`#`#`#`#`#`#`#`#`#`R.c`0#g`M...c`p.l```M`0.c`M...c`L`R...l.3`L#n.A#n"
};
