/* XPM */
static char *door_19_xpm[] = {
/* width height num_colors chars_per_pixel */
"    64    64      256            2",
/* colors */
"`` c #696969",
"`. c #636363",
"`# c #5f5f5f",
"`a c #5a5a5a",
"`b c #505050",
"`c c #4d4d4d",
"`d c #474747",
"`e c #2a2a2a",
"`f c #393939",
"`g c #3a3a3a",
"`h c #303030",
"`i c #363636",
"`j c #ff00d2",
"`k c #2d2d2d",
"`l c #353535",
"`m c #2c2c2c",
"`n c #414141",
"`o c #4a4a4a",
"`p c #585858",
"`q c #686868",
"`r c #6d6d6d",
"`s c #939393",
"`t c #7f7f7f",
"`u c #747474",
"`v c #6c6c6c",
"`w c #616161",
"`x c #5d5d5d",
"`y c #595959",
"`z c #454545",
"`A c #4c4c4c",
"`B c #525252",
"`C c #4e4e4e",
"`D c #555555",
"`E c #535353",
"`F c #484848",
"`G c #666666",
"`H c #707070",
"`I c #767676",
"`J c #7b7b7b",
"`K c #202020",
"`L c #1e1e1e",
"`M c #1c1c1c",
"`N c #1a1a1a",
"`O c #141414",
"`P c #222222",
"`Q c #282828",
"`R c #161616",
"`S c #3d3d3d",
"`T c #373737",
"`U c #3f3f3f",
"`V c #3c3c3c",
"`W c #232323",
"`X c #333333",
"`Y c #252525",
"`Z c #323232",
"`0 c #181818",
"`1 c #4b4b4b",
"`2 c #5b5b5b",
"`3 c #606060",
"`4 c #272727",
"`5 c #777777",
"`6 c #727272",
"`7 c #0f0f0f",
"`8 c #656565",
".` c #3e3e3e",
".. c #0c0c0c",
".# c #676767",
".a c #424242",
".b c #121212",
".c c #646464",
".d c #5e5e5e",
".e c #434343",
".f c #515151",
".g c #2f2f2f",
".h c #464646",
".i c #5c5c5c",
".j c #565656",
".k c #6f6f6f",
".l c #8a8a8a",
".m c #7a7a7a",
".n c #afafaf",
".o c #8c8c8c",
".p c #6b6b6b",
".q c #818181",
".r c #ababab",
".s c #898989",
".t c #a2a2a2",
".u c #6e6e6e",
".v c #9a9a9a",
".w c #7d7d7d",
".x c #717171",
".y c #797979",
".z c #545454",
".A c #6a6a6a",
".B c #090909",
".C c #252323",
".D c #2c2a2a",
".E c #2d2a28",
".F c #282727",
".G c #2a2727",
".H c #2a2a28",
".I c #1c1614",
".J c #3f2a1c",
".K c #6c3e27",
".L c #3e281c",
".M c #1c140f",
".N c #422c20",
".O c #4d2f1c",
".P c #462d20",
".Q c #181616",
".R c #251e1c",
".S c #271a14",
".T c #28201a",
".U c #221e1c",
".V c #161414",
".W c #2a2722",
".X c #4e2f1e",
".Y c #482c1c",
".Z c #281c16",
".0 c #1a140f",
".1 c #4b2f1e",
".2 c #52301e",
".3 c #120f0f",
".4 c #231a14",
".5 c #3e2a20",
".6 c #a05630",
".7 c #f17837",
".8 c #be6537",
"#` c #55301e",
"#. c #723d1e",
"## c #e56e2f",
"#a c #da6932",
"#b c #7a4a2f",
"#c c #2c2320",
"#d c #5d4133",
"#e c #965b37",
"#f c #6d3e2a",
"#g c #854e30",
"#h c #90593a",
"#i c #4a3a30",
"#j c #392a23",
"#k c #b66336",
"#l c #e26e2f",
"#m c #b25827",
"#n c #4e2d18",
"#o c #683c27",
"#p c #d06b36",
"#q c #d1682f",
"#r c #70452d",
"#s c #43281c",
"#t c #5a3522",
"#u c #984b23",
"#v c #934b23",
"#w c #472716",
"#x c #392012",
"#y c #7d3e1c",
"#z c #a34e20",
"#A c #753e22",
"#B c #322016",
"#C c #3e2c22",
"#D c #874825",
"#E c #a15228",
"#F c #5a351e",
"#G c #774225",
"#H c #a75427",
"#I c #724128",
"#J c #2f231a",
"#K c #4c2c1a",
"#L c #a05227",
"#M c #af5322",
"#N c #6a371c",
"#O c #372014",
"#P c #703c22",
"#Q c #b65928",
"#R c #9e5128",
"#S c #4c3023",
"#T c #6b391e",
"#U c #773e20",
"#V c #43271a",
"#W c #482818",
"#X c #783d1e",
"#Y c #6a371e",
"#Z c #321e14",
"#0 c #221c1a",
"#1 c #4e2f20",
"#2 c #793f22",
"#3 c #703e23",
"#4 c #3d2518",
"#5 c #4c2d1e",
"#6 c #7b4223",
"#7 c #713d20",
"#8 c #35251e",
"a` c #221a16",
"a. c #452518",
"a# c #783e1e",
"aa c #70391c",
"ab c #2c1a14",
"ac c #231812",
"ad c #5a301c",
"ae c #7e411e",
"af c #563320",
"ag c #271812",
"ah c #140f0c",
"ai c #281a12",
"aj c #20160f",
"ak c #140f0f",
"al c #271c16",
"am c #332016",
"an c #281e18",
"ao c #2a1e1a",
"ap c #201814",
"aq c #160f0c",
"ar c #2c1c14",
"as c #1e160f",
"at c #18120c",
"au c #2f1c14",
"av c #2c1e16",
"aw c #000000",
"ax c #000000",
"ay c #000000",
"az c #000000",
"aA c #000000",
"aB c #000000",
"aC c #000000",
"aD c #000000",
"aE c #000000",
"aF c #000000",
"aG c #000000",
"aH c #000000",
"aI c #000000",
"aJ c #000000",
"aK c #000000",
"aL c #000000",
"aM c #000000",
"aN c #000000",
"aO c #000000",
"aP c #000000",
"aQ c #000000",
"aR c #000000",
"aS c #000000",
"aT c #000000",
"aU c #000000",
"aV c #000000",
"aW c #000000",
"aX c #000000",
"aY c #000000",
"aZ c #000000",
"a0 c #000000",
"a1 c #000000",
"a2 c #000000",
"a3 c #000000",
"a4 c #000000",
"a5 c #000000",
"a6 c #000000",
"a7 c #000000",
"a8 c #000000",
/* pixels */
"```.`#`a`b`c`d`e`f`g`g`h`i`j`j`j`j`j`j`j`j`j`j`j`j`j`j`j`j`j`j`j`j`j`j`j`j`j`j`j`j`j`j`j`j`j`j`j`j`j`j`k`f`g`g`l`m`n`o`b`p`.`q`r",
"`s`t`u`v`w`x`y`z`A`o`B`C`w`j`j`j`j`j`j`j`j`j`j`j`j`j`j`j`j`j`j`j`j`j`j`j`j`j`j`j`j`j`j`j`j`j`j`j`j`j`j`D`E`c`F`o`n`E`a`w`G`H`I`J",
"`K`L`L`L`M`M`N`O`P`K`L`L`Q`j`j`j`j`j`j`j`j`j`j`j`j`j`j`j`j`j`j`j`j`j`j`j`j`j`j`j`j`j`j`j`j`j`j`j`j`j`j`K`P`M`K`M`R`N`M`L`L`L`L`L",
"`z`S`T`m`Q`e`m`R`U`V`W`K`X`j`j`j`j`j`j`j`j`j`j`j`j`j`j`j`j`j`j`j`j`j`j`j`j`j`j`j`j`j`j`j`j`j`j`j`j`j`j`P`e`Y`U`Z`0`k`e`e`l`d`c`1",
"`c`z`U`l`Z`Z`l`L`2`3`l`W`i`j`j`j`j`j`j`j`j`j`j`j`j`j`j`j`j`j`j`j`j`j`j`j`j`j`j`j`j`j`j`j`j`j`j`j`j`j`j`Y`h`g`3`n`4`X`l`T`1`r`5`6",
"`0`0`0`0`R`O`7`N`p`8`g`W`i`j`j`j`j`j`j`j`j`j`j`j`j`j`j`j`j`j`j`j`j`j`j`j`j`j`j`j`j`j`j`j`j`j`j`j`j`j`j`Y`Z`n`3.``N..`O`0`N`M`M`N",
"`Q`Q`Q`4`P`M`O`0`p.#`V`W`i`j`j`j`j`j`j`j`j`j`j`j`j`j`j`j`j`j`j`j`j`j`j`j`j`j`j`j`j`j`j`j`j`j`j`j`j`j`j`Y`Z.a`.`S`N.b`L`W`Q`Q`Q`Q",
"`V`i`e`Q`L`0.b`N.c`H`g`W`i`j`j`j`j`j`j`j`j`j`j`j`j`j`j`j`j`j`j`j`j`j`j`j`j`j`j`j`j`j`j`j`j`j`j`j`j`j`j`Y`h.a.#`U`M`7`N`P`e`k`g`S",
"`8.d`b`d`i`e`0`N`v`u`T`W`i`j`j`j`j`j`j`j`j`j`j`j`j`j`j`j`j`j`j`j`j`j`j`j`j`j`j`j`j`j`j`j`j`j`j`j`j`j`j`Y`h.a.#.e`L`R`h`V`F.f.d`G",
"`Y.g`h.g`Q`K.b`M`v`6`T`W`i`j`j`j`j`j`j`j`j`j`j`j`j`j`j`j`j`j`j`j`j`j`j`j`j`j`j`j`j`j`j`j`j`j`j`j`j`j`j`Y`h`n.#.h`N`7`P`m.g`h`e`e",
"`Q`l`Z`Z`m`P`O`N.#`r`l`W`i`j`j`j`j`j`j`j`j`j`j`j`j`j`j`j`j`j`j`j`j`j`j`j`j`j`j`j`j`j`j`j`j`j`j`j`j`j`j`Y`h`S`..e`0.b`Y`h`Z`X.g`k",
"`T`C`F`F.``k`0`M`3```X`W`i`j`j`j`j`j`j`j`j`j`j`j`j`j`j`j`j`j`j`j`j`j`j`j`j`j`j`j`j`j`j`j`j`j`j`j`j`j`j`Y`h`T`3`n`K`0`X`z`F`1.e`U",
"`K.g`h`h`Q`L`O`N.d`8`X`W`i`j`j`j`j`j`j`j`j`j`j`j`j`j`j`j`j`j`j`j`j`j`j`j`j`j`j`j`j`j`j`j`j`j`j`j`j`j`j`Y`h`T`#`n`N.b`P`k`h`h`4`Y",
"`P`e`e`m`4`M`O`M.``S`W`0.g`j`j`j`j`j`j`j`j`j`j`j`j`j`j`j`j`j`j`j`j`j`j`j`j`j`j`j`j`j`j`j`j`j`j`j`j`j`j`M`P`4.a`X`K.b`L`e`e`e`Y`Q",
"`T`n`n`n`i`Q`0`N`Q`W`R`7`L`j`j`j`j`j`j`j`j`j`j`j`j`j`j`j`j`j`j`j`j`j`j`j`j`j`j`j`j`j`j`j`j`j`j`j`j`j`j.b`R`0`e`P`K`R`m`V`n.a`g.a",
"`Y`e`Q`e`W`N`R`W.i`x`g`Y`X`j`j`j`j`j`j`j`j`j`j`j`j`j`j`j`j`j`j`j`j`j`j`j`j`j`j`j`j`j`j`j`j`j`j`j`j`j`j`P.g`Z`E.``P.b`M`Q`e`e`Q`e",
"`2.j`b.h`T`4`R`0`U`X`K`N`i`j`j`j`j`j`j`j`j`j`j`j`j`j`j`j`j`j`j`j`j`j`j`j`j`j`j`j`j`j`j`j`j`j`j`j`j`j`j`W`M`L`f`m`N`O`m`n`b.i.d`x",
"`#.j`o`n`Z`L`R`M`T`Q`N`N`Z`j`j`j`j`j`j`j`j`j`j`j`j`j`j`j`j`j`j`j`j`j`j`j`j`j`j`j`j`j`j`j`j`j`j`j`j`j`j`W`L`M`l.g`L.b`Y`g`F`p`x.i",
"`Y`Y`Y`Y`K`0`L`L`C`z`k`W.g`j`j`j`j`j`j`j`j`j`j`j`j`j`j`j`j`j`j`j`j`j`j`j`j`j`j`j`j`j`j`j`j`j`j`j`j`j`j`W`h`h`c`n`L`0`N`P`Y`Y`4`Y",
"`Q`e`Q`Q`M`N`M`M.j.j`l`W`h`j`j`j`j`j`j`j`j`j`j`j`j`j`j`j`j`j`j`j`j`j`j`j`j`j`j`j`j`j`j`j`j`j`j`j`j`j`j`W`h`i`y.a`N`N`N`W`e`e`Q`Q",
"`V`T`i`X`L`h`Y`L.i`3`X`W`h`j`j`j`j`j`j`j`j`j`j`j`j`j`j`j`j`j`j`j`j`j`j`j`j`j`j`j`j`j`j`j`j`j`j`j`j`j`j`W`h`i`a`n`L`m`P`m.a`o`E`y",
"`0`R`K`L`0.h`l`P.d```X`W.g`j`j`j`j`j`j`j`j`j`j`j`j`j`j`j`j`j`j`j`j`j`j`j`j`j`j`j`j`j`j`j`j`j`j`j`j`j`j`W`h`f`#.a`Q`n.g`K`P`L`L`L",
"`P`N`4`e`W.k`z`L`#`q`X`W.g`j`j`j`j`j`j`j`j`j`j`j`j`j`j`j`j`j`j`j`j`j`j`j`j`j`j`j`j`j`j`j`j`j`j`j`j`j`j`W`h`g`3`n`e`3`o`Q`e`P`N`K",
"`M`O`T`F`h.l.f`N`3`G`X`W.g`j`j`j`j`j`j`j`j`j`j`j`j`j`j`j`j`j`j`j`j`j`j`j`j`j`j`j`j`j`j`j`j`j`j`j`j`j`j`W`h`g`3.``Q.m.d`V`A`L`0`N",
"`M`N`b`I`U.n`x`N.c.c`X`W.g`j`j`j`j`j`j`j`j`j`j`j`j`j`j`j`j`j`j`j`j`j`j`j`j`j`j`j`j`j`j`j`j`j`j`j`j`j`j`W`h`g`3.``Q.o.p`E.q`e`0`L",
"`b`Z.p`t`V.r`p`N`G`#`X`W.g`j`j`j`j`j`j`j`j`j`j`j`j`j`j`j`j`j`j`j`j`j`j`j`j`j`j`j`j`j`j`j`j`j`j`j`j`j`j`W`h`g`3.``Q.s`q.j.t`U.e`n",
"`5`g.u`8`k.v`B`N`v`8`X`W.g`j`j`j`j`j`j`j`j`j`j`j`j`j`j`j`j`j`j`j`j`j`j`j`j`j`j`j`j`j`j`j`j`j`j`j`j`j`j`W`h`g`3.``e.w`8`V`t.f`y`.",
".``Y.x`y`l.y.h`M`r.#`X`W.g`j`j`j`j`j`j`j`j`j`j`j`j`j`j`j`j`j`j`j`j`j`j`j`j`j`j`j`j`j`j`j`j`j`j`j`j`j`j`W`h`g`3.``e`x.z.``x`S`h`g",
"`K`R`o`V`X`.`T`N`v.c`X`W.g`j`j`j`j`j`j`j`j`j`j`j`j`j`j`j`j`j`j`j`j`j`j`j`j`j`j`j`j`j`j`j`j`j`j`j`j`j`j`W`h`g`3.``P`b`A`V`U`m`R`M",
"`m`M`l`Q`m.z`Z`0.A`w`X`W.g`j`j`j`j`j`j`j`j`j`j`j`j`j`j`j`j`j`j`j`j`j`j`j`j`j`j`j`j`j`j`j`j`j`j`j`j`j`j`W`h`g`3.``P`z`d`m`k`e`L`e",
"`N`L`k`4`4`U`Y`R`r`w`X`W.g`j`j`j`j`j`j`j`j`j`j`j`j`j`j`j`j`j`j`j`j`j`j`j`j`j`j`j`j`j`j`j`j`j`j`j`j`j`j`W`h`g`#`V`0`X`l`k`e`4`M`N",
"`R`N`P`L`L`l`M`O.c.d`X`W.g`j`j`j`j`j`j`j`j`j`j`j`j`j`j`j`j`j`j`j`j`j`j`j`j`j`j`j`j`j`j`j`j`j`j`j`j`j`j`P`h`g`3`g.b`e`4`4`K`K`N`R",
"`M`0`0`L`M`h`R.b.d`x`X`W.g`j`j`j`j`j`j`j`j`j`j`j`j`j`j`j`j`j`j`j`j`j`j`j`j`j`j`j`j`j`j`j`j`j`j`j`j`j`j`W`h`g`3`g`7`4`P`Q`N`0`N`N",
"`Q`Q`m`X`M`Q`0`O.c.d`X`W.g`j`j`j`j`j`j`j`j`j`j`j`j`j`j`j`j`j`j`j`j`j`j`j`j`j`j`j`j`j`j`j`j`j`j`j`j`j`j`W`h`g`3`V`O`K`M`e`Z`Q`k`m",
"`1.a.h`A.g`m`W`0`w`x`X`W.g`j`j`j`j`j`j`j`j`j`j`j`j`j`j`j`j`j`j`j`j`j`j`j`j`j`j`j`j`j`j`j`j`j`j`j`j`j`j`W`h`g`3.``0`e`L`n`n.``U.a",
"`Y`Y`e`m`Y`M`Q`N`2`2`X`W.g`j`j`j`j`j`j`j`j`j`j`j`j`j`j`j`j`j`j`j`j`j`j`j`j`j`j`j`j`j`j`j`j`j`j`j`j`j`j`W`h`g`3`U`M`W`0`k`m`4`Y`Y",
"`Q`Q`k.g.g`W`M`O`p`a`X`W.g`j`j`j`j`j`j`j`j`j`j`j`j`j`j`j`j`j`j`j`j`j`j`j`j`j`j`j`j`j`j`j`j`j`j`j`j`j`j`W`h`g`3`U`7`P`k`Z`h.g`m`m",
"`c`z`d`d`U.g`Q`O`2`p`X`W.g`j`j`j`j`j`j`j`j`j`j`j`j`j`j`j`j`j`j`j`j`j`j`j`j`j`j`j`j`j`j`j`j`j`j`j`j`j`j`W`h`g`3`S`O`4.g`T`T`T`i`S",
"`L`K`K`L`M`O`R`7`D.j`X`W.g`j`j`j`j`j`j`j`j`j`j`j`j`j`j`j`j`j`j`j`j`j`j`j`j`j`j`j`j`j`j`j`j`j`j`j`j`j`j`W`h`g`3`f..`O`R`M`M`M`M`K",
"`Z`T`l`Z`h`W`L.b`b`E`Z`W.g`j`j`j`j`j`j`j`j`j`j`j`j`j`j`j`j`j`j`j`j`j`j`j`j`j`j`j`j`j`j`j`j`j`j`j`j`j`j`P`h`f.i`g.b`L`Q`Z`X`T`h`V",
"`Y`Q`W`W`K`0`N..`k.g`P`L.g`j`j`j`j`j`j`j`j`j`j`j`j`j`j`j`j`j`j`j`j`j`j`j`j`j`j`j`j`j`j`j`j`j`j`j`j`j`j`W`P`Y`X`P.B`M`N`K`W`Y`W.g",
"`T`o`n`V`T`e`W`7.e.h`k`W.g`j`j`j`j`j`j`j`j`j`j`j`j`j`j`j`j`j`j`j`j`j`j`j`j`j`j`j`j`j`j`j`j`j`j`j`j`j`j`W`k`Z`c`Z.b`W.g`g`S`d`S.a",
"`4`X`h.g`m`K`M.b`B.z`X`W.g`j`j`j`j`j`j`j`j`j`j`j`j`j`j`j`j`j`j`j`j`j`j`j`j`j`j`j`j`j`j`j`j`j`j`j`j`j`j`W`h`g.d`V.b`M`Y`k`h`X`e.g",
"`M`W`K`L`M`R`O..`m`k`N`L.g`j`j`j`j`j`j`j`j`j`j`j`j`j`j`j`j`j`j`j`j`j`j`j`j`j`j`j`j`j`j`j`j`j`j`j`j`j`j`W`K`L`X`P.B`O`0`L`L`P`L`P",
"`l`U.``S`f`e`Y.b`f`i`P`K.g`j`j`j`j`j`j`j`j`j`j`j`j`j`j`j`j`j`j`j`j`j`j`j`j`j`j`j`j`j`j`j`j`j`j`j`j`j`j`W`4`Y`V`m.b`Y`h`g.`.a`i.`",
"`N`P`Y`W`K`0`R.b`#.j`X`P`e`j`j`j`j`j`j`j`j`j`j`j`j`j`j`j`j`j`j`j`j`j`j`j`j`j`j`j`j`j`j`j`j`j`j`j`j`j`j`K`h`g`3`S..`R`N`P`Y`Y`M`K",
"`n`T`h`m`h`K`K.b.d.j`X`P`e`j`j`j`j`j`j`j`j`j`j`j`j`j`j`j`j`j`j`j`j`j`j`j`j`j`j`j`j`j`j`j`j`j`j`j`j`j`j`K`h`g`3`V.b`L`Y`X`h`l`i.`",
".j`c.h`U`V`Q`Q.b.i`y`X`P`e`j`j`j`j`j`j`j`j`j`j`j`j`j`j`j`j`j`j`j`j`j`j`j`j`j`j`j`j`j`j`j`j`j`j`j`j`j`j`K`h`g`3`V`O`Q.g.a`c`2`2`3",
".g.g.g.g`m`L`K.b`2`a`X`P`e`j`j`j`j`j`j`j`j`j`j`j`j`j`j`j`j`j`j`j`j`j`j`j`j`j`j`j`j`j`j`j`j`j`j`j`j`j`j`K`h`g.c`U.b`L`W.g`h`Z`Z`h",
"`4`4`4`Q`W`M`N.b`y`a`X`P`e`j`j`j`j`j`j`j`j`j`j`j`j`j`j`j`j`j`j`j`j`j`j`j`j`j`j`j`j`j`j`j`j`j`j`j`j`j`j`K`h`V`8`U.b`0`L`4`Q`4`4`Q",
"`P`P`W`W`P`M`M`O`b`2`X`P`e`j`j`j`j`j`j`j`j`j`j`j`j`j`j`j`j`j`j`j`j`j`j`j`j`j`j`j`j`j`j`j`j`j`j`j`j`j`j`L`h`n.#`X`R`N`M`P`W`P`P`P",
"`y`C.e.``l`e`Y`R`p`a`X`P`h`j`j`j`j`j`j`j`j`j`j`j`j`j`j`j`j`j`j`j`j`j`j`j`j`j`j`j`j`j`j`j`j`j`j`j`j`j`j`P`h`U`q`V`0`Y.g`i`g`g`z`D",
"`D`b`o`z`S`m`4`0`p.z`Z`P`Q`j`j`j`j`j`j`j`j`j`j`j`j`j`j`j`j`j`j`j`j`j`j`j`j`j`j`j`j`j`j`j`j`j`j`j`j`j`j`L`h`T`.`U`N`4`i`z`o`b`2`6",
"`m`m`e`e`Y`M`M`0.z`b`Z`P`4`j`j`j`j`j`j`j`j`j`j`j`j`j`j`j`j`j`j`j`j`j`j`j`j`j`j`j`j`j`j`j`j`j`j`j`j`j`j`M`h`i`p`V`0`M`P`k.g`Z`Z`Z",
"`h`Z`Z`Z`X`Y`4`R`c`c`Z`K`Y`j`j`j`j`j`j`j`j`j`j`j`j`j`j`j`j`j`j`j`j`j`j`j`j`j`j`j`j`j`j`j`j`j`j`j`j`j`j`M`Z`T`D`X`L`P`m`l`Z`Z`Z.g",
"`W`W`Y`W`4`K`P`0`e`k`W`0.b`j`j`j`j`j`j`j`j`j`j`j`j`j`j`j`j`j`j`j`j`j`j`j`j`j`j`j`j`j`j`j`j`j`j`j`j`j`j`7`Y`Y`k`W`N`K`Y`W`W`W`P`W",
"`U`x`x.f`S`k`W`i`o`E.h`f`M`j`j`j`j`j`j`j`j`j`j`j`j`j`j`j`j`j`j`j`j`j`j`j`j`j`j`j`j`j`j`j`j`j`j`j`j`j`j`W`f`o`c`S`e`W`X.a`B.f`1`h",
"`n`2.i`b.`.g`W`T`o`E`c`n`K`j`j`j`j`j`j`j`j`j`j`j`j`j`j`j`j`j`j`j`j`j`j`j`j`j`j`j`j`j`j`j`j`j`j`j`j`j`j`Q.e.c.c`1`m`W`T`o.i.j`c`l",
".C`Y.D.E.F`P`R`L`Y`Q`Y`P`O`j`j`j`j`j`j`j`j`j`j`j`j`j`j`j`j`j`j`j`j`j`j`j`j`j`j`j`j`j`j`j`j`j`j`j`j`j`j`0`W`e`m`P`N`N.C.G.H`Y`K`K",
".I.I.J.K.L.M.N.O.P`M.Q.R.S`j`j`j`j`j`j`j`j`j`j`j`j`j`j`j`j`j`j`j`j`j`j`j`j`j`j`j`j`j`j`j`j`j`j`j`j`j`j.T.U.V.W.X.Y.Z.0.1.2.S.3.4",
".5.6.7.8#`#.###a#b#c#d#e#f`j`j`j`j`j`j`j`j`j`j`j`j`j`j`j`j`j`j`j`j`j`j`j`j`j`j`j`j`j`j`j`j`j`j`j`j`j`j#g#h#i#j#k#l#m#n#o#p#q#r#s",
"#t#u#v#w#x#y#z#A#B#C#D#E#F`j`j`j`j`j`j`j`j`j`j`j`j`j`j`j`j`j`j`j`j`j`j`j`j`j`j`j`j`j`j`j`j`j`j`j`j`j`j#G#H#I#J#K#L#M#N#O#P#Q#R#S",
"#T#U#V.M#W#X#Y#Z#0#1#2#3#4`j`j`j`j`j`j`j`j`j`j`j`j`j`j`j`j`j`j`j`j`j`j`j`j`j`j`j`j`j`j`j`j`j`j`j`j`j`j#5#6#7#8a`a.a#aaabacadaeaf",
"#Zagah`7ai#Oajak`Oalaman.I`j`j`j`j`j`j`j`j`j`j`j`j`j`j`j`j`j`j`j`j`j`j`j`j`j`j`j`j`j`j`j`j`j`j`j`j`j`j.4ao#Bap.baqar#Oas..atauav"
};
