/* XPM */
static char *door_9_xpm[] = {
/* width height num_colors chars_per_pixel */
"    64    64      256            2",
/* colors */
"`` c #0c0a0c",
"`. c #5c5a5c",
"`# c #fc02d4",
"`a c #4c2a1c",
"`b c #2c2a2c",
"`c c #b45a24",
"`d c #4c4a4c",
"`e c #2c1a14",
"`f c #6c361c",
"`g c #848684",
"`h c #f47a34",
"`i c #1c1a1c",
"`j c #d46a2c",
"`k c #744224",
"`l c #4c3a34",
"`m c #3c2214",
"`n c #747274",
"`o c #8c4624",
"`p c #3c3a3c",
"`q c #a44e24",
"`r c #1c120c",
"`s c #bc6634",
"`t c #2c221c",
"`u c #7c3e1c",
"`v c #9c9e9c",
"`w c #7c4a2c",
"`x c #5c321c",
"`y c #3c2a1c",
"`z c #945a34",
"`A c #6c3e24",
"`B c #242224",
"`C c #844224",
"`D c #646664",
"`E c #4c3224",
"`F c #c4622c",
"`G c #e46e2c",
"`H c #7c421c",
"`I c #944e24",
"`J c #a45624",
"`K c #342214",
"`L c #141214",
"`M c #4c4e4c",
"`N c #949294",
"`O c #241a14",
"`P c #5c361c",
"`Q c #7c7e7c",
"`R c #24160c",
"`S c #acaaac",
"`T c #442a1c",
"`U c #343234",
"`V c #b46234",
"`W c #341e14",
"`X c #743a1c",
"`Y c #fc8e3c",
"`Z c #dc6a2c",
"`0 c #442614",
"`1 c #444244",
"`2 c #ac5224",
"`3 c #cc662c",
"`4 c #743e1c",
"`5 c #140e0c",
"`6 c #646264",
"`7 c #4c2e1c",
"`8 c #2c1e14",
".` c #6c3a1c",
".. c #8c8e8c",
".# c #fc8244",
".a c #74462c",
".b c #7c7a7c",
".c c #9c4a24",
".d c #a45224",
".e c #1c160c",
".f c #2c2624",
".g c #a4a6a4",
".h c #844a24",
".i c #64321c",
".j c #3c2e24",
".k c #6c6e6c",
".l c #54321c",
".m c #7c462c",
".n c #9c4e24",
".o c #34261c",
".p c #545654",
".q c #241e14",
".r c #5c3a1c",
".s c #cc6a34",
".t c #0c0e0c",
".u c #5c5e5c",
".v c #2c2e2c",
".w c #b45a2c",
".x c #5c4234",
".y c #8c8a8c",
".z c #f47a3c",
".A c #1c1e1c",
".B c #d46a34",
".C c #74422c",
".D c #543624",
".E c #3c261c",
".F c #747674",
".G c #944a24",
".H c #3c3e3c",
".I c #2c2224",
".J c #7c3e24",
".K c #a4a2a4",
".L c #5c3224",
".M c #3c2a24",
".N c #945a3c",
".O c #6c3e2c",
".P c #242624",
".Q c #6c6a6c",
".R c #cc622c",
".S c #e47234",
".T c #7c4224",
".U c #a45634",
".V c #34221c",
".W c #141614",
".X c #545254",
".Y c #9c9a9c",
".Z c #5c3624",
".0 c #848284",
".1 c #241614",
".2 c #acaeac",
".3 c #442e24",
".4 c #343634",
".5 c #bc6234",
".6 c #dc6a34",
".7 c #44261c",
".8 c #444644",
"#` c #cc6634",
"#. c #844e34",
"## c #9c522c",
"#a c #743e24",
"#b c #4c2e24",
"#c c #2c1e1c",
"#d c #6c3a24",
"#e c #a4522c",
"#f c #1c1614",
"#g c #543224",
"#h c #241e1c",
"#i c #000000",
"#j c #000000",
"#k c #000000",
"#l c #000000",
"#m c #000000",
"#n c #000000",
"#o c #000000",
"#p c #000000",
"#q c #000000",
"#r c #000000",
"#s c #000000",
"#t c #000000",
"#u c #000000",
"#v c #000000",
"#w c #000000",
"#x c #000000",
"#y c #000000",
"#z c #000000",
"#A c #000000",
"#B c #000000",
"#C c #000000",
"#D c #000000",
"#E c #000000",
"#F c #000000",
"#G c #000000",
"#H c #000000",
"#I c #000000",
"#J c #000000",
"#K c #000000",
"#L c #000000",
"#M c #000000",
"#N c #000000",
"#O c #000000",
"#P c #000000",
"#Q c #000000",
"#R c #000000",
"#S c #000000",
"#T c #000000",
"#U c #000000",
"#V c #000000",
"#W c #000000",
"#X c #000000",
"#Y c #000000",
"#Z c #000000",
"#0 c #000000",
"#1 c #000000",
"#2 c #000000",
"#3 c #000000",
"#4 c #000000",
"#5 c #000000",
"#6 c #000000",
"#7 c #000000",
"#8 c #000000",
"a` c #000000",
"a. c #000000",
"a# c #000000",
"aa c #000000",
"ab c #000000",
"ac c #000000",
"ad c #000000",
"ae c #000000",
"af c #000000",
"ag c #000000",
"ah c #000000",
"ai c #000000",
"aj c #000000",
"ak c #000000",
"al c #000000",
"am c #000000",
"an c #000000",
"ao c #000000",
"ap c #000000",
"aq c #000000",
"ar c #000000",
"as c #000000",
"at c #000000",
"au c #000000",
"av c #000000",
"aw c #000000",
"ax c #000000",
"ay c #000000",
"az c #000000",
"aA c #000000",
"aB c #000000",
"aC c #000000",
"aD c #000000",
"aE c #000000",
"aF c #000000",
"aG c #000000",
"aH c #000000",
"aI c #000000",
"aJ c #000000",
"aK c #000000",
"aL c #000000",
"aM c #000000",
"aN c #000000",
"aO c #000000",
"aP c #000000",
"aQ c #000000",
"aR c #000000",
"aS c #000000",
"aT c #000000",
"aU c #000000",
"aV c #000000",
"aW c #000000",
"aX c #000000",
"aY c #000000",
"aZ c #000000",
"a0 c #000000",
"a1 c #000000",
"a2 c #000000",
"a3 c #000000",
"a4 c #000000",
"a5 c #000000",
"a6 c #000000",
"a7 c #000000",
"a8 c #000000",
/* pixels */
".p.u`n`n.k.Q.k`n.k.k.Q`6.u`..X`M.8`b`p`p`p.v.4`#`#`#`#`#`#`#`#`#`#`#`#`#`#`#`#`#`#.v`p`p`p.4.v`1`d`M`.`6`D.k.k.k.k.Q.Q`D.u.p`M`d",
"`6`n.y...y...Y`v.g.K`N`Q.F.Q`6`.`..8`d.8.p`M`6`#`#`#`#`#`#`#`#`#`#`#`#`#`#`#`#`#`#.X.X`M.8`d`1.X`..u`D`n.F.b.b.b.F.F.F.F.Q.Q`.`.",
".W.W.W`i`i.W`i`i.A`B.A#h.A.A.A`i`i.W`B.A#h.A.f`#`#`#`#`#`#`#`#`#`#`#`#`#`#`#`#`#`#`B`B.A#h.A.W.W.A.A#h.A.A#h.A`i.W`i`i#f.W`i.W.W",
"`M`..k.u.p.X`M.X`M`M.8.H`p`b.P`b.v.W.H.H.P.A`U`#`#`#`#`#`#`#`#`#`#`#`#`#`#`#`#`#`#`B`b.P.H`U.W.v`b`b.4.8`M`d`d`M`d.H.H`p.H.4`p`p",
".0`n.0.F.Q`..u.u`.`.`M`1.H.4`U`U.4.A`.`6.4`B.4`#`#`#`#`#`#`#`#`#`#`#`#`#`#`#`#`#`#`B.v`p.u`1.P.4.4.4`d.k.b`n`n`Q.0.F.F.F`6.X.X.u",
".P.W`i.A`i.W`i.W`i.W`i.W`i#f.W.W.t`i.p`D`p`B.4`#`#`#`#`#`#`#`#`#`#`#`#`#`#`#`#`#`#.P`U`1.u.H`i``.W#f`i.A`i.W.A`i`i`i`i.A.A.W.A.P",
".A`i`i.P`b.P`b.P`b.P`b.P`b.P`B`i.W#f.p.Q`p.P.4`#`#`#`#`#`#`#`#`#`#`#`#`#`#`#`#`#`#.P`U`1`D.H`i`L.A`B.P`b.P`b.P.P.P.P`b.P`B`i`i.A",
"`i`i.A.4`1`d`M`M`d.8`p.4`b.P.A`i`L`i`D.k`p`B.4`#`#`#`#`#`#`#`#`#`#`#`#`#`#`#`#`#`#.q`U`1`D`1`i.t`i`B`b.v`p.H`d`M.X`M`d`1.v.A`i`i",
".v.v`M.u.k.Q.0...y.y`D.u.X.8`p.P.W`i.k`n.4.P.4`#`#`#`#`#`#`#`#`#`#`#`#`#`#`#`#`#`#.P`U.H.Q`1.A.W`U.H.8.X.u`D`g`v.K.y.Q.k`..4`U.v",
"`i.A.f.4`U.v`p.H.H`p.P`U.v`U.P`B`L.A.Q`n.4`B`p`#`#`#`#`#`#`#`#`#`#`#`#`#`#`#`#`#`#.P.j.H`D.8`i.t`B.v.v`U`b`b.H.p.p.H`b.4`U`B.A`i",
".A.A.P`p`p.4`M`..X.H.P`U`U`U`b`B`L`i`D.k.4`B.4`#`#`#`#`#`#`#`#`#`#`#`#`#`#`#`#`#`#.P.v.H`D`1`i`L.P.v`U`U.v.v`1`6`6`1.v.H.4`B.A.A",
".f.v`1.p.X`d`n.y`Q`..4.X.8`d.H.v.W.A`6.Q`U`B.4`#`#`#`#`#`#`#`#`#`#`#`#`#`#`#`#`#`#.P`U.4`6.H.A.W.4.8`d`d`1.H.u.y.0.u.8`..X`U.v`b",
".A`B.P.4`U.P.4`p.4`U.A.v`U.v.f.A.W`i.u`D`U`B.4`#`#`#`#`#`#`#`#`#`#`#`#`#`#`#`#`#`#.q`U.4`6`1`i`L`B.v.v.v`b.P.4`M.8.4.f`U.v`B`B`B",
"`i.W`B`U.H`U`M.p`M`p`B`b`b`b.P.A`L`i.H.H`B.W`U`#`#`#`#`#`#`#`#`#`#`#`#`#`#`#`#`#`#.A`B.P`1`U.A`L.A`b`b`b.P.f`1.u.p.H`U.4.v.A.W.A",
".P.v.4`d.X.8`n`N.F`..4`1.H`1.4.f.W.A.f`B.W.t.A`#`#`#`#`#`#`#`#`#`#`#`#`#`#`#`#`#`#`5.W`i.P.P.A.W.v`p.H`1`p.H`D.y.b`.`1.p.8`U.v.P",
".A`i`B`b.v`b`U.4`U.v.P`b.P`b.P`i.W`B.u.u`p.P`U`#`#`#`#`#`#`#`#`#`#`#`#`#`#`#`#`#`#.q.v.4.X.H`B`L.A`b`b`b.P.v.4`1`1.v`b.v.P`i.A#h",
"#h.P.4.H`M`6.k.F.Q`6`..p.X.8.4.P.W`i.H`U.A`i.4`#`#`#`#`#`#`#`#`#`#`#`#`#`#`#`#`#`#.P.A.A`p.v`i.W`b.H`M.u.u.u`6.F.b`D.u`1.H`b.P.A",
".W.A`U`p`M.k.0...b.k`6.p`d`1`U.A#f.A.4`b`i`i`U`#`#`#`#`#`#`#`#`#`#`#`#`#`#`#`#`#`#.q.A`i.4.v.A`L.P`p`d.p.u`.`.`6.k`D.X.4`U.P.A#f",
"#f.A`B`B`B.P.P`b.P.P.P.P.P.P#h.W.A.A`M.8.v`B.v`#`#`#`#`#`#`#`#`#`#`#`#`#`#`#`#`#`#`B`U`U`M`1.A#f`i`B.P.P.f.P.P.P.f.P.P`B`B`B`i.W",
"`b.v.v.4`U`U.v.v`b`b`b`b.P.f.A`i.A.A`..X.4`B`U`#`#`#`#`#`#`#`#`#`#`#`#`#`#`#`#`#`#.q.v.4`.`1`i.W.A`B`b`b.P`b.P`b.v.v`U.v.v.v`b`B",
".p.k`n.F.F.b`n.u.8.8`p.4.4.4.A`U.P.A`.`6`U`B.v`#`#`#`#`#`#`#`#`#`#`#`#`#`#`#`#`#`#.P`U.4`..H.A.v`B`b.H`M.X`..u`D`Q.0.Q.p`d.H.4.4",
".4.f.W`i`i`i.P#h.W`i.W#f.A.A`i.8`U`B.u.Q.v.P`U`#`#`#`#`#`#`#`#`#`#`#`#`#`#`#`#`#`#.q`U.4`6`1`b.H.v`B`B.A.A.A`B.P`U`b.P#h.A.W`U.v",
".4.v`i.A.A.A.A.A#h.A`B`i.P`b`B.k.8.A.u.Q.4`B.v`#`#`#`#`#`#`#`#`#`#`#`#`#`#`#`#`#`#`B.v`p.u`1.P`6`d.P.v`B`i.A.A.A.A`B.A.A`B`L`U.f",
"`p.v.A`i`i`i`i`i`i`i.A.W.4`d.v.y.X`i`6`D`U`B.v`#`#`#`#`#`#`#`#`#`#`#`#`#`#`#`#`#`#.q`U`p.u.H`b.b.u.H`d.A.W.A#f`i`i`i`i`i`i`i.4.P",
"`p.v.W`L.t`i.W.W.W.W`i`i`M.F`1.2.u`i`6`D`U.P.v`#`#`#`#`#`#`#`#`#`#`#`#`#`#`#`#`#`#.P.v.H`6.H.P...Q.X.0`b`i.A`L.W.W.W`L.t.W.W.4.P",
"`p`U.4`1.P`d.p.H`..4.X`U.k`Q`p`S`..W`D.u`U`B.v`#`#`#`#`#`#`#`#`#`#`#`#`#`#`#`#`#`#.q`U`p.u.H`b.y`D.p.K.H`1.H.v.p`U.p.v.v`1`B`p.P",
".H.4`1`M.f`D.F.u.0`M.F`p.k`D.v.Y.X`i.k`D`U.P`U`#`#`#`#`#`#`#`#`#`#`#`#`#`#`#`#`#`#`B.v`p`6.H`b`Q`D.H`Q.X`.`D`1`Q.8.b.4`U`d.P.4.P",
".H.4`U`U.t`U`U.v.H.A.H.P`n`..4.b.8.A.k`D`U`B.v`#`#`#`#`#`#`#`#`#`#`#`#`#`#`#`#`#`#.q`U.4`6.H`b.u.X.H.u.H.v`p.A.8.A`p.A`i.4`B.4.P",
".4`U.W.W``.W.W`L`i```B.W`d`p`U`6.4`i.Q`D`U`B.v`#`#`#`#`#`#`#`#`#`#`#`#`#`#`#`#`#`#.P`U`p.u.H`B`M`M`p`1`b.W.A``#f.t`i`5.t`i.W.4.f",
".4.4`B`B.t.P.A`i`B.W`b`i.4.P.v.X`U.W.Q`6`U.P`U`#`#`#`#`#`#`#`#`#`#`#`#`#`#`#`#`#`#.q.v.H`6.H`B.8`d`b.v`b.A`b.W`B`L.P`i.W`b`i.4.P",
"`U.4`i.W`L.W`L`L`i.t`i.A.v`b.P.H.P.W.k`6`U`B.v`#`#`#`#`#`#`#`#`#`#`#`#`#`#`#`#`#`#.P`U.4.u.H#f`U.4.v`b.P.A`i.t`i.t`L.W`L.W.A`U`b",
"`p`p.W.t`L`L`L.W`i`i.W`i`B.A.A.4.A`L`D.u`U`B.v`#`#`#`#`#`#`#`#`#`#`#`#`#`#`#`#`#`#.q.v.H`6`p.t.v.P.P#h.A`i.W`i.W.W`L`L.t`L`i.4.v",
".H.H`i.W.A`i.A`i.W`i.A.W`i.A`i`U.W`L.u.u`U.P.v`#`#`#`#`#`#`#`#`#`#`#`#`#`#`#`#`#`#`B`U`p.u`p.t.f`B.P.A`i`i`i`i`i`i.A.A`i.W`B`p.v",
".H`1.H.H`p.4.4`U.v`b.P`b`b`U.A.P`i`L`6.u`U`B.v`#`#`#`#`#`#`#`#`#`#`#`#`#`#`#`#`#`#.q.v`p`6.H.W.A.A`b`U.P.v.v.v.4.4`p.4.8.8.H.H.4",
"`U`U`d`D.0.y.y`Q`6.X`M`1.8`M.v`b`B`i`6.u`U.P`U`#`#`#`#`#`#`#`#`#`#`#`#`#`#`#`#`#`#.P`U`p.u.H#f`b.A`1.H.H`1`1.X.u`n.F.b.k.u`d`U`U",
".P.P`b`U.H.8`1`p.v.P.P.P`b`b.P.A`b.W`.`.`U`B.v`#`#`#`#`#`#`#`#`#`#`#`#`#`#`#`#`#`#.q.v`p.u`1.A`B.W.v.v.f.P`B.P`U.H.H`1.4`U`b`B`b",
"`B.P.v`U.4`p.4`U.v`b.P`b.v.v`U`B`i.W`.`.`U.A`U`#`#`#`#`#`#`#`#`#`#`#`#`#`#`#`#`#`#.P`U`p.u.H.t`B.v`U`U.v.v.v.v`U.H`p.4`U`b.v.P.A",
"`B.v`d.p.Q.b.F`n`D`.`M.8.8`d.H.v`b`L`..p.4.P.v`#`#`#`#`#`#`#`#`#`#`#`#`#`#`#`#`#`#.q.v.H`6.H.W.f.v.4.4`p.4`p.H`M.u`.`M.8`p.4.P.A",
"`L.W`B.P.v`U`U.4`U.P#h.A`B`i.A`L.W.t.p.p`U`B.v`#`#`#`#`#`#`#`#`#`#`#`#`#`#`#`#`#`#.P`U`p.u`p``.W.W.A`i`i.A`B.P`U.H`U.v.f`B`B`L.W",
"`i`B.H`1`U.X`D`N`6`d`U.4.4`U.v.P.A`L.X.X`U.P.v`#`#`#`#`#`#`#`#`#`#`#`#`#`#`#`#`#`#.q.v`p`.`p`L.A`b`U`U.4`U`p.p`D.b.u`1.4`1.4.A.W",
".W.W.P.v.P`p.8.Q.8.H.P`b`B`B`B.W`i.t.v.v`B.A`U`#`#`#`#`#`#`#`#`#`#`#`#`#`#`#`#`#`#`B`B.P`U.A``.A`i.A.P.P`B.v`1.X.p.8`U.P`b.A.W`L",
".A.f.4`d.4.X`6`g`6.X.4`d.H.H.4`b`B.t`1.8.v`B.v`#`#`#`#`#`#`#`#`#`#`#`#`#`#`#`#`#`#.q.v`U`M.4`L`B.v`p.H.8.H`1`..k`Q`6`1.H`1`U`B`i",
"`i.A.v`U.P.4`1.p.H`p.P.4`U.v.v`B`i`L.X.p`U`B.v`#`#`#`#`#`#`#`#`#`#`#`#`#`#`#`#`#`#.P`U.4.u.H.t.A.P.v`U`U`b.v.H`M.X`1.v`b`U.P.A.W",
".t.W`B`b`i`U.8.X.H.v.A`B.A`B`i.W.W.t`b.v`i.A`U`#`#`#`#`#`#`#`#`#`#`#`#`#`#`#`#`#`#.q.A`B`U`B``.W#f.A.A`B.A`B.H.X.X`1.P.A`b.A`L.t",
"`B`b.H.8.v.X`D`n`..X`U.H.H.H`p`b`B`L.4.4`B.A`U`#`#`#`#`#`#`#`#`#`#`#`#`#`#`#`#`#`#.P.f.P`p.v`L.P.v`p.H`1.4.H`6.b`Q`D`1.4.8`p.P`B",
".W.W#h.P`B.P`b.v.P.P`i`B.P`B.A.W.W`L.u`.`U`B`b`#`#`#`#`#`#`#`#`#`#`#`#`#`#`#`#`#`#.q.v`p.u.H``.W`i`B.P.P`i#h`b.4`p`b.P`B.P`i.W`i",
".A.P.4.p.k.k`n`Q`D.X.H`p.v.v`U`B.A`L.u.p`U.A.v`#`#`#`#`#`#`#`#`#`#`#`#`#`#`#`#`#`#`B.v.H`6`p`L.A.P`U`U`U.4.H`d.u.u`M`d.H`p`b`B.A",
"`b`U`d`D.b.b`n.F.Q.u.p`M`d.H`p.f`b`L.u`.`U.P`b`#`#`#`#`#`#`#`#`#`#`#`#`#`#`#`#`#`#.q.v`p.u.H.W.f.v`1`M`..u`6.u`D`6.u`.`M`d`p.v`b",
"`B.A.f.v`U.v.v`U.v`U.v`U`b`U`b.A.A`L`..p.4`B`b`#`#`#`#`#`#`#`#`#`#`#`#`#`#`#`#`#`#`B.v`p`D.H`L.A`B.v.v`U`U.v`U.v`U.v`U.v.v.P`B`i",
".A`B.P.v`b`b`b.P`b.P.f.P.P.P.P.A`i`L.p.u`U.A`b`#`#`#`#`#`#`#`#`#`#`#`#`#`#`#`#`#`#.q.v.H`D`1`L.W.A`b.P.P.P`b.P.f`b`b`b.v`b`B.A.A",
".v.P.v.v`U.v`b`b.P.P`B`B.P`B`B`i.A.W.X`.`U`B`b`#`#`#`#`#`#`#`#`#`#`#`#`#`#`#`#`#`#.A`U`1`D`U.W`i.A`B`B.P`B`B`B.P.P.P.v.v`b`B.A.v",
"`D.Q`6.Q.F.Q.u.u.u.p`.`M`1.H.4`b.P.W.p`..4.A`U`#`#`#`#`#`#`#`#`#`#`#`#`#`#`#`#`#`#.q.v`1`D.H#f.P.v.4`p`p.8.p.p`6`6.p.X.X.8`p`p`1",
"`d`M.X.p.u.u`..p`..p.p.X`d.8.H`b.P`i.p.p`U`B.P`#`#`#`#`#`#`#`#`#`#`#`#`#`#`#`#`#`#.q.v.4`D.H`i.P`p.8`d`M`.`n`n.F`Q.k`6.u`M`1.H`1",
"`B`B.A.P.P`B.P`b.v.v`b`b`b`b.P`i.A`i.X`M`U`B.P`#`#`#`#`#`#`#`#`#`#`#`#`#`#`#`#`#`#.A`U.4`.`p`i`i`B.v.v`U`U.v.4`U.v.f.P.P`B`B`B.P",
".P.P.P.P`B`B.P`b.v`b`U`U.v`U`U.P.P.W`M`M`U.A.f`#`#`#`#`#`#`#`#`#`#`#`#`#`#`#`#`#`#`i`U.4.p`U.A`B`b.4`U.v.4.v.v.v`b.P`B.P.P.P.P.P",
".A`B#h`B`B`B`B`B`B.A`B.P.P.P.P`B`B#f`b.v`B`i`L`#`#`#`#`#`#`#`#`#`#`#`#`#`#`#`#`#`#`5.P.P.v`B`i.A.P`B.P`B`B.P.A`B`B`B`B`B`B`B`B`i",
"`B.H.8.p.p`M.H.4.P`B.H.u.u.X.H`b`B.4`d.X.8.4.A`#`#`#`#`#`#`#`#`#`#`#`#`#`#`#`#`#`#.q`p`d`M.H`b.P`U`1`M.X`d.v`B.v.4.H.8.p`M`1.4.A",
".v.8.u`n.F.Q`d`p`b`b`1`.`.`M.H.v.P.4`d.X`M`1`B`#`#`#`#`#`#`#`#`#`#`#`#`#`#`#`#`#`#.f.8`6`6`d.v`B.4`d.u.p`M.4`B`U.H`d.X`6.p`M`1`B",
".P.f.v`U`U.v.f.P.A.A`B.P`b`b.f`B.W.A.P`b.P`B`L`#`#`#`#`#`#`#`#`#`#`#`#`#`#`#`#`#`#.W`B`b.v`B`i.W.P.f`b.P`B.A`i`B`B.P`b.v`b.f.P`i",
"`T#f`7#d.Z.V#f.M.D.3#f#f`y.O.M`r.3#b.3`i.W#h`O`#`#`#`#`#`#`#`#`#`#`#`#`#`#`#`#`#`#`8.q.W.f`7.3`8.e#b.l`O`5`O.3.3`O`r.E.L.l`W#f`T",
"`E.Z`F.6`I#c.r#`.5.L.M.U`h`s.l#a`G.6`w.I.x.N#a`#`#`#`#`#`#`#`#`#`#`#`#`#`#`#`#`#`#.h.N`l.o`V`G`c`7#d.s.B.a.7##.#.S`E.D.z`Y.s`E.m",
"`O#d`2`o`m`K.G.c`x`8`P.G.G`a`m`u`q#a`W.j`o#e`P`#`#`#`#`#`#`#`#`#`#`#`#`#`#`#`#`#`#`H`J`k.f`7.d`2`f`K#d.w###b`0.n`F.G.V.`.R`j`a.q",
".V`4`C`m#f`7`H.i`e#h`f.J.7`r`0`u`f`W`i#b.T`A.E`#`#`#`#`#`#`#`#`#`#`#`#`#`#`#`#`#`#`7.T`A`K`O`0`4`X`e`O`x`u.D#f`m.J#a.V#f`x`o`x`O",
"`8.V`K`5.e`O`K.1.t#f`W`O`5.t`O`W#f`5.W`8`W.q#f`#`#`#`#`#`#`#`#`#`#`#`#`#`#`#`#`#`#`O`8`W`O`L`5`8`W.e```r`8`8`L`5`8`K`O`5.e.V`K.1"
};
