/* XPM */
static char *door_6_xpm[] = {
/* width height num_colors chars_per_pixel */
"    64    64      256            2",
/* colors */
"`` c #0c0a0c",
"`. c #5c5a5c",
"`# c #fc02d4",
"`a c #4c2a1c",
"`b c #b45a24",
"`c c #2c2a24",
"`d c #4c4a4c",
"`e c #2c1a14",
"`f c #6c361c",
"`g c #848684",
"`h c #f47a34",
"`i c #d46a2c",
"`j c #1c1a1c",
"`k c #4c3a34",
"`l c #3c3a3c",
"`m c #744224",
"`n c #945a34",
"`o c #8c4624",
"`p c #3c2214",
"`q c #a44e24",
"`r c #bc6634",
"`s c #3c2a1c",
"`t c #1c120c",
"`u c #6c6e6c",
"`v c #2c221c",
"`w c #7c3e1c",
"`x c #9c9e9c",
"`y c #7c4a2c",
"`z c #5c321c",
"`A c #6c3e24",
"`B c #c4622c",
"`C c #e46e2c",
"`D c #242224",
"`E c #5c361c",
"`F c #844224",
"`G c #944e24",
"`H c #4c3224",
"`I c #343234",
"`J c #7c421c",
"`K c #a45624",
"`L c #342214",
"`M c #141214",
"`N c #646664",
"`O c #b46234",
"`P c #4c4e4c",
"`Q c #949294",
"`R c #dc6a2c",
"`S c #241a14",
"`T c #cc662c",
"`U c #442a1c",
"`V c #24160c",
"`W c #7c7a7c",
"`X c #acaaac",
"`Y c #643624",
"`Z c #342e2c",
"`0 c #341e14",
"`1 c #743a1c",
"`2 c #fc8e3c",
"`3 c #444244",
"`4 c #848284",
"`5 c #9c4a24",
"`6 c #442614",
"`7 c #ac5224",
"`8 c #743e1c",
".` c #cc6e3c",
".. c #140e0c",
".# c #646264",
".a c #4c2e1c",
".b c #bc5e2c",
".c c #2c2e2c",
".d c #2c1e14",
".e c #6c3a1c",
".f c #8c8e8c",
".g c #fc8244",
".h c #74462c",
".i c #a45a34",
".j c #944a24",
".k c #a45224",
".l c #3c2e24",
".m c #1c160c",
".n c #747674",
".o c #2c2624",
".p c #a4a6a4",
".q c #844a24",
".r c #64321c",
".s c #5c3a1c",
".t c #9c4e24",
".u c #54321c",
".v c #7c462c",
".w c #34261c",
".x c #545654",
".y c #dc6e34",
".z c #241e14",
".A c #cc6a34",
".B c #0c0e0c",
".C c #5c5e5c",
".D c #b45a2c",
".E c #2c2a2c",
".F c #5c4234",
".G c #8c8a8c",
".H c #f47a3c",
".I c #d46a34",
".J c #1c1e1c",
".K c #543624",
".L c #3c3e3c",
".M c #74422c",
".N c #945a3c",
".O c #8c4a2c",
".P c #3c261c",
".Q c #3c2a24",
".R c #747274",
".S c #2c2224",
".T c #7c3e24",
".U c #a4a2a4",
".V c #5c3224",
".W c #6c3e2c",
".X c #cc622c",
".Y c #e47234",
".Z c #242624",
".0 c #5c3624",
".1 c #343634",
".2 c #7c4224",
".3 c #a45634",
".4 c #34221c",
".5 c #141614",
".6 c #6c6a6c",
".7 c #bc6234",
".8 c #545254",
"#` c #9c9a9c",
"#. c #844e34",
"## c #442e24",
"#a c #9c522c",
"#b c #7c7e7c",
"#c c #acaeac",
"#d c #643a24",
"#e c #444644",
"#f c #dc6a34",
"#g c #cc6634",
"#h c #241614",
"#i c #44261c",
"#j c #743e24",
"#k c #4c2e24",
"#l c #2c1e1c",
"#m c #6c3a24",
"#n c #a4522c",
"#o c #1c1614",
"#p c #543224",
"#q c #241e1c",
"#r c #000000",
"#s c #000000",
"#t c #000000",
"#u c #000000",
"#v c #000000",
"#w c #000000",
"#x c #000000",
"#y c #000000",
"#z c #000000",
"#A c #000000",
"#B c #000000",
"#C c #000000",
"#D c #000000",
"#E c #000000",
"#F c #000000",
"#G c #000000",
"#H c #000000",
"#I c #000000",
"#J c #000000",
"#K c #000000",
"#L c #000000",
"#M c #000000",
"#N c #000000",
"#O c #000000",
"#P c #000000",
"#Q c #000000",
"#R c #000000",
"#S c #000000",
"#T c #000000",
"#U c #000000",
"#V c #000000",
"#W c #000000",
"#X c #000000",
"#Y c #000000",
"#Z c #000000",
"#0 c #000000",
"#1 c #000000",
"#2 c #000000",
"#3 c #000000",
"#4 c #000000",
"#5 c #000000",
"#6 c #000000",
"#7 c #000000",
"#8 c #000000",
"a` c #000000",
"a. c #000000",
"a# c #000000",
"aa c #000000",
"ab c #000000",
"ac c #000000",
"ad c #000000",
"ae c #000000",
"af c #000000",
"ag c #000000",
"ah c #000000",
"ai c #000000",
"aj c #000000",
"ak c #000000",
"al c #000000",
"am c #000000",
"an c #000000",
"ao c #000000",
"ap c #000000",
"aq c #000000",
"ar c #000000",
"as c #000000",
"at c #000000",
"au c #000000",
"av c #000000",
"aw c #000000",
"ax c #000000",
"ay c #000000",
"az c #000000",
"aA c #000000",
"aB c #000000",
"aC c #000000",
"aD c #000000",
"aE c #000000",
"aF c #000000",
"aG c #000000",
"aH c #000000",
"aI c #000000",
"aJ c #000000",
"aK c #000000",
"aL c #000000",
"aM c #000000",
"aN c #000000",
"aO c #000000",
"aP c #000000",
"aQ c #000000",
"aR c #000000",
"aS c #000000",
"aT c #000000",
"aU c #000000",
"aV c #000000",
"aW c #000000",
"aX c #000000",
"aY c #000000",
"aZ c #000000",
"a0 c #000000",
"a1 c #000000",
"a2 c #000000",
"a3 c #000000",
"a4 c #000000",
"a5 c #000000",
"a6 c #000000",
"a7 c #000000",
"a8 c #000000",
/* pixels */
"`3.8.8.x.C.R.R`u.6`u.R`u`u.6.#.C`..8`P#e.E`l`l`l.c.1`#`#`#`#`#`#`#`#`#`#`#`#.c`l`l`l.1.c`3`d`P`..#`N`u`u`u`u.6.6`N.C.x`P`d#e`3`I",
".C.#.C.#.R.G.f.G.f#``x.p.U`Q#b.n.6.#`.`.#e`d#e.x`P.#`#`#`#`#`#`#`#`#`#`#`#`#.8.8`P#e`d`3.8`..C`N.R.n`W`W`W.n.n.n.n.6.6`.`..x`..8",
"`j.5`j.5.5.5`j`j.5`j`j.J`D.J#q.J.J.J`j`j.5`D.J#q.J.o`#`#`#`#`#`#`#`#`#`#`#`#`D`D.J#q.J.5.5.J.J#q.J.J#q.J`j.5`j`j#o.5`j.5.5`j.5.5",
".5.E#e`P`.`u.C.x.8`P.8`P`P#e.L`l.E.Z.E.c.5.L.L.Z.J`I`#`#`#`#`#`#`#`#`#`#`#`#`D`c.Z.L`I.5.c.E.E.1#e`P`d`d`P`d.L.L`l.L.1`l`l.E.J`M",
".Z.#.G`4.R`4.n.6`..C.C`.`.`P`3.L.1`I`I.1.J`..#.1`D.1`#`#`#`#`#`#`#`#`#`#`#`#`D.c`l.C`3.Z.1.1.1`d`u`W.R.R#b`4.n.n.n.#.8.8.C.x`l`M",
".E`N.L.Z.5`j.J`j.5`j.5`j.5`j.5`j#o.5.5.B`j.x`N`l`D.1`#`#`#`#`#`#`#`#`#`#`#`#.Z`I`3.C.L`j``.5#o`j.J`j.5.J`j`j`j`j.J.J.5.J.Z`3`3.5",
".1.R.c#q`j`j.Z.E.Z.E.Z.E.Z.E.Z.E.Z`D`j.5#o.x.6`l.Z.1`#`#`#`#`#`#`#`#`#`#`#`#.Z`Z`3`N.L`j`M.J`D.Z.E.Z.E.Z.Z.Z.Z.E.Z`D`j`j.J`l`P.5",
".c`..c`j.5`D.1.L`P`P`P`d#e`l.1.E.Z.J`j`M`j`N`u`l`D.1`#`#`#`#`#`#`#`#`#`#`#`#.Z`Z`3`N`3`j.B`j`D.E.c`l.L`d`P.8`P`d`3.c.J`j`j`I#e.5",
".Z.8.1.c.c`P.C.R.6`4.f.G.G`N.C.8#e`l.Z.5`j`u.R.1.Z.1`#`#`#`#`#`#`#`#`#`#`#`#.Z`Z#e`N`3.J.5`I.L#e.8.C`N`g`x.U.G.6`u`..1`I.E.1`3.5",
".o`P`D`j.J.E`I.c.c`l.L.L`l.Z`Z.c`Z.Z`D`M.J.6.R.1`D`l`#`#`#`#`#`#`#`#`#`#`#`#.Z.c`3`N#e`j.B`D.c.c`I.E.E.L.x.x.L.E.1`I`D.J.J`D.L.5",
".E.8.c.J.J.Z`l`l.1`P`..8.L.Z.1`I`I.c`D.5`j`N`u.1`D.1`#`#`#`#`#`#`#`#`#`#`#`#`v.c.L.#`3`j`M.Z.c`I`I.c.c`3.#.#`3.c.L.1`D.J.J`I`3`j",
".c.x`I.E.c.L.x.x`d.R.G#b`..1.8#e`d.L.c.5.J.#.6`I`D.1`#`#`#`#`#`#`#`#`#`#`#`#.Z`I.1.#.L.J.5.1#e`d`d`3.L.C.G`4.C#e`..8`I.c.E.1`3.5",
".c`..E.J#q.E.1`I.Z.1`l.1`Z.J.c`Z.c.E.J`M`j.C.#.1`D.1`#`#`#`#`#`#`#`#`#`#`#`#.Z`Z.1.#`3.J`M`D.E.c.c.E.Z.1`P#e.1.o`I.c`D`D`D`I#e`j",
".c`..Z.5`j.J`I.L`I`P.x`P`l`D.E.E.c.Z`j.5`j.L.L`D.5`I`#`#`#`#`#`#`#`#`#`#`#`#.m.Z.Z`3`I.J`M.J.E.E.E.Z.o`3.C.x.L`I.1.c.J.5.J.c`d.5",
".c.#.c.E.c.1`d.8#e.R`Q.n`..1`3.L`3.1.E.5`j.E`D.5.B.J`#`#`#`#`#`#`#`#`#`#`#`#`M.5`j.Z.Z.J.5.c.L.L#e`l.L`N.G`W`.`3.x#e`Z.c.o.c#e`j",
"`I.6.1`j`j`D.E.c.E`I.1`I.c.Z.E.Z.c`D`j.5`D.C.C`l.Z`I`#`#`#`#`#`#`#`#`#`#`#`#.z.c`I.x.L`D`M`j.E.E.E.Z.c.1`3`3.c.E.c.Z.J.J.J`I#e`j",
".1.6`I.J.Z.1`3`P.#`u.n.6.#.C.x.8#e.1.Z.5`j.L`I.J`j.1`#`#`#`#`#`#`#`#`#`#`#`#`D.J.J`l`c`j.5.E.L`P.C.C.C.#.n`W`N.C`3.L.E.Z`D.E#e`j",
"`l`N.Z`j.J`I`l`d`u`4.f`W`u.#.x`d`3`I.J#o`j.1.E`j`j`I`#`#`#`#`#`#`#`#`#`#`#`#.z.J.J.1.c.J`M.Z.L`d.x.C`.`..#`u`N.8.1`I.Z.J.5`D#e`D",
"`l`N`D.5.J`D`D`D.Z.Z.o.Z.Z.Z.Z`D.Z#q`j.J.J`P#e.c`D.c`#`#`#`#`#`#`#`#`#`#`#`#.Z`I`Z`P`3.J`j`j`D.Z.Z.o.Z.Z.Z.o.Z.Z`D`D`D`j`M`D`3.J",
".1`N.o.E.E.c.1`I`I.c.c.E.E.E.E.Z.E`j`j.J`j.x.x.1`D`I`#`#`#`#`#`#`#`#`#`#`#`#.z.c.1`.`3`j.5`j`D.E.E.Z.E.Z.E.c.c`I.c.c.c.E`D.Z.L`D",
"`I`N.L.x`u.R.n.n.n.n.C#e#e.L.1.1`I.J.c.Z.J.C.#`I`D.c`#`#`#`#`#`#`#`#`#`#`#`#.Z`I.1`..L.J.c`D.c.L`d.8`..C`N`W`4.6.x`d.L.1.1.c`l.J",
".1.6`I.1.E.5`j`j`j.Z#q`j.5`j.5`D.J`j#e.1`D.C.6`I.Z`Z`#`#`#`#`#`#`#`#`#`#`#`#.z`I.1.#`3.o.L.c`D`D.J.J.J`D.Z`I.c.Z#q.J.5`I.c.c.L`D",
".L`u.E.1.c`j.J.J.J`D.J.J.J`D`j.Z.E`D`u#e`D.C`N`I`D.c`#`#`#`#`#`#`#`#`#`#`#`#`D.c`l.C`3.Z`N`d.Z.E`D`j.J.J.J.J#q.J.J`D`M`I.E.E`3.J",
"`3.R.Z`l.c.J`j`j`j`j`j`j`j.J`M.1`d.c.G.8`j.C.6`I`D.c`#`#`#`#`#`#`#`#`#`#`#`#.z`I`l.C.L.E`W.C.L`P.J.5.J#o`j`j`j.J`j`j`j.1`D.c#e.Z",
".L.n.Z`l.c.5`M.B`j.5`M.5.5.J`j`P.n`3#c.C`j.#.#`I.Z.c`#`#`#`#`#`#`#`#`#`#`#`#.Z.c.L.#.L.Z.f.6.8`4.E`j.J`M.5.5.5`M.B.5.5.1.Z`I#e#q",
"#e`4`D`l`I.1`3.Z`d.x.L`..1.8`I.6#b.L`X`..5`N.C.1`D.c`#`#`#`#`#`#`#`#`#`#`#`#.z`I`l.C.L.E.G`N.x.U.L`3.L.c.x`I.x.c.c`3`D`l.Z.E#e`D",
"#e`g`D.L.1#e`d.Z`N`W.C`4`P.n`l`u`N.c#`.8`j`u`N`I`D`Z`#`#`#`#`#`#`#`#`#`#`#`#`D.c`l.#.L.E#b`N`l#b.8`.`N`3#b#e`W.1`I`d.Z.1.Z.E#e`D",
"`3`4.Z.L`I`I`I`M.c`I.E.L#q.L.Z.R`..1`W#e`j`u.6`I`D.c`#`#`#`#`#`#`#`#`#`#`#`#.z`I.1.#.L.E.C.8.L.C.L.c`l.J#e.J`l`j`j.1`D.1.Z.c#e`D",
"`l.n.Z.1`I.5.5```j.5`M.5.B`D.5`d`l`I.#.1`j.6.#`I.Z.c`#`#`#`#`#`#`#`#`#`#`#`#.Z`I`l.C.L`D`P`P.L`3.E.5.J``#o.B.J`M.B`j.5`I.E.E`3.J",
".L.6.o.1.1`D`D.B.Z.J`j`D.5.E`j.1.Z.c.8`I.5`u.C.1`D.c`#`#`#`#`#`#`#`#`#`#`#`#.z.c.L.#.L`D#e`d.E.E.E.J.E.5`D`M.Z.5`j.Z`j.1.Z.c.L`D",
".1`u.Z`I.1`j.5`M.5`M.5`j.B`j.J.c.o.Z.L.Z.5`u.#`I`D.c`#`#`#`#`#`#`#`#`#`#`#`#.Z`I.1.C.L#o`I.1.c.E.Z.J`j.B`j.B`M.5`M.5.J`I.E`I.L#q",
"`l`N.E`l`l.5.B`M`M`M`M`j`j.5`j`D.J.J`l`j.5.#.C`I.Z.c`#`#`#`#`#`#`#`#`#`#`#`#.z.c.L.#`l.B.E.Z.Z`D.J`j.5`j.5.5`M`M`M.B`j`l.E.c`l`D",
"`l.8.c`l.L`j.5.J.J.J`j.5.J.J.5`j.J.J.c.5`M.C.C`I`D`Z`#`#`#`#`#`#`#`#`#`#`#`#`D`I`l.C`l.B.E`D.Z`j`j`j`j`j`j.J`j.J`j`j`D`l.c`I`l.J",
".L.8.c.L`3.L.L`l.1.1`I.c.E.Z.E.E`I.J.E`j`M`N.C`I.Z.c`#`#`#`#`#`#`#`#`#`#`#`#.z.c`l.#.L`M.J.J.E`I.Z.c.c.c`I.1`l.1#e#e`l.L.1`I`l`D",
"`l`d.c`I`I`d`N`4.G.G#b.#.8`d`3#e`P.c.E`D.5.#.C`I`D.c`#`#`#`#`#`#`#`#`#`#`#`#.Z`I`l.C.L`j.E.J`3.L.L`3`3.8.C.R.n`W`u.C#e.1`I`I.1.J",
".c`P.c.Z.Z.c`I.L#e`3.1.c.Z.Z.Z.E.E.Z.J.Z`j`.`.`I.Z`Z`#`#`#`#`#`#`#`#`#`#`#`#.z.c`l.C`3`j`D.5.c.c.o.Z`D.Z.1.L.L`3.1`I.E`D.E`I.1.5",
"`I`..Z`D.Z.c`Z.1`l.1.1`I.E.Z.E.c.c`Z`D.J.5`.`.`I`D.c`#`#`#`#`#`#`#`#`#`#`#`#.Z`I`l.C.L.B.Z.c`I`I.c.c.c.c`I.L`l.1`Z.E.c.Z.J.c`l`j",
"`I`u.E`D.c`d.x.6`W.n.R`N`.`P#e#e`d.L.c.E`M`..x.1`D.c`#`#`#`#`#`#`#`#`#`#`#`#.z.c.L.#.L.5.o.c.1.1`l.1`l.L`P.C`.`P#e.L.1.E.J.1`l.5",
".c`.`D`M.5.Z.Z.c`I.1.1.c.E.J#q.J.J`j.5.5.B.x.x`I.Z.c`#`#`#`#`#`#`#`#`#`#`#`#.Z`I`l.C`l``.5.5.J`j`j.J`D.Z`I.L`Z.c.E`D.J`M`M`I`l.5",
".c`P.Z`j`D.L`3`I.8`N`Q`N#e`I.1.1`I`I`D.J`M.8.8`I`D.c`#`#`#`#`#`#`#`#`#`#`#`#.z.c`l`.`l`M.J.o`I`I.1`I`l.x`N`W.C`3.1`3.1`j`j.1`l.5",
".E`P`j.5.5.Z.c.Z`l#e.6`d.L.Z.E`D`D`D.5`j``.c.c`D.J`Z`#`#`#`#`#`#`#`#`#`#`#`#`D`D.Z`I.J``.J`j.J.Z.Z`D.c`3.8.x#e`I.Z.E`D`M`M`I`l.5",
".E`d.Z.J.o.1`d.1.8.#`g.C.8.1`d`3.L.1.E`D.B`3#e.c`D.c`#`#`#`#`#`#`#`#`#`#`#`#.z.c`I`P.1`M`D.c`l.L#e.L`3`.`u#b.#`3.L`3`I`D.5.1.L.5",
".E.L.J`j.J.c`I`D.1`3.x`3`l.Z`I.c.c.c.J.J`M.8.x`I`D`Z`#`#`#`#`#`#`#`#`#`#`#`#.Z`I.1.C.L.B.J.Z.c`Z`I.E.c.L`P.8`3.c.E.c.Z.J.5.c`l`j",
".c`3.J.B.5`D.E`j`I#e.8`l.c.J`D`D.J.J.5`M.B.E.c`j.J.c`#`#`#`#`#`#`#`#`#`#`#`#.z.J`D`I`D``.5#o.J.J`D.J`D.L.8.x`3.Z.J.E`D`M.B`I.1.5",
".Z#e.E`D.E.L#e.c.8`N`u`..8.1.L.L.L`l.E.Z`M`l.1`D`D.c`#`#`#`#`#`#`#`#`#`#`#`#.Z.o.Z`l.c`M.Z.c`l.L`3.1.L.#`W#b.##e.1#e.1.Z`D.1`l.5",
".E#e.Z`j.5#q.Z`D.Z.E`I.Z.Z`j`D.Z`D`D.5.5`M.C.x`I`D.E`#`#`#`#`#`#`#`#`#`#`#`#.z.c`l.C.L``.5`j`D.Z.Z.J#q.E.1`l.c`D`D.Z`j.5`j`l`l.5",
".Z`3.o`j.Z.1.x`u`u`u#b`N.8.L`l.c.E`I.J`D`M.C.x`I`D.E`#`#`#`#`#`#`#`#`#`#`#`#`D.c.L.#`l`M.J.Z`I`I`I.1.L`d.C.C`d`d.L`l.c`D.J.1`l.5",
".Z`3.Z.c`I#e.6`W`W.R.n.6.C.x`P`d.L`l.E.Z`M.C`.`I.J.c`#`#`#`#`#`#`#`#`#`#`#`#.z.c`l.C.L.5.o.c`3`P`..C.#.C`N`N.C`..8#e`l`Z.Z.1.1`j",
"`D.L.Z`D.J.E.c.c.c`Z.c`Z.c`I.c.c`Z.c.J`D`M`.`..1`D.E`#`#`#`#`#`#`#`#`#`#`#`#`D.c`l`N.L`M.J`D.c.c`I`I.c`Z.c`I.c.c.c`I`D`D`j.1.1.5",
"`D.L.Z.J`D.Z.E.E.c.E.E.E.E.Z.o.Z.E`D`j`j.B`..x.1.J.E`#`#`#`#`#`#`#`#`#`#`#`#.z.c.L`N`3`M.5.J.E.Z.Z.Z.E.Z.E.E.E.c.E.c`D.J.J`I`I.5",
".J`3`d.c.Z.E`I`I.E.Z.E.Z`D`D`D`D`D`D.J`j.5`P.C`I`D.E`#`#`#`#`#`#`#`#`#`#`#`#.J`I`3`N`I.5`j.J`D`D.Z`D`D`D.Z.Z.E.E.c.E`D.J.c`3.1`M",
".J.L`..#.6.#`N.n`u.C.C.C.x`.`P#e.L.1.E.Z.5`.`.`I`D.c`#`#`#`#`#`#`#`#`#`#`#`#.z.c`3`N.L#o.Z.c.1`l`l#e.x.x.#.#.8.8.8#e`l`l`3#e`l`M",
"`j.1.L`d`P.8.x.#.C`..x`..x.x`P`d#e.L.E.Z`j.x.x`I.J.E`#`#`#`#`#`#`#`#`#`#`#`#.z.c.1`N.L`j.Z`l#e`d`P`..R.R.n`W`u`N.C`P.L`3.L.L.c`M",
".B.J`D`D`D`D`D.Z`D.Z.E.c.c.c.E.E.E.Z.J`j`j.8`P.1`D.Z`#`#`#`#`#`#`#`#`#`#`#`#.J`I.1`.`l`j`j`D.c.c`I`I.c.1`I.c.Z.Z.Z`D`D`D.Z`D.5.B",
".5`D.Z.Z.Z.Z.Z`D`D.Z.E.c.c`I`I`I`I`I.Z.Z.5`P`P`I.J.Z`#`#`#`#`#`#`#`#`#`#`#`#`j`I.1.x`I.J`D.E.1`I.c.1.c.c.c.E.Z`D.Z.Z.Z.Z.Z.Z.J..",
".Z.Z#q`j`D.J`D`D`D`D`D.J`D`D`D.Z`D.Z`D`D`j.E.c`D`j`M`#`#`#`#`#`#`#`#`#`#`#`#...Z.Z.c`D`j.J.Z`D.Z`D`D.Z.J`D`D`D`D`D`D`D`D`j`D.Z`D",
".#`d.E`D.L#e.x.x`P.L.1.o`D.L.C`..8.L.c`D.1`d.8#e.1.J`#`#`#`#`#`#`#`#`#`#`#`#.z`l`d`P.L.E.Z`I`3`P.8`d.c`D.c.1.L`d.x`P`3.1.J`l#e`d",
"`N`P.c.E#e.C.R.n.6`d`l.E.Z`3`..C`P.L.c`D.1`d.8`P`3`D`#`#`#`#`#`#`#`#`#`#`#`#`c.L`N.#`d.c`D.1`d.C.x`P.1`D`I`3#e.8.C`.`P`3`D.1`P.8",
".o`Z.Z.Z.E.E`I`I.c.Z.Z.J`D`D.Z.E.E.Z`D.5.J.Z.Z.Z`D`M`#`#`#`#`#`#`#`#`#`#`#`#.m.Z.E.c`D`j.5.Z.o.E.Z`D.J`j`D`D.Z.E.c.E.Z.Z.J.E.Z`D",
".a#d.0`s#h.a`A.0.4#o.Q.K###o#o.Q.W.Q`t###k##.J#o#q`S`#`#`#`#`#`#`#`#`#`#`#`#.d.J`M.o.a##.d.m#k.u`S..`S####`S`t.Q.V.u`0#h#i#p.u#h",
".b.A.3`H.0`B`R.j`v#d`T.7#p.Q#a.H`r.u#j`C#f`y.S.F.N.W`#`#`#`#`#`#`#`#`#`#`#`#.q.N`k.w`O`C`b.a#d.I.A.h#i#a.g.y`H#p`h`2.A`H.v.`.y`o",
".t.q`U`S.e`7`o`L`L`o.t.r.d.0.t.j`6`p`w`q#j`0.Q.q#n`E`#`#`#`#`#`#`#`#`#`#`#`#`J`K.M.w.a#a`7`f`L`1.D#a#k`6.t.X.j.w.e.X`i`a.z#m#a.j",
".2.a#o.4#j`F`p#o.a`J.r`S#l`f`8#i.m`a`1`f`0#q#k.T`A.P`#`#`#`#`#`#`#`#`#`#`#`#.a.2`A.w`S`6`w.e`e`S`z`w.K#h`p`8#j.4#o`z`o`z`j.z`Y`J",
"#l.5`M`e`L`L..`t`e`L#h.B#o.d`e...B`e`0`V..`M.z`0.d#o`#`#`#`#`#`#`#`#`#`#`#`#`S.d`0#h`M...d`p.m```M`0.d`M...d`L`S...m.4`L#h.B#o.4"
};
