/* XPM */
static char *door_11_xpm[] = {
/* width height num_colors chars_per_pixel */
"    64    64      256            2",
/* colors */
"`` c #0c0a0c",
"`. c #5c5a5c",
"`# c #fc02d4",
"`a c #4c2a1c",
"`b c #2c2a2c",
"`c c #b45a24",
"`d c #4c4a4c",
"`e c #2c1a14",
"`f c #848684",
"`g c #6c361c",
"`h c #f47a34",
"`i c #1c1a1c",
"`j c #d46a2c",
"`k c #4c3a34",
"`l c #744224",
"`m c #3c2214",
"`n c #747274",
"`o c #8c4624",
"`p c #3c3a3c",
"`q c #a44e24",
"`r c #1c120c",
"`s c #bc6634",
"`t c #2c221c",
"`u c #9c9e9c",
"`v c #5c321c",
"`w c #3c2a1c",
"`x c #7c3e1c",
"`y c #7c4a2c",
"`z c #945a34",
"`A c #6c3e24",
"`B c #242224",
"`C c #646664",
"`D c #4c3224",
"`E c #c4622c",
"`F c #e46e2c",
"`G c #844224",
"`H c #944e24",
"`I c #a45624",
"`J c #342214",
"`K c #141214",
"`L c #4c4e4c",
"`M c #949294",
"`N c #241a14",
"`O c #5c361c",
"`P c #7c421c",
"`Q c #7c7e7c",
"`R c #24160c",
"`S c #acaaac",
"`T c #442a1c",
"`U c #343234",
"`V c #b46234",
"`W c #341e14",
"`X c #fc8e3c",
"`Y c #dc6a2c",
"`Z c #442614",
"`0 c #444244",
"`1 c #ac5224",
"`2 c #cc662c",
"`3 c #743e1c",
"`4 c #140e0c",
"`5 c #646264",
"`6 c #4c2e1c",
"`7 c #2c1e14",
"`8 c #8c8e8c",
".` c #743a1c",
".. c #fc8244",
".# c #74462c",
".a c #7c7a7c",
".b c #9c4a24",
".c c #a45224",
".d c #1c160c",
".e c #2c2624",
".f c #a4a6a4",
".g c #64321c",
".h c #3c2e24",
".i c #844a24",
".j c #6c6e6c",
".k c #54321c",
".l c #9c4e24",
".m c #34261c",
".n c #545654",
".o c #241e14",
".p c #5c3a1c",
".q c #cc6a34",
".r c #0c0e0c",
".s c #5c5e5c",
".t c #2c2e2c",
".u c #b45a2c",
".v c #5c4234",
".w c #8c8a8c",
".x c #6c3a1c",
".y c #f47a3c",
".z c #1c1e1c",
".A c #d46a34",
".B c #543624",
".C c #74422c",
".D c #3c261c",
".E c #747674",
".F c #944a24",
".G c #3c3e3c",
".H c #2c2224",
".I c #a4a2a4",
".J c #5c3224",
".K c #3c2a24",
".L c #7c3e24",
".M c #945a3c",
".N c #6c3e2c",
".O c #242624",
".P c #6c6a6c",
".Q c #cc622c",
".R c #e47234",
".S c #a45634",
".T c #34221c",
".U c #141614",
".V c #545254",
".W c #9c9a9c",
".X c #5c3624",
".Y c #7c4224",
".Z c #848284",
".0 c #241614",
".1 c #acaeac",
".2 c #442e24",
".3 c #343634",
".4 c #bc6234",
".5 c #dc6a34",
".6 c #44261c",
".7 c #444644",
".8 c #cc6634",
"#` c #743e24",
"#. c #844e34",
"## c #9c522c",
"#a c #4c2e24",
"#b c #2c1e1c",
"#c c #a4522c",
"#d c #1c1614",
"#e c #543224",
"#f c #241e1c",
"#g c #000000",
"#h c #000000",
"#i c #000000",
"#j c #000000",
"#k c #000000",
"#l c #000000",
"#m c #000000",
"#n c #000000",
"#o c #000000",
"#p c #000000",
"#q c #000000",
"#r c #000000",
"#s c #000000",
"#t c #000000",
"#u c #000000",
"#v c #000000",
"#w c #000000",
"#x c #000000",
"#y c #000000",
"#z c #000000",
"#A c #000000",
"#B c #000000",
"#C c #000000",
"#D c #000000",
"#E c #000000",
"#F c #000000",
"#G c #000000",
"#H c #000000",
"#I c #000000",
"#J c #000000",
"#K c #000000",
"#L c #000000",
"#M c #000000",
"#N c #000000",
"#O c #000000",
"#P c #000000",
"#Q c #000000",
"#R c #000000",
"#S c #000000",
"#T c #000000",
"#U c #000000",
"#V c #000000",
"#W c #000000",
"#X c #000000",
"#Y c #000000",
"#Z c #000000",
"#0 c #000000",
"#1 c #000000",
"#2 c #000000",
"#3 c #000000",
"#4 c #000000",
"#5 c #000000",
"#6 c #000000",
"#7 c #000000",
"#8 c #000000",
"a` c #000000",
"a. c #000000",
"a# c #000000",
"aa c #000000",
"ab c #000000",
"ac c #000000",
"ad c #000000",
"ae c #000000",
"af c #000000",
"ag c #000000",
"ah c #000000",
"ai c #000000",
"aj c #000000",
"ak c #000000",
"al c #000000",
"am c #000000",
"an c #000000",
"ao c #000000",
"ap c #000000",
"aq c #000000",
"ar c #000000",
"as c #000000",
"at c #000000",
"au c #000000",
"av c #000000",
"aw c #000000",
"ax c #000000",
"ay c #000000",
"az c #000000",
"aA c #000000",
"aB c #000000",
"aC c #000000",
"aD c #000000",
"aE c #000000",
"aF c #000000",
"aG c #000000",
"aH c #000000",
"aI c #000000",
"aJ c #000000",
"aK c #000000",
"aL c #000000",
"aM c #000000",
"aN c #000000",
"aO c #000000",
"aP c #000000",
"aQ c #000000",
"aR c #000000",
"aS c #000000",
"aT c #000000",
"aU c #000000",
"aV c #000000",
"aW c #000000",
"aX c #000000",
"aY c #000000",
"aZ c #000000",
"a0 c #000000",
"a1 c #000000",
"a2 c #000000",
"a3 c #000000",
"a4 c #000000",
"a5 c #000000",
"a6 c #000000",
"a7 c #000000",
"a8 c #000000",
/* pixels */
"`n`n.j.P.j`n.j.j.P`5.s`..V`L.7`b`p`p`p.t.3`#`#`#`#`#`#`#`#`#`#`#`#`#`#`#`#`#`#`#`#`#`#.t`p`p`p.3.t`0`d`L`.`5`C.j.j.j.j.P.P`C.s.n",
".w`8.w`8.W`u.f.I`M`Q.E.P`5`.`..7`d.7.n`L`5`#`#`#`#`#`#`#`#`#`#`#`#`#`#`#`#`#`#`#`#`#`#.V.V`L.7`d`0.V`..s`C`n.E.a.a.a.E.E.E.E.P.P",
"`i`i`i.U`i`i.z`B.z#f.z.z.z`i`i.U`B.z#f.z.e`#`#`#`#`#`#`#`#`#`#`#`#`#`#`#`#`#`#`#`#`#`#`B`B.z#f.z.U.U.z.z#f.z.z#f.z`i.U`i`i#d.U`i",
".j.s.n.V`L.V`L`L.7.G`p`b.O`b.t.U.G.G.O.z`U`#`#`#`#`#`#`#`#`#`#`#`#`#`#`#`#`#`#`#`#`#`#`B`b.O.G`U.U.t`b`b.3.7`L`d`d`L`d.G.G`p.G.3",
".Z`n`C.s`..s.s`.`d.7.G.3`U`U.3.z`.`5.3`B.3`#`#`#`#`#`#`#`#`#`#`#`#`#`#`#`#`#`#`#`#`#`#`B.t`p.s`0.O.3.3.3`d.j.a`n`n`Q.Z.E.E.E`5.n",
"`i.z`i`i`i.U#d.U`i.U`i#d.U.U.r`i.n`C`p`B.3`#`#`#`#`#`#`#`#`#`#`#`#`#`#`#`#`#`#`#`#`#`#.O`U`0.s.G`i``.U#d`i.z`i.U.z`i`i`i`i.z.z.U",
"`i.O`b.O`b.O`b.O`b.O`b.O`B`i.U#d.n.P`p.O.3`#`#`#`#`#`#`#`#`#`#`#`#`#`#`#`#`#`#`#`#`#`#.O`U`0`C.G`i`K.z`B.O`b.O`b.O.O.O.O`b.O`B`i",
".z.3`0`d`L`L`d.7.G.3`b.O.z`i`K`i`C.j`p`B.3`#`#`#`#`#`#`#`#`#`#`#`#`#`#`#`#`#`#`#`#`#`#.o`U`0`C`0`i.r`i`B`b.t`p.G`d`L.V`L`d`0.t.z",
"`d.s.j.P.Z`8.w.w`C.s.V.7`p.O.U`i.j`n.3.O.3`#`#`#`#`#`#`#`#`#`#`#`#`#`#`#`#`#`#`#`#`#`#.O`U.G.P`0.z.U`U.G.7.V.s`C`f`u.I.w.P.j`..3",
"`b`U`U.t.G.G.G`p.O.t`U.t.e`B`K.z.P`n.3`B`p`#`#`#`#`#`#`#`#`#`#`#`#`#`#`#`#`#`#`#`#`#`#.O.h.G`C.7`i.r`B.t.t`U`b`b.G.n.n.G`b.3`U`B",
".O`p`p.3`L`.`L.G`b.3`U`U.t.z.U`i`C.j.3`B.3`#`#`#`#`#`#`#`#`#`#`#`#`#`#`#`#`#`#`#`#`#`#.O.t.G`C`0`i`K.O.t`U`U.t.t`0`5`5`0.t.G.3`B",
".G.n.n`d`n.w`Q`..3`L`d.7.G.t#d.z.s.P`U.O.3`#`#`#`#`#`#`#`#`#`#`#`#`#`#`#`#`#`#`#`#`#`#.O`U.3`5.G.z.U.3.7`d`d`0.G.s.w.Z.s.7`..V`U",
"`b.3`U.O.3`p.3`U.z`U.t`U.e.z.U`i.s`C`U`B.3`#`#`#`#`#`#`#`#`#`#`#`#`#`#`#`#`#`#`#`#`#`#.o`U.3`5`0`i`K`B.t.t.t`b.O.3`L.7.3.e`U.t`B",
"`B`U.G`U`L`.`d`p`B`b`b`b.O.z`K.z.G.G`B`i.t`#`#`#`#`#`#`#`#`#`#`#`#`#`#`#`#`#`#`#`#`#`#.z`B.O`0`U.z`K.z`b`b`b.O.e`0.s.n.G`U.3.t.z",
".3`d.V.7`n`8.E`..3.G`0.G.3`b.U`i`b`B.U.r#f`#`#`#`#`#`#`#`#`#`#`#`#`#`#`#`#`#`#`#`#`#`#`4.U`i.O.O.z.U.t`p.G`0`p.G`C.w.a`.`0.n.7`U",
"`B`b.t`b`U`p`U.t.O`b.O.t`B`i.U`B`..s`p.O`U`#`#`#`#`#`#`#`#`#`#`#`#`#`#`#`#`#`#`#`#`#`#.o.t.3.V.G`B`K.z`b`b`b.O.t.3`0`0.t`b.t.O`i",
".3`0`L`5.j.E`C`C`..n.V.7.3.e.U`i.G`U.z`i.3`#`#`#`#`#`#`#`#`#`#`#`#`#`#`#`#`#`#`#`#`#`#.O.z.z`p.t`i.U`b.G`L.s.s.s`5.E.a`C.s`0.G`b",
"`U`p`d.j.Z`8.a`n.s.n`d`0`U.z.U.z.3`b`i`i`U`#`#`#`#`#`#`#`#`#`#`#`#`#`#`#`#`#`#`#`#`#`#.o.z`i.3.t.z`K.O`p`d.n.s`.`.`5.j`C.V.3`U.O",
"`B.O.z.O.O`b.O.O.O.O.O.O.z`i.z.z`L.7.t`B.t`#`#`#`#`#`#`#`#`#`#`#`#`#`#`#`#`#`#`#`#`#`#`B`U`U`L`0.z#d`i`B.O.O.e.O.O.O.e.O.O`B`B`B",
".t.3.3`U`U.t`b`b.e`b.e.O.z`i.z`i`..n.3`B`U`#`#`#`#`#`#`#`#`#`#`#`#`#`#`#`#`#`#`#`#`#`#.o.t.3`.`0`i.U.z`B`b`b.O`b.O`b.t.t`U.t.t.t",
"`n.E.E.E`n.s.7.7.G.3.3.3.z`U`B.z`.`5`U`B.t`#`#`#`#`#`#`#`#`#`#`#`#`#`#`#`#`#`#`#`#`#`#.O`U.3`..G.z.t`B`b.G`L.V`..s`C`Q.Z.P.n`d.G",
".U`i`i`i.O#f.U`i.U#d`B.z`i`0.3`B.s.P`U`B.t`#`#`#`#`#`#`#`#`#`#`#`#`#`#`#`#`#`#`#`#`#`#.o`U.3`5`0`b.G.t`B`B.z.z.z`B.O`U`b.O#f.z.U",
"`i`B.z.z`B.z.z.z`B`i.O`b`B.j.7.z`5`C`U`B.t`#`#`#`#`#`#`#`#`#`#`#`#`#`#`#`#`#`#`#`#`#`#`B.t`p.s`0.O`5`d.O.t`B`i.z.z.z.z`B.z.z`B`K",
".z`i`i`i.U`i`i`i.z`K.3`d.t.w.V`i.s`C`U.O.t`#`#`#`#`#`#`#`#`#`#`#`#`#`#`#`#`#`#`#`#`#`#.o`U`p.s.G`b.a.s.G`d.z.U.z#d`i`i`i`i`i`i`i",
".U`K.r.U`i.U.U.U`i`i`L.E`0.1.s`i`5`C`U`B`U`#`#`#`#`#`#`#`#`#`#`#`#`#`#`#`#`#`#`#`#`#`#.O.t.G`5.G.O`8.P.V.Z`b`i.z`K.U.U.U`K.r.U.U",
".3`0.O`d.n.G`..3.V`U.j`Q.G`S.n`i`C.s`U`B.t`#`#`#`#`#`#`#`#`#`#`#`#`#`#`#`#`#`#`#`#`#`#.o`U`p.s.G`b.w`C.n.I.G`0.G.t.n`U.n.t.t`0.O",
"`0`L.e`C.E.s.Z`L.E`p.j`C.t.W.V`i.j`C`U.O.t`#`#`#`#`#`#`#`#`#`#`#`#`#`#`#`#`#`#`#`#`#`#`B.t`p`5.G`b`Q`C.G`Q.V`.`C`0`Q.7.a.3`U`d.O",
"`U.t`K.t.3`b.G#f.G.O`n`.`U.a.7.z.P`C`U`B`U`#`#`#`#`#`#`#`#`#`#`#`#`#`#`#`#`#`#`#`#`#`#.o`U.3`5.G`b.s.V.G.s.G.t`p.z.7.z`p.z`i.3`B",
".U.U```i.U`K`i``.z.U`d`p`U`5.3`i.j`C`U`B.t`#`#`#`#`#`#`#`#`#`#`#`#`#`#`#`#`#`#`#`#`#`#.O`U`p.s.G`B`L`L`p`0`b.U.z``#d.r`i`4.r`i.U",
"`B.O.r.O.z#d`B.U.t.z.3.O.t.n`U.U.P`5`U.O.t`#`#`#`#`#`#`#`#`#`#`#`#`#`#`#`#`#`#`#`#`#`#.o.t.G`5.G`B.7`d`b.t`b.z`b.U`B`K.O`i.U.O.z",
"`i.U`4.U`K.U`i.r`i.z.t`b.O.G.O.U.j`5`U`B.t`#`#`#`#`#`#`#`#`#`#`#`#`#`#`#`#`#`#`#`#`#`#.O`U.3.s.G#d`U.3.t`b.O.z`i.r`i.r`K.U.U.U.z",
".U`4`K`K`K.U.U.z.U`i`B.z.z`p`i`K`C.s`U`B.t`#`#`#`#`#`#`#`#`#`#`#`#`#`#`#`#`#`#`#`#`#`#.o.t.G`5`p.r.t.O.O#f.z`i.U`i.U.U`K`K`K.r`i",
"`i.U.z`i.z`i`i`i`i`i.U`B`i.t.U`K.s.s`U.O.t`#`#`#`#`#`#`#`#`#`#`#`#`#`#`#`#`#`#`#`#`#`#`B`U`p.s`p.r.e`B.O.z`i`i`i`i`i`i.z`i`i.U`B",
".G.G.3.3.3`U.t.O`b.O`b`U`i`b`i`K`5.s`U`B`U`#`#`#`#`#`#`#`#`#`#`#`#`#`#`#`#`#`#`#`#`#`#.o.t`p`5.G.U.z.z`b`U.O.t.t.t.3.3`p.3.7.7.G",
"`d`C.Z`8.w`Q`5.V`L`0.7`L.t`b`B.U`5.s`U`B.t`#`#`#`#`#`#`#`#`#`#`#`#`#`#`#`#`#`#`#`#`#`#.O`U`p.s.G#d`b.z`0.G.G`0`0.V.s`n.E`Q.j.s`d",
".t`U.G.7`0.3.t.O.O.O`b`b.O.z.O.z`.`..3`B.t`#`#`#`#`#`#`#`#`#`#`#`#`#`#`#`#`#`#`#`#`#`#.o.t`p.s`0.z`B.U.t.t.e.O`B.O`U.G.G`0.3`U`b",
".t`U.3`p.3.3`U`b.O`b.t.t`U`B.z`K`.`.`U.O.t`#`#`#`#`#`#`#`#`#`#`#`#`#`#`#`#`#`#`#`#`#`#.O`U`p.s.G.r`B.t`U`U.t.t.t.t`U.G`p.3`U`b`b",
"`d.n.P.a.E`n`C`.`L`0.7`d.G.t`b`K`..n.3`B.t`#`#`#`#`#`#`#`#`#`#`#`#`#`#`#`#`#`#`#`#`#`#.o.t.G`5.G.U.e.t.3.3`p.3`p.G`L.s`.`L.7.G.3",
".O.O`b`U`U.3`U.O.z`B.z.z`i.U.U.r.n.n`U.O.t`#`#`#`#`#`#`#`#`#`#`#`#`#`#`#`#`#`#`#`#`#`#.O`U`p.s`p``.U.U.z`i`i.z`B.O`U.G`U.t.e`B.z",
".G`0`U.V`C`M`5`d`U.3.3`U`U`B.z`K.V.V`U`B.t`#`#`#`#`#`#`#`#`#`#`#`#`#`#`#`#`#`#`#`#`#`#.o.t`p`.`p`K.z`b`U`U.3`U`p.n`C.a.s`0.3`0.3",
".O.t.O`p`d`C`d.G.O`b`B`B.z`i`i``.t.t`B.z`U`#`#`#`#`#`#`#`#`#`#`#`#`#`#`#`#`#`#`#`#`#`#`B`B.O`U.z``.z`i.z.O.O`B.t`0.V.n.7`U.O`b`B",
"`p`d.3.V.s`f`5.V.3`d.G.G.3`b`B.r.7.7.t`B.t`#`#`#`#`#`#`#`#`#`#`#`#`#`#`#`#`#`#`#`#`#`#.o.t`U`L.3`K`B.t`p.G.7.G`0`..j`Q`5`0.G`0`U",
"`b`U`B.3`0.n.G`p.O`U`U.t.t`B`i`K.V.n`U`B`U`#`#`#`#`#`#`#`#`#`#`#`#`#`#`#`#`#`#`#`#`#`#.O`U.3.s.G.r.z.O.t`U`U`b.t.G`L.V`0.t`b.t`b",
".O.O.z`U`d.V`p.t.z`B.z`B`i.U.U.r`b.t`i.z.t`#`#`#`#`#`#`#`#`#`#`#`#`#`#`#`#`#`#`#`#`#`#.o.z`B`U`B``.U#d.z.z`B.z`B.G.V.V`0.O.z`b.z",
".G.7`U`L`C`n`..V.3.G.G.G`p.O.O`K.3.3`B.z`U`#`#`#`#`#`#`#`#`#`#`#`#`#`#`#`#`#`#`#`#`#`#.O.e.O`p.t`K.O.t`p.G`0.3.G`5.a`Q`C`0.3.7`p",
"`B`B`B.O`b.t.O.O`i`B.O`B.z`i.U`K.s`.`U`B`b`#`#`#`#`#`#`#`#`#`#`#`#`#`#`#`#`#`#`#`#`#`#.o.t`p.s.G``.U`i`B.O.O`i#f`b.3`p`b.O`B.O`i",
".3.n.j`n.j.Z`C`L`0.3`U`b`U.z`B`K.s.n`U.z`b`#`#`#`#`#`#`#`#`#`#`#`#`#`#`#`#`#`#`#`#`#`#`B.t.G`5`p`K.z.O`U`U`U.3.G`d.s.s`L`d.G`p.t",
"`d`C.a.E`n.E.P`5.n`L.7.G.G.e`b.r.s`.`U.O`b`#`#`#`#`#`#`#`#`#`#`#`#`#`#`#`#`#`#`#`#`#`#.o.t`p.s.G.U.e.t`0`L`..s`5.s`C`5.s`..V.7`p",
".e.t`U.t`U.t.t.t`U.t`U.t`b.z`B`K`.`.`U.z`b`#`#`#`#`#`#`#`#`#`#`#`#`#`#`#`#`#`#`#`#`#`#`B.t`p`C.G`K.z`B.t.t`U`U.t`U.t`U.t.t.t`U`B",
".O.t`b`b`b`b`b.e.O.O.e.O.O`i`i.r`..n.3.O`b`#`#`#`#`#`#`#`#`#`#`#`#`#`#`#`#`#`#`#`#`#`#.o.t.G`C`0`K.U.z`b.O.O.O`b.O.e`b`b.t.t`b`B",
".t`U`U`b.O`b.O.O`B`B`B`B`B.z.z.U.V.s`U`B`b`#`#`#`#`#`#`#`#`#`#`#`#`#`#`#`#`#`#`#`#`#`#.z`U`0`C`U.U`i.z`B`B.O`B`B`B.O.O`b`b.t`b`B",
"`5`C.E.j.s.s.s.n`.`L`0.G.3`b.O.U.n`.`U.z`U`#`#`#`#`#`#`#`#`#`#`#`#`#`#`#`#`#`#`#`#`#`#.o.t`0`C.G#d.O.t.3`p`p.7.n.n`5`5.V.V.V.7`p",
".V.n`5.s`..n`..n.n`L`d.7.G`b.O`i.n.n`U.O.O`#`#`#`#`#`#`#`#`#`#`#`#`#`#`#`#`#`#`#`#`#`#.o.t.3`C.G`i.O`p.7`d`L`.`n`n.E`Q.j`C.s`L.G",
"`B`B.O`B.O`b.t.t`b.t`b`b.O.z`i`i.V.V.t`B.O`#`#`#`#`#`#`#`#`#`#`#`#`#`#`#`#`#`#`#`#`#`#.z`U.3`.`p`i`i`B.t.t`U`U.t.3`U.t.O.O.O`B`B",
".O.O`B`B.O`b.t.t`U`U`U.t.3.O.O.U`L`L`U.z.e`#`#`#`#`#`#`#`#`#`#`#`#`#`#`#`#`#`#`#`#`#`#`i`U.3.n`U.z`B`b.3`U.t.3.t.t.t`b.O`B.O.O.O",
"#f`B`B`B`B`B#f.z`B`B.O`B.O`B`B.U`b.t`B`i`K`#`#`#`#`#`#`#`#`#`#`#`#`#`#`#`#`#`#`#`#`#`#`4.O.O.t`B`i.z.O`B.O`B`B.O.z`B`B`B`B`B`B`B",
".7.n.n`L.G.3.O.O.G.s.s.V.G.t`B.3`d.V.7.3.z`#`#`#`#`#`#`#`#`#`#`#`#`#`#`#`#`#`#`#`#`#`#.o`p`d`L.G`b.O`U`0`L.V`d.t`B.t.3.G`d.V`L`0",
".s`n.E`C`L`p`b.O`0`.`..V.G`U`B.3`d.n`L`0#f`#`#`#`#`#`#`#`#`#`#`#`#`#`#`#`#`#`#`#`#`#`#.e.7`5`5`d.t`B.3`d.s.n`L.3`B`U`0.7.V.s`.`L",
".t`U`U`U.O.O`B.z`B.O`b`b.O`B.U.z.O.O.O`B`K`#`#`#`#`#`#`#`#`#`#`#`#`#`#`#`#`#`#`#`#`#`#.U`B`b.t`B`i.U.O.e`b.O`B.z`i`B`B.O`b.t.t.O",
"`6`A.X.T#d.D.B.2#d#d`T.N.D#d`T#a.2.z#d#f`N`#`#`#`#`#`#`#`#`#`#`#`#`#`#`#`#`#`#`#`#`#`#`7.o.U.e`6.2`7.d#a.k`N`4`N.2.2`N`r`w.J.k`W",
"`E`Y.F`t.p.8.4.J.K.S`h`s.k.``F.5`y.H.v.M.N`#`#`#`#`#`#`#`#`#`#`#`#`#`#`#`#`#`#`#`#`#`#.i.M`k.m`V`F`c`6.p.A.A.#.6##...R#a.B.y`X.q",
"`1`o`m`J`o.l.g`7`O.F.F.6`m`x`q#`.T.K`o#c`O`#`#`#`#`#`#`#`#`#`#`#`#`#`#`#`#`#`#`#`#`#`#`P`I`l.e`6.c`1`g`m.x.u###a`Z.l`E.F.T.x.Q.Q",
"`G`m#d`6`P.g`N#b`g#`.6.d.6`x`g`W#f`6`l`A.D`#`#`#`#`#`#`#`#`#`#`#`#`#`#`#`#`#`#`#`#`#`#`6.Y`A`J`N`Z`3.``e`N`v`x.B#d`m`x#`.T#d.g`o",
"`J`4.d`N`J.0.r.U`W`N`4.r`e`J#d`4.U`N`J#b#d`#`#`#`#`#`#`#`#`#`#`#`#`#`#`#`#`#`#`#`#`#`#`N`7`W`N`K`4`7`W#d```K`W`7`K`4`7`J`N`4.d`J"
};
