/* XPM */
static char *so_xpm[] = {
/* width height num_colors chars_per_pixel */
"    64    64      256            2",
/* colors */
"`` c #040204",
"`. c #145e8c",
"`# c #042e4c",
"`a c #5c3e04",
"`b c #041a24",
"`c c #0c466c",
"`d c #241a04",
"`e c #2c2e2c",
"`f c #041e3c",
"`g c #043a64",
"`h c #14262c",
"`i c #8c5e04",
"`j c #040e14",
"`k c #141a1c",
"`l c #143a54",
"`m c #04325c",
"`n c #14263c",
"`o c #344644",
"`p c #140e0c",
"`q c #644204",
"`r c #343a3c",
"`s c #c48a14",
"`t c #0c527c",
"`u c #443e3c",
"`v c #34260c",
"`w c #04263c",
"`x c #04426c",
"`y c #141e2c",
"`z c #4c4e34",
"`A c #142e44",
"`B c #041224",
"`C c #6c5e2c",
"`D c #042234",
"`E c #1c4e7c",
"`F c #3c3634",
"`G c #143e6c",
"`H c #144e7c",
"`I c #2c363c",
"`J c #04264c",
"`K c #5c5a44",
"`L c #0c1a24",
"`M c #043a6c",
"`N c #142224",
"`O c #e49a04",
"`P c #444644",
"`Q c #242624",
"`R c #040a0c",
"`S c #0c3654",
"`T c #14466c",
"`U c #0c161c",
"`V c #1c4264",
"`W c #14365c",
"`X c #846e3c",
"`Y c #0c2e4c",
"`Z c #342e2c",
"`0 c #cc8604",
"`1 c #0c0e0c",
"`2 c #1c1a14",
"`3 c #1c3a54",
"`4 c #0c325c",
"`5 c #5c5a5c",
"`6 c #2c2624",
"`7 c #a47204",
"`8 c #0c263c",
".` c #4c4644",
".. c #041a34",
".# c #241e1c",
".a c #1c262c",
".b c #143a64",
".c c #04366c",
".d c #141614",
".e c #3c4244",
".f c #d49614",
".g c #0c3a6c",
".h c #040604",
".i c #0c467c",
".j c #2c323c",
".k c #042254",
".l c #0c3a5c",
".m c #946604",
".n c #04365c",
".o c #1c2a3c",
".p c #3c3a34",
".q c #1c5284",
".r c #0c426c",
".s c #1c222c",
".t c #4c4e4c",
".u c #143654",
".v c #0c1624",
".w c #0c2a4c",
".x c #6c623c",
".y c #0c1e34",
".z c #fcae04",
".A c #242a34",
".B c #0c0a04",
".C c #144a7c",
".D c #0c324c",
".E c #0c121c",
".F c #1c1e24",
".G c #043254",
".H c #041e2c",
".I c #2c3234",
".J c #0c223c",
".K c #04121c",
".L c #141e24",
".M c #143e5c",
".N c #142a3c",
".O c #cc921c",
".P c #44423c",
".Q c #042a44",
".R c #14222c",
".S c #14324c",
".T c #041624",
".U c #14426c",
".V c #343634",
".W c #042a4c",
".X c #645a34",
".Y c #0c1e2c",
".Z c #043e6c",
".0 c #f4a204",
".1 c #444a4c",
".2 c #242a2c",
".3 c #144a74",
".4 c #34322c",
".5 c #0c1214",
".6 c #1c1e1c",
".7 c #5c6654",
".8 c #2c2a24",
"#` c #0c2a44",
"#. c #7c5604",
"## c #845a04",
"#a c #94762c",
"#b c #2c220c",
"#c c #545654",
"#d c #dc9604",
"#e c #3c4a3c",
"#f c #ec9e04",
"#g c #9c6604",
"#h c #1c1614",
"#i c #0c2234",
"#j c #1c2224",
"#k c #141214",
"#l c #0c5684",
"#m c #5c5e3c",
"#n c #1c3e5c",
"#o c #4c4a44",
"#p c #24221c",
"#q c #1c2a34",
"#r c #0c3e64",
"#s c #3c3e3c",
"#t c #1c568c",
"#u c #04223c",
"#v c #c48e14",
"#w c #342a0c",
"#x c #0c365c",
"#y c #5c5e5c",
"#z c #041e34",
"#A c #143e64",
"#B c #0c3e6c",
"#C c #0c4a7c",
"#D c #4c524c",
"#E c #9c6a04",
"#F c #04020c",
"#G c #042e54",
"#H c #041a2c",
"#I c #0c4674",
"#J c #2c2e34",
"#K c #142634",
"#L c #040e1c",
"#M c #141a24",
"#N c #143a5c",
"#O c #043264",
"#P c #042644",
"#Q c #044274",
"#R c #142e4c",
"#S c #144e84",
"#T c #042654",
"#U c #0c1a2c",
"#V c #44464c",
"#W c #24262c",
"#X c #040a14",
"#Y c #144674",
"#Z c #0c2e54",
"#0 c #0c0e14",
"#1 c #1c1a1c",
"#2 c #0c2644",
"#3 c #1c2634",
"#4 c #14161c",
"#5 c #04060c",
"#6 c #0c3a64",
"#7 c #043664",
"#8 c #3c3a3c",
"a` c #0c4274",
"a. c #0c0a0c",
"a# c #0c3254",
"aa c #142a44",
"ab c #444244",
"ac c #142234",
"ad c #04162c",
"ae c #144274",
"af c #34363c",
"ag c #043e74",
"ah c #343234",
"ai c #2c2a2c",
"aj c #4c4a4c",
"ak c #242224",
"al c #000000",
"am c #000000",
"an c #000000",
"ao c #000000",
"ap c #000000",
"aq c #000000",
"ar c #000000",
"as c #000000",
"at c #000000",
"au c #000000",
"av c #000000",
"aw c #000000",
"ax c #000000",
"ay c #000000",
"az c #000000",
"aA c #000000",
"aB c #000000",
"aC c #000000",
"aD c #000000",
"aE c #000000",
"aF c #000000",
"aG c #000000",
"aH c #000000",
"aI c #000000",
"aJ c #000000",
"aK c #000000",
"aL c #000000",
"aM c #000000",
"aN c #000000",
"aO c #000000",
"aP c #000000",
"aQ c #000000",
"aR c #000000",
"aS c #000000",
"aT c #000000",
"aU c #000000",
"aV c #000000",
"aW c #000000",
"aX c #000000",
"aY c #000000",
"aZ c #000000",
"a0 c #000000",
"a1 c #000000",
"a2 c #000000",
"a3 c #000000",
"a4 c #000000",
"a5 c #000000",
"a6 c #000000",
"a7 c #000000",
"a8 c #000000",
/* pixels */
".h`1#1.6akakakak`Q`Q`Q`Q`Q`Q`Q`Q`Q`Q`Q`Q`Q`Q`Q`Q`Q`Q`Q`Q`Q`Q`Q`Q`Q`Q`Q`Q`Q`Q`Q`Q`Q`Q`Q`Q`Q`Q`Q`Q`Q`Q`Q`Q`Q`Q`Q`Q`Q`Qakak.6#1`1a.",
"a..#`eai`e`e`e`e`e`e`Z#J`e`Z#J`e`Z#J`e`Z#J`e`Z#J`e`Z#J`e`Z#J`e`Z#J`e`Z#J`e`Z#J`e`Z#J`e`Z#J`e`Z#J`e`Z#J`e`Z#J`e`Z#J`eai`eai`Qak#k",
".daf#8ah`eah`eah`Z#J`Z#J`Z#J`Z#J`Z#J`Z#J`Z#J`Z#Jah`Zah#Jah`Zah#J`Z#Jah`Zah#J.4`Z#J`Z#J`Z#J`Z#J`Z#J`Z#J`Z#J.4#J`Z#Jah`e#8#sah.2#1",
".6ab#8.I.8aiaiaiaiaiaiaiaiaiai.8aiaiai.8aiaiai.8.2#W.8ai.2.8.2aiai.8.2ai.2.8#Waiaiaiaiai.8aiaiai.8aiaiai.8aiaiai.8ai`Q`r`u`r.8#1",
"ak`P#sahai.6.5`U`L`U`k`U`L.d`L`U`k`U`U#4`U`U`U.d#1ak#j.6.6#1#1.d`k#1#1.6.6akak#1`U`U.d`U`U`k`U`L`k`L`L`k`U`k`U`k`U`U.6#sab#8`e#1",
"`Qaj#s.V`e#4#X.K.K.K.K.K.K.K.K#L.K#L.K`j`j#X`j#0.6ak.6#1#h.d`1#5`R#k#k`2#1.6`Q.6#k#X#L#L#L.K.K#L.K#L`j.K.K#L`B.K.K#5#M.``P#8.I#1",
"`Qaj`uafai`k.K#H#z..#H..#H...H...H..#H#H#H.T`k`Qaiak.6.6`k#k`j`j#X`j.d.d.Fak`Q`eai`k...H#z#z#z#z#z#z#z..`f#z..#z..`B#M`P`P#8.4#1",
"`Qaj.e`F`e.Lad#P.W.Q.Q.W.Q.Q.Q.Q.W.Q.Q.Q#u.F`eah`Q`Qak.6#h`B.T#H#H.T.v`2.6akai`e.V`e.s.W`#.W`#.W`#`Y`J`z`s`O.X`J.Q.H.L`P`P#8`e#1",
"akab#s.Vai.L#ia#`W`S#N.l#N`W#x`W#x.u#x.u.aah#8`eai.2.##1`L#z#2`Y.D#`#u.Y#1#p.2aiah#8.4#q`W.l.u#N#x#N.n#v#f.x#D#x.u#u.s`P`P`Z`Q#k",
"ak#s#8`Fai.L.J#x#A#6.b#A#r#A#6#A#A#r`W.A`F#sah`eai#p.6#H.J`Y`S#A.b#x`Y#2#i.6akai.Iah#sah.A.l#A#r#A#A.c`K.0#a.c#A.l#2.aab#V.Vai.d",
"`Q.t.e.V`e.L#u#x#6#x.n#6#x#6#x`g#6#x.2.p#s.V#Jai`Q#1#H#z.Qa##6#6#6#6#x`#.W#i.F`Qai.4.Vab.V.A#x#B#7.l#r`M.7.z`X.c#x#P.R.``P#sah.6",
"akab#s`Fai.L#z.G.n.G.G`m`m`g.G#7a#.2#8#safah`e`Q.6.T...Q.G`m.n.n.n.n.n`m`Y#P.y.6`6`eah.Vab.p#q`m.n`m.M.O.f.0`K#O.G#u.R`P#V.Vai#1",
"ak#s#8`rai.L...Q.G.W`##G`##G`#`Y.2`uab`rah`e`Q#1.T#H#u.W#G`#.G#G.G#G.G#G`#.Q#u#H#j`6`eah`rab.p.A`#`##Z#e.X.e`##G`##z.R.``Pahai`k",
"`Q.t#s`F`e#M#H#P.W#P#P.Q#P`##2aiab.e.pah`e`6.6.K.T#z#P.Q.W.Q.W.W.W.W.W.W.W#P`w...T#j`6.Iah.p`P`u.2#P`#.k.k#P.Q.W#P#H.Lab`P#8ah#1",
"`Q.`#saf.8.L#z`##x`#a#a#`m.D`eab`P#8.V`e`6.F.T..`w#Ga#.n`4a#`4a#.G#xa##x.G#x.G`Y#z#U#j`6.I.V#8#V.P.A`Y.n`Sa#.G#x`##u.R.`#V`F`e`2",
"ak#s#s`F`e.s#2#A.U#A#B.U`Wah`P`P#8.V.I`6#j`D#`a#.b.U`T.U.U.r`T.U.U.Uae.r`G.rae.U.l`8.y#j`6ah.V#8`Pab`e#A#Y#A.Uae#A#`#3ab.1.Vai`k",
"`Qaj#safai.R`Y.U.C.U#Y.U.4`P`P#8.V.4`6.s.J`Y.b.U.C.C.C#Y#Y#Y.C#Y#Y`H.C.r#Y`H.q.C#Y#A#`#i#j.8ah`r#s.`ab.I`T.C#Y.C.r#Z#q.P`P#8.4#1",
"`Qaj#s#8.8.R#P#B#I#Q`W.4`P#V#8.p.I`6.s`D`##x#B#I#Ia`#Ia`a`.r#Ia`a`#Ia`#Ba`#t.C#I#Ia`#6#P.y#jai.4af#sajab.I#6a`.r#B`##K.``P#8.I#1",
"`6aj#saf.8.R`w#xaga#.4aj#V#s`F.Iai.F#z#P.G`g.Z.Z.Z.g.Z.Z`g`M.Z`M.Z.Z.Z`g#Ba`#B.Z#B.Z.Z.G#z`b#jaiah.V#saj`P#J.l.Z.n#P#Kab`P#8.4#1",
"#Waj.e`Fai.L`f`m.D.Vaj`P#s`F.I`6.L.T#u.Q`m#x#7#x#7.G#x`m`4a#.n#x`m#x#7`4.n.n#7#x#7.n#x`m.Q#H.T.Faiah#8#8aj`P.I`Y`m#u.s`P.`#8.I#1",
".2#o#s.V`e#M#H#``F#o#V#s`F.Iai`k.K#z`w.W`##G#G#G#G`##G`#`#`##G`#`#`##G`#`##G#G#G#G`#.W#G`##u#H.T#j.8.I.p#saj.`.I#`#z.Rab`P#8.4#1",
"`6aj#s`Fai.L.Y.V#o#V#s.p#J.8.L.T#u.Wa#.n#x#6.l.l#x#x#x#x`4#x#x#x#x`m#x#x#x#x.l#6#x#x#x#6#x#x`##u#H#jaiah`r#saj.`.I#i.R`P`P#8.I#1",
"`Qaj.eaf`e#j`e.``P#8`F.Iai.F#H`8.Sae#Y.U#Y#C.U#Y.C.U#Y#Iae.U.C.r#Y.U#Y.U.U#Y#Y#Y#Y#Y.r#Y#Y#Y#Y#N.w#i.s.8ah#8#s#V.`ai.aab.`#8.4#1",
"`Qaj`u.Vai`Q#8#s#8`r`e.8.L#H#`.b`T`H`H#Y`H.r#rae.C.3.C.C.3.C`H.C.3.C`H.C.3#Y#S#S#S.C.C.3.C#S`H.C#Aa#`8.s.8.I`F#s.e.V`6`P#V#8.I#1",
"#Waj.e`F.2.8ahah.V`Zai#Mad`8#6#Qa`.i.ia``x#ra`#l`H#Q.i#Ia`a`.ia`#Ia`#Ia`a`#I.i#I.i#Ia`a`#I.i#I.ia`#6`##u.s.8#J.Vah`eaiab`P#8.4#1",
".8aj#s.Vai`Qai.I`e`Q.L.T#u.G.Z#B`g.Z`x.g`x`x`t`.#C`g#B.Z`g`M`x`M#r`M.Z.Z`g.Z.Z#Q.Z#B`M.Z.g.Z.Z#B.Z`g#x.Q#z.R`6`e`e.#`Qab`P#8.I#1",
"`Qaj#s#8aiak.8#W`6#M.T#z`#.n#7.n.n#6.n.n#x`g`c.r#x`m`g.n#x`m.l.n.n`m#x.n`4.n#x`g#7.n#x.n.n#x.n`g.n`m.n.W#u#z.Lak`Q.6#j`P`P#8.I`2",
"#Waj#s.Vaiak.6ak`U.T..#P`#`Y`#`Y.W`#`#.W`##G.W.W#G.Q`Y.W.W.W`#.w.W.Q#G.Q.W.W#G`Y`#.W.W.Q`#.W.W`Y.W.w`#.W`w..#H`k.6#k.#`P#V.p`e#h",
".8aj.e`Faiak`Q`eahah.Vaf.Vafaf.Vaf.Vaf.Vaf.Vafaf.Vafaf.V.Vaf.Vaf.V.Vaf.Vaf.Vaf.Vaf.Vaf.Vaf.Vaf.Vaf.Vaf.Vaf.V.I`e`Q#h#j`P`P#8#J#1",
"`Qaj#s.Vai.2.Vab`Paj.tajajajajajajajajajajaj#oajajajajajajajajajajajajajajajajajaj.tajajajajajajajajajaj#oaj`Pabahakakab`P#8.4#1",
"`Qaj#s#8.8`Q`e.V#8#s#s#s#s#s#s#s#s#s`u#s`u#s`u#s#s`u#s#s#s#s#s#s#s#s`u#s`u#s#s#s`u#s#s`u#s#s`u#s#s#s#s#s#s#s#8ahai#1#j`P`P#8.I#1",
"#Waj#s.Vaiak`Q`Zah.V.Vaf`F.V.V`Faf.V.Vaf.Vaf.V`Faf.V.V`Faf`F.V`Faf.V.Vaf.V`F.V.V.V`F.V.V`F.V.V.V`F.V`Faf`F.Vah`e`Q`k.#`P`P#8.4#1",
".8aj.e`Fai.6#1.F`Qaiai.8aiaiaiai.8aiai.8ai.8aiai.8aiaiai.8aiaiai.8aiai.8aiaiaiaiaiaiaiaiaiaiaiaiaiaiai.8aiai`Q`Q#1#k#1`P`P#8ah#1",
"`Qaj#s.V`e.F#1`Q`Q.F`y`N.R`N.R`N.R.R`N.R.R.R`N.R.R.R`N.L.R.L.R.R.R`N.R`y.R`N.R.R`N.R.L.R.R`N.R.R.R.R.R.R.R`N`y`k.6.d.6`P.``r.4#1",
"#Waj#s`Faiak`Q.V`u.I.Y`f#z`f#z`f#z..`f#z#z#z`f#z#z#z#z#z#z#z#z#z#z`f#z#z#z`f#z#z`f#z`f`D`f#z`f#z#z#z`f#z#z`f#zai`e.#akab#V#8.I#1",
"`6aj.e.V`e#jak`Z.e.`ah#`.Ga##G.G`##Z.G.Ga##G.G#Z.G#Ga##G.G#Z.G.G#Z.G.G`Y.G.G#Z.G`##G.Ga#.G.Ga#.G.Ga#.Ga#`m`Y`Z#sah.6#jab`P#8.4#1",
".2#o#s`Fai.6#p`e.Vab.1.4`l#Y.U.U.U#B.U.r#r#B.U.Uae.U.U.U.U.U.Uae.U.U.U.U.U.U.U#6#r.U.U.rae.Uae.U#Yae`T.i`3.4ab#sai#1.6`P`P#8.I#1",
"`Qaj#s`rai.6#1#Wah.Vab`Pah`3.C#Y#Y.U.3ae.r#Y#Y#Y.3#Y#Y.U#Y#I#Y.3#Y.3#Yae.3#Y#Y#Bae.C`E`E#Y.3#Y.C.3.C.C#nah`P.eah.2`2.F`P.`#8.4#1",
"`6aj#s`F`e#4.5akaiah.V`uab`e.ua`#B#r#B.r#C#C#I#B.r#B#B`g#B#r#B.r#Ba`#B#r#Ba`.r#B.r`E.Cae.ra`a`a`.ra`#N.4`Pab.Vah`Q#1.6`P`P#8.I#1",
".2aj#safai`k#L`L#pai.I.V#sab`Z`A#7.n#7`g`g`M`g.n#7`g.n`m.n`m`g#7`g.n.n`m`g#7`g#7`g#6`g#7`g`g`g`g`M.S#J`Pabaf.Vai#p.5#M.``P#8`Z#1",
"`Qaj#s#8ai`k`B.T`L#p`6#J.V#8.e`Z#``##G#Z#G`Y#G`Y#G#G`#.w`#`Y#G#Z#G`#`Y.W`##G`Y.G#G#G#Ga#.G#Z.G#G`A`Z`P#s.Vahaiak`k#X#M`P`P#8.I.6",
"`6aj#s.V`e`k`Bad.T`U#p`Q`e`Z`r#s`Z.R#P#P#P#P#P#u#P#P#u#u#P#u#P#P#P`w#u#u#P#P#P#P#P.Q#P#P#P#P.W`8`Z.e#s.Vahai`Q`k`B`B.L.``P#8ah#1",
".2aj#s`Fai#M#H#u#z.T.v.#`Qai`e.V#8`e#K.W.Q.W.Q.Q#`.W.Q.Q.Q.W.Q.Q.W.Q.W.Q#2.Q.Q.w.Q.W#`.W.Q`##K`e.P#8ah`Z.2#p`kad#z#H`y`P`P#8`e#1",
"`Qaj#s`rai.L`D.Da#`8#H`L.6akai`eah#8.8.N#x.ua#a#`S.S`4a#.S`4.ua#.ua#.Sa#a#a#a#`S`W`S#x.u`4.N`Z#8`r`Z`e#W#p#M#z`Ya#`D.sab`P#8ah#1",
"`6.t#s`Fai.F.Ja#`W`S#`.y`L.6ak`Q`eahaf.8.o.l`W#x`W#6.u#x`W#x#N#x`W#x`W#x`W`W.u#x`W#N.l#6.o`e#8.V`e`e`Qak#M#z.D#A`W`w.aab.`#8.I#1",
"#jab#saf`e.L#z`Y.Ga##Z`w#H.v#1ak`Qai.4.V`6`na#.Ga#a#.G#Z.Ga#.Ga#.Ga##G`Y.Ga#`#`4.na##x.N.8`rah`eaiak.#`U#H`Y#6#6a##u.s`P#V.V.8#4",
"akab#s`Fai.L..#P`#.W`#.W`Dad`U#1#j`Q`6#J.V.8ac.Q`#.W.W.Q.W.Q`#.W.W.W.Q.W.Q.W.Q`#`##Gac.8.Vahai`Qak.6`Uad.Q`m`m.n.W#z.Rab`P#8`e#1",
"ak`Pab.Vai`k.T`D#P#P`w#P#u.H.T.E`2.F`Qai`eah.8.R#P#P`w#u`w#u#P#u#P`w`w#u#u#P#u#P#P.R.8af`eai`Qak.6.E`B#u.W`#.W`##Pad.R`P.`#8ah#1",
"ak#s#s`r`e`k`B#H#z#z#z#z#z#zad`B.K`2.6ak`Q`e.I`6.L#z#z..#z#z#z#z#z#z#z..#z#z#H#z`y`6ah`e`6`Q.##1.5.K#H#u`w#u#u#P#z`B.L`P`P#8`e#1",
"`Qaj#s`Fai#M.T#z#u`D`f#u#u`D#z#z.T.E.d.6ak`Qai.I`6.L`D#z`D`f#u`D#u#z`D#z#z#u#z.L`Q.Iai`Q`Q.F`k.5`B`D#P`w#P#P`w#2#u.T.L.`#V.V.2.d",
".6ab#safai.L.T#i#`#2`8#`#`#`#2`8#u#H`U.d#1.Fak`Q#J`Q.L#2#``8#`#2#`#2#2`8#`#2.L`Q`Z#Wakak#1#h.E.T`8`Y.w`Ya#`Y`Ya##`#H.R`P`P#8.4#1",
"`Qaj#s`Fai.L.T.J#`#`#2.Q.w.w#``8#`#i#z.E.d`2.6akak.8ak`k`8`8#2`8`8`8`8.J`8.L.#aiak#p.6`k.d.E`b`8`Y`Y`Y#`#R`Y`Y.S.w.H.sab.`.Vai.d",
"`Qaj#s`rai`k.T#z#u#z`w#Z.n.G#u`D#u#z.y#H.K`p#k#k.d.d#1.d#0#L.K#L.K.K.K.K.5.d.6`k.d#k#k#k`j.T#z`w#2#P#`.Q.w.Q.w`#`8ad`N`P#V#8`e#1",
"`Qaj`u.V`e`k#L#H.H#H#z`w`##u#H..#z#H#zad.K`R.6.2aiaiai`eai.2.2.2.2.2.2aiai`eaiaiai`Q#1`j#L.H#u#z`f#u#u#u#u#u#u#P#z.T`y.``P#8ah#1",
"`6aj.e.Vai`k#L.Tadad.Tad.T#H#H.T#Had#H.T#L.5#8#yaj.1#o.1aj#oajaj#oajajaj.1ajajajaj`Pah.5.K#z..#H#H#z#z#z#z#z#z#u#H`B#M`P`P#8.I#1",
".2aj#s`F`e#4#X.K.T`B.T.T.T`B.T`B.T`B.T.T#X`Uaj#cah`e`F.V.V.V.V.V.V.V.V.V.V.V.V.Vah#8`P`U#L#H.Tad`b#H#H#H#H#H#H..#H`j.L`P`P.p.4#1",
"`Qaj#safai`k#L.T.T.T.T#H.T.T#H.T.T.T#H.T`j`kab.t.4.I#s#8#s#8#s#8#s#8#s#8#s#8#8#sah`r`P`k.K#H#H#Had#H#H#H..#H#H#z#H#L#M`P.`#8.I#1",
"`Qaj`u.V`e`k#L.T#H.Tad#H.Tad.Tad#H.Tad.T#X`U.V`uab#c`5`5`5`5`5`5`5`5`5`5`5`5`5`5`P#s#8.E.K#H#Had`b#H..#H.H..#H#z#H#L.L.``P#8ah.d",
"ak`P#safai#j.L.L.L.L.R.L`y`N.R.L`y.R.L.L#M.F`Q#J.Vaf.V.V.V.V.V.V.V.V.V.V.V.V.V.V.V`Z.2`k#M.R.L`y.R.R`N.R.R.R.s.R.L.L#j#sab`r`e#k",
"`Q.tab#s#s.``P`Paj.``P`P.`ajab`P.`#o`P`Paj`P`Pab`P`Pabab`Pababab`P`Pabab`Pababab`P`Pab.`#o.``P.`.`#o`P.`.`.``P`P.`#oab`P.`ab.V#1",
"#1.j`F.p.V.j`u#s#8.j`u.P`rah#s.P#8.j`u`u`rah#s`u#8af#s`u#8af#s.P#8ah#s.P#8`I`u.P#8.j`u.e`rah#s.P`rah#s`u`r`I`u`u`r.j#8`u`r#J.V.6",
"``#.#g`p#F###g`p``###E`p#F###E`p#F###E`p#F###E`p#F###E`p``###E`p#F###E`p#F###E`p#F###E`p``###E`p#F###E`p#F###E`p``###E`p#F##.m.B",
"`q#d#w#5`7`O#w#5`7`O#w#5`7#f`v#5`7`O`v`R`7#f`v#5`7`O#w#5`7#f`v#5`7#f`v#5`7#f`v#5`7`O#w#5`7#f`v#5`7#f`v#5`7`O`v`R`7#f`v#5`7#f`v``",
"`a`v#F#.`0#b#F#.`0#b#F#.`0#b#F#.`0#b#F#.`0#b#F#.`0#b#F#.`0#b#F#.`0#b#F#.`0#b#F#.`0#b#F#.`0#b#F#.`0#b#F#.`0#b#F#.`0#b#F#.`0#b#F`d"
};
